ISO-10303-21;
HEADER;
/* Generated by software containing ST-Developer
 * from STEP Tools, Inc. (www.steptools.com) 
 */

FILE_DESCRIPTION(
/* description */ (''),
/* implementation_level */ '2;1');

FILE_NAME(
/* name */ 'arm_part2.step',
/* time_stamp */ '2026-08-31T16:29:52+05:30',
/* author */ (''),
/* organization */ (''),
/* preprocessor_version */ 'ST-DEVELOPER v20.1',
/* originating_system */ 'Autodesk Translation Framework v15.8.0.0',
/* authorisation */ '');

FILE_SCHEMA (('AUTOMOTIVE_DESIGN { 1 0 10303 214 3 1 1 }'));
ENDSEC;

DATA;
#10=MECHANICAL_DESIGN_GEOMETRIC_PRESENTATION_REPRESENTATION('',(#13),#1693);
#11=SHAPE_REPRESENTATION_RELATIONSHIP('SRR','None',#1700,#12);
#12=ADVANCED_BREP_SHAPE_REPRESENTATION('',(#14),#1692);
#13=STYLED_ITEM('',(#1709),#14);
#14=MANIFOLD_SOLID_BREP('Body1',#1031);
#15=ELLIPSE('',#1083,10.6066017177982,7.5);
#16=ELLIPSE('',#1085,10.6066017177982,7.5);
#17=ELLIPSE('',#1086,10.6066017177982,7.5);
#18=ELLIPSE('',#1088,10.6066017177982,7.5);
#19=FACE_BOUND('',#137,.T.);
#20=FACE_BOUND('',#138,.T.);
#21=FACE_BOUND('',#141,.T.);
#22=FACE_BOUND('',#142,.T.);
#23=FACE_BOUND('',#143,.T.);
#24=FACE_BOUND('',#144,.T.);
#25=FACE_BOUND('',#146,.T.);
#26=FACE_BOUND('',#147,.T.);
#27=FACE_BOUND('',#167,.T.);
#28=FACE_BOUND('',#168,.T.);
#29=FACE_BOUND('',#169,.T.);
#30=FACE_BOUND('',#170,.T.);
#31=FACE_BOUND('',#172,.T.);
#32=FACE_BOUND('',#184,.T.);
#33=FACE_BOUND('',#188,.T.);
#34=FACE_BOUND('',#193,.T.);
#35=CIRCLE('',#1050,5.);
#36=CIRCLE('',#1051,5.);
#37=CIRCLE('',#1053,2.);
#38=CIRCLE('',#1054,2.);
#39=CIRCLE('',#1056,2.);
#40=CIRCLE('',#1057,2.);
#41=CIRCLE('',#1059,2.);
#42=CIRCLE('',#1060,2.);
#43=CIRCLE('',#1062,2.);
#44=CIRCLE('',#1063,2.);
#45=CIRCLE('',#1093,20.);
#46=CIRCLE('',#1094,17.);
#47=CIRCLE('',#1098,6.02817697562007);
#48=CIRCLE('',#1099,6.02817697562007);
#49=CIRCLE('',#1102,1.58113885364499);
#50=CIRCLE('',#1103,1.58113885364499);
#51=CIRCLE('',#1106,6.02817697562007);
#52=CIRCLE('',#1107,6.02817697562007);
#53=CIRCLE('',#1110,1.58113905391188);
#54=CIRCLE('',#1111,1.58113905391188);
#55=CIRCLE('',#1114,3.);
#56=CIRCLE('',#1116,3.);
#57=CIRCLE('',#1118,17.);
#58=CIRCLE('',#1123,20.);
#59=CYLINDRICAL_SURFACE('',#1049,5.);
#60=CYLINDRICAL_SURFACE('',#1052,2.);
#61=CYLINDRICAL_SURFACE('',#1055,2.);
#62=CYLINDRICAL_SURFACE('',#1058,2.);
#63=CYLINDRICAL_SURFACE('',#1061,2.);
#64=CYLINDRICAL_SURFACE('',#1084,7.5);
#65=CYLINDRICAL_SURFACE('',#1087,7.5);
#66=CYLINDRICAL_SURFACE('',#1089,7.5);
#67=CYLINDRICAL_SURFACE('',#1097,6.02817697562007);
#68=CYLINDRICAL_SURFACE('',#1101,1.58113885364499);
#69=CYLINDRICAL_SURFACE('',#1105,6.02817697562007);
#70=CYLINDRICAL_SURFACE('',#1109,1.58113905391188);
#71=CYLINDRICAL_SURFACE('',#1115,3.);
#72=CYLINDRICAL_SURFACE('',#1117,17.);
#73=CYLINDRICAL_SURFACE('',#1122,20.);
#74=FACE_OUTER_BOUND('',#126,.T.);
#75=FACE_OUTER_BOUND('',#127,.T.);
#76=FACE_OUTER_BOUND('',#128,.T.);
#77=FACE_OUTER_BOUND('',#129,.T.);
#78=FACE_OUTER_BOUND('',#130,.T.);
#79=FACE_OUTER_BOUND('',#131,.T.);
#80=FACE_OUTER_BOUND('',#132,.T.);
#81=FACE_OUTER_BOUND('',#133,.T.);
#82=FACE_OUTER_BOUND('',#134,.T.);
#83=FACE_OUTER_BOUND('',#135,.T.);
#84=FACE_OUTER_BOUND('',#136,.T.);
#85=FACE_OUTER_BOUND('',#139,.T.);
#86=FACE_OUTER_BOUND('',#140,.T.);
#87=FACE_OUTER_BOUND('',#145,.T.);
#88=FACE_OUTER_BOUND('',#148,.T.);
#89=FACE_OUTER_BOUND('',#149,.T.);
#90=FACE_OUTER_BOUND('',#150,.T.);
#91=FACE_OUTER_BOUND('',#151,.T.);
#92=FACE_OUTER_BOUND('',#152,.T.);
#93=FACE_OUTER_BOUND('',#153,.T.);
#94=FACE_OUTER_BOUND('',#154,.T.);
#95=FACE_OUTER_BOUND('',#155,.T.);
#96=FACE_OUTER_BOUND('',#156,.T.);
#97=FACE_OUTER_BOUND('',#157,.T.);
#98=FACE_OUTER_BOUND('',#158,.T.);
#99=FACE_OUTER_BOUND('',#159,.T.);
#100=FACE_OUTER_BOUND('',#160,.T.);
#101=FACE_OUTER_BOUND('',#161,.T.);
#102=FACE_OUTER_BOUND('',#162,.T.);
#103=FACE_OUTER_BOUND('',#163,.T.);
#104=FACE_OUTER_BOUND('',#164,.T.);
#105=FACE_OUTER_BOUND('',#165,.T.);
#106=FACE_OUTER_BOUND('',#166,.T.);
#107=FACE_OUTER_BOUND('',#171,.T.);
#108=FACE_OUTER_BOUND('',#173,.T.);
#109=FACE_OUTER_BOUND('',#174,.T.);
#110=FACE_OUTER_BOUND('',#175,.T.);
#111=FACE_OUTER_BOUND('',#176,.T.);
#112=FACE_OUTER_BOUND('',#177,.T.);
#113=FACE_OUTER_BOUND('',#178,.T.);
#114=FACE_OUTER_BOUND('',#179,.T.);
#115=FACE_OUTER_BOUND('',#180,.T.);
#116=FACE_OUTER_BOUND('',#181,.T.);
#117=FACE_OUTER_BOUND('',#182,.T.);
#118=FACE_OUTER_BOUND('',#183,.T.);
#119=FACE_OUTER_BOUND('',#185,.T.);
#120=FACE_OUTER_BOUND('',#186,.T.);
#121=FACE_OUTER_BOUND('',#187,.T.);
#122=FACE_OUTER_BOUND('',#189,.T.);
#123=FACE_OUTER_BOUND('',#190,.T.);
#124=FACE_OUTER_BOUND('',#191,.T.);
#125=FACE_OUTER_BOUND('',#192,.T.);
#126=EDGE_LOOP('',(#658,#659,#660,#661));
#127=EDGE_LOOP('',(#662,#663,#664,#665));
#128=EDGE_LOOP('',(#666,#667,#668,#669));
#129=EDGE_LOOP('',(#670,#671,#672,#673));
#130=EDGE_LOOP('',(#674,#675,#676,#677));
#131=EDGE_LOOP('',(#678,#679,#680,#681));
#132=EDGE_LOOP('',(#682,#683,#684,#685));
#133=EDGE_LOOP('',(#686,#687,#688,#689));
#134=EDGE_LOOP('',(#690,#691,#692,#693));
#135=EDGE_LOOP('',(#694,#695,#696,#697));
#136=EDGE_LOOP('',(#698,#699,#700,#701,#702,#703,#704,#705,#706,#707));
#137=EDGE_LOOP('',(#708,#709,#710,#711));
#138=EDGE_LOOP('',(#712));
#139=EDGE_LOOP('',(#713,#714,#715,#716));
#140=EDGE_LOOP('',(#717,#718,#719,#720,#721,#722,#723,#724,#725,#726,#727,
#728));
#141=EDGE_LOOP('',(#729));
#142=EDGE_LOOP('',(#730));
#143=EDGE_LOOP('',(#731));
#144=EDGE_LOOP('',(#732));
#145=EDGE_LOOP('',(#733,#734,#735,#736,#737,#738,#739,#740));
#146=EDGE_LOOP('',(#741,#742,#743,#744));
#147=EDGE_LOOP('',(#745));
#148=EDGE_LOOP('',(#746,#747,#748,#749));
#149=EDGE_LOOP('',(#750,#751,#752,#753));
#150=EDGE_LOOP('',(#754,#755,#756,#757));
#151=EDGE_LOOP('',(#758,#759,#760,#761));
#152=EDGE_LOOP('',(#762,#763,#764,#765));
#153=EDGE_LOOP('',(#766,#767,#768,#769));
#154=EDGE_LOOP('',(#770,#771,#772,#773));
#155=EDGE_LOOP('',(#774,#775,#776,#777));
#156=EDGE_LOOP('',(#778,#779,#780,#781));
#157=EDGE_LOOP('',(#782,#783,#784,#785));
#158=EDGE_LOOP('',(#786,#787,#788,#789));
#159=EDGE_LOOP('',(#790,#791,#792,#793));
#160=EDGE_LOOP('',(#794,#795,#796,#797));
#161=EDGE_LOOP('',(#798,#799,#800,#801,#802,#803,#804,#805,#806));
#162=EDGE_LOOP('',(#807,#808,#809,#810));
#163=EDGE_LOOP('',(#811,#812,#813,#814));
#164=EDGE_LOOP('',(#815,#816,#817,#818));
#165=EDGE_LOOP('',(#819,#820,#821,#822,#823,#824,#825,#826,#827));
#166=EDGE_LOOP('',(#828,#829,#830,#831,#832,#833,#834,#835,#836,#837,#838,
#839,#840,#841));
#167=EDGE_LOOP('',(#842));
#168=EDGE_LOOP('',(#843));
#169=EDGE_LOOP('',(#844));
#170=EDGE_LOOP('',(#845));
#171=EDGE_LOOP('',(#846,#847,#848,#849,#850,#851,#852,#853));
#172=EDGE_LOOP('',(#854));
#173=EDGE_LOOP('',(#855,#856,#857,#858));
#174=EDGE_LOOP('',(#859,#860,#861,#862));
#175=EDGE_LOOP('',(#863,#864,#865,#866));
#176=EDGE_LOOP('',(#867,#868,#869,#870));
#177=EDGE_LOOP('',(#871,#872,#873,#874));
#178=EDGE_LOOP('',(#875,#876,#877,#878));
#179=EDGE_LOOP('',(#879,#880,#881,#882));
#180=EDGE_LOOP('',(#883,#884,#885,#886));
#181=EDGE_LOOP('',(#887,#888,#889,#890));
#182=EDGE_LOOP('',(#891,#892,#893,#894));
#183=EDGE_LOOP('',(#895,#896,#897,#898,#899,#900,#901,#902));
#184=EDGE_LOOP('',(#903));
#185=EDGE_LOOP('',(#904,#905,#906,#907));
#186=EDGE_LOOP('',(#908,#909,#910,#911));
#187=EDGE_LOOP('',(#912));
#188=EDGE_LOOP('',(#913,#914,#915,#916,#917,#918,#919,#920));
#189=EDGE_LOOP('',(#921,#922,#923,#924));
#190=EDGE_LOOP('',(#925,#926,#927,#928));
#191=EDGE_LOOP('',(#929,#930,#931,#932));
#192=EDGE_LOOP('',(#933,#934,#935,#936,#937,#938,#939,#940));
#193=EDGE_LOOP('',(#941));
#194=LINE('',#1405,#308);
#195=LINE('',#1407,#309);
#196=LINE('',#1409,#310);
#197=LINE('',#1410,#311);
#198=LINE('',#1413,#312);
#199=LINE('',#1415,#313);
#200=LINE('',#1416,#314);
#201=LINE('',#1419,#315);
#202=LINE('',#1421,#316);
#203=LINE('',#1422,#317);
#204=LINE('',#1424,#318);
#205=LINE('',#1425,#319);
#206=LINE('',#1430,#320);
#207=LINE('',#1436,#321);
#208=LINE('',#1442,#322);
#209=LINE('',#1448,#323);
#210=LINE('',#1454,#324);
#211=LINE('',#1459,#325);
#212=LINE('',#1461,#326);
#213=LINE('',#1463,#327);
#214=LINE('',#1464,#328);
#215=LINE('',#1467,#329);
#216=LINE('',#1469,#330);
#217=LINE('',#1471,#331);
#218=LINE('',#1473,#332);
#219=LINE('',#1475,#333);
#220=LINE('',#1477,#334);
#221=LINE('',#1479,#335);
#222=LINE('',#1481,#336);
#223=LINE('',#1482,#337);
#224=LINE('',#1485,#338);
#225=LINE('',#1486,#339);
#226=LINE('',#1490,#340);
#227=LINE('',#1492,#341);
#228=LINE('',#1494,#342);
#229=LINE('',#1496,#343);
#230=LINE('',#1498,#344);
#231=LINE('',#1500,#345);
#232=LINE('',#1502,#346);
#233=LINE('',#1504,#347);
#234=LINE('',#1506,#348);
#235=LINE('',#1508,#349);
#236=LINE('',#1510,#350);
#237=LINE('',#1511,#351);
#238=LINE('',#1514,#352);
#239=LINE('',#1516,#353);
#240=LINE('',#1518,#354);
#241=LINE('',#1520,#355);
#242=LINE('',#1522,#356);
#243=LINE('',#1523,#357);
#244=LINE('',#1525,#358);
#245=LINE('',#1526,#359);
#246=LINE('',#1528,#360);
#247=LINE('',#1531,#361);
#248=LINE('',#1533,#362);
#249=LINE('',#1534,#363);
#250=LINE('',#1537,#364);
#251=LINE('',#1538,#365);
#252=LINE('',#1541,#366);
#253=LINE('',#1542,#367);
#254=LINE('',#1545,#368);
#255=LINE('',#1546,#369);
#256=LINE('',#1549,#370);
#257=LINE('',#1550,#371);
#258=LINE('',#1553,#372);
#259=LINE('',#1554,#373);
#260=LINE('',#1557,#374);
#261=LINE('',#1558,#375);
#262=LINE('',#1560,#376);
#263=LINE('',#1563,#377);
#264=LINE('',#1564,#378);
#265=LINE('',#1566,#379);
#266=LINE('',#1569,#380);
#267=LINE('',#1570,#381);
#268=LINE('',#1575,#382);
#269=LINE('',#1576,#383);
#270=LINE('',#1582,#384);
#271=LINE('',#1586,#385);
#272=LINE('',#1588,#386);
#273=LINE('',#1591,#387);
#274=LINE('',#1592,#388);
#275=LINE('',#1595,#389);
#276=LINE('',#1597,#390);
#277=LINE('',#1598,#391);
#278=LINE('',#1601,#392);
#279=LINE('',#1603,#393);
#280=LINE('',#1607,#394);
#281=LINE('',#1608,#395);
#282=LINE('',#1613,#396);
#283=LINE('',#1614,#397);
#284=LINE('',#1617,#398);
#285=LINE('',#1618,#399);
#286=LINE('',#1624,#400);
#287=LINE('',#1627,#401);
#288=LINE('',#1630,#402);
#289=LINE('',#1632,#403);
#290=LINE('',#1633,#404);
#291=LINE('',#1639,#405);
#292=LINE('',#1642,#406);
#293=LINE('',#1644,#407);
#294=LINE('',#1645,#408);
#295=LINE('',#1651,#409);
#296=LINE('',#1654,#410);
#297=LINE('',#1656,#411);
#298=LINE('',#1657,#412);
#299=LINE('',#1662,#413);
#300=LINE('',#1665,#414);
#301=LINE('',#1666,#415);
#302=LINE('',#1672,#416);
#303=LINE('',#1676,#417);
#304=LINE('',#1681,#418);
#305=LINE('',#1682,#419);
#306=LINE('',#1685,#420);
#307=LINE('',#1686,#421);
#308=VECTOR('',#1129,10.);
#309=VECTOR('',#1130,10.);
#310=VECTOR('',#1131,10.);
#311=VECTOR('',#1132,10.);
#312=VECTOR('',#1135,10.);
#313=VECTOR('',#1136,10.);
#314=VECTOR('',#1137,10.);
#315=VECTOR('',#1140,10.);
#316=VECTOR('',#1141,10.);
#317=VECTOR('',#1142,10.);
#318=VECTOR('',#1145,10.);
#319=VECTOR('',#1146,10.);
#320=VECTOR('',#1151,5.);
#321=VECTOR('',#1158,2.);
#322=VECTOR('',#1165,2.);
#323=VECTOR('',#1172,2.);
#324=VECTOR('',#1179,2.);
#325=VECTOR('',#1184,10.);
#326=VECTOR('',#1185,10.);
#327=VECTOR('',#1186,10.);
#328=VECTOR('',#1187,10.);
#329=VECTOR('',#1190,10.);
#330=VECTOR('',#1191,10.);
#331=VECTOR('',#1192,10.);
#332=VECTOR('',#1193,10.);
#333=VECTOR('',#1194,10.);
#334=VECTOR('',#1195,10.);
#335=VECTOR('',#1196,10.);
#336=VECTOR('',#1197,10.);
#337=VECTOR('',#1198,10.);
#338=VECTOR('',#1201,10.);
#339=VECTOR('',#1202,10.);
#340=VECTOR('',#1205,10.);
#341=VECTOR('',#1206,10.);
#342=VECTOR('',#1207,10.);
#343=VECTOR('',#1208,10.);
#344=VECTOR('',#1209,10.);
#345=VECTOR('',#1210,10.);
#346=VECTOR('',#1211,10.);
#347=VECTOR('',#1212,10.);
#348=VECTOR('',#1213,10.);
#349=VECTOR('',#1214,10.);
#350=VECTOR('',#1215,10.);
#351=VECTOR('',#1216,10.);
#352=VECTOR('',#1219,10.);
#353=VECTOR('',#1220,10.);
#354=VECTOR('',#1221,10.);
#355=VECTOR('',#1222,10.);
#356=VECTOR('',#1223,10.);
#357=VECTOR('',#1224,10.);
#358=VECTOR('',#1227,10.);
#359=VECTOR('',#1228,10.);
#360=VECTOR('',#1231,10.);
#361=VECTOR('',#1234,10.);
#362=VECTOR('',#1235,10.);
#363=VECTOR('',#1236,10.);
#364=VECTOR('',#1239,10.);
#365=VECTOR('',#1240,10.);
#366=VECTOR('',#1243,10.);
#367=VECTOR('',#1244,10.);
#368=VECTOR('',#1247,10.);
#369=VECTOR('',#1248,10.);
#370=VECTOR('',#1251,10.);
#371=VECTOR('',#1252,10.);
#372=VECTOR('',#1255,10.);
#373=VECTOR('',#1256,10.);
#374=VECTOR('',#1259,10.);
#375=VECTOR('',#1260,10.);
#376=VECTOR('',#1263,10.);
#377=VECTOR('',#1266,10.);
#378=VECTOR('',#1267,10.);
#379=VECTOR('',#1270,10.);
#380=VECTOR('',#1273,10.);
#381=VECTOR('',#1274,10.);
#382=VECTOR('',#1279,10.);
#383=VECTOR('',#1280,10.);
#384=VECTOR('',#1287,10.);
#385=VECTOR('',#1292,10.);
#386=VECTOR('',#1295,10.);
#387=VECTOR('',#1298,10.);
#388=VECTOR('',#1299,10.);
#389=VECTOR('',#1302,10.);
#390=VECTOR('',#1303,10.);
#391=VECTOR('',#1304,10.);
#392=VECTOR('',#1307,10.);
#393=VECTOR('',#1308,10.);
#394=VECTOR('',#1311,10.);
#395=VECTOR('',#1312,10.);
#396=VECTOR('',#1317,10.);
#397=VECTOR('',#1318,10.);
#398=VECTOR('',#1321,10.);
#399=VECTOR('',#1322,10.);
#400=VECTOR('',#1327,10.);
#401=VECTOR('',#1330,10.);
#402=VECTOR('',#1333,10.);
#403=VECTOR('',#1334,10.);
#404=VECTOR('',#1335,10.);
#405=VECTOR('',#1342,10.);
#406=VECTOR('',#1345,10.);
#407=VECTOR('',#1346,10.);
#408=VECTOR('',#1347,10.);
#409=VECTOR('',#1354,10.);
#410=VECTOR('',#1357,10.);
#411=VECTOR('',#1358,10.);
#412=VECTOR('',#1359,10.);
#413=VECTOR('',#1364,10.);
#414=VECTOR('',#1369,10.);
#415=VECTOR('',#1370,10.);
#416=VECTOR('',#1377,3.);
#417=VECTOR('',#1382,17.);
#418=VECTOR('',#1389,10.);
#419=VECTOR('',#1390,10.);
#420=VECTOR('',#1393,10.);
#421=VECTOR('',#1394,10.);
#422=VERTEX_POINT('',#1403);
#423=VERTEX_POINT('',#1404);
#424=VERTEX_POINT('',#1406);
#425=VERTEX_POINT('',#1408);
#426=VERTEX_POINT('',#1412);
#427=VERTEX_POINT('',#1414);
#428=VERTEX_POINT('',#1418);
#429=VERTEX_POINT('',#1420);
#430=VERTEX_POINT('',#1427);
#431=VERTEX_POINT('',#1429);
#432=VERTEX_POINT('',#1433);
#433=VERTEX_POINT('',#1435);
#434=VERTEX_POINT('',#1439);
#435=VERTEX_POINT('',#1441);
#436=VERTEX_POINT('',#1445);
#437=VERTEX_POINT('',#1447);
#438=VERTEX_POINT('',#1451);
#439=VERTEX_POINT('',#1453);
#440=VERTEX_POINT('',#1457);
#441=VERTEX_POINT('',#1458);
#442=VERTEX_POINT('',#1460);
#443=VERTEX_POINT('',#1462);
#444=VERTEX_POINT('',#1466);
#445=VERTEX_POINT('',#1468);
#446=VERTEX_POINT('',#1470);
#447=VERTEX_POINT('',#1472);
#448=VERTEX_POINT('',#1474);
#449=VERTEX_POINT('',#1476);
#450=VERTEX_POINT('',#1478);
#451=VERTEX_POINT('',#1480);
#452=VERTEX_POINT('',#1484);
#453=VERTEX_POINT('',#1488);
#454=VERTEX_POINT('',#1489);
#455=VERTEX_POINT('',#1491);
#456=VERTEX_POINT('',#1493);
#457=VERTEX_POINT('',#1495);
#458=VERTEX_POINT('',#1497);
#459=VERTEX_POINT('',#1499);
#460=VERTEX_POINT('',#1501);
#461=VERTEX_POINT('',#1503);
#462=VERTEX_POINT('',#1505);
#463=VERTEX_POINT('',#1507);
#464=VERTEX_POINT('',#1509);
#465=VERTEX_POINT('',#1513);
#466=VERTEX_POINT('',#1515);
#467=VERTEX_POINT('',#1517);
#468=VERTEX_POINT('',#1519);
#469=VERTEX_POINT('',#1521);
#470=VERTEX_POINT('',#1530);
#471=VERTEX_POINT('',#1532);
#472=VERTEX_POINT('',#1536);
#473=VERTEX_POINT('',#1540);
#474=VERTEX_POINT('',#1544);
#475=VERTEX_POINT('',#1548);
#476=VERTEX_POINT('',#1552);
#477=VERTEX_POINT('',#1556);
#478=VERTEX_POINT('',#1562);
#479=VERTEX_POINT('',#1568);
#480=VERTEX_POINT('',#1572);
#481=VERTEX_POINT('',#1574);
#482=VERTEX_POINT('',#1578);
#483=VERTEX_POINT('',#1580);
#484=VERTEX_POINT('',#1584);
#485=VERTEX_POINT('',#1590);
#486=VERTEX_POINT('',#1594);
#487=VERTEX_POINT('',#1596);
#488=VERTEX_POINT('',#1600);
#489=VERTEX_POINT('',#1602);
#490=VERTEX_POINT('',#1604);
#491=VERTEX_POINT('',#1606);
#492=VERTEX_POINT('',#1609);
#493=VERTEX_POINT('',#1612);
#494=VERTEX_POINT('',#1616);
#495=VERTEX_POINT('',#1620);
#496=VERTEX_POINT('',#1621);
#497=VERTEX_POINT('',#1623);
#498=VERTEX_POINT('',#1625);
#499=VERTEX_POINT('',#1629);
#500=VERTEX_POINT('',#1631);
#501=VERTEX_POINT('',#1635);
#502=VERTEX_POINT('',#1637);
#503=VERTEX_POINT('',#1641);
#504=VERTEX_POINT('',#1643);
#505=VERTEX_POINT('',#1647);
#506=VERTEX_POINT('',#1649);
#507=VERTEX_POINT('',#1653);
#508=VERTEX_POINT('',#1655);
#509=VERTEX_POINT('',#1659);
#510=VERTEX_POINT('',#1661);
#511=VERTEX_POINT('',#1668);
#512=VERTEX_POINT('',#1671);
#513=VERTEX_POINT('',#1675);
#514=VERTEX_POINT('',#1680);
#515=VERTEX_POINT('',#1684);
#516=EDGE_CURVE('',#422,#423,#194,.T.);
#517=EDGE_CURVE('',#424,#422,#195,.T.);
#518=EDGE_CURVE('',#425,#424,#196,.T.);
#519=EDGE_CURVE('',#425,#423,#197,.T.);
#520=EDGE_CURVE('',#423,#426,#198,.T.);
#521=EDGE_CURVE('',#427,#425,#199,.T.);
#522=EDGE_CURVE('',#427,#426,#200,.T.);
#523=EDGE_CURVE('',#426,#428,#201,.T.);
#524=EDGE_CURVE('',#429,#427,#202,.T.);
#525=EDGE_CURVE('',#429,#428,#203,.T.);
#526=EDGE_CURVE('',#428,#422,#204,.T.);
#527=EDGE_CURVE('',#424,#429,#205,.T.);
#528=EDGE_CURVE('',#430,#430,#35,.T.);
#529=EDGE_CURVE('',#430,#431,#206,.T.);
#530=EDGE_CURVE('',#431,#431,#36,.T.);
#531=EDGE_CURVE('',#432,#432,#37,.T.);
#532=EDGE_CURVE('',#432,#433,#207,.T.);
#533=EDGE_CURVE('',#433,#433,#38,.T.);
#534=EDGE_CURVE('',#434,#434,#39,.T.);
#535=EDGE_CURVE('',#434,#435,#208,.T.);
#536=EDGE_CURVE('',#435,#435,#40,.T.);
#537=EDGE_CURVE('',#436,#436,#41,.T.);
#538=EDGE_CURVE('',#436,#437,#209,.T.);
#539=EDGE_CURVE('',#437,#437,#42,.T.);
#540=EDGE_CURVE('',#438,#438,#43,.T.);
#541=EDGE_CURVE('',#438,#439,#210,.T.);
#542=EDGE_CURVE('',#439,#439,#44,.T.);
#543=EDGE_CURVE('',#440,#441,#211,.T.);
#544=EDGE_CURVE('',#442,#440,#212,.T.);
#545=EDGE_CURVE('',#443,#442,#213,.T.);
#546=EDGE_CURVE('',#441,#443,#214,.T.);
#547=EDGE_CURVE('',#444,#443,#215,.T.);
#548=EDGE_CURVE('',#445,#444,#216,.T.);
#549=EDGE_CURVE('',#446,#445,#217,.T.);
#550=EDGE_CURVE('',#447,#446,#218,.T.);
#551=EDGE_CURVE('',#448,#447,#219,.T.);
#552=EDGE_CURVE('',#449,#448,#220,.T.);
#553=EDGE_CURVE('',#450,#449,#221,.T.);
#554=EDGE_CURVE('',#451,#450,#222,.T.);
#555=EDGE_CURVE('',#441,#451,#223,.T.);
#556=EDGE_CURVE('',#442,#452,#224,.T.);
#557=EDGE_CURVE('',#444,#452,#225,.T.);
#558=EDGE_CURVE('',#453,#454,#226,.T.);
#559=EDGE_CURVE('',#453,#455,#227,.T.);
#560=EDGE_CURVE('',#456,#455,#228,.T.);
#561=EDGE_CURVE('',#457,#456,#229,.T.);
#562=EDGE_CURVE('',#458,#457,#230,.T.);
#563=EDGE_CURVE('',#459,#458,#231,.T.);
#564=EDGE_CURVE('',#460,#459,#232,.T.);
#565=EDGE_CURVE('',#461,#460,#233,.T.);
#566=EDGE_CURVE('',#462,#461,#234,.T.);
#567=EDGE_CURVE('',#463,#462,#235,.T.);
#568=EDGE_CURVE('',#464,#463,#236,.T.);
#569=EDGE_CURVE('',#454,#464,#237,.T.);
#570=EDGE_CURVE('',#465,#440,#238,.T.);
#571=EDGE_CURVE('',#466,#465,#239,.T.);
#572=EDGE_CURVE('',#467,#466,#240,.T.);
#573=EDGE_CURVE('',#467,#468,#241,.T.);
#574=EDGE_CURVE('',#469,#468,#242,.T.);
#575=EDGE_CURVE('',#452,#469,#243,.T.);
#576=EDGE_CURVE('',#468,#453,#244,.T.);
#577=EDGE_CURVE('',#455,#467,#245,.T.);
#578=EDGE_CURVE('',#445,#469,#246,.T.);
#579=EDGE_CURVE('',#464,#470,#247,.T.);
#580=EDGE_CURVE('',#471,#470,#248,.T.);
#581=EDGE_CURVE('',#454,#471,#249,.T.);
#582=EDGE_CURVE('',#463,#472,#250,.T.);
#583=EDGE_CURVE('',#470,#472,#251,.T.);
#584=EDGE_CURVE('',#462,#473,#252,.T.);
#585=EDGE_CURVE('',#472,#473,#253,.T.);
#586=EDGE_CURVE('',#461,#474,#254,.T.);
#587=EDGE_CURVE('',#473,#474,#255,.T.);
#588=EDGE_CURVE('',#460,#475,#256,.T.);
#589=EDGE_CURVE('',#474,#475,#257,.T.);
#590=EDGE_CURVE('',#459,#476,#258,.T.);
#591=EDGE_CURVE('',#475,#476,#259,.T.);
#592=EDGE_CURVE('',#458,#477,#260,.T.);
#593=EDGE_CURVE('',#476,#477,#261,.T.);
#594=EDGE_CURVE('',#451,#465,#262,.T.);
#595=EDGE_CURVE('',#457,#478,#263,.T.);
#596=EDGE_CURVE('',#477,#478,#264,.T.);
#597=EDGE_CURVE('',#450,#466,#265,.T.);
#598=EDGE_CURVE('',#456,#479,#266,.T.);
#599=EDGE_CURVE('',#478,#479,#267,.T.);
#600=EDGE_CURVE('',#480,#449,#15,.T.);
#601=EDGE_CURVE('',#481,#480,#268,.T.);
#602=EDGE_CURVE('',#479,#481,#269,.T.);
#603=EDGE_CURVE('',#482,#448,#16,.T.);
#604=EDGE_CURVE('',#447,#483,#17,.T.);
#605=EDGE_CURVE('',#483,#482,#270,.T.);
#606=EDGE_CURVE('',#446,#484,#18,.T.);
#607=EDGE_CURVE('',#484,#483,#271,.T.);
#608=EDGE_CURVE('',#482,#480,#272,.T.);
#609=EDGE_CURVE('',#485,#471,#273,.T.);
#610=EDGE_CURVE('',#484,#485,#274,.T.);
#611=EDGE_CURVE('',#485,#486,#275,.T.);
#612=EDGE_CURVE('',#487,#481,#276,.T.);
#613=EDGE_CURVE('',#486,#487,#277,.T.);
#614=EDGE_CURVE('',#482,#488,#278,.T.);
#615=EDGE_CURVE('',#488,#489,#279,.T.);
#616=EDGE_CURVE('',#490,#489,#45,.T.);
#617=EDGE_CURVE('',#490,#491,#280,.T.);
#618=EDGE_CURVE('',#491,#487,#281,.T.);
#619=EDGE_CURVE('',#492,#492,#46,.T.);
#620=EDGE_CURVE('',#493,#483,#282,.T.);
#621=EDGE_CURVE('',#488,#493,#283,.T.);
#622=EDGE_CURVE('',#491,#494,#284,.T.);
#623=EDGE_CURVE('',#486,#494,#285,.T.);
#624=EDGE_CURVE('',#495,#496,#47,.T.);
#625=EDGE_CURVE('',#495,#497,#286,.T.);
#626=EDGE_CURVE('',#497,#498,#48,.T.);
#627=EDGE_CURVE('',#496,#498,#287,.T.);
#628=EDGE_CURVE('',#496,#499,#288,.T.);
#629=EDGE_CURVE('',#498,#500,#289,.T.);
#630=EDGE_CURVE('',#499,#500,#290,.T.);
#631=EDGE_CURVE('',#499,#501,#49,.T.);
#632=EDGE_CURVE('',#500,#502,#50,.T.);
#633=EDGE_CURVE('',#501,#502,#291,.T.);
#634=EDGE_CURVE('',#501,#503,#292,.T.);
#635=EDGE_CURVE('',#502,#504,#293,.T.);
#636=EDGE_CURVE('',#503,#504,#294,.T.);
#637=EDGE_CURVE('',#503,#505,#51,.T.);
#638=EDGE_CURVE('',#504,#506,#52,.T.);
#639=EDGE_CURVE('',#505,#506,#295,.T.);
#640=EDGE_CURVE('',#507,#495,#296,.T.);
#641=EDGE_CURVE('',#507,#508,#297,.T.);
#642=EDGE_CURVE('',#508,#497,#298,.T.);
#643=EDGE_CURVE('',#509,#507,#53,.T.);
#644=EDGE_CURVE('',#509,#510,#299,.T.);
#645=EDGE_CURVE('',#510,#508,#54,.T.);
#646=EDGE_CURVE('',#505,#509,#300,.T.);
#647=EDGE_CURVE('',#506,#510,#301,.T.);
#648=EDGE_CURVE('',#511,#511,#55,.T.);
#649=EDGE_CURVE('',#511,#512,#302,.T.);
#650=EDGE_CURVE('',#512,#512,#56,.T.);
#651=EDGE_CURVE('',#492,#513,#303,.T.);
#652=EDGE_CURVE('',#513,#513,#57,.T.);
#653=EDGE_CURVE('',#490,#514,#304,.T.);
#654=EDGE_CURVE('',#494,#514,#305,.T.);
#655=EDGE_CURVE('',#515,#493,#306,.T.);
#656=EDGE_CURVE('',#489,#515,#307,.T.);
#657=EDGE_CURVE('',#514,#515,#58,.T.);
#658=ORIENTED_EDGE('',*,*,#516,.F.);
#659=ORIENTED_EDGE('',*,*,#517,.F.);
#660=ORIENTED_EDGE('',*,*,#518,.F.);
#661=ORIENTED_EDGE('',*,*,#519,.T.);
#662=ORIENTED_EDGE('',*,*,#520,.F.);
#663=ORIENTED_EDGE('',*,*,#519,.F.);
#664=ORIENTED_EDGE('',*,*,#521,.F.);
#665=ORIENTED_EDGE('',*,*,#522,.T.);
#666=ORIENTED_EDGE('',*,*,#523,.F.);
#667=ORIENTED_EDGE('',*,*,#522,.F.);
#668=ORIENTED_EDGE('',*,*,#524,.F.);
#669=ORIENTED_EDGE('',*,*,#525,.T.);
#670=ORIENTED_EDGE('',*,*,#526,.F.);
#671=ORIENTED_EDGE('',*,*,#525,.F.);
#672=ORIENTED_EDGE('',*,*,#527,.F.);
#673=ORIENTED_EDGE('',*,*,#517,.T.);
#674=ORIENTED_EDGE('',*,*,#528,.F.);
#675=ORIENTED_EDGE('',*,*,#529,.T.);
#676=ORIENTED_EDGE('',*,*,#530,.F.);
#677=ORIENTED_EDGE('',*,*,#529,.F.);
#678=ORIENTED_EDGE('',*,*,#531,.F.);
#679=ORIENTED_EDGE('',*,*,#532,.T.);
#680=ORIENTED_EDGE('',*,*,#533,.F.);
#681=ORIENTED_EDGE('',*,*,#532,.F.);
#682=ORIENTED_EDGE('',*,*,#534,.F.);
#683=ORIENTED_EDGE('',*,*,#535,.T.);
#684=ORIENTED_EDGE('',*,*,#536,.F.);
#685=ORIENTED_EDGE('',*,*,#535,.F.);
#686=ORIENTED_EDGE('',*,*,#537,.F.);
#687=ORIENTED_EDGE('',*,*,#538,.T.);
#688=ORIENTED_EDGE('',*,*,#539,.F.);
#689=ORIENTED_EDGE('',*,*,#538,.F.);
#690=ORIENTED_EDGE('',*,*,#540,.F.);
#691=ORIENTED_EDGE('',*,*,#541,.T.);
#692=ORIENTED_EDGE('',*,*,#542,.F.);
#693=ORIENTED_EDGE('',*,*,#541,.F.);
#694=ORIENTED_EDGE('',*,*,#543,.F.);
#695=ORIENTED_EDGE('',*,*,#544,.F.);
#696=ORIENTED_EDGE('',*,*,#545,.F.);
#697=ORIENTED_EDGE('',*,*,#546,.F.);
#698=ORIENTED_EDGE('',*,*,#546,.T.);
#699=ORIENTED_EDGE('',*,*,#547,.F.);
#700=ORIENTED_EDGE('',*,*,#548,.F.);
#701=ORIENTED_EDGE('',*,*,#549,.F.);
#702=ORIENTED_EDGE('',*,*,#550,.F.);
#703=ORIENTED_EDGE('',*,*,#551,.F.);
#704=ORIENTED_EDGE('',*,*,#552,.F.);
#705=ORIENTED_EDGE('',*,*,#553,.F.);
#706=ORIENTED_EDGE('',*,*,#554,.F.);
#707=ORIENTED_EDGE('',*,*,#555,.F.);
#708=ORIENTED_EDGE('',*,*,#524,.T.);
#709=ORIENTED_EDGE('',*,*,#521,.T.);
#710=ORIENTED_EDGE('',*,*,#518,.T.);
#711=ORIENTED_EDGE('',*,*,#527,.T.);
#712=ORIENTED_EDGE('',*,*,#528,.T.);
#713=ORIENTED_EDGE('',*,*,#545,.T.);
#714=ORIENTED_EDGE('',*,*,#556,.T.);
#715=ORIENTED_EDGE('',*,*,#557,.F.);
#716=ORIENTED_EDGE('',*,*,#547,.T.);
#717=ORIENTED_EDGE('',*,*,#558,.F.);
#718=ORIENTED_EDGE('',*,*,#559,.T.);
#719=ORIENTED_EDGE('',*,*,#560,.F.);
#720=ORIENTED_EDGE('',*,*,#561,.F.);
#721=ORIENTED_EDGE('',*,*,#562,.F.);
#722=ORIENTED_EDGE('',*,*,#563,.F.);
#723=ORIENTED_EDGE('',*,*,#564,.F.);
#724=ORIENTED_EDGE('',*,*,#565,.F.);
#725=ORIENTED_EDGE('',*,*,#566,.F.);
#726=ORIENTED_EDGE('',*,*,#567,.F.);
#727=ORIENTED_EDGE('',*,*,#568,.F.);
#728=ORIENTED_EDGE('',*,*,#569,.F.);
#729=ORIENTED_EDGE('',*,*,#531,.T.);
#730=ORIENTED_EDGE('',*,*,#534,.T.);
#731=ORIENTED_EDGE('',*,*,#537,.T.);
#732=ORIENTED_EDGE('',*,*,#540,.T.);
#733=ORIENTED_EDGE('',*,*,#544,.T.);
#734=ORIENTED_EDGE('',*,*,#570,.F.);
#735=ORIENTED_EDGE('',*,*,#571,.F.);
#736=ORIENTED_EDGE('',*,*,#572,.F.);
#737=ORIENTED_EDGE('',*,*,#573,.T.);
#738=ORIENTED_EDGE('',*,*,#574,.F.);
#739=ORIENTED_EDGE('',*,*,#575,.F.);
#740=ORIENTED_EDGE('',*,*,#556,.F.);
#741=ORIENTED_EDGE('',*,*,#523,.T.);
#742=ORIENTED_EDGE('',*,*,#526,.T.);
#743=ORIENTED_EDGE('',*,*,#516,.T.);
#744=ORIENTED_EDGE('',*,*,#520,.T.);
#745=ORIENTED_EDGE('',*,*,#530,.T.);
#746=ORIENTED_EDGE('',*,*,#576,.F.);
#747=ORIENTED_EDGE('',*,*,#573,.F.);
#748=ORIENTED_EDGE('',*,*,#577,.F.);
#749=ORIENTED_EDGE('',*,*,#559,.F.);
#750=ORIENTED_EDGE('',*,*,#575,.T.);
#751=ORIENTED_EDGE('',*,*,#578,.F.);
#752=ORIENTED_EDGE('',*,*,#548,.T.);
#753=ORIENTED_EDGE('',*,*,#557,.T.);
#754=ORIENTED_EDGE('',*,*,#569,.T.);
#755=ORIENTED_EDGE('',*,*,#579,.T.);
#756=ORIENTED_EDGE('',*,*,#580,.F.);
#757=ORIENTED_EDGE('',*,*,#581,.F.);
#758=ORIENTED_EDGE('',*,*,#568,.T.);
#759=ORIENTED_EDGE('',*,*,#582,.T.);
#760=ORIENTED_EDGE('',*,*,#583,.F.);
#761=ORIENTED_EDGE('',*,*,#579,.F.);
#762=ORIENTED_EDGE('',*,*,#567,.T.);
#763=ORIENTED_EDGE('',*,*,#584,.T.);
#764=ORIENTED_EDGE('',*,*,#585,.F.);
#765=ORIENTED_EDGE('',*,*,#582,.F.);
#766=ORIENTED_EDGE('',*,*,#566,.T.);
#767=ORIENTED_EDGE('',*,*,#586,.T.);
#768=ORIENTED_EDGE('',*,*,#587,.F.);
#769=ORIENTED_EDGE('',*,*,#584,.F.);
#770=ORIENTED_EDGE('',*,*,#565,.T.);
#771=ORIENTED_EDGE('',*,*,#588,.T.);
#772=ORIENTED_EDGE('',*,*,#589,.F.);
#773=ORIENTED_EDGE('',*,*,#586,.F.);
#774=ORIENTED_EDGE('',*,*,#564,.T.);
#775=ORIENTED_EDGE('',*,*,#590,.T.);
#776=ORIENTED_EDGE('',*,*,#591,.F.);
#777=ORIENTED_EDGE('',*,*,#588,.F.);
#778=ORIENTED_EDGE('',*,*,#563,.T.);
#779=ORIENTED_EDGE('',*,*,#592,.T.);
#780=ORIENTED_EDGE('',*,*,#593,.F.);
#781=ORIENTED_EDGE('',*,*,#590,.F.);
#782=ORIENTED_EDGE('',*,*,#543,.T.);
#783=ORIENTED_EDGE('',*,*,#555,.T.);
#784=ORIENTED_EDGE('',*,*,#594,.T.);
#785=ORIENTED_EDGE('',*,*,#570,.T.);
#786=ORIENTED_EDGE('',*,*,#562,.T.);
#787=ORIENTED_EDGE('',*,*,#595,.T.);
#788=ORIENTED_EDGE('',*,*,#596,.F.);
#789=ORIENTED_EDGE('',*,*,#592,.F.);
#790=ORIENTED_EDGE('',*,*,#571,.T.);
#791=ORIENTED_EDGE('',*,*,#594,.F.);
#792=ORIENTED_EDGE('',*,*,#554,.T.);
#793=ORIENTED_EDGE('',*,*,#597,.T.);
#794=ORIENTED_EDGE('',*,*,#561,.T.);
#795=ORIENTED_EDGE('',*,*,#598,.T.);
#796=ORIENTED_EDGE('',*,*,#599,.F.);
#797=ORIENTED_EDGE('',*,*,#595,.F.);
#798=ORIENTED_EDGE('',*,*,#560,.T.);
#799=ORIENTED_EDGE('',*,*,#577,.T.);
#800=ORIENTED_EDGE('',*,*,#572,.T.);
#801=ORIENTED_EDGE('',*,*,#597,.F.);
#802=ORIENTED_EDGE('',*,*,#553,.T.);
#803=ORIENTED_EDGE('',*,*,#600,.F.);
#804=ORIENTED_EDGE('',*,*,#601,.F.);
#805=ORIENTED_EDGE('',*,*,#602,.F.);
#806=ORIENTED_EDGE('',*,*,#598,.F.);
#807=ORIENTED_EDGE('',*,*,#603,.T.);
#808=ORIENTED_EDGE('',*,*,#551,.T.);
#809=ORIENTED_EDGE('',*,*,#604,.T.);
#810=ORIENTED_EDGE('',*,*,#605,.T.);
#811=ORIENTED_EDGE('',*,*,#550,.T.);
#812=ORIENTED_EDGE('',*,*,#606,.T.);
#813=ORIENTED_EDGE('',*,*,#607,.T.);
#814=ORIENTED_EDGE('',*,*,#604,.F.);
#815=ORIENTED_EDGE('',*,*,#600,.T.);
#816=ORIENTED_EDGE('',*,*,#552,.T.);
#817=ORIENTED_EDGE('',*,*,#603,.F.);
#818=ORIENTED_EDGE('',*,*,#608,.T.);
#819=ORIENTED_EDGE('',*,*,#558,.T.);
#820=ORIENTED_EDGE('',*,*,#581,.T.);
#821=ORIENTED_EDGE('',*,*,#609,.F.);
#822=ORIENTED_EDGE('',*,*,#610,.F.);
#823=ORIENTED_EDGE('',*,*,#606,.F.);
#824=ORIENTED_EDGE('',*,*,#549,.T.);
#825=ORIENTED_EDGE('',*,*,#578,.T.);
#826=ORIENTED_EDGE('',*,*,#574,.T.);
#827=ORIENTED_EDGE('',*,*,#576,.T.);
#828=ORIENTED_EDGE('',*,*,#611,.F.);
#829=ORIENTED_EDGE('',*,*,#609,.T.);
#830=ORIENTED_EDGE('',*,*,#580,.T.);
#831=ORIENTED_EDGE('',*,*,#583,.T.);
#832=ORIENTED_EDGE('',*,*,#585,.T.);
#833=ORIENTED_EDGE('',*,*,#587,.T.);
#834=ORIENTED_EDGE('',*,*,#589,.T.);
#835=ORIENTED_EDGE('',*,*,#591,.T.);
#836=ORIENTED_EDGE('',*,*,#593,.T.);
#837=ORIENTED_EDGE('',*,*,#596,.T.);
#838=ORIENTED_EDGE('',*,*,#599,.T.);
#839=ORIENTED_EDGE('',*,*,#602,.T.);
#840=ORIENTED_EDGE('',*,*,#612,.F.);
#841=ORIENTED_EDGE('',*,*,#613,.F.);
#842=ORIENTED_EDGE('',*,*,#533,.T.);
#843=ORIENTED_EDGE('',*,*,#536,.T.);
#844=ORIENTED_EDGE('',*,*,#539,.T.);
#845=ORIENTED_EDGE('',*,*,#542,.T.);
#846=ORIENTED_EDGE('',*,*,#608,.F.);
#847=ORIENTED_EDGE('',*,*,#614,.T.);
#848=ORIENTED_EDGE('',*,*,#615,.T.);
#849=ORIENTED_EDGE('',*,*,#616,.F.);
#850=ORIENTED_EDGE('',*,*,#617,.T.);
#851=ORIENTED_EDGE('',*,*,#618,.T.);
#852=ORIENTED_EDGE('',*,*,#612,.T.);
#853=ORIENTED_EDGE('',*,*,#601,.T.);
#854=ORIENTED_EDGE('',*,*,#619,.T.);
#855=ORIENTED_EDGE('',*,*,#605,.F.);
#856=ORIENTED_EDGE('',*,*,#620,.F.);
#857=ORIENTED_EDGE('',*,*,#621,.F.);
#858=ORIENTED_EDGE('',*,*,#614,.F.);
#859=ORIENTED_EDGE('',*,*,#613,.T.);
#860=ORIENTED_EDGE('',*,*,#618,.F.);
#861=ORIENTED_EDGE('',*,*,#622,.T.);
#862=ORIENTED_EDGE('',*,*,#623,.F.);
#863=ORIENTED_EDGE('',*,*,#624,.F.);
#864=ORIENTED_EDGE('',*,*,#625,.T.);
#865=ORIENTED_EDGE('',*,*,#626,.T.);
#866=ORIENTED_EDGE('',*,*,#627,.F.);
#867=ORIENTED_EDGE('',*,*,#628,.F.);
#868=ORIENTED_EDGE('',*,*,#627,.T.);
#869=ORIENTED_EDGE('',*,*,#629,.T.);
#870=ORIENTED_EDGE('',*,*,#630,.F.);
#871=ORIENTED_EDGE('',*,*,#631,.F.);
#872=ORIENTED_EDGE('',*,*,#630,.T.);
#873=ORIENTED_EDGE('',*,*,#632,.T.);
#874=ORIENTED_EDGE('',*,*,#633,.F.);
#875=ORIENTED_EDGE('',*,*,#634,.F.);
#876=ORIENTED_EDGE('',*,*,#633,.T.);
#877=ORIENTED_EDGE('',*,*,#635,.T.);
#878=ORIENTED_EDGE('',*,*,#636,.F.);
#879=ORIENTED_EDGE('',*,*,#637,.F.);
#880=ORIENTED_EDGE('',*,*,#636,.T.);
#881=ORIENTED_EDGE('',*,*,#638,.T.);
#882=ORIENTED_EDGE('',*,*,#639,.F.);
#883=ORIENTED_EDGE('',*,*,#640,.F.);
#884=ORIENTED_EDGE('',*,*,#641,.T.);
#885=ORIENTED_EDGE('',*,*,#642,.T.);
#886=ORIENTED_EDGE('',*,*,#625,.F.);
#887=ORIENTED_EDGE('',*,*,#643,.F.);
#888=ORIENTED_EDGE('',*,*,#644,.T.);
#889=ORIENTED_EDGE('',*,*,#645,.T.);
#890=ORIENTED_EDGE('',*,*,#641,.F.);
#891=ORIENTED_EDGE('',*,*,#646,.F.);
#892=ORIENTED_EDGE('',*,*,#639,.T.);
#893=ORIENTED_EDGE('',*,*,#647,.T.);
#894=ORIENTED_EDGE('',*,*,#644,.F.);
#895=ORIENTED_EDGE('',*,*,#647,.F.);
#896=ORIENTED_EDGE('',*,*,#638,.F.);
#897=ORIENTED_EDGE('',*,*,#635,.F.);
#898=ORIENTED_EDGE('',*,*,#632,.F.);
#899=ORIENTED_EDGE('',*,*,#629,.F.);
#900=ORIENTED_EDGE('',*,*,#626,.F.);
#901=ORIENTED_EDGE('',*,*,#642,.F.);
#902=ORIENTED_EDGE('',*,*,#645,.F.);
#903=ORIENTED_EDGE('',*,*,#648,.F.);
#904=ORIENTED_EDGE('',*,*,#648,.T.);
#905=ORIENTED_EDGE('',*,*,#649,.T.);
#906=ORIENTED_EDGE('',*,*,#650,.F.);
#907=ORIENTED_EDGE('',*,*,#649,.F.);
#908=ORIENTED_EDGE('',*,*,#619,.F.);
#909=ORIENTED_EDGE('',*,*,#651,.T.);
#910=ORIENTED_EDGE('',*,*,#652,.T.);
#911=ORIENTED_EDGE('',*,*,#651,.F.);
#912=ORIENTED_EDGE('',*,*,#652,.F.);
#913=ORIENTED_EDGE('',*,*,#637,.T.);
#914=ORIENTED_EDGE('',*,*,#646,.T.);
#915=ORIENTED_EDGE('',*,*,#643,.T.);
#916=ORIENTED_EDGE('',*,*,#640,.T.);
#917=ORIENTED_EDGE('',*,*,#624,.T.);
#918=ORIENTED_EDGE('',*,*,#628,.T.);
#919=ORIENTED_EDGE('',*,*,#631,.T.);
#920=ORIENTED_EDGE('',*,*,#634,.T.);
#921=ORIENTED_EDGE('',*,*,#617,.F.);
#922=ORIENTED_EDGE('',*,*,#653,.T.);
#923=ORIENTED_EDGE('',*,*,#654,.F.);
#924=ORIENTED_EDGE('',*,*,#622,.F.);
#925=ORIENTED_EDGE('',*,*,#615,.F.);
#926=ORIENTED_EDGE('',*,*,#621,.T.);
#927=ORIENTED_EDGE('',*,*,#655,.F.);
#928=ORIENTED_EDGE('',*,*,#656,.F.);
#929=ORIENTED_EDGE('',*,*,#616,.T.);
#930=ORIENTED_EDGE('',*,*,#656,.T.);
#931=ORIENTED_EDGE('',*,*,#657,.F.);
#932=ORIENTED_EDGE('',*,*,#653,.F.);
#933=ORIENTED_EDGE('',*,*,#610,.T.);
#934=ORIENTED_EDGE('',*,*,#611,.T.);
#935=ORIENTED_EDGE('',*,*,#623,.T.);
#936=ORIENTED_EDGE('',*,*,#654,.T.);
#937=ORIENTED_EDGE('',*,*,#657,.T.);
#938=ORIENTED_EDGE('',*,*,#655,.T.);
#939=ORIENTED_EDGE('',*,*,#620,.T.);
#940=ORIENTED_EDGE('',*,*,#607,.F.);
#941=ORIENTED_EDGE('',*,*,#650,.T.);
#942=PLANE('',#1045);
#943=PLANE('',#1046);
#944=PLANE('',#1047);
#945=PLANE('',#1048);
#946=PLANE('',#1064);
#947=PLANE('',#1065);
#948=PLANE('',#1066);
#949=PLANE('',#1067);
#950=PLANE('',#1068);
#951=PLANE('',#1069);
#952=PLANE('',#1070);
#953=PLANE('',#1071);
#954=PLANE('',#1072);
#955=PLANE('',#1073);
#956=PLANE('',#1074);
#957=PLANE('',#1075);
#958=PLANE('',#1076);
#959=PLANE('',#1077);
#960=PLANE('',#1078);
#961=PLANE('',#1079);
#962=PLANE('',#1080);
#963=PLANE('',#1081);
#964=PLANE('',#1082);
#965=PLANE('',#1090);
#966=PLANE('',#1091);
#967=PLANE('',#1092);
#968=PLANE('',#1095);
#969=PLANE('',#1096);
#970=PLANE('',#1100);
#971=PLANE('',#1104);
#972=PLANE('',#1108);
#973=PLANE('',#1112);
#974=PLANE('',#1113);
#975=PLANE('',#1119);
#976=PLANE('',#1120);
#977=PLANE('',#1121);
#978=PLANE('',#1124);
#979=ADVANCED_FACE('',(#74),#942,.F.);
#980=ADVANCED_FACE('',(#75),#943,.F.);
#981=ADVANCED_FACE('',(#76),#944,.F.);
#982=ADVANCED_FACE('',(#77),#945,.F.);
#983=ADVANCED_FACE('',(#78),#59,.F.);
#984=ADVANCED_FACE('',(#79),#60,.F.);
#985=ADVANCED_FACE('',(#80),#61,.F.);
#986=ADVANCED_FACE('',(#81),#62,.F.);
#987=ADVANCED_FACE('',(#82),#63,.F.);
#988=ADVANCED_FACE('',(#83),#946,.F.);
#989=ADVANCED_FACE('',(#84,#19,#20),#947,.F.);
#990=ADVANCED_FACE('',(#85),#948,.T.);
#991=ADVANCED_FACE('',(#86,#21,#22,#23,#24),#949,.F.);
#992=ADVANCED_FACE('',(#87,#25,#26),#950,.F.);
#993=ADVANCED_FACE('',(#88),#951,.F.);
#994=ADVANCED_FACE('',(#89),#952,.T.);
#995=ADVANCED_FACE('',(#90),#953,.T.);
#996=ADVANCED_FACE('',(#91),#954,.T.);
#997=ADVANCED_FACE('',(#92),#955,.T.);
#998=ADVANCED_FACE('',(#93),#956,.T.);
#999=ADVANCED_FACE('',(#94),#957,.T.);
#1000=ADVANCED_FACE('',(#95),#958,.T.);
#1001=ADVANCED_FACE('',(#96),#959,.T.);
#1002=ADVANCED_FACE('',(#97),#960,.T.);
#1003=ADVANCED_FACE('',(#98),#961,.T.);
#1004=ADVANCED_FACE('',(#99),#962,.T.);
#1005=ADVANCED_FACE('',(#100),#963,.T.);
#1006=ADVANCED_FACE('',(#101),#964,.T.);
#1007=ADVANCED_FACE('',(#102),#64,.F.);
#1008=ADVANCED_FACE('',(#103),#65,.F.);
#1009=ADVANCED_FACE('',(#104),#66,.F.);
#1010=ADVANCED_FACE('',(#105),#965,.T.);
#1011=ADVANCED_FACE('',(#106,#27,#28,#29,#30),#966,.T.);
#1012=ADVANCED_FACE('',(#107,#31),#967,.F.);
#1013=ADVANCED_FACE('',(#108),#968,.T.);
#1014=ADVANCED_FACE('',(#109),#969,.T.);
#1015=ADVANCED_FACE('',(#110),#67,.F.);
#1016=ADVANCED_FACE('',(#111),#970,.F.);
#1017=ADVANCED_FACE('',(#112),#68,.F.);
#1018=ADVANCED_FACE('',(#113),#971,.F.);
#1019=ADVANCED_FACE('',(#114),#69,.F.);
#1020=ADVANCED_FACE('',(#115),#972,.F.);
#1021=ADVANCED_FACE('',(#116),#70,.F.);
#1022=ADVANCED_FACE('',(#117),#973,.F.);
#1023=ADVANCED_FACE('',(#118,#32),#974,.F.);
#1024=ADVANCED_FACE('',(#119),#71,.F.);
#1025=ADVANCED_FACE('',(#120),#72,.F.);
#1026=ADVANCED_FACE('',(#121,#33),#975,.F.);
#1027=ADVANCED_FACE('',(#122),#976,.T.);
#1028=ADVANCED_FACE('',(#123),#977,.T.);
#1029=ADVANCED_FACE('',(#124),#73,.T.);
#1030=ADVANCED_FACE('',(#125,#34),#978,.T.);
#1031=CLOSED_SHELL('',(#979,#980,#981,#982,#983,#984,#985,#986,#987,#988,
#989,#990,#991,#992,#993,#994,#995,#996,#997,#998,#999,#1000,#1001,#1002,
#1003,#1004,#1005,#1006,#1007,#1008,#1009,#1010,#1011,#1012,#1013,#1014,
#1015,#1016,#1017,#1018,#1019,#1020,#1021,#1022,#1023,#1024,#1025,#1026,
#1027,#1028,#1029,#1030));
#1032=DERIVED_UNIT_ELEMENT(#1034,1.);
#1033=DERIVED_UNIT_ELEMENT(#1695,-3.);
#1034=(
MASS_UNIT()
NAMED_UNIT(*)
SI_UNIT(.KILO.,.GRAM.)
);
#1035=DERIVED_UNIT((#1032,#1033));
#1036=MEASURE_REPRESENTATION_ITEM('density measure',
POSITIVE_RATIO_MEASURE(7850.),#1035);
#1037=PROPERTY_DEFINITION_REPRESENTATION(#1042,#1039);
#1038=PROPERTY_DEFINITION_REPRESENTATION(#1043,#1040);
#1039=REPRESENTATION('material name',(#1041),#1692);
#1040=REPRESENTATION('density',(#1036),#1692);
#1041=DESCRIPTIVE_REPRESENTATION_ITEM('Steel','Steel');
#1042=PROPERTY_DEFINITION('material property','material name',#1702);
#1043=PROPERTY_DEFINITION('material property','density of part',#1702);
#1044=AXIS2_PLACEMENT_3D('',#1401,#1125,#1126);
#1045=AXIS2_PLACEMENT_3D('',#1402,#1127,#1128);
#1046=AXIS2_PLACEMENT_3D('',#1411,#1133,#1134);
#1047=AXIS2_PLACEMENT_3D('',#1417,#1138,#1139);
#1048=AXIS2_PLACEMENT_3D('',#1423,#1143,#1144);
#1049=AXIS2_PLACEMENT_3D('',#1426,#1147,#1148);
#1050=AXIS2_PLACEMENT_3D('',#1428,#1149,#1150);
#1051=AXIS2_PLACEMENT_3D('',#1431,#1152,#1153);
#1052=AXIS2_PLACEMENT_3D('',#1432,#1154,#1155);
#1053=AXIS2_PLACEMENT_3D('',#1434,#1156,#1157);
#1054=AXIS2_PLACEMENT_3D('',#1437,#1159,#1160);
#1055=AXIS2_PLACEMENT_3D('',#1438,#1161,#1162);
#1056=AXIS2_PLACEMENT_3D('',#1440,#1163,#1164);
#1057=AXIS2_PLACEMENT_3D('',#1443,#1166,#1167);
#1058=AXIS2_PLACEMENT_3D('',#1444,#1168,#1169);
#1059=AXIS2_PLACEMENT_3D('',#1446,#1170,#1171);
#1060=AXIS2_PLACEMENT_3D('',#1449,#1173,#1174);
#1061=AXIS2_PLACEMENT_3D('',#1450,#1175,#1176);
#1062=AXIS2_PLACEMENT_3D('',#1452,#1177,#1178);
#1063=AXIS2_PLACEMENT_3D('',#1455,#1180,#1181);
#1064=AXIS2_PLACEMENT_3D('',#1456,#1182,#1183);
#1065=AXIS2_PLACEMENT_3D('',#1465,#1188,#1189);
#1066=AXIS2_PLACEMENT_3D('',#1483,#1199,#1200);
#1067=AXIS2_PLACEMENT_3D('',#1487,#1203,#1204);
#1068=AXIS2_PLACEMENT_3D('',#1512,#1217,#1218);
#1069=AXIS2_PLACEMENT_3D('',#1524,#1225,#1226);
#1070=AXIS2_PLACEMENT_3D('',#1527,#1229,#1230);
#1071=AXIS2_PLACEMENT_3D('',#1529,#1232,#1233);
#1072=AXIS2_PLACEMENT_3D('',#1535,#1237,#1238);
#1073=AXIS2_PLACEMENT_3D('',#1539,#1241,#1242);
#1074=AXIS2_PLACEMENT_3D('',#1543,#1245,#1246);
#1075=AXIS2_PLACEMENT_3D('',#1547,#1249,#1250);
#1076=AXIS2_PLACEMENT_3D('',#1551,#1253,#1254);
#1077=AXIS2_PLACEMENT_3D('',#1555,#1257,#1258);
#1078=AXIS2_PLACEMENT_3D('',#1559,#1261,#1262);
#1079=AXIS2_PLACEMENT_3D('',#1561,#1264,#1265);
#1080=AXIS2_PLACEMENT_3D('',#1565,#1268,#1269);
#1081=AXIS2_PLACEMENT_3D('',#1567,#1271,#1272);
#1082=AXIS2_PLACEMENT_3D('',#1571,#1275,#1276);
#1083=AXIS2_PLACEMENT_3D('',#1573,#1277,#1278);
#1084=AXIS2_PLACEMENT_3D('',#1577,#1281,#1282);
#1085=AXIS2_PLACEMENT_3D('',#1579,#1283,#1284);
#1086=AXIS2_PLACEMENT_3D('',#1581,#1285,#1286);
#1087=AXIS2_PLACEMENT_3D('',#1583,#1288,#1289);
#1088=AXIS2_PLACEMENT_3D('',#1585,#1290,#1291);
#1089=AXIS2_PLACEMENT_3D('',#1587,#1293,#1294);
#1090=AXIS2_PLACEMENT_3D('',#1589,#1296,#1297);
#1091=AXIS2_PLACEMENT_3D('',#1593,#1300,#1301);
#1092=AXIS2_PLACEMENT_3D('',#1599,#1305,#1306);
#1093=AXIS2_PLACEMENT_3D('',#1605,#1309,#1310);
#1094=AXIS2_PLACEMENT_3D('',#1610,#1313,#1314);
#1095=AXIS2_PLACEMENT_3D('',#1611,#1315,#1316);
#1096=AXIS2_PLACEMENT_3D('',#1615,#1319,#1320);
#1097=AXIS2_PLACEMENT_3D('',#1619,#1323,#1324);
#1098=AXIS2_PLACEMENT_3D('',#1622,#1325,#1326);
#1099=AXIS2_PLACEMENT_3D('',#1626,#1328,#1329);
#1100=AXIS2_PLACEMENT_3D('',#1628,#1331,#1332);
#1101=AXIS2_PLACEMENT_3D('',#1634,#1336,#1337);
#1102=AXIS2_PLACEMENT_3D('',#1636,#1338,#1339);
#1103=AXIS2_PLACEMENT_3D('',#1638,#1340,#1341);
#1104=AXIS2_PLACEMENT_3D('',#1640,#1343,#1344);
#1105=AXIS2_PLACEMENT_3D('',#1646,#1348,#1349);
#1106=AXIS2_PLACEMENT_3D('',#1648,#1350,#1351);
#1107=AXIS2_PLACEMENT_3D('',#1650,#1352,#1353);
#1108=AXIS2_PLACEMENT_3D('',#1652,#1355,#1356);
#1109=AXIS2_PLACEMENT_3D('',#1658,#1360,#1361);
#1110=AXIS2_PLACEMENT_3D('',#1660,#1362,#1363);
#1111=AXIS2_PLACEMENT_3D('',#1663,#1365,#1366);
#1112=AXIS2_PLACEMENT_3D('',#1664,#1367,#1368);
#1113=AXIS2_PLACEMENT_3D('',#1667,#1371,#1372);
#1114=AXIS2_PLACEMENT_3D('',#1669,#1373,#1374);
#1115=AXIS2_PLACEMENT_3D('',#1670,#1375,#1376);
#1116=AXIS2_PLACEMENT_3D('',#1673,#1378,#1379);
#1117=AXIS2_PLACEMENT_3D('',#1674,#1380,#1381);
#1118=AXIS2_PLACEMENT_3D('',#1677,#1383,#1384);
#1119=AXIS2_PLACEMENT_3D('',#1678,#1385,#1386);
#1120=AXIS2_PLACEMENT_3D('',#1679,#1387,#1388);
#1121=AXIS2_PLACEMENT_3D('',#1683,#1391,#1392);
#1122=AXIS2_PLACEMENT_3D('',#1687,#1395,#1396);
#1123=AXIS2_PLACEMENT_3D('',#1688,#1397,#1398);
#1124=AXIS2_PLACEMENT_3D('',#1689,#1399,#1400);
#1125=DIRECTION('axis',(0.,0.,1.));
#1126=DIRECTION('refdir',(1.,0.,0.));
#1127=DIRECTION('center_axis',(-1.93524624653514E-17,-1.,-2.21199658166193E-16));
#1128=DIRECTION('ref_axis',(-0.996194698091746,0.,0.0871557427476582));
#1129=DIRECTION('',(0.996194698091746,0.,-0.0871557427476582));
#1130=DIRECTION('',(-0.0871557427476582,2.22044604925031E-16,-0.996194698091746));
#1131=DIRECTION('',(-0.996194698091746,0.,0.0871557427476582));
#1132=DIRECTION('',(-0.0871557427476582,2.22044604925031E-16,-0.996194698091746));
#1133=DIRECTION('center_axis',(0.996194698091746,0.,-0.0871557427476582));
#1134=DIRECTION('ref_axis',(-1.93524624653514E-17,-1.,-2.21199658166193E-16));
#1135=DIRECTION('',(1.93524624653514E-17,1.,2.21199658166193E-16));
#1136=DIRECTION('',(-1.93524624653514E-17,-1.,-2.21199658166193E-16));
#1137=DIRECTION('',(-0.0871557427476582,2.22044604925031E-16,-0.996194698091746));
#1138=DIRECTION('center_axis',(1.93524624653514E-17,1.,2.21199658166193E-16));
#1139=DIRECTION('ref_axis',(0.996194698091746,0.,-0.0871557427476582));
#1140=DIRECTION('',(-0.996194698091746,0.,0.0871557427476582));
#1141=DIRECTION('',(0.996194698091746,0.,-0.0871557427476582));
#1142=DIRECTION('',(-0.0871557427476582,2.22044604925031E-16,-0.996194698091746));
#1143=DIRECTION('center_axis',(-0.996194698091746,0.,0.0871557427476582));
#1144=DIRECTION('ref_axis',(1.93524624653514E-17,1.,2.21199658166193E-16));
#1145=DIRECTION('',(-1.93524624653514E-17,-1.,-2.21199658166193E-16));
#1146=DIRECTION('',(1.93524624653514E-17,1.,2.21199658166193E-16));
#1147=DIRECTION('center_axis',(-0.0871557427476582,2.22044604925031E-16,
-0.996194698091746));
#1148=DIRECTION('ref_axis',(-0.996194698091746,0.,0.0871557427476582));
#1149=DIRECTION('center_axis',(-0.0871557427476582,2.22044604925031E-16,
-0.996194698091746));
#1150=DIRECTION('ref_axis',(-0.996194698091746,0.,0.0871557427476582));
#1151=DIRECTION('',(-0.0871557427476582,2.22044604925031E-16,-0.996194698091746));
#1152=DIRECTION('center_axis',(0.0871557427476582,-2.22044604925031E-16,
0.996194698091746));
#1153=DIRECTION('ref_axis',(-0.996194698091746,0.,0.0871557427476582));
#1154=DIRECTION('center_axis',(-0.0871557427476582,2.22044604925031E-16,
-0.996194698091746));
#1155=DIRECTION('ref_axis',(-0.996194698091746,0.,0.0871557427476582));
#1156=DIRECTION('center_axis',(-0.0871557427476582,2.22044604925031E-16,
-0.996194698091746));
#1157=DIRECTION('ref_axis',(-0.996194698091746,0.,0.0871557427476582));
#1158=DIRECTION('',(-0.0871557427476582,2.22044604925031E-16,-0.996194698091746));
#1159=DIRECTION('center_axis',(0.0871557427476582,-2.22044604925031E-16,
0.996194698091746));
#1160=DIRECTION('ref_axis',(-0.996194698091746,0.,0.0871557427476582));
#1161=DIRECTION('center_axis',(-0.0871557427476582,2.22044604925031E-16,
-0.996194698091746));
#1162=DIRECTION('ref_axis',(-0.996194698091746,0.,0.0871557427476582));
#1163=DIRECTION('center_axis',(-0.0871557427476582,2.22044604925031E-16,
-0.996194698091746));
#1164=DIRECTION('ref_axis',(-0.996194698091746,0.,0.0871557427476582));
#1165=DIRECTION('',(-0.0871557427476582,2.22044604925031E-16,-0.996194698091746));
#1166=DIRECTION('center_axis',(0.0871557427476582,-2.22044604925031E-16,
0.996194698091746));
#1167=DIRECTION('ref_axis',(-0.996194698091746,0.,0.0871557427476582));
#1168=DIRECTION('center_axis',(-0.0871557427476582,2.22044604925031E-16,
-0.996194698091746));
#1169=DIRECTION('ref_axis',(-0.996194698091746,0.,0.0871557427476582));
#1170=DIRECTION('center_axis',(-0.0871557427476582,2.22044604925031E-16,
-0.996194698091746));
#1171=DIRECTION('ref_axis',(-0.996194698091746,0.,0.0871557427476582));
#1172=DIRECTION('',(-0.0871557427476582,2.22044604925031E-16,-0.996194698091746));
#1173=DIRECTION('center_axis',(0.0871557427476582,-2.22044604925031E-16,
0.996194698091746));
#1174=DIRECTION('ref_axis',(-0.996194698091746,0.,0.0871557427476582));
#1175=DIRECTION('center_axis',(-0.0871557427476582,2.22044604925031E-16,
-0.996194698091746));
#1176=DIRECTION('ref_axis',(-0.996194698091746,0.,0.0871557427476582));
#1177=DIRECTION('center_axis',(-0.0871557427476582,2.22044604925031E-16,
-0.996194698091746));
#1178=DIRECTION('ref_axis',(-0.996194698091746,0.,0.0871557427476582));
#1179=DIRECTION('',(-0.0871557427476582,2.22044604925031E-16,-0.996194698091746));
#1180=DIRECTION('center_axis',(0.0871557427476582,-2.22044604925031E-16,
0.996194698091746));
#1181=DIRECTION('ref_axis',(-0.996194698091746,0.,0.0871557427476582));
#1182=DIRECTION('center_axis',(-1.93524624653514E-17,-1.,-2.21199658166193E-16));
#1183=DIRECTION('ref_axis',(-0.996194698091746,0.,0.0871557427476582));
#1184=DIRECTION('',(0.0871557427476582,-2.22044604925031E-16,0.996194698091746));
#1185=DIRECTION('',(0.996194698091746,0.,-0.0871557427476582));
#1186=DIRECTION('',(-0.0871557427476582,2.22044604925031E-16,-0.996194698091746));
#1187=DIRECTION('',(-0.996194698091746,0.,0.0871557427476582));
#1188=DIRECTION('center_axis',(-0.0871557427476582,2.22044604925031E-16,
-0.996194698091746));
#1189=DIRECTION('ref_axis',(-0.996194698091746,0.,0.0871557427476582));
#1190=DIRECTION('',(0.704416026402759,0.707106781186547,-0.0616284167162192));
#1191=DIRECTION('',(1.93524624653514E-17,1.,2.21199658166193E-16));
#1192=DIRECTION('',(-0.704416026402759,0.707106781186547,0.0616284167162195));
#1193=DIRECTION('',(-1.93524624653514E-17,-1.,-2.21199658166193E-16));
#1194=DIRECTION('',(-0.996194698091746,0.,0.0871557427476582));
#1195=DIRECTION('',(1.93524624653514E-17,1.,2.21199658166193E-16));
#1196=DIRECTION('',(-0.704416026402759,-0.707106781186547,0.0616284167162192));
#1197=DIRECTION('',(-1.93524624653514E-17,-1.,-2.21199658166193E-16));
#1198=DIRECTION('',(0.704416026402759,-0.707106781186547,-0.0616284167162195));
#1199=DIRECTION('center_axis',(-0.704416026402759,0.707106781186548,0.0616284167162195));
#1200=DIRECTION('ref_axis',(0.704416026402759,0.707106781186548,-0.0616284167162192));
#1201=DIRECTION('',(-0.704416026402759,-0.707106781186548,0.0616284167162192));
#1202=DIRECTION('',(-0.0871557427476582,2.22044604925031E-16,-0.996194698091746));
#1203=DIRECTION('center_axis',(-0.0871557427476582,2.22044604925031E-16,
-0.996194698091746));
#1204=DIRECTION('ref_axis',(0.996194698091746,0.,-0.0871557427476582));
#1205=DIRECTION('',(-0.704416026402759,0.707106781186547,0.0616284167162195));
#1206=DIRECTION('',(0.996194698091746,0.,-0.0871557427476582));
#1207=DIRECTION('',(-0.704416026402759,-0.707106781186548,0.0616284167162192));
#1208=DIRECTION('',(-1.93524624653514E-17,-1.,-2.21199658166193E-16));
#1209=DIRECTION('',(0.704416026402759,-0.707106781186547,-0.0616284167162195));
#1210=DIRECTION('',(-1.93524624653514E-17,-1.,-2.21199658166193E-16));
#1211=DIRECTION('',(0.704416026402759,-0.707106781186547,-0.0616284167162195));
#1212=DIRECTION('',(0.996194698091746,0.,-0.0871557427476582));
#1213=DIRECTION('',(0.704416026402759,0.707106781186548,-0.0616284167162192));
#1214=DIRECTION('',(1.93524624653514E-17,1.,2.21199658166193E-16));
#1215=DIRECTION('',(0.704416026402759,0.707106781186548,-0.0616284167162192));
#1216=DIRECTION('',(1.93524624653514E-17,1.,2.21199658166193E-16));
#1217=DIRECTION('center_axis',(0.0871557427476582,-2.22044604925031E-16,
0.996194698091746));
#1218=DIRECTION('ref_axis',(-0.996194698091746,0.,0.0871557427476582));
#1219=DIRECTION('',(-0.704416026402759,0.707106781186547,0.0616284167162195));
#1220=DIRECTION('',(1.93524624653514E-17,1.,2.21199658166193E-16));
#1221=DIRECTION('',(0.704416026402759,0.707106781186548,-0.0616284167162192));
#1222=DIRECTION('',(-0.996194698091746,0.,0.0871557427476582));
#1223=DIRECTION('',(0.704416026402759,-0.707106781186547,-0.0616284167162195));
#1224=DIRECTION('',(-1.93524624653514E-17,-1.,-2.21199658166193E-16));
#1225=DIRECTION('center_axis',(-1.93524624653514E-17,-1.,-2.21199658166193E-16));
#1226=DIRECTION('ref_axis',(-0.996194698091746,0.,0.0871557427476582));
#1227=DIRECTION('',(-0.0871557427476582,2.22044604925031E-16,-0.996194698091746));
#1228=DIRECTION('',(0.0871557427476582,-2.22044604925031E-16,0.996194698091746));
#1229=DIRECTION('center_axis',(-0.996194698091746,0.,0.0871557427476582));
#1230=DIRECTION('ref_axis',(1.93524624653514E-17,1.,2.21199658166193E-16));
#1231=DIRECTION('',(-0.0871557427476582,2.22044604925031E-16,-0.996194698091746));
#1232=DIRECTION('center_axis',(-0.996194698091746,0.,0.0871557427476582));
#1233=DIRECTION('ref_axis',(1.93524624653514E-17,1.,2.21199658166193E-16));
#1234=DIRECTION('',(-0.0871557427476582,2.22044604925031E-16,-0.996194698091746));
#1235=DIRECTION('',(1.93524624653514E-17,1.,2.21199658166193E-16));
#1236=DIRECTION('',(-0.0871557427476582,2.22044604925031E-16,-0.996194698091746));
#1237=DIRECTION('center_axis',(-0.704416026402759,0.707106781186548,0.0616284167162195));
#1238=DIRECTION('ref_axis',(0.704416026402759,0.707106781186548,-0.0616284167162192));
#1239=DIRECTION('',(-0.0871557427476582,2.22044604925031E-16,-0.996194698091746));
#1240=DIRECTION('',(0.704416026402759,0.707106781186547,-0.0616284167162192));
#1241=DIRECTION('center_axis',(-0.996194698091746,0.,0.0871557427476582));
#1242=DIRECTION('ref_axis',(1.93524624653514E-17,1.,2.21199658166193E-16));
#1243=DIRECTION('',(-0.0871557427476582,2.22044604925031E-16,-0.996194698091746));
#1244=DIRECTION('',(1.93524624653514E-17,1.,2.21199658166193E-16));
#1245=DIRECTION('center_axis',(-0.704416026402759,0.707106781186548,0.0616284167162195));
#1246=DIRECTION('ref_axis',(0.704416026402759,0.707106781186548,-0.0616284167162192));
#1247=DIRECTION('',(-0.0871557427476582,2.22044604925031E-16,-0.996194698091746));
#1248=DIRECTION('',(0.704416026402759,0.707106781186548,-0.0616284167162192));
#1249=DIRECTION('center_axis',(1.93524624653514E-17,1.,2.21199658166193E-16));
#1250=DIRECTION('ref_axis',(0.996194698091746,0.,-0.0871557427476582));
#1251=DIRECTION('',(-0.0871557427476582,2.22044604925031E-16,-0.996194698091746));
#1252=DIRECTION('',(0.996194698091746,0.,-0.0871557427476582));
#1253=DIRECTION('center_axis',(0.704416026402759,0.707106781186548,-0.0616284167162192));
#1254=DIRECTION('ref_axis',(0.704416026402759,-0.707106781186547,-0.0616284167162195));
#1255=DIRECTION('',(-0.0871557427476582,2.22044604925031E-16,-0.996194698091746));
#1256=DIRECTION('',(0.704416026402759,-0.707106781186547,-0.0616284167162195));
#1257=DIRECTION('center_axis',(0.996194698091746,0.,-0.0871557427476582));
#1258=DIRECTION('ref_axis',(-1.93524624653514E-17,-1.,-2.21199658166193E-16));
#1259=DIRECTION('',(-0.0871557427476582,2.22044604925031E-16,-0.996194698091746));
#1260=DIRECTION('',(-1.93524624653514E-17,-1.,-2.21199658166193E-16));
#1261=DIRECTION('center_axis',(0.704416026402759,0.707106781186548,-0.0616284167162192));
#1262=DIRECTION('ref_axis',(0.704416026402759,-0.707106781186547,-0.0616284167162195));
#1263=DIRECTION('',(-0.0871557427476582,2.22044604925031E-16,-0.996194698091746));
#1264=DIRECTION('center_axis',(0.704416026402759,0.707106781186548,-0.0616284167162192));
#1265=DIRECTION('ref_axis',(0.704416026402759,-0.707106781186547,-0.0616284167162195));
#1266=DIRECTION('',(-0.0871557427476582,2.22044604925031E-16,-0.996194698091746));
#1267=DIRECTION('',(0.704416026402759,-0.707106781186547,-0.0616284167162195));
#1268=DIRECTION('center_axis',(0.996194698091746,0.,-0.0871557427476582));
#1269=DIRECTION('ref_axis',(-1.93524624653514E-17,-1.,-2.21199658166193E-16));
#1270=DIRECTION('',(-0.0871557427476582,2.22044604925031E-16,-0.996194698091746));
#1271=DIRECTION('center_axis',(0.996194698091746,0.,-0.0871557427476582));
#1272=DIRECTION('ref_axis',(-1.93524624653514E-17,-1.,-2.21199658166193E-16));
#1273=DIRECTION('',(-0.0871557427476582,2.22044604925031E-16,-0.996194698091746));
#1274=DIRECTION('',(-1.93524624653514E-17,-1.,-2.21199658166193E-16));
#1275=DIRECTION('center_axis',(0.704416026402759,-0.707106781186548,-0.0616284167162195));
#1276=DIRECTION('ref_axis',(-0.704416026402759,-0.707106781186548,0.0616284167162192));
#1277=DIRECTION('center_axis',(0.704416026402759,-0.707106781186548,-0.0616284167162195));
#1278=DIRECTION('ref_axis',(-0.704416026402759,-0.707106781186547,0.0616284167162191));
#1279=DIRECTION('',(0.0871557427476582,-2.22044604925031E-16,0.996194698091746));
#1280=DIRECTION('',(-0.704416026402759,-0.707106781186547,0.0616284167162192));
#1281=DIRECTION('center_axis',(-0.996194698091746,0.,0.0871557427476582));
#1282=DIRECTION('ref_axis',(-0.0616284167162194,-0.707106781186547,-0.704416026402759));
#1283=DIRECTION('center_axis',(0.704416026402759,-0.707106781186548,-0.0616284167162195));
#1284=DIRECTION('ref_axis',(-0.704416026402759,-0.707106781186547,0.0616284167162191));
#1285=DIRECTION('center_axis',(-0.704416026402759,-0.707106781186548,0.0616284167162192));
#1286=DIRECTION('ref_axis',(0.704416026402759,-0.707106781186547,-0.0616284167162196));
#1287=DIRECTION('',(0.996194698091746,0.,-0.0871557427476582));
#1288=DIRECTION('center_axis',(-1.93524624653514E-17,-1.,-2.21199658166193E-16));
#1289=DIRECTION('ref_axis',(0.642787609686539,1.57009245868377E-16,-0.766044443118978));
#1290=DIRECTION('center_axis',(-0.704416026402759,-0.707106781186548,0.0616284167162192));
#1291=DIRECTION('ref_axis',(0.704416026402759,-0.707106781186547,-0.0616284167162196));
#1292=DIRECTION('',(1.93524624653514E-17,1.,2.21199658166193E-16));
#1293=DIRECTION('center_axis',(1.93524624653514E-17,1.,2.21199658166193E-16));
#1294=DIRECTION('ref_axis',(-0.766044443118978,1.57009245868377E-16,-0.642787609686539));
#1295=DIRECTION('',(-1.93524624653514E-17,-1.,-2.21199658166193E-16));
#1296=DIRECTION('center_axis',(-0.704416026402759,-0.707106781186548,0.0616284167162192));
#1297=DIRECTION('ref_axis',(-0.704416026402759,0.707106781186547,0.0616284167162195));
#1298=DIRECTION('',(-0.704416026402759,0.707106781186547,0.0616284167162195));
#1299=DIRECTION('',(-0.0871557427476582,2.22044604925031E-16,-0.996194698091746));
#1300=DIRECTION('center_axis',(-0.0871557427476582,2.22044604925031E-16,
-0.996194698091746));
#1301=DIRECTION('ref_axis',(-1.93524624653514E-17,-1.,-2.21199658166193E-16));
#1302=DIRECTION('',(1.93524624653514E-17,1.,2.21199658166193E-16));
#1303=DIRECTION('',(-1.93524624653514E-17,-1.,-2.21199658166193E-16));
#1304=DIRECTION('',(0.996194698091746,0.,-0.0871557427476582));
#1305=DIRECTION('center_axis',(-0.996194698091746,0.,0.0871557427476582));
#1306=DIRECTION('ref_axis',(-0.0871557427476582,2.22044604925031E-16,-0.996194698091746));
#1307=DIRECTION('',(0.0871557427476582,-2.22044604925031E-16,0.996194698091746));
#1308=DIRECTION('',(-1.93524624653514E-17,-1.,-2.21199658166193E-16));
#1309=DIRECTION('center_axis',(-0.996194698091746,0.,0.0871557427476582));
#1310=DIRECTION('ref_axis',(-0.0871557427476582,2.22044604925031E-16,-0.996194698091746));
#1311=DIRECTION('',(1.93524624653514E-17,1.,2.21199658166193E-16));
#1312=DIRECTION('',(0.0871557427476582,-2.22044604925031E-16,0.996194698091746));
#1313=DIRECTION('center_axis',(-0.996194698091746,0.,0.0871557427476582));
#1314=DIRECTION('ref_axis',(-0.0871557427476582,2.22044604925031E-16,-0.996194698091746));
#1315=DIRECTION('center_axis',(1.93524624653514E-17,1.,2.21199658166193E-16));
#1316=DIRECTION('ref_axis',(-0.0871557427476582,2.22044604925031E-16,-0.996194698091746));
#1317=DIRECTION('',(-0.0871557427476582,2.22044604925031E-16,-0.996194698091746));
#1318=DIRECTION('',(-0.996194698091746,0.,0.0871557427476582));
#1319=DIRECTION('center_axis',(1.93524624653514E-17,1.,2.21199658166193E-16));
#1320=DIRECTION('ref_axis',(-0.0871557427476582,2.22044604925031E-16,-0.996194698091746));
#1321=DIRECTION('',(-0.996194698091746,0.,0.0871557427476582));
#1322=DIRECTION('',(-0.0871557427476582,2.22044604925031E-16,-0.996194698091746));
#1323=DIRECTION('center_axis',(-0.996194698091746,0.,0.0871557427476582));
#1324=DIRECTION('ref_axis',(-0.0871557427476582,2.22044604925031E-16,-0.996194698091746));
#1325=DIRECTION('center_axis',(-0.996194698091746,0.,0.0871557427476582));
#1326=DIRECTION('ref_axis',(-0.0871557427476582,2.22044604925031E-16,-0.996194698091746));
#1327=DIRECTION('',(-0.996194698091746,0.,0.0871557427476582));
#1328=DIRECTION('center_axis',(-0.996194698091746,0.,0.0871557427476582));
#1329=DIRECTION('ref_axis',(-0.0871557427476582,2.22044604925031E-16,-0.996194698091746));
#1330=DIRECTION('',(-0.996194698091746,0.,0.0871557427476582));
#1331=DIRECTION('center_axis',(-0.0437932753825541,-0.864593782038483,-0.500559428131825));
#1332=DIRECTION('ref_axis',(0.0753543132485709,-0.502471483828079,0.861303741669827));
#1333=DIRECTION('',(0.0753543132485709,-0.502471483828079,0.861303741669827));
#1334=DIRECTION('',(0.0753543132485709,-0.502471483828079,0.861303741669827));
#1335=DIRECTION('',(-0.996194698091746,0.,0.0871557427476582));
#1336=DIRECTION('center_axis',(-0.996194698091746,0.,0.0871557427476582));
#1337=DIRECTION('ref_axis',(-0.0275610658246302,-0.948683298050514,-0.315024423895371));
#1338=DIRECTION('center_axis',(-0.996194698091746,0.,0.0871557427476582));
#1339=DIRECTION('ref_axis',(-0.0275610658246302,-0.948683298050514,-0.315024423895371));
#1340=DIRECTION('center_axis',(-0.996194698091746,0.,0.0871557427476582));
#1341=DIRECTION('ref_axis',(-0.0275610658246302,-0.948683298050514,-0.315024423895371));
#1342=DIRECTION('',(-0.996194698091746,0.,0.0871557427476582));
#1343=DIRECTION('center_axis',(0.0740152333620151,0.52802381445858,0.845997988528919));
#1344=DIRECTION('ref_axis',(-0.0460203077375892,0.849229563407098,-0.526014524429818));
#1345=DIRECTION('',(-0.0460203077375892,0.849229563407098,-0.526014524429818));
#1346=DIRECTION('',(-0.0460203077375892,0.849229563407098,-0.526014524429817));
#1347=DIRECTION('',(-0.996194698091746,0.,0.0871557427476582));
#1348=DIRECTION('center_axis',(-0.996194698091746,0.,0.0871557427476582));
#1349=DIRECTION('ref_axis',(0.0634422738028325,0.685663707344986,0.725148507772481));
#1350=DIRECTION('center_axis',(-0.996194698091746,0.,0.0871557427476582));
#1351=DIRECTION('ref_axis',(-0.0871557427476582,2.22044604925031E-16,-0.996194698091746));
#1352=DIRECTION('center_axis',(-0.996194698091746,0.,0.0871557427476582));
#1353=DIRECTION('ref_axis',(-0.0871557427476582,2.22044604925031E-16,-0.996194698091746));
#1354=DIRECTION('',(-0.996194698091746,0.,0.0871557427476582));
#1355=DIRECTION('center_axis',(-0.075162964200418,-0.506230358361871,-0.859116612041356));
#1356=DIRECTION('ref_axis',(0.0441208828844421,-0.862398297930145,0.504303999013181));
#1357=DIRECTION('',(0.0441208828844421,-0.862398297930145,0.504303999013181));
#1358=DIRECTION('',(-0.996194698091746,0.,0.0871557427476582));
#1359=DIRECTION('',(0.0441208828844421,-0.862398297930145,0.504303999013181));
#1360=DIRECTION('center_axis',(-0.996194698091746,0.,0.0871557427476582));
#1361=DIRECTION('ref_axis',(0.0275610448793462,0.948683378157208,0.315024184489679));
#1362=DIRECTION('center_axis',(-0.996194698091746,0.,0.0871557427476582));
#1363=DIRECTION('ref_axis',(0.0275610448793462,0.948683378157208,0.315024184489679));
#1364=DIRECTION('',(-0.996194698091746,0.,0.0871557427476582));
#1365=DIRECTION('center_axis',(-0.996194698091746,0.,0.0871557427476582));
#1366=DIRECTION('ref_axis',(0.0275610448793462,0.948683378157208,0.315024184489679));
#1367=DIRECTION('center_axis',(0.0436803469810675,0.865345504304089,0.499268650596366));
#1368=DIRECTION('ref_axis',(-0.0754198301609697,0.50117577573213,-0.862052603405261));
#1369=DIRECTION('',(-0.0754198301609697,0.50117577573213,-0.862052603405261));
#1370=DIRECTION('',(-0.0754198301609697,0.50117577573213,-0.862052603405261));
#1371=DIRECTION('center_axis',(-0.996194698091746,0.,0.0871557427476582));
#1372=DIRECTION('ref_axis',(-0.0871557427476582,2.22044604925031E-16,-0.996194698091746));
#1373=DIRECTION('center_axis',(0.996194698091746,0.,-0.0871557427476582));
#1374=DIRECTION('ref_axis',(-0.0871557427476582,2.22044604925031E-16,-0.996194698091746));
#1375=DIRECTION('center_axis',(-0.996194698091746,0.,0.0871557427476582));
#1376=DIRECTION('ref_axis',(-0.0871557427476582,2.22044604925031E-16,-0.996194698091746));
#1377=DIRECTION('',(-0.996194698091746,0.,0.0871557427476582));
#1378=DIRECTION('center_axis',(0.996194698091746,0.,-0.0871557427476582));
#1379=DIRECTION('ref_axis',(-0.0871557427476582,2.22044604925031E-16,-0.996194698091746));
#1380=DIRECTION('center_axis',(-0.996194698091746,0.,0.0871557427476582));
#1381=DIRECTION('ref_axis',(-0.0871557427476582,2.22044604925031E-16,-0.996194698091746));
#1382=DIRECTION('',(-0.996194698091746,0.,0.0871557427476582));
#1383=DIRECTION('center_axis',(-0.996194698091746,0.,0.0871557427476582));
#1384=DIRECTION('ref_axis',(-0.0871557427476582,2.22044604925031E-16,-0.996194698091746));
#1385=DIRECTION('center_axis',(-0.996194698091746,0.,0.0871557427476582));
#1386=DIRECTION('ref_axis',(-0.0871557427476582,2.22044604925031E-16,-0.996194698091746));
#1387=DIRECTION('center_axis',(-0.0871557427476582,2.22044604925031E-16,
-0.996194698091746));
#1388=DIRECTION('ref_axis',(-1.93524624653514E-17,-1.,-2.21199658166193E-16));
#1389=DIRECTION('',(-0.996194698091746,0.,0.0871557427476582));
#1390=DIRECTION('',(-1.93524624653514E-17,-1.,-2.21199658166193E-16));
#1391=DIRECTION('center_axis',(0.0871557427476582,-2.22044604925031E-16,
0.996194698091746));
#1392=DIRECTION('ref_axis',(1.93524624653514E-17,1.,2.21199658166193E-16));
#1393=DIRECTION('',(1.93524624653514E-17,1.,2.21199658166193E-16));
#1394=DIRECTION('',(-0.996194698091746,0.,0.0871557427476582));
#1395=DIRECTION('center_axis',(-0.996194698091746,0.,0.0871557427476582));
#1396=DIRECTION('ref_axis',(-0.0871557427476582,2.22044604925031E-16,-0.996194698091746));
#1397=DIRECTION('center_axis',(-0.996194698091746,0.,0.0871557427476582));
#1398=DIRECTION('ref_axis',(-0.0871557427476582,2.22044604925031E-16,-0.996194698091746));
#1399=DIRECTION('center_axis',(-0.996194698091746,0.,0.0871557427476582));
#1400=DIRECTION('ref_axis',(-0.0871557427476582,2.22044604925031E-16,-0.996194698091746));
#1401=CARTESIAN_POINT('',(0.,0.,0.));
#1402=CARTESIAN_POINT('Origin',(7.87526155385831,98.,0.623333844624758));
#1403=CARTESIAN_POINT('',(-17.4653846121736,98.,-2.17874607714252));
#1404=CARTESIAN_POINT('',(7.43948284012002,98.,-4.35763964583397));
#1405=CARTESIAN_POINT('',(23.8766953586338,98.,-5.79570940117033));
#1406=CARTESIAN_POINT('',(-17.0296058984353,98.,2.80222741331621));
#1407=CARTESIAN_POINT('',(-17.0296058984353,98.,2.80222741331621));
#1408=CARTESIAN_POINT('',(7.87526155385831,98.,0.623333844624758));
#1409=CARTESIAN_POINT('',(8.12431017271453,98.,0.60154491380805));
#1410=CARTESIAN_POINT('',(7.87526155385831,98.,0.623333844624758));
#1411=CARTESIAN_POINT('Origin',(7.87526155385831,113.,0.623333844624761));
#1412=CARTESIAN_POINT('',(7.43948284012002,113.,-4.35763964583397));
#1413=CARTESIAN_POINT('',(7.43948284012002,126.5,-4.35763964583396));
#1414=CARTESIAN_POINT('',(7.87526155385831,113.,0.623333844624761));
#1415=CARTESIAN_POINT('',(7.87526155385831,106.500000745058,0.623333844624759));
#1416=CARTESIAN_POINT('',(7.87526155385831,113.,0.623333844624761));
#1417=CARTESIAN_POINT('Origin',(-17.0296058984353,113.,2.80222741331622));
#1418=CARTESIAN_POINT('',(-17.4653846121736,113.,-2.17874607714251));
#1419=CARTESIAN_POINT('',(11.424261632487,113.,-4.7062626168246));
#1420=CARTESIAN_POINT('',(-17.0296058984353,113.,2.80222741331622));
#1421=CARTESIAN_POINT('',(-4.3281235534323,113.,1.69099169815378));
#1422=CARTESIAN_POINT('',(-17.0296058984353,113.,2.80222741331622));
#1423=CARTESIAN_POINT('Origin',(-17.0296058984353,98.,2.80222741331621));
#1424=CARTESIAN_POINT('',(-17.4653846121736,119.,-2.17874607714251));
#1425=CARTESIAN_POINT('',(-17.0296058984353,99.000000745058,2.80222741331621));
#1426=CARTESIAN_POINT('Origin',(25.8067662679543,108.000001609325,-0.945469537820305));
#1427=CARTESIAN_POINT('',(30.787739758413,108.000001609325,-1.3812482515586));
#1428=CARTESIAN_POINT('Origin',(25.8067662679543,108.000001609325,-0.945469537820305));
#1429=CARTESIAN_POINT('',(30.3519610446747,108.000001609325,-6.36222174201732));
#1430=CARTESIAN_POINT('',(30.787739758413,108.000001609325,-1.3812482515586));
#1431=CARTESIAN_POINT('Origin',(25.370987554216,108.000001609325,-5.92644302827903));
#1432=CARTESIAN_POINT('Origin',(25.8067662679543,108.000001609325,-0.945469537820305));
#1433=CARTESIAN_POINT('',(26.4918195229229,108.000001609325,-16.0627014946918));
#1434=CARTESIAN_POINT('Origin',(24.4994301267394,108.000001609325,-15.8883900091965));
#1435=CARTESIAN_POINT('',(26.2303522946799,108.000001609325,-19.051285588967));
#1436=CARTESIAN_POINT('',(27.7991556641378,108.000001609325,-1.11978102331562));
#1437=CARTESIAN_POINT('Origin',(24.2379628984965,108.000001609325,-18.8769741034717));
#1438=CARTESIAN_POINT('Origin',(-2.08668569425939,128.000001907349,1.49489129547834));
#1439=CARTESIAN_POINT('',(-1.40163243929077,128.000001907349,-13.6223406613932));
#1440=CARTESIAN_POINT('Origin',(-3.39402183547426,128.000001907349,-13.4480291758978));
#1441=CARTESIAN_POINT('',(-1.66309966753375,128.000001907349,-16.6109247556684));
#1442=CARTESIAN_POINT('',(-0.0942962980758982,128.000001907349,1.32057980998302));
#1443=CARTESIAN_POINT('Origin',(-3.65548906371723,128.000001907349,-16.4366132701731));
#1444=CARTESIAN_POINT('Origin',(18.8334032774009,128.000001907349,-0.335379329495641));
#1445=CARTESIAN_POINT('',(19.5184565323695,128.000001907349,-15.4526112863671));
#1446=CARTESIAN_POINT('Origin',(17.526067136186,128.000001907349,-15.2782998008718));
#1447=CARTESIAN_POINT('',(19.2569893041265,128.000001907349,-18.4411953806424));
#1448=CARTESIAN_POINT('',(20.8257926735844,128.000001907349,-0.509690814990957));
#1449=CARTESIAN_POINT('Origin',(17.264599907943,128.000001907349,-18.2668838951471));
#1450=CARTESIAN_POINT('Origin',(-9.06004868481281,108.000001609325,2.10498150380299));
#1451=CARTESIAN_POINT('',(-8.3749954298442,108.000001609325,-13.0122504530685));
#1452=CARTESIAN_POINT('Origin',(-10.3673848260277,108.000001609325,-12.8379389675732));
#1453=CARTESIAN_POINT('',(-8.63646265808717,108.000001609325,-16.0008345473437));
#1454=CARTESIAN_POINT('',(-7.06765928862932,108.000001609325,1.93067001830768));
#1455=CARTESIAN_POINT('Origin',(-10.6288520542707,108.000001609325,-15.8265230618484));
#1456=CARTESIAN_POINT('Origin',(45.7306600813446,114.660467765219,-2.68858437978625));
#1457=CARTESIAN_POINT('',(35.6711766028105,114.660467765219,-6.82759280220492));
#1458=CARTESIAN_POINT('',(36.1069553165487,114.660467765219,-1.84661931174619));
#1459=CARTESIAN_POINT('',(36.1069553165487,114.660467765219,-1.84661931174619));
#1460=CARTESIAN_POINT('',(-19.7960164471455,114.660467765219,-1.97484221272985));
#1461=CARTESIAN_POINT('',(42.804394622377,114.660467765219,-7.45166851337583));
#1462=CARTESIAN_POINT('',(-19.3602377334072,114.660467765219,3.00613127772888));
#1463=CARTESIAN_POINT('',(-19.3602377334072,114.660467765219,3.00613127772888));
#1464=CARTESIAN_POINT('',(27.0520094364577,114.660467765219,-1.05441419839745));
#1465=CARTESIAN_POINT('Origin',(8.37335879157075,100.000001490116,0.579755982991342));
#1466=CARTESIAN_POINT('',(-24.0029693788559,110.000001639128,3.41231766449869));
#1467=CARTESIAN_POINT('',(-24.0029693788559,110.000001639128,3.41231766449869));
#1468=CARTESIAN_POINT('',(-24.0029693788559,90.0000013411045,3.41231766449869));
#1469=CARTESIAN_POINT('',(-24.0029693788559,90.0000013411045,3.41231766449869));
#1470=CARTESIAN_POINT('',(-6.569561568472,72.500000745058,1.8870921144658));
#1471=CARTESIAN_POINT('',(0.901898444549221,65.0000009685755,1.23342406333918));
#1472=CARTESIAN_POINT('',(-6.569561568472,87.5,1.8870921144658));
#1473=CARTESIAN_POINT('',(-6.569561568472,65.000000745058,1.88709211446579));
#1474=CARTESIAN_POINT('',(23.3162793742804,87.5,-0.727580167963947));
#1475=CARTESIAN_POINT('',(12.1090889650815,87.5,0.252921942817415));
#1476=CARTESIAN_POINT('',(23.3162793742804,72.5000009685755,-0.72758016796395));
#1477=CARTESIAN_POINT('',(23.3162793742804,65.000000745058,-0.727580167963952));
#1478=CARTESIAN_POINT('',(40.7496869619974,90.0000013411045,-2.25280569851601));
#1479=CARTESIAN_POINT('',(40.7496869619974,90.0000013411045,-2.25280569851601));
#1480=CARTESIAN_POINT('',(40.7496869619974,110.000001639128,-2.252805698516));
#1481=CARTESIAN_POINT('',(40.7496869619974,110.000001639128,-2.252805698516));
#1482=CARTESIAN_POINT('',(25.8067662679543,125.000001862645,-0.945469537820302));
#1483=CARTESIAN_POINT('Origin',(-24.0029693788559,110.000001639128,3.41231766449869));
#1484=CARTESIAN_POINT('',(-24.4387474988158,110.000002235174,-1.56865587790891));
#1485=CARTESIAN_POINT('',(-0.779124272693204,133.750001378357,-3.63860469348928));
#1486=CARTESIAN_POINT('',(-24.0029693788559,110.000001639128,3.41231766449869));
#1487=CARTESIAN_POINT('Origin',(-25.3103049262924,140.,-11.5306028588264));
#1488=CARTESIAN_POINT('',(-24.3141094859778,89.,-11.6177586665101));
#1489=CARTESIAN_POINT('',(-25.3103055200707,90.0000013411045,-11.5306028068775));
#1490=CARTESIAN_POINT('',(-25.3103048520701,90.0000006705522,-11.53060286532));
#1491=CARTESIAN_POINT('',(38.4461547866895,89.,-17.1085703102596));
#1492=CARTESIAN_POINT('',(-25.3103049262924,89.,-11.5306028588264));
#1493=CARTESIAN_POINT('',(39.442350449671,90.0000009685755,-17.1957261374241));
#1494=CARTESIAN_POINT('',(35.7066202761603,86.2500009126961,-16.8688920972502));
#1495=CARTESIAN_POINT('',(39.442350449671,110.000002011657,-17.1957261374241));
#1496=CARTESIAN_POINT('',(39.4423508207825,125.000000819564,-17.1957261698922));
#1497=CARTESIAN_POINT('',(24.4994301267394,125.000001862645,-15.8883900091965));
#1498=CARTESIAN_POINT('',(8.31126670952673,141.250001434237,-14.4721092268853));
#1499=CARTESIAN_POINT('',(24.4994301267394,130.000001937151,-15.8883900091965));
#1500=CARTESIAN_POINT('',(24.4994301267394,135.000000968575,-15.8883900091965));
#1501=CARTESIAN_POINT('',(19.5184565620584,135.000002011657,-15.4526112889646));
#1502=CARTESIAN_POINT('',(7.06602331835647,147.500001527369,-14.3631645468273));
#1503=CARTESIAN_POINT('',(-5.38641126134667,135.000002011657,-13.2737176878051));
#1504=CARTESIAN_POINT('',(-15.3483580938195,135.000002011657,-12.4021602733157));
#1505=CARTESIAN_POINT('',(-10.3673848260277,130.000001937151,-12.8379389675732));
#1506=CARTESIAN_POINT('',(-11.6126285883094,128.750001545995,-12.7289942550472));
#1507=CARTESIAN_POINT('',(-10.3673848260277,125.000001862645,-12.8379389675732));
#1508=CARTESIAN_POINT('',(-10.3673848260277,132.500000931323,-12.8379389675732));
#1509=CARTESIAN_POINT('',(-25.3103049262924,110.000002235174,-11.5306028588264));
#1510=CARTESIAN_POINT('',(-17.8388455441607,117.500001378357,-12.1842708547573));
#1511=CARTESIAN_POINT('',(-25.3103055200707,115.000000670552,-11.5306028068775));
#1512=CARTESIAN_POINT('Origin',(40.3139078771476,140.,-7.23377915650668));
#1513=CARTESIAN_POINT('',(40.3139078771476,110.000002011657,-7.23377915650669));
#1514=CARTESIAN_POINT('',(25.3709879809942,125.000001434237,-5.92644306561728));
#1515=CARTESIAN_POINT('',(40.3139078771476,90.0000009685755,-7.23377915650669));
#1516=CARTESIAN_POINT('',(40.3139082482591,125.000000819564,-7.23377918897473));
#1517=CARTESIAN_POINT('',(39.3177122141661,89.,-7.14662332934212));
#1518=CARTESIAN_POINT('',(52.7663415476277,102.500000912696,-8.32322593598221));
#1519=CARTESIAN_POINT('',(-23.4425520585012,89.,-1.65581168559266));
#1520=CARTESIAN_POINT('',(40.3139078771476,89.,-7.23377915650669));
#1521=CARTESIAN_POINT('',(-24.4387474988158,90.000000745058,-1.56865587790891));
#1522=CARTESIAN_POINT('',(-8.25058358060268,73.7500006705522,-2.98493670405197));
#1523=CARTESIAN_POINT('',(-24.4387480925942,115.000000670552,-1.56865582596003));
#1524=CARTESIAN_POINT('Origin',(7.5018014754276,89.,-9.38219100766653));
#1525=CARTESIAN_POINT('',(-23.4425520585012,89.,-1.65581168559266));
#1526=CARTESIAN_POINT('',(39.3177122141661,89.,-7.14662332934212));
#1527=CARTESIAN_POINT('Origin',(-24.0029693788559,90.0000013411045,3.41231766449869));
#1528=CARTESIAN_POINT('',(-24.0029693788559,90.0000013411045,3.41231766449869));
#1529=CARTESIAN_POINT('Origin',(-24.0029693788559,90.0000013411045,3.41231766449869));
#1530=CARTESIAN_POINT('',(-25.5717727483137,110.000001639128,-14.5191869011527));
#1531=CARTESIAN_POINT('',(-24.0029693788559,110.000001639128,3.41231766449869));
#1532=CARTESIAN_POINT('',(-25.5717727483137,90.0000013411045,-14.5191869011527));
#1533=CARTESIAN_POINT('',(-25.5717727483137,90.0000013411045,-14.5191869011527));
#1534=CARTESIAN_POINT('',(-24.0029693788559,90.0000013411045,3.41231766449869));
#1535=CARTESIAN_POINT('Origin',(-24.0029693788559,110.000001639128,3.41231766449869));
#1536=CARTESIAN_POINT('',(-10.6288520542707,125.000001862645,-15.8265230618484));
#1537=CARTESIAN_POINT('',(-9.06004868481281,125.000001862645,2.104981503803));
#1538=CARTESIAN_POINT('',(-25.5717727483137,110.000001639128,-14.5191869011527));
#1539=CARTESIAN_POINT('Origin',(-9.06004868481281,125.000001862645,2.104981503803));
#1540=CARTESIAN_POINT('',(-10.6288520542707,130.000001937151,-15.8265230618484));
#1541=CARTESIAN_POINT('',(-9.06004868481281,130.000001937151,2.104981503803));
#1542=CARTESIAN_POINT('',(-10.6288520542707,125.000001862645,-15.8265230618484));
#1543=CARTESIAN_POINT('Origin',(-9.06004868481281,130.000001937151,2.104981503803));
#1544=CARTESIAN_POINT('',(-5.64787848958964,135.000002011657,-16.2623017820803));
#1545=CARTESIAN_POINT('',(-4.07907512013179,135.000002011657,1.6692027835711));
#1546=CARTESIAN_POINT('',(-10.6288520542707,130.000001937151,-15.8265230618484));
#1547=CARTESIAN_POINT('Origin',(-4.07907512013179,135.000002011657,1.6692027835711));
#1548=CARTESIAN_POINT('',(19.2569893338154,135.000002011657,-18.4411953832398));
#1549=CARTESIAN_POINT('',(20.8257927032733,135.000002011657,-0.509690817588399));
#1550=CARTESIAN_POINT('',(-5.64787848958964,135.000002011657,-16.2623017820803));
#1551=CARTESIAN_POINT('Origin',(20.8257927032733,135.000002011657,-0.509690817588399));
#1552=CARTESIAN_POINT('',(24.2379628984965,130.000001937151,-18.8769741034717));
#1553=CARTESIAN_POINT('',(25.8067662679543,130.000001937151,-0.9454695378203));
#1554=CARTESIAN_POINT('',(19.2569893338154,135.000002011657,-18.4411953832398));
#1555=CARTESIAN_POINT('Origin',(25.8067662679543,130.000001937151,-0.9454695378203));
#1556=CARTESIAN_POINT('',(24.2379628984965,125.000001862645,-18.8769741034717));
#1557=CARTESIAN_POINT('',(25.8067662679543,125.000001862645,-0.945469537820302));
#1558=CARTESIAN_POINT('',(24.2379628984965,130.000001937151,-18.8769741034717));
#1559=CARTESIAN_POINT('Origin',(25.8067662679543,125.000001862645,-0.945469537820302));
#1560=CARTESIAN_POINT('',(40.7496869619974,110.000001639128,-2.252805698516));
#1561=CARTESIAN_POINT('Origin',(25.8067662679543,125.000001862645,-0.945469537820302));
#1562=CARTESIAN_POINT('',(39.1808835925395,110.000001639128,-20.1843102641674));
#1563=CARTESIAN_POINT('',(40.7496869619974,110.000001639128,-2.252805698516));
#1564=CARTESIAN_POINT('',(24.2379628984965,125.000001862645,-18.8769741034717));
#1565=CARTESIAN_POINT('Origin',(40.7496869619974,110.000001639128,-2.252805698516));
#1566=CARTESIAN_POINT('',(40.7496869619974,90.0000013411045,-2.25280569851601));
#1567=CARTESIAN_POINT('Origin',(40.7496869619974,110.000001639128,-2.252805698516));
#1568=CARTESIAN_POINT('',(39.1808835925395,90.0000013411045,-20.1843102641674));
#1569=CARTESIAN_POINT('',(40.7496869619974,90.0000013411045,-2.25280569851601));
#1570=CARTESIAN_POINT('',(39.1808835925395,110.000001639128,-20.1843102641674));
#1571=CARTESIAN_POINT('Origin',(40.7496869619974,90.0000013411045,-2.25280569851601));
#1572=CARTESIAN_POINT('',(16.4984872091997,65.0000009685755,7.39754813833158));
#1573=CARTESIAN_POINT('Origin',(23.9699474448878,72.5000009685755,6.74388006772414));
#1574=CARTESIAN_POINT('',(14.2760157691344,65.0000009685755,-18.0054166630079));
#1575=CARTESIAN_POINT('',(15.8448191385923,65.0000009685755,-0.0739120973565152));
#1576=CARTESIAN_POINT('',(39.1808835925395,90.0000013411045,-20.1843102641674));
#1577=CARTESIAN_POINT('Origin',(12.7627570356889,87.5,7.72438217850551));
#1578=CARTESIAN_POINT('',(16.4984872091997,80.,7.39754813833158));
#1579=CARTESIAN_POINT('Origin',(23.9699474448878,87.5,6.74388006772415));
#1580=CARTESIAN_POINT('',(1.55556673782353,80.,8.70488427954645));
#1581=CARTESIAN_POINT('Origin',(-5.91589349786457,87.5,9.35855235015389));
#1582=CARTESIAN_POINT('',(12.7627570356889,80.,7.7243821785055));
#1583=CARTESIAN_POINT('Origin',(-5.91589349786457,65.000000745058,9.35855235015389));
#1584=CARTESIAN_POINT('',(1.55556673782352,65.000000745058,8.70488427954645));
#1585=CARTESIAN_POINT('Origin',(-5.91589349786457,72.500000745058,9.35855235015389));
#1586=CARTESIAN_POINT('',(1.55556673782352,65.000000745058,8.70488427954645));
#1587=CARTESIAN_POINT('Origin',(23.9699474448878,65.000000745058,6.74388006772414));
#1588=CARTESIAN_POINT('',(16.4984872091997,65.000000745058,7.39754813833158));
#1589=CARTESIAN_POINT('Origin',(0.901898444549221,65.0000009685755,1.23342406333918));
#1590=CARTESIAN_POINT('',(-0.666904924908627,65.0000009685755,-16.6980805023122));
#1591=CARTESIAN_POINT('',(-0.666904924908627,65.0000009685755,-16.6980805023122));
#1592=CARTESIAN_POINT('',(0.901898667216088,65.000000745058,1.23342404385836));
#1593=CARTESIAN_POINT('Origin',(6.8045554221129,100.000001490116,-17.3517485826601));
#1594=CARTESIAN_POINT('',(-0.66690470224176,80.,-16.6980805217931));
#1595=CARTESIAN_POINT('',(-0.66690470224176,65.000000745058,-16.6980805217931));
#1596=CARTESIAN_POINT('',(14.2760157691344,80.,-18.0054166630079));
#1597=CARTESIAN_POINT('',(14.2760157691344,65.000000745058,-18.0054166630079));
#1598=CARTESIAN_POINT('',(10.5402855956237,80.,-17.678582622834));
#1599=CARTESIAN_POINT('Origin',(15.8448191385923,30.,-0.073912097356523));
#1600=CARTESIAN_POINT('',(17.5879339935454,80.,19.8499818644784));
#1601=CARTESIAN_POINT('',(14.1017042836391,80.,-19.9978060591914));
#1602=CARTESIAN_POINT('',(17.5879339935454,-2.22044604925031E-14,19.8499818644784));
#1603=CARTESIAN_POINT('',(17.5879339935454,80.,19.8499818644784));
#1604=CARTESIAN_POINT('',(14.1017042836391,-1.33226762955019E-14,-19.9978060591914));
#1605=CARTESIAN_POINT('Origin',(15.8448191385923,-1.77635683940025E-14,
-0.0739120973565296));
#1606=CARTESIAN_POINT('',(14.1017042836391,80.,-19.9978060591914));
#1607=CARTESIAN_POINT('',(14.1017042836391,-1.33226762955019E-14,-19.9978060591914));
#1608=CARTESIAN_POINT('',(14.1017042836391,80.,-19.9978060591914));
#1609=CARTESIAN_POINT('',(17.3264667653025,-1.94564271191775E-14,16.8613977702031));
#1610=CARTESIAN_POINT('Origin',(15.8448191385923,-1.77635683940025E-14,
-0.0739120973565296));
#1611=CARTESIAN_POINT('Origin',(17.5879339935454,80.,19.8499818644784));
#1612=CARTESIAN_POINT('',(2.64501352216925,80.,21.1573180056933));
#1613=CARTESIAN_POINT('',(-0.841216187737075,80.,-18.6904699179766));
#1614=CARTESIAN_POINT('',(17.5879339935454,80.,19.8499818644784));
#1615=CARTESIAN_POINT('Origin',(17.5879339935454,80.,19.8499818644784));
#1616=CARTESIAN_POINT('',(-0.841216187737075,80.,-18.6904699179766));
#1617=CARTESIAN_POINT('',(14.1017042836391,80.,-19.9978060591914));
#1618=CARTESIAN_POINT('',(-0.841216187737075,80.,-18.6904699179766));
#1619=CARTESIAN_POINT('Origin',(15.8448191385923,-1.77635683940025E-14,
-0.0739120973565296));
#1620=CARTESIAN_POINT('',(7.35822195627512,1.07050178875055,-5.28645579834977));
#1621=CARTESIAN_POINT('',(7.96390399929909,-5.94175989697111,1.63652163225751));
#1622=CARTESIAN_POINT('Origin',(7.8752615538583,-1.77635683940025E-14,0.623333844624736));
#1623=CARTESIAN_POINT('',(2.37724846581639,1.07050178875055,-4.85067708461148));
#1624=CARTESIAN_POINT('',(15.3277795410091,1.07050178875055,-5.98370174033104));
#1625=CARTESIAN_POINT('',(2.98293050884036,-5.94175989697111,2.0723003459958));
#1626=CARTESIAN_POINT('Origin',(2.89428806339958,-1.77635683940025E-14,
1.05911255836303));
#1627=CARTESIAN_POINT('',(15.933461584033,-5.94175989697111,0.939275690276245));
#1628=CARTESIAN_POINT('Origin',(15.933461584033,-5.94175989697111,0.939275690276245));
#1629=CARTESIAN_POINT('',(8.57250750622934,-10.0000001490116,8.59289154811436));
#1630=CARTESIAN_POINT('',(7.81828529536762,-4.97075713570647,-0.0279077699394137));
#1631=CARTESIAN_POINT('',(3.59153401577062,-10.0000001490116,9.02867026185265));
#1632=CARTESIAN_POINT('',(2.98293050884036,-5.94175989697111,2.0723003459958));
#1633=CARTESIAN_POINT('',(16.5420650909633,-10.0000001490116,7.89564560613309));
#1634=CARTESIAN_POINT('Origin',(16.5856429629865,-8.50000012665989,8.3937429626012));
#1635=CARTESIAN_POINT('',(8.74591080638674,-7.96976217126041,10.5749003383848));
#1636=CARTESIAN_POINT('Origin',(8.61608537825253,-8.50000012665989,9.09098890458246));
#1637=CARTESIAN_POINT('',(3.76493731592801,-7.96976217126041,11.0106790521231));
#1638=CARTESIAN_POINT('Origin',(3.63511188779381,-8.50000012665989,9.52676761832075));
#1639=CARTESIAN_POINT('',(16.7154683911207,-7.96976217126041,9.87765439640355));
#1640=CARTESIAN_POINT('Origin',(16.7154683911207,-7.96976217126041,9.87765439640355));
#1641=CARTESIAN_POINT('',(8.38727343923645,-1.351695719746,6.47565647413243));
#1642=CARTESIAN_POINT('',(8.46880196904261,-2.85617148655958,7.40753183398405));
#1643=CARTESIAN_POINT('',(3.40629994877772,-1.351695719746,6.91143518787072));
#1644=CARTESIAN_POINT('',(3.40629994877773,-1.351695719746,6.91143518787072));
#1645=CARTESIAN_POINT('',(16.3568310239704,-1.351695719746,5.77841053215116));
#1646=CARTESIAN_POINT('Origin',(15.8448191385923,-1.77635683940025E-14,
-0.0739120973565296));
#1647=CARTESIAN_POINT('',(7.78824660852495,5.94492607001718,-0.371251531657451));
#1648=CARTESIAN_POINT('Origin',(7.8752615538583,-1.77635683940025E-14,0.623333844624736));
#1649=CARTESIAN_POINT('',(2.80727311806622,5.94492607001718,0.0645271820808396));
#1650=CARTESIAN_POINT('Origin',(2.89428806339958,-1.77635683940025E-14,
1.05911255836303));
#1651=CARTESIAN_POINT('',(15.7578041932589,5.94492607001718,-1.06849747363872));
#1652=CARTESIAN_POINT('Origin',(14.9732616981285,8.00000011920927,-10.0358592267186));
#1653=CARTESIAN_POINT('',(7.00370411339451,8.00000011920927,-9.3386132847373));
#1654=CARTESIAN_POINT('',(7.2675798663066,2.84221574820183,-6.32249962752153));
#1655=CARTESIAN_POINT('',(2.02273062293578,8.00000011920927,-8.902834570999));
#1656=CARTESIAN_POINT('',(14.9732616981285,8.00000011920927,-10.0358592267186));
#1657=CARTESIAN_POINT('',(2.37724846581639,1.07050178875055,-4.85067708461148));
#1658=CARTESIAN_POINT('Origin',(15.1039953417959,8.49999981001018,-8.54156684186953));
#1659=CARTESIAN_POINT('',(7.17801560148726,10.0000001490116,-7.34622385886489));
#1660=CARTESIAN_POINT('Origin',(7.13443775706191,8.49999981001018,-7.84432089988826));
#1661=CARTESIAN_POINT('',(2.19704211102854,10.0000001490116,-6.9104451451266));
#1662=CARTESIAN_POINT('',(15.1475731862212,10.0000001490116,-8.04346980084615));
#1663=CARTESIAN_POINT('Origin',(2.15346426660318,8.49999981001018,-7.40854218614997));
#1664=CARTESIAN_POINT('Origin',(15.7578041932589,5.94492607001718,-1.06849747363872));
#1665=CARTESIAN_POINT('',(7.93318091500561,4.98181645646312,1.28535517188097));
#1666=CARTESIAN_POINT('',(2.19704211102854,10.0000001490116,-6.9104451451266));
#1667=CARTESIAN_POINT('Origin',(2.89428806847129,-5.8191411689279E-8,1.05911261633298));
#1668=CARTESIAN_POINT('',(3.15575529164255,-1.87970962485218E-14,4.04769665263826));
#1669=CARTESIAN_POINT('Origin',(2.89428806339958,-1.77635683940025E-14,
1.05911255836303));
#1670=CARTESIAN_POINT('Origin',(15.8448191385923,-1.77635683940025E-14,
-0.0739120973565296));
#1671=CARTESIAN_POINT('',(1.16336589545906,-1.87970962485218E-14,4.22200813813358));
#1672=CARTESIAN_POINT('',(16.1062863668352,-1.80623081690334E-14,2.91467199691871));
#1673=CARTESIAN_POINT('Origin',(0.901898667216088,-1.77635683940025E-14,
1.23342404385834));
#1674=CARTESIAN_POINT('Origin',(15.8448191385923,-1.77635683940025E-14,
-0.0739120973565296));
#1675=CARTESIAN_POINT('',(9.3569091805685,-1.94564271191775E-14,17.5586437121844));
#1676=CARTESIAN_POINT('',(17.3264667653025,-1.94564271191775E-14,16.8613977702031));
#1677=CARTESIAN_POINT('Origin',(7.8752615538583,-1.77635683940025E-14,0.623333844624736));
#1678=CARTESIAN_POINT('Origin',(7.8752615538583,-1.77635683940025E-14,0.623333844624736));
#1679=CARTESIAN_POINT('Origin',(14.1017042836391,80.,-19.9978060591914));
#1680=CARTESIAN_POINT('',(-0.841216187737077,-1.33226762955019E-14,-18.6904699179766));
#1681=CARTESIAN_POINT('',(14.1017042836391,-1.33226762955019E-14,-19.9978060591914));
#1682=CARTESIAN_POINT('',(-0.841216187737077,-1.33226762955019E-14,-18.6904699179766));
#1683=CARTESIAN_POINT('Origin',(17.5879339935454,-2.22044604925031E-14,
19.8499818644784));
#1684=CARTESIAN_POINT('',(2.64501352216925,-2.22044604925031E-14,21.1573180056933));
#1685=CARTESIAN_POINT('',(2.64501352216925,80.,21.1573180056933));
#1686=CARTESIAN_POINT('',(17.5879339935454,-2.22044604925031E-14,19.8499818644784));
#1687=CARTESIAN_POINT('Origin',(15.8448191385923,-1.77635683940025E-14,
-0.0739120973565296));
#1688=CARTESIAN_POINT('Origin',(0.901898667216088,-1.77635683940025E-14,
1.23342404385834));
#1689=CARTESIAN_POINT('Origin',(0.901898667216088,30.,1.23342404385835));
#1690=UNCERTAINTY_MEASURE_WITH_UNIT(LENGTH_MEASURE(0.01),#1694,
'DISTANCE_ACCURACY_VALUE',
'Maximum model space distance between geometric entities at asserted c
onnectivities');
#1691=UNCERTAINTY_MEASURE_WITH_UNIT(LENGTH_MEASURE(0.01),#1694,
'DISTANCE_ACCURACY_VALUE',
'Maximum model space distance between geometric entities at asserted c
onnectivities');
#1692=(
GEOMETRIC_REPRESENTATION_CONTEXT(3)
GLOBAL_UNCERTAINTY_ASSIGNED_CONTEXT((#1690))
GLOBAL_UNIT_ASSIGNED_CONTEXT((#1694,#1696,#1697))
REPRESENTATION_CONTEXT('','3D')
);
#1693=(
GEOMETRIC_REPRESENTATION_CONTEXT(3)
GLOBAL_UNCERTAINTY_ASSIGNED_CONTEXT((#1691))
GLOBAL_UNIT_ASSIGNED_CONTEXT((#1694,#1696,#1697))
REPRESENTATION_CONTEXT('','3D')
);
#1694=(
LENGTH_UNIT()
NAMED_UNIT(*)
SI_UNIT(.MILLI.,.METRE.)
);
#1695=(
LENGTH_UNIT()
NAMED_UNIT(*)
SI_UNIT($,.METRE.)
);
#1696=(
NAMED_UNIT(*)
PLANE_ANGLE_UNIT()
SI_UNIT($,.RADIAN.)
);
#1697=(
NAMED_UNIT(*)
SI_UNIT($,.STERADIAN.)
SOLID_ANGLE_UNIT()
);
#1698=SHAPE_DEFINITION_REPRESENTATION(#1699,#1700);
#1699=PRODUCT_DEFINITION_SHAPE('',$,#1702);
#1700=SHAPE_REPRESENTATION('',(#1044),#1692);
#1701=PRODUCT_DEFINITION_CONTEXT('part definition',#1706,'design');
#1702=PRODUCT_DEFINITION('arm_part2','arm_part2',#1703,#1701);
#1703=PRODUCT_DEFINITION_FORMATION('',$,#1708);
#1704=PRODUCT_RELATED_PRODUCT_CATEGORY('arm_part2','arm_part2',(#1708));
#1705=APPLICATION_PROTOCOL_DEFINITION('international standard',
'automotive_design',2009,#1706);
#1706=APPLICATION_CONTEXT(
'Core Data for Automotive Mechanical Design Process');
#1707=PRODUCT_CONTEXT('part definition',#1706,'mechanical');
#1708=PRODUCT('arm_part2','arm_part2',$,(#1707));
#1709=PRESENTATION_STYLE_ASSIGNMENT((#1710));
#1710=SURFACE_STYLE_USAGE(.BOTH.,#1711);
#1711=SURFACE_SIDE_STYLE('',(#1712));
#1712=SURFACE_STYLE_FILL_AREA(#1713);
#1713=FILL_AREA_STYLE('Steel - Satin',(#1714));
#1714=FILL_AREA_STYLE_COLOUR('Steel - Satin',#1715);
#1715=COLOUR_RGB('Steel - Satin',0.627450980392157,0.627450980392157,0.627450980392157);
ENDSEC;
END-ISO-10303-21;
