ISO-10303-21;
HEADER;
/* Generated by software containing ST-Developer
 * from STEP Tools, Inc. (www.steptools.com) 
 */

FILE_DESCRIPTION(
/* description */ (''),
/* implementation_level */ '2;1');

FILE_NAME(
/* name */ 'arm_part1.step',
/* time_stamp */ '2026-08-31T16:10:38+05:30',
/* author */ (''),
/* organization */ (''),
/* preprocessor_version */ 'ST-DEVELOPER v20.1',
/* originating_system */ 'Autodesk Translation Framework v15.8.0.0',
/* authorisation */ '');

FILE_SCHEMA (('AUTOMOTIVE_DESIGN { 1 0 10303 214 3 1 1 }'));
ENDSEC;

DATA;
#10=MECHANICAL_DESIGN_GEOMETRIC_PRESENTATION_REPRESENTATION('',(#13),#1118);
#11=SHAPE_REPRESENTATION_RELATIONSHIP('SRR','None',#1125,#12);
#12=ADVANCED_BREP_SHAPE_REPRESENTATION('',(#14),#1117);
#13=STYLED_ITEM('',(#1134),#14);
#14=MANIFOLD_SOLID_BREP('Body1',#670);
#15=FACE_BOUND('',#70,.T.);
#16=FACE_BOUND('',#72,.T.);
#17=FACE_BOUND('',#74,.T.);
#18=FACE_BOUND('',#77,.T.);
#19=FACE_BOUND('',#79,.T.);
#20=FACE_BOUND('',#93,.T.);
#21=FACE_BOUND('',#105,.T.);
#22=CYLINDRICAL_SURFACE('',#692,22.);
#23=CYLINDRICAL_SURFACE('',#695,22.0000003278255);
#24=CYLINDRICAL_SURFACE('',#717,4.);
#25=CYLINDRICAL_SURFACE('',#721,4.);
#26=CYLINDRICAL_SURFACE('',#724,2.2360680108198);
#27=CYLINDRICAL_SURFACE('',#730,2.5);
#28=CYLINDRICAL_SURFACE('',#732,24.0000003576279);
#29=CYLINDRICAL_SURFACE('',#736,24.0000003576279);
#30=CYLINDRICAL_SURFACE('',#738,24.);
#31=FACE_OUTER_BOUND('',#65,.T.);
#32=FACE_OUTER_BOUND('',#66,.T.);
#33=FACE_OUTER_BOUND('',#67,.T.);
#34=FACE_OUTER_BOUND('',#68,.T.);
#35=FACE_OUTER_BOUND('',#69,.T.);
#36=FACE_OUTER_BOUND('',#71,.T.);
#37=FACE_OUTER_BOUND('',#73,.T.);
#38=FACE_OUTER_BOUND('',#75,.T.);
#39=FACE_OUTER_BOUND('',#76,.T.);
#40=FACE_OUTER_BOUND('',#78,.T.);
#41=FACE_OUTER_BOUND('',#80,.T.);
#42=FACE_OUTER_BOUND('',#81,.T.);
#43=FACE_OUTER_BOUND('',#82,.T.);
#44=FACE_OUTER_BOUND('',#83,.T.);
#45=FACE_OUTER_BOUND('',#84,.T.);
#46=FACE_OUTER_BOUND('',#85,.T.);
#47=FACE_OUTER_BOUND('',#86,.T.);
#48=FACE_OUTER_BOUND('',#87,.T.);
#49=FACE_OUTER_BOUND('',#88,.T.);
#50=FACE_OUTER_BOUND('',#89,.T.);
#51=FACE_OUTER_BOUND('',#90,.T.);
#52=FACE_OUTER_BOUND('',#91,.T.);
#53=FACE_OUTER_BOUND('',#92,.T.);
#54=FACE_OUTER_BOUND('',#94,.T.);
#55=FACE_OUTER_BOUND('',#95,.T.);
#56=FACE_OUTER_BOUND('',#96,.T.);
#57=FACE_OUTER_BOUND('',#97,.T.);
#58=FACE_OUTER_BOUND('',#98,.T.);
#59=FACE_OUTER_BOUND('',#99,.T.);
#60=FACE_OUTER_BOUND('',#100,.T.);
#61=FACE_OUTER_BOUND('',#101,.T.);
#62=FACE_OUTER_BOUND('',#102,.T.);
#63=FACE_OUTER_BOUND('',#103,.T.);
#64=FACE_OUTER_BOUND('',#104,.T.);
#65=EDGE_LOOP('',(#425,#426,#427,#428));
#66=EDGE_LOOP('',(#429,#430,#431,#432));
#67=EDGE_LOOP('',(#433,#434,#435,#436));
#68=EDGE_LOOP('',(#437,#438,#439,#440));
#69=EDGE_LOOP('',(#441,#442,#443,#444));
#70=EDGE_LOOP('',(#445,#446,#447,#448));
#71=EDGE_LOOP('',(#449,#450,#451,#452));
#72=EDGE_LOOP('',(#453,#454,#455,#456));
#73=EDGE_LOOP('',(#457,#458,#459,#460,#461,#462,#463,#464));
#74=EDGE_LOOP('',(#465));
#75=EDGE_LOOP('',(#466,#467,#468,#469,#470,#471));
#76=EDGE_LOOP('',(#472,#473,#474,#475,#476,#477));
#77=EDGE_LOOP('',(#478));
#78=EDGE_LOOP('',(#479,#480,#481,#482,#483,#484,#485,#486,#487,#488,#489,
#490,#491,#492,#493,#494,#495,#496,#497));
#79=EDGE_LOOP('',(#498,#499,#500,#501));
#80=EDGE_LOOP('',(#502,#503,#504,#505));
#81=EDGE_LOOP('',(#506,#507,#508,#509));
#82=EDGE_LOOP('',(#510,#511,#512,#513));
#83=EDGE_LOOP('',(#514,#515,#516,#517));
#84=EDGE_LOOP('',(#518,#519,#520,#521));
#85=EDGE_LOOP('',(#522,#523,#524,#525));
#86=EDGE_LOOP('',(#526,#527,#528,#529));
#87=EDGE_LOOP('',(#530,#531,#532,#533));
#88=EDGE_LOOP('',(#534,#535,#536,#537));
#89=EDGE_LOOP('',(#538,#539,#540,#541));
#90=EDGE_LOOP('',(#542,#543,#544,#545));
#91=EDGE_LOOP('',(#546,#547,#548,#549));
#92=EDGE_LOOP('',(#550,#551,#552,#553,#554,#555,#556,#557,#558));
#93=EDGE_LOOP('',(#559));
#94=EDGE_LOOP('',(#560,#561,#562,#563,#564,#565,#566,#567));
#95=EDGE_LOOP('',(#568,#569,#570,#571));
#96=EDGE_LOOP('',(#572,#573,#574,#575));
#97=EDGE_LOOP('',(#576,#577,#578,#579));
#98=EDGE_LOOP('',(#580,#581,#582,#583,#584,#585));
#99=EDGE_LOOP('',(#586,#587,#588,#589));
#100=EDGE_LOOP('',(#590,#591,#592,#593));
#101=EDGE_LOOP('',(#594,#595,#596,#597));
#102=EDGE_LOOP('',(#598,#599,#600,#601));
#103=EDGE_LOOP('',(#602,#603,#604,#605));
#104=EDGE_LOOP('',(#606));
#105=EDGE_LOOP('',(#607,#608,#609,#610));
#106=LINE('',#931,#177);
#107=LINE('',#934,#178);
#108=LINE('',#937,#179);
#109=LINE('',#939,#180);
#110=LINE('',#940,#181);
#111=LINE('',#946,#182);
#112=LINE('',#948,#183);
#113=LINE('',#949,#184);
#114=LINE('',#954,#185);
#115=LINE('',#961,#186);
#116=LINE('',#964,#187);
#117=LINE('',#969,#188);
#118=LINE('',#971,#189);
#119=LINE('',#975,#190);
#120=LINE('',#978,#191);
#121=LINE('',#982,#192);
#122=LINE('',#984,#193);
#123=LINE('',#985,#194);
#124=LINE('',#986,#195);
#125=LINE('',#989,#196);
#126=LINE('',#991,#197);
#127=LINE('',#993,#198);
#128=LINE('',#994,#199);
#129=LINE('',#1000,#200);
#130=LINE('',#1002,#201);
#131=LINE('',#1004,#202);
#132=LINE('',#1006,#203);
#133=LINE('',#1010,#204);
#134=LINE('',#1012,#205);
#135=LINE('',#1016,#206);
#136=LINE('',#1020,#207);
#137=LINE('',#1022,#208);
#138=LINE('',#1023,#209);
#139=LINE('',#1027,#210);
#140=LINE('',#1031,#211);
#141=LINE('',#1035,#212);
#142=LINE('',#1037,#213);
#143=LINE('',#1039,#214);
#144=LINE('',#1040,#215);
#145=LINE('',#1044,#216);
#146=LINE('',#1045,#217);
#147=LINE('',#1046,#218);
#148=LINE('',#1049,#219);
#149=LINE('',#1050,#220);
#150=LINE('',#1053,#221);
#151=LINE('',#1054,#222);
#152=LINE('',#1056,#223);
#153=LINE('',#1059,#224);
#154=LINE('',#1061,#225);
#155=LINE('',#1062,#226);
#156=LINE('',#1065,#227);
#157=LINE('',#1069,#228);
#158=LINE('',#1070,#229);
#159=LINE('',#1073,#230);
#160=LINE('',#1075,#231);
#161=LINE('',#1076,#232);
#162=LINE('',#1079,#233);
#163=LINE('',#1083,#234);
#164=LINE('',#1084,#235);
#165=LINE('',#1087,#236);
#166=LINE('',#1090,#237);
#167=LINE('',#1092,#238);
#168=LINE('',#1096,#239);
#169=LINE('',#1097,#240);
#170=LINE('',#1099,#241);
#171=LINE('',#1101,#242);
#172=LINE('',#1102,#243);
#173=LINE('',#1104,#244);
#174=LINE('',#1106,#245);
#175=LINE('',#1110,#246);
#176=LINE('',#1112,#247);
#177=VECTOR('',#746,10.);
#178=VECTOR('',#749,10.);
#179=VECTOR('',#752,10.);
#180=VECTOR('',#753,10.);
#181=VECTOR('',#754,10.);
#182=VECTOR('',#761,10.);
#183=VECTOR('',#764,10.);
#184=VECTOR('',#765,10.);
#185=VECTOR('',#770,22.);
#186=VECTOR('',#777,10.);
#187=VECTOR('',#780,10.);
#188=VECTOR('',#785,10.);
#189=VECTOR('',#786,10.);
#190=VECTOR('',#789,10.);
#191=VECTOR('',#792,10.);
#192=VECTOR('',#795,10.);
#193=VECTOR('',#796,10.);
#194=VECTOR('',#797,10.);
#195=VECTOR('',#798,10.);
#196=VECTOR('',#801,10.);
#197=VECTOR('',#802,10.);
#198=VECTOR('',#803,10.);
#199=VECTOR('',#804,10.);
#200=VECTOR('',#809,10.);
#201=VECTOR('',#810,10.);
#202=VECTOR('',#811,10.);
#203=VECTOR('',#812,10.);
#204=VECTOR('',#815,10.);
#205=VECTOR('',#816,10.);
#206=VECTOR('',#819,10.);
#207=VECTOR('',#822,10.);
#208=VECTOR('',#823,10.);
#209=VECTOR('',#824,10.);
#210=VECTOR('',#827,10.);
#211=VECTOR('',#830,10.);
#212=VECTOR('',#833,10.);
#213=VECTOR('',#834,10.);
#214=VECTOR('',#835,10.);
#215=VECTOR('',#836,10.);
#216=VECTOR('',#839,10.);
#217=VECTOR('',#840,10.);
#218=VECTOR('',#841,10.);
#219=VECTOR('',#844,10.);
#220=VECTOR('',#845,10.);
#221=VECTOR('',#848,10.);
#222=VECTOR('',#849,10.);
#223=VECTOR('',#852,10.);
#224=VECTOR('',#855,10.);
#225=VECTOR('',#856,10.);
#226=VECTOR('',#857,10.);
#227=VECTOR('',#860,10.);
#228=VECTOR('',#865,10.);
#229=VECTOR('',#866,10.);
#230=VECTOR('',#869,10.);
#231=VECTOR('',#870,10.);
#232=VECTOR('',#871,10.);
#233=VECTOR('',#874,10.);
#234=VECTOR('',#879,10.);
#235=VECTOR('',#880,10.);
#236=VECTOR('',#883,10.);
#237=VECTOR('',#888,10.);
#238=VECTOR('',#891,10.);
#239=VECTOR('',#896,10.);
#240=VECTOR('',#897,10.);
#241=VECTOR('',#900,2.5);
#242=VECTOR('',#903,10.);
#243=VECTOR('',#904,10.);
#244=VECTOR('',#907,10.);
#245=VECTOR('',#910,10.);
#246=VECTOR('',#917,10.);
#247=VECTOR('',#920,10.);
#248=CIRCLE('',#685,22.0000003278255);
#249=CIRCLE('',#686,22.);
#250=CIRCLE('',#689,22.0000003278255);
#251=CIRCLE('',#690,22.);
#252=CIRCLE('',#693,22.);
#253=CIRCLE('',#694,22.);
#254=CIRCLE('',#696,22.0000003278255);
#255=CIRCLE('',#697,22.0000003278255);
#256=CIRCLE('',#699,24.0000003576279);
#257=CIRCLE('',#700,24.0000003576279);
#258=CIRCLE('',#701,24.);
#259=CIRCLE('',#704,2.5);
#260=CIRCLE('',#706,4.);
#261=CIRCLE('',#707,2.2360680108198);
#262=CIRCLE('',#708,4.);
#263=CIRCLE('',#709,24.0000003576279);
#264=CIRCLE('',#710,24.);
#265=CIRCLE('',#711,24.0000003576279);
#266=CIRCLE('',#718,4.);
#267=CIRCLE('',#722,4.);
#268=CIRCLE('',#725,2.2360680108198);
#269=CIRCLE('',#728,2.5);
#270=VERTEX_POINT('',#927);
#271=VERTEX_POINT('',#928);
#272=VERTEX_POINT('',#930);
#273=VERTEX_POINT('',#932);
#274=VERTEX_POINT('',#936);
#275=VERTEX_POINT('',#938);
#276=VERTEX_POINT('',#942);
#277=VERTEX_POINT('',#944);
#278=VERTEX_POINT('',#951);
#279=VERTEX_POINT('',#953);
#280=VERTEX_POINT('',#957);
#281=VERTEX_POINT('',#958);
#282=VERTEX_POINT('',#960);
#283=VERTEX_POINT('',#962);
#284=VERTEX_POINT('',#966);
#285=VERTEX_POINT('',#967);
#286=VERTEX_POINT('',#970);
#287=VERTEX_POINT('',#972);
#288=VERTEX_POINT('',#974);
#289=VERTEX_POINT('',#976);
#290=VERTEX_POINT('',#980);
#291=VERTEX_POINT('',#981);
#292=VERTEX_POINT('',#983);
#293=VERTEX_POINT('',#988);
#294=VERTEX_POINT('',#990);
#295=VERTEX_POINT('',#992);
#296=VERTEX_POINT('',#995);
#297=VERTEX_POINT('',#998);
#298=VERTEX_POINT('',#999);
#299=VERTEX_POINT('',#1001);
#300=VERTEX_POINT('',#1003);
#301=VERTEX_POINT('',#1005);
#302=VERTEX_POINT('',#1007);
#303=VERTEX_POINT('',#1009);
#304=VERTEX_POINT('',#1011);
#305=VERTEX_POINT('',#1013);
#306=VERTEX_POINT('',#1015);
#307=VERTEX_POINT('',#1017);
#308=VERTEX_POINT('',#1019);
#309=VERTEX_POINT('',#1021);
#310=VERTEX_POINT('',#1024);
#311=VERTEX_POINT('',#1026);
#312=VERTEX_POINT('',#1028);
#313=VERTEX_POINT('',#1030);
#314=VERTEX_POINT('',#1033);
#315=VERTEX_POINT('',#1034);
#316=VERTEX_POINT('',#1036);
#317=VERTEX_POINT('',#1038);
#318=VERTEX_POINT('',#1042);
#319=VERTEX_POINT('',#1043);
#320=VERTEX_POINT('',#1048);
#321=VERTEX_POINT('',#1052);
#322=VERTEX_POINT('',#1058);
#323=VERTEX_POINT('',#1060);
#324=VERTEX_POINT('',#1064);
#325=VERTEX_POINT('',#1068);
#326=VERTEX_POINT('',#1072);
#327=VERTEX_POINT('',#1074);
#328=VERTEX_POINT('',#1078);
#329=VERTEX_POINT('',#1082);
#330=VERTEX_POINT('',#1086);
#331=VERTEX_POINT('',#1093);
#332=EDGE_CURVE('',#270,#271,#248,.T.);
#333=EDGE_CURVE('',#270,#272,#106,.T.);
#334=EDGE_CURVE('',#273,#272,#249,.T.);
#335=EDGE_CURVE('',#271,#273,#107,.T.);
#336=EDGE_CURVE('',#271,#274,#108,.T.);
#337=EDGE_CURVE('',#275,#273,#109,.T.);
#338=EDGE_CURVE('',#275,#274,#110,.T.);
#339=EDGE_CURVE('',#274,#276,#250,.T.);
#340=EDGE_CURVE('',#277,#275,#251,.T.);
#341=EDGE_CURVE('',#276,#277,#111,.T.);
#342=EDGE_CURVE('',#276,#270,#112,.T.);
#343=EDGE_CURVE('',#272,#277,#113,.T.);
#344=EDGE_CURVE('',#278,#278,#252,.T.);
#345=EDGE_CURVE('',#278,#279,#114,.T.);
#346=EDGE_CURVE('',#279,#279,#253,.T.);
#347=EDGE_CURVE('',#280,#281,#254,.T.);
#348=EDGE_CURVE('',#280,#282,#115,.T.);
#349=EDGE_CURVE('',#283,#282,#255,.T.);
#350=EDGE_CURVE('',#281,#283,#116,.T.);
#351=EDGE_CURVE('',#284,#285,#256,.T.);
#352=EDGE_CURVE('',#285,#283,#117,.T.);
#353=EDGE_CURVE('',#282,#286,#118,.T.);
#354=EDGE_CURVE('',#286,#287,#257,.T.);
#355=EDGE_CURVE('',#287,#288,#119,.T.);
#356=EDGE_CURVE('',#288,#289,#258,.T.);
#357=EDGE_CURVE('',#289,#284,#120,.T.);
#358=EDGE_CURVE('',#290,#291,#121,.T.);
#359=EDGE_CURVE('',#291,#292,#122,.T.);
#360=EDGE_CURVE('',#281,#292,#123,.T.);
#361=EDGE_CURVE('',#290,#285,#124,.T.);
#362=EDGE_CURVE('',#292,#293,#125,.T.);
#363=EDGE_CURVE('',#293,#294,#126,.T.);
#364=EDGE_CURVE('',#294,#295,#127,.T.);
#365=EDGE_CURVE('',#295,#280,#128,.T.);
#366=EDGE_CURVE('',#296,#296,#259,.T.);
#367=EDGE_CURVE('',#297,#298,#129,.T.);
#368=EDGE_CURVE('',#298,#299,#130,.T.);
#369=EDGE_CURVE('',#299,#300,#131,.T.);
#370=EDGE_CURVE('',#300,#301,#132,.T.);
#371=EDGE_CURVE('',#301,#302,#260,.T.);
#372=EDGE_CURVE('',#302,#303,#133,.T.);
#373=EDGE_CURVE('',#303,#304,#134,.T.);
#374=EDGE_CURVE('',#304,#305,#261,.T.);
#375=EDGE_CURVE('',#305,#306,#135,.T.);
#376=EDGE_CURVE('',#306,#307,#262,.T.);
#377=EDGE_CURVE('',#307,#308,#136,.T.);
#378=EDGE_CURVE('',#308,#309,#137,.T.);
#379=EDGE_CURVE('',#309,#291,#138,.T.);
#380=EDGE_CURVE('',#310,#290,#263,.T.);
#381=EDGE_CURVE('',#310,#311,#139,.T.);
#382=EDGE_CURVE('',#312,#311,#264,.T.);
#383=EDGE_CURVE('',#312,#313,#140,.T.);
#384=EDGE_CURVE('',#297,#313,#265,.T.);
#385=EDGE_CURVE('',#314,#315,#141,.T.);
#386=EDGE_CURVE('',#315,#316,#142,.T.);
#387=EDGE_CURVE('',#316,#317,#143,.T.);
#388=EDGE_CURVE('',#317,#314,#144,.T.);
#389=EDGE_CURVE('',#318,#319,#145,.T.);
#390=EDGE_CURVE('',#317,#318,#146,.T.);
#391=EDGE_CURVE('',#316,#319,#147,.T.);
#392=EDGE_CURVE('',#319,#320,#148,.T.);
#393=EDGE_CURVE('',#315,#320,#149,.T.);
#394=EDGE_CURVE('',#320,#321,#150,.T.);
#395=EDGE_CURVE('',#314,#321,#151,.T.);
#396=EDGE_CURVE('',#321,#318,#152,.T.);
#397=EDGE_CURVE('',#302,#322,#153,.T.);
#398=EDGE_CURVE('',#322,#323,#154,.T.);
#399=EDGE_CURVE('',#303,#323,#155,.T.);
#400=EDGE_CURVE('',#301,#324,#156,.T.);
#401=EDGE_CURVE('',#324,#322,#266,.T.);
#402=EDGE_CURVE('',#325,#300,#157,.T.);
#403=EDGE_CURVE('',#325,#324,#158,.T.);
#404=EDGE_CURVE('',#307,#326,#159,.T.);
#405=EDGE_CURVE('',#326,#327,#160,.T.);
#406=EDGE_CURVE('',#308,#327,#161,.T.);
#407=EDGE_CURVE('',#306,#328,#162,.T.);
#408=EDGE_CURVE('',#328,#326,#267,.T.);
#409=EDGE_CURVE('',#305,#329,#163,.T.);
#410=EDGE_CURVE('',#329,#328,#164,.T.);
#411=EDGE_CURVE('',#304,#330,#165,.T.);
#412=EDGE_CURVE('',#330,#329,#268,.T.);
#413=EDGE_CURVE('',#323,#330,#166,.T.);
#414=EDGE_CURVE('',#327,#325,#167,.T.);
#415=EDGE_CURVE('',#331,#331,#269,.T.);
#416=EDGE_CURVE('',#299,#294,#168,.T.);
#417=EDGE_CURVE('',#309,#293,#169,.T.);
#418=EDGE_CURVE('',#331,#296,#170,.T.);
#419=EDGE_CURVE('',#312,#288,#171,.T.);
#420=EDGE_CURVE('',#313,#287,#172,.T.);
#421=EDGE_CURVE('',#297,#286,#173,.T.);
#422=EDGE_CURVE('',#298,#295,#174,.T.);
#423=EDGE_CURVE('',#310,#284,#175,.T.);
#424=EDGE_CURVE('',#311,#289,#176,.T.);
#425=ORIENTED_EDGE('',*,*,#332,.F.);
#426=ORIENTED_EDGE('',*,*,#333,.T.);
#427=ORIENTED_EDGE('',*,*,#334,.F.);
#428=ORIENTED_EDGE('',*,*,#335,.F.);
#429=ORIENTED_EDGE('',*,*,#336,.F.);
#430=ORIENTED_EDGE('',*,*,#335,.T.);
#431=ORIENTED_EDGE('',*,*,#337,.F.);
#432=ORIENTED_EDGE('',*,*,#338,.T.);
#433=ORIENTED_EDGE('',*,*,#339,.F.);
#434=ORIENTED_EDGE('',*,*,#338,.F.);
#435=ORIENTED_EDGE('',*,*,#340,.F.);
#436=ORIENTED_EDGE('',*,*,#341,.F.);
#437=ORIENTED_EDGE('',*,*,#342,.F.);
#438=ORIENTED_EDGE('',*,*,#341,.T.);
#439=ORIENTED_EDGE('',*,*,#343,.F.);
#440=ORIENTED_EDGE('',*,*,#333,.F.);
#441=ORIENTED_EDGE('',*,*,#344,.F.);
#442=ORIENTED_EDGE('',*,*,#345,.T.);
#443=ORIENTED_EDGE('',*,*,#346,.F.);
#444=ORIENTED_EDGE('',*,*,#345,.F.);
#445=ORIENTED_EDGE('',*,*,#334,.T.);
#446=ORIENTED_EDGE('',*,*,#343,.T.);
#447=ORIENTED_EDGE('',*,*,#340,.T.);
#448=ORIENTED_EDGE('',*,*,#337,.T.);
#449=ORIENTED_EDGE('',*,*,#347,.F.);
#450=ORIENTED_EDGE('',*,*,#348,.T.);
#451=ORIENTED_EDGE('',*,*,#349,.F.);
#452=ORIENTED_EDGE('',*,*,#350,.F.);
#453=ORIENTED_EDGE('',*,*,#339,.T.);
#454=ORIENTED_EDGE('',*,*,#342,.T.);
#455=ORIENTED_EDGE('',*,*,#332,.T.);
#456=ORIENTED_EDGE('',*,*,#336,.T.);
#457=ORIENTED_EDGE('',*,*,#351,.T.);
#458=ORIENTED_EDGE('',*,*,#352,.T.);
#459=ORIENTED_EDGE('',*,*,#349,.T.);
#460=ORIENTED_EDGE('',*,*,#353,.T.);
#461=ORIENTED_EDGE('',*,*,#354,.T.);
#462=ORIENTED_EDGE('',*,*,#355,.T.);
#463=ORIENTED_EDGE('',*,*,#356,.T.);
#464=ORIENTED_EDGE('',*,*,#357,.T.);
#465=ORIENTED_EDGE('',*,*,#344,.T.);
#466=ORIENTED_EDGE('',*,*,#358,.T.);
#467=ORIENTED_EDGE('',*,*,#359,.T.);
#468=ORIENTED_EDGE('',*,*,#360,.F.);
#469=ORIENTED_EDGE('',*,*,#350,.T.);
#470=ORIENTED_EDGE('',*,*,#352,.F.);
#471=ORIENTED_EDGE('',*,*,#361,.F.);
#472=ORIENTED_EDGE('',*,*,#347,.T.);
#473=ORIENTED_EDGE('',*,*,#360,.T.);
#474=ORIENTED_EDGE('',*,*,#362,.T.);
#475=ORIENTED_EDGE('',*,*,#363,.T.);
#476=ORIENTED_EDGE('',*,*,#364,.T.);
#477=ORIENTED_EDGE('',*,*,#365,.T.);
#478=ORIENTED_EDGE('',*,*,#366,.T.);
#479=ORIENTED_EDGE('',*,*,#367,.T.);
#480=ORIENTED_EDGE('',*,*,#368,.T.);
#481=ORIENTED_EDGE('',*,*,#369,.T.);
#482=ORIENTED_EDGE('',*,*,#370,.T.);
#483=ORIENTED_EDGE('',*,*,#371,.T.);
#484=ORIENTED_EDGE('',*,*,#372,.T.);
#485=ORIENTED_EDGE('',*,*,#373,.T.);
#486=ORIENTED_EDGE('',*,*,#374,.T.);
#487=ORIENTED_EDGE('',*,*,#375,.T.);
#488=ORIENTED_EDGE('',*,*,#376,.T.);
#489=ORIENTED_EDGE('',*,*,#377,.T.);
#490=ORIENTED_EDGE('',*,*,#378,.T.);
#491=ORIENTED_EDGE('',*,*,#379,.T.);
#492=ORIENTED_EDGE('',*,*,#358,.F.);
#493=ORIENTED_EDGE('',*,*,#380,.F.);
#494=ORIENTED_EDGE('',*,*,#381,.T.);
#495=ORIENTED_EDGE('',*,*,#382,.F.);
#496=ORIENTED_EDGE('',*,*,#383,.T.);
#497=ORIENTED_EDGE('',*,*,#384,.F.);
#498=ORIENTED_EDGE('',*,*,#385,.T.);
#499=ORIENTED_EDGE('',*,*,#386,.T.);
#500=ORIENTED_EDGE('',*,*,#387,.T.);
#501=ORIENTED_EDGE('',*,*,#388,.T.);
#502=ORIENTED_EDGE('',*,*,#389,.F.);
#503=ORIENTED_EDGE('',*,*,#390,.F.);
#504=ORIENTED_EDGE('',*,*,#387,.F.);
#505=ORIENTED_EDGE('',*,*,#391,.T.);
#506=ORIENTED_EDGE('',*,*,#392,.F.);
#507=ORIENTED_EDGE('',*,*,#391,.F.);
#508=ORIENTED_EDGE('',*,*,#386,.F.);
#509=ORIENTED_EDGE('',*,*,#393,.T.);
#510=ORIENTED_EDGE('',*,*,#394,.F.);
#511=ORIENTED_EDGE('',*,*,#393,.F.);
#512=ORIENTED_EDGE('',*,*,#385,.F.);
#513=ORIENTED_EDGE('',*,*,#395,.T.);
#514=ORIENTED_EDGE('',*,*,#396,.F.);
#515=ORIENTED_EDGE('',*,*,#395,.F.);
#516=ORIENTED_EDGE('',*,*,#388,.F.);
#517=ORIENTED_EDGE('',*,*,#390,.T.);
#518=ORIENTED_EDGE('',*,*,#372,.F.);
#519=ORIENTED_EDGE('',*,*,#397,.T.);
#520=ORIENTED_EDGE('',*,*,#398,.T.);
#521=ORIENTED_EDGE('',*,*,#399,.F.);
#522=ORIENTED_EDGE('',*,*,#371,.F.);
#523=ORIENTED_EDGE('',*,*,#400,.T.);
#524=ORIENTED_EDGE('',*,*,#401,.T.);
#525=ORIENTED_EDGE('',*,*,#397,.F.);
#526=ORIENTED_EDGE('',*,*,#370,.F.);
#527=ORIENTED_EDGE('',*,*,#402,.F.);
#528=ORIENTED_EDGE('',*,*,#403,.T.);
#529=ORIENTED_EDGE('',*,*,#400,.F.);
#530=ORIENTED_EDGE('',*,*,#377,.F.);
#531=ORIENTED_EDGE('',*,*,#404,.T.);
#532=ORIENTED_EDGE('',*,*,#405,.T.);
#533=ORIENTED_EDGE('',*,*,#406,.F.);
#534=ORIENTED_EDGE('',*,*,#376,.F.);
#535=ORIENTED_EDGE('',*,*,#407,.T.);
#536=ORIENTED_EDGE('',*,*,#408,.T.);
#537=ORIENTED_EDGE('',*,*,#404,.F.);
#538=ORIENTED_EDGE('',*,*,#375,.F.);
#539=ORIENTED_EDGE('',*,*,#409,.T.);
#540=ORIENTED_EDGE('',*,*,#410,.T.);
#541=ORIENTED_EDGE('',*,*,#407,.F.);
#542=ORIENTED_EDGE('',*,*,#374,.F.);
#543=ORIENTED_EDGE('',*,*,#411,.T.);
#544=ORIENTED_EDGE('',*,*,#412,.T.);
#545=ORIENTED_EDGE('',*,*,#409,.F.);
#546=ORIENTED_EDGE('',*,*,#373,.F.);
#547=ORIENTED_EDGE('',*,*,#399,.T.);
#548=ORIENTED_EDGE('',*,*,#413,.T.);
#549=ORIENTED_EDGE('',*,*,#411,.F.);
#550=ORIENTED_EDGE('',*,*,#413,.F.);
#551=ORIENTED_EDGE('',*,*,#398,.F.);
#552=ORIENTED_EDGE('',*,*,#401,.F.);
#553=ORIENTED_EDGE('',*,*,#403,.F.);
#554=ORIENTED_EDGE('',*,*,#414,.F.);
#555=ORIENTED_EDGE('',*,*,#405,.F.);
#556=ORIENTED_EDGE('',*,*,#408,.F.);
#557=ORIENTED_EDGE('',*,*,#410,.F.);
#558=ORIENTED_EDGE('',*,*,#412,.F.);
#559=ORIENTED_EDGE('',*,*,#415,.F.);
#560=ORIENTED_EDGE('',*,*,#406,.T.);
#561=ORIENTED_EDGE('',*,*,#414,.T.);
#562=ORIENTED_EDGE('',*,*,#402,.T.);
#563=ORIENTED_EDGE('',*,*,#369,.F.);
#564=ORIENTED_EDGE('',*,*,#416,.T.);
#565=ORIENTED_EDGE('',*,*,#363,.F.);
#566=ORIENTED_EDGE('',*,*,#417,.F.);
#567=ORIENTED_EDGE('',*,*,#378,.F.);
#568=ORIENTED_EDGE('',*,*,#415,.T.);
#569=ORIENTED_EDGE('',*,*,#418,.T.);
#570=ORIENTED_EDGE('',*,*,#366,.F.);
#571=ORIENTED_EDGE('',*,*,#418,.F.);
#572=ORIENTED_EDGE('',*,*,#383,.F.);
#573=ORIENTED_EDGE('',*,*,#419,.T.);
#574=ORIENTED_EDGE('',*,*,#355,.F.);
#575=ORIENTED_EDGE('',*,*,#420,.F.);
#576=ORIENTED_EDGE('',*,*,#384,.T.);
#577=ORIENTED_EDGE('',*,*,#420,.T.);
#578=ORIENTED_EDGE('',*,*,#354,.F.);
#579=ORIENTED_EDGE('',*,*,#421,.F.);
#580=ORIENTED_EDGE('',*,*,#365,.F.);
#581=ORIENTED_EDGE('',*,*,#422,.F.);
#582=ORIENTED_EDGE('',*,*,#367,.F.);
#583=ORIENTED_EDGE('',*,*,#421,.T.);
#584=ORIENTED_EDGE('',*,*,#353,.F.);
#585=ORIENTED_EDGE('',*,*,#348,.F.);
#586=ORIENTED_EDGE('',*,*,#368,.F.);
#587=ORIENTED_EDGE('',*,*,#422,.T.);
#588=ORIENTED_EDGE('',*,*,#364,.F.);
#589=ORIENTED_EDGE('',*,*,#416,.F.);
#590=ORIENTED_EDGE('',*,*,#379,.F.);
#591=ORIENTED_EDGE('',*,*,#417,.T.);
#592=ORIENTED_EDGE('',*,*,#362,.F.);
#593=ORIENTED_EDGE('',*,*,#359,.F.);
#594=ORIENTED_EDGE('',*,*,#380,.T.);
#595=ORIENTED_EDGE('',*,*,#361,.T.);
#596=ORIENTED_EDGE('',*,*,#351,.F.);
#597=ORIENTED_EDGE('',*,*,#423,.F.);
#598=ORIENTED_EDGE('',*,*,#381,.F.);
#599=ORIENTED_EDGE('',*,*,#423,.T.);
#600=ORIENTED_EDGE('',*,*,#357,.F.);
#601=ORIENTED_EDGE('',*,*,#424,.F.);
#602=ORIENTED_EDGE('',*,*,#382,.T.);
#603=ORIENTED_EDGE('',*,*,#424,.T.);
#604=ORIENTED_EDGE('',*,*,#356,.F.);
#605=ORIENTED_EDGE('',*,*,#419,.F.);
#606=ORIENTED_EDGE('',*,*,#346,.T.);
#607=ORIENTED_EDGE('',*,*,#394,.T.);
#608=ORIENTED_EDGE('',*,*,#396,.T.);
#609=ORIENTED_EDGE('',*,*,#389,.T.);
#610=ORIENTED_EDGE('',*,*,#392,.T.);
#611=PLANE('',#684);
#612=PLANE('',#687);
#613=PLANE('',#688);
#614=PLANE('',#691);
#615=PLANE('',#698);
#616=PLANE('',#702);
#617=PLANE('',#703);
#618=PLANE('',#705);
#619=PLANE('',#712);
#620=PLANE('',#713);
#621=PLANE('',#714);
#622=PLANE('',#715);
#623=PLANE('',#716);
#624=PLANE('',#719);
#625=PLANE('',#720);
#626=PLANE('',#723);
#627=PLANE('',#726);
#628=PLANE('',#727);
#629=PLANE('',#729);
#630=PLANE('',#731);
#631=PLANE('',#733);
#632=PLANE('',#734);
#633=PLANE('',#735);
#634=PLANE('',#737);
#635=PLANE('',#739);
#636=ADVANCED_FACE('',(#31),#611,.F.);
#637=ADVANCED_FACE('',(#32),#612,.F.);
#638=ADVANCED_FACE('',(#33),#613,.F.);
#639=ADVANCED_FACE('',(#34),#614,.F.);
#640=ADVANCED_FACE('',(#35,#15),#22,.F.);
#641=ADVANCED_FACE('',(#36,#16),#23,.F.);
#642=ADVANCED_FACE('',(#37,#17),#615,.T.);
#643=ADVANCED_FACE('',(#38),#616,.T.);
#644=ADVANCED_FACE('',(#39,#18),#617,.T.);
#645=ADVANCED_FACE('',(#40,#19),#618,.F.);
#646=ADVANCED_FACE('',(#41),#619,.F.);
#647=ADVANCED_FACE('',(#42),#620,.F.);
#648=ADVANCED_FACE('',(#43),#621,.F.);
#649=ADVANCED_FACE('',(#44),#622,.F.);
#650=ADVANCED_FACE('',(#45),#623,.F.);
#651=ADVANCED_FACE('',(#46),#24,.F.);
#652=ADVANCED_FACE('',(#47),#624,.F.);
#653=ADVANCED_FACE('',(#48),#625,.F.);
#654=ADVANCED_FACE('',(#49),#25,.F.);
#655=ADVANCED_FACE('',(#50),#626,.F.);
#656=ADVANCED_FACE('',(#51),#26,.F.);
#657=ADVANCED_FACE('',(#52),#627,.F.);
#658=ADVANCED_FACE('',(#53,#20),#628,.F.);
#659=ADVANCED_FACE('',(#54),#629,.T.);
#660=ADVANCED_FACE('',(#55),#27,.F.);
#661=ADVANCED_FACE('',(#56),#630,.T.);
#662=ADVANCED_FACE('',(#57),#28,.T.);
#663=ADVANCED_FACE('',(#58),#631,.T.);
#664=ADVANCED_FACE('',(#59),#632,.T.);
#665=ADVANCED_FACE('',(#60),#633,.T.);
#666=ADVANCED_FACE('',(#61),#29,.T.);
#667=ADVANCED_FACE('',(#62),#634,.T.);
#668=ADVANCED_FACE('',(#63),#30,.T.);
#669=ADVANCED_FACE('',(#64,#21),#635,.T.);
#670=CLOSED_SHELL('',(#636,#637,#638,#639,#640,#641,#642,#643,#644,#645,
#646,#647,#648,#649,#650,#651,#652,#653,#654,#655,#656,#657,#658,#659,#660,
#661,#662,#663,#664,#665,#666,#667,#668,#669));
#671=DERIVED_UNIT_ELEMENT(#673,1.);
#672=DERIVED_UNIT_ELEMENT(#1120,-3.);
#673=(
MASS_UNIT()
NAMED_UNIT(*)
SI_UNIT(.KILO.,.GRAM.)
);
#674=DERIVED_UNIT((#671,#672));
#675=MEASURE_REPRESENTATION_ITEM('density measure',
POSITIVE_RATIO_MEASURE(7850.),#674);
#676=PROPERTY_DEFINITION_REPRESENTATION(#681,#678);
#677=PROPERTY_DEFINITION_REPRESENTATION(#682,#679);
#678=REPRESENTATION('material name',(#680),#1117);
#679=REPRESENTATION('density',(#675),#1117);
#680=DESCRIPTIVE_REPRESENTATION_ITEM('Steel','Steel');
#681=PROPERTY_DEFINITION('material property','material name',#1127);
#682=PROPERTY_DEFINITION('material property','density of part',#1127);
#683=AXIS2_PLACEMENT_3D('',#925,#740,#741);
#684=AXIS2_PLACEMENT_3D('',#926,#742,#743);
#685=AXIS2_PLACEMENT_3D('',#929,#744,#745);
#686=AXIS2_PLACEMENT_3D('',#933,#747,#748);
#687=AXIS2_PLACEMENT_3D('',#935,#750,#751);
#688=AXIS2_PLACEMENT_3D('',#941,#755,#756);
#689=AXIS2_PLACEMENT_3D('',#943,#757,#758);
#690=AXIS2_PLACEMENT_3D('',#945,#759,#760);
#691=AXIS2_PLACEMENT_3D('',#947,#762,#763);
#692=AXIS2_PLACEMENT_3D('',#950,#766,#767);
#693=AXIS2_PLACEMENT_3D('',#952,#768,#769);
#694=AXIS2_PLACEMENT_3D('',#955,#771,#772);
#695=AXIS2_PLACEMENT_3D('',#956,#773,#774);
#696=AXIS2_PLACEMENT_3D('',#959,#775,#776);
#697=AXIS2_PLACEMENT_3D('',#963,#778,#779);
#698=AXIS2_PLACEMENT_3D('',#965,#781,#782);
#699=AXIS2_PLACEMENT_3D('',#968,#783,#784);
#700=AXIS2_PLACEMENT_3D('',#973,#787,#788);
#701=AXIS2_PLACEMENT_3D('',#977,#790,#791);
#702=AXIS2_PLACEMENT_3D('',#979,#793,#794);
#703=AXIS2_PLACEMENT_3D('',#987,#799,#800);
#704=AXIS2_PLACEMENT_3D('',#996,#805,#806);
#705=AXIS2_PLACEMENT_3D('',#997,#807,#808);
#706=AXIS2_PLACEMENT_3D('',#1008,#813,#814);
#707=AXIS2_PLACEMENT_3D('',#1014,#817,#818);
#708=AXIS2_PLACEMENT_3D('',#1018,#820,#821);
#709=AXIS2_PLACEMENT_3D('',#1025,#825,#826);
#710=AXIS2_PLACEMENT_3D('',#1029,#828,#829);
#711=AXIS2_PLACEMENT_3D('',#1032,#831,#832);
#712=AXIS2_PLACEMENT_3D('',#1041,#837,#838);
#713=AXIS2_PLACEMENT_3D('',#1047,#842,#843);
#714=AXIS2_PLACEMENT_3D('',#1051,#846,#847);
#715=AXIS2_PLACEMENT_3D('',#1055,#850,#851);
#716=AXIS2_PLACEMENT_3D('',#1057,#853,#854);
#717=AXIS2_PLACEMENT_3D('',#1063,#858,#859);
#718=AXIS2_PLACEMENT_3D('',#1066,#861,#862);
#719=AXIS2_PLACEMENT_3D('',#1067,#863,#864);
#720=AXIS2_PLACEMENT_3D('',#1071,#867,#868);
#721=AXIS2_PLACEMENT_3D('',#1077,#872,#873);
#722=AXIS2_PLACEMENT_3D('',#1080,#875,#876);
#723=AXIS2_PLACEMENT_3D('',#1081,#877,#878);
#724=AXIS2_PLACEMENT_3D('',#1085,#881,#882);
#725=AXIS2_PLACEMENT_3D('',#1088,#884,#885);
#726=AXIS2_PLACEMENT_3D('',#1089,#886,#887);
#727=AXIS2_PLACEMENT_3D('',#1091,#889,#890);
#728=AXIS2_PLACEMENT_3D('',#1094,#892,#893);
#729=AXIS2_PLACEMENT_3D('',#1095,#894,#895);
#730=AXIS2_PLACEMENT_3D('',#1098,#898,#899);
#731=AXIS2_PLACEMENT_3D('',#1100,#901,#902);
#732=AXIS2_PLACEMENT_3D('',#1103,#905,#906);
#733=AXIS2_PLACEMENT_3D('',#1105,#908,#909);
#734=AXIS2_PLACEMENT_3D('',#1107,#911,#912);
#735=AXIS2_PLACEMENT_3D('',#1108,#913,#914);
#736=AXIS2_PLACEMENT_3D('',#1109,#915,#916);
#737=AXIS2_PLACEMENT_3D('',#1111,#918,#919);
#738=AXIS2_PLACEMENT_3D('',#1113,#921,#922);
#739=AXIS2_PLACEMENT_3D('',#1114,#923,#924);
#740=DIRECTION('axis',(0.,0.,1.));
#741=DIRECTION('refdir',(1.,0.,0.));
#742=DIRECTION('center_axis',(-1.,1.39899551160289E-30,1.60237371373018E-31));
#743=DIRECTION('ref_axis',(1.1746913345391E-30,0.766044443118978,0.642787609686539));
#744=DIRECTION('center_axis',(1.,-1.39899551160289E-30,-1.60237371373018E-31));
#745=DIRECTION('ref_axis',(1.1746913345391E-30,0.766044443118978,0.642787609686539));
#746=DIRECTION('',(-7.76508032945125E-31,-0.642787609686539,0.766044443118978));
#747=DIRECTION('center_axis',(1.,-1.39899551160289E-30,-1.60237371373018E-31));
#748=DIRECTION('ref_axis',(-1.1746913345391E-30,-0.766044443118978,-0.642787609686539));
#749=DIRECTION('',(-7.76508032945125E-31,-0.642787609686539,0.766044443118978));
#750=DIRECTION('center_axis',(-1.1746913345391E-30,-0.766044443118978,-0.642787609686539));
#751=DIRECTION('ref_axis',(-1.,1.39899551160289E-30,1.60237371373018E-31));
#752=DIRECTION('',(1.,-1.39899551160289E-30,-1.60237371373018E-31));
#753=DIRECTION('',(-1.,1.39899551160289E-30,1.60237371373018E-31));
#754=DIRECTION('',(7.76508032945125E-31,0.642787609686539,-0.766044443118978));
#755=DIRECTION('center_axis',(1.,-1.39899551160289E-30,-1.60237371373018E-31));
#756=DIRECTION('ref_axis',(-1.1746913345391E-30,-0.766044443118978,-0.642787609686539));
#757=DIRECTION('center_axis',(-1.,1.39899551160289E-30,1.60237371373018E-31));
#758=DIRECTION('ref_axis',(1.1746913345391E-30,0.766044443118978,0.642787609686539));
#759=DIRECTION('center_axis',(-1.,1.39899551160289E-30,1.60237371373018E-31));
#760=DIRECTION('ref_axis',(-1.1746913345391E-30,-0.766044443118978,-0.642787609686539));
#761=DIRECTION('',(-7.76508032945125E-31,-0.642787609686539,0.766044443118978));
#762=DIRECTION('center_axis',(1.1746913345391E-30,0.766044443118978,0.642787609686539));
#763=DIRECTION('ref_axis',(1.,-1.39899551160289E-30,-1.60237371373018E-31));
#764=DIRECTION('',(-1.,1.39899551160289E-30,1.60237371373018E-31));
#765=DIRECTION('',(1.,-1.39899551160289E-30,-1.60237371373018E-31));
#766=DIRECTION('center_axis',(1.,-1.39899551160289E-30,-1.60237371373018E-31));
#767=DIRECTION('ref_axis',(-1.1746913345391E-30,-0.766044443118978,-0.642787609686539));
#768=DIRECTION('center_axis',(-1.,1.39899551160289E-30,1.60237371373018E-31));
#769=DIRECTION('ref_axis',(-1.1746913345391E-30,-0.766044443118978,-0.642787609686539));
#770=DIRECTION('',(-1.,1.39899551160289E-30,1.60237371373018E-31));
#771=DIRECTION('center_axis',(1.,-1.39899551160289E-30,-1.60237371373018E-31));
#772=DIRECTION('ref_axis',(-1.1746913345391E-30,-0.766044443118978,-0.642787609686539));
#773=DIRECTION('center_axis',(1.,-1.39899551160289E-30,-1.60237371373018E-31));
#774=DIRECTION('ref_axis',(1.1746913345391E-30,0.766044443118978,0.642787609686539));
#775=DIRECTION('center_axis',(1.,-1.39899551160289E-30,-1.60237371373018E-31));
#776=DIRECTION('ref_axis',(1.1746913345391E-30,0.766044443118978,0.642787609686539));
#777=DIRECTION('',(1.,-1.39899551160289E-30,-1.60237371373018E-31));
#778=DIRECTION('center_axis',(-1.,1.39899551160289E-30,1.60237371373018E-31));
#779=DIRECTION('ref_axis',(1.1746913345391E-30,0.766044443118978,0.642787609686539));
#780=DIRECTION('',(1.,-1.39899551160289E-30,-1.60237371373018E-31));
#781=DIRECTION('center_axis',(1.,-1.39899551160289E-30,-1.60237371373018E-31));
#782=DIRECTION('ref_axis',(-1.1746913345391E-30,-0.766044443118978,-0.642787609686539));
#783=DIRECTION('center_axis',(1.,-1.39899551160289E-30,-1.60237371373018E-31));
#784=DIRECTION('ref_axis',(-1.34034347302226E-30,-0.980553693935327,0.196250995691192));
#785=DIRECTION('',(1.1746913345391E-30,0.766044443118978,0.642787609686539));
#786=DIRECTION('',(1.1746913345391E-30,0.766044443118978,0.642787609686539));
#787=DIRECTION('center_axis',(1.,-1.39899551160289E-30,-1.60237371373018E-31));
#788=DIRECTION('ref_axis',(1.1746913345391E-30,0.766044443118978,0.642787609686539));
#789=DIRECTION('',(-7.76508032945125E-31,-0.642787609686539,0.766044443118978));
#790=DIRECTION('center_axis',(1.,-1.39899551160289E-30,-1.60237371373018E-31));
#791=DIRECTION('ref_axis',(1.34034347817236E-30,0.980553696276695,-0.196250983992719));
#792=DIRECTION('',(7.76508032945125E-31,0.642787609686539,-0.766044443118978));
#793=DIRECTION('center_axis',(7.76508032945125E-31,0.642787609686539,-0.766044443118978));
#794=DIRECTION('ref_axis',(1.1746913345391E-30,0.766044443118978,0.642787609686539));
#795=DIRECTION('',(1.1746913345391E-30,0.766044443118978,0.642787609686539));
#796=DIRECTION('',(1.,-1.39899551160289E-30,-1.60237371373018E-31));
#797=DIRECTION('',(1.1746913345391E-30,0.766044443118978,0.642787609686539));
#798=DIRECTION('',(1.,-1.39899551160289E-30,-1.60237371373018E-31));
#799=DIRECTION('center_axis',(1.,-1.39899551160289E-30,-1.60237371373018E-31));
#800=DIRECTION('ref_axis',(-1.1746913345391E-30,-0.766044443118978,-0.642787609686539));
#801=DIRECTION('',(1.21986783401785E-30,0.917512205861483,-0.397707621369262));
#802=DIRECTION('',(1.1746913345391E-30,0.766044443118978,0.642787609686539));
#803=DIRECTION('',(-1.69191963374103E-31,-0.232341226421481,0.972634337510743));
#804=DIRECTION('',(1.1746913345391E-30,0.766044443118978,0.642787609686539));
#805=DIRECTION('center_axis',(-1.,1.39899551160289E-30,1.60237371373018E-31));
#806=DIRECTION('ref_axis',(-1.1746913345391E-30,-0.766044443118978,-0.642787609686539));
#807=DIRECTION('center_axis',(1.,-1.39899551160289E-30,-1.60237371373018E-31));
#808=DIRECTION('ref_axis',(-1.1746913345391E-30,-0.766044443118978,-0.642787609686539));
#809=DIRECTION('',(-1.1746913345391E-30,-0.766044443118978,-0.642787609686539));
#810=DIRECTION('',(1.69191963374103E-31,0.232341226421481,-0.972634337510743));
#811=DIRECTION('',(-1.1746913345391E-30,-0.766044443118978,-0.642787609686539));
#812=DIRECTION('',(-2.62893868172477E-33,-0.115648088870316,0.993290249393723));
#813=DIRECTION('center_axis',(1.,-1.39899551160289E-30,-1.60237371373018E-31));
#814=DIRECTION('ref_axis',(-1.1746913345391E-30,-0.766044443118978,-0.642787609686539));
#815=DIRECTION('',(-1.04215323204129E-30,-0.811810468774454,0.583921024444403));
#816=DIRECTION('',(-9.01481660527617E-31,-0.723451607011971,0.690375095373375));
#817=DIRECTION('center_axis',(1.,-1.39899551160289E-30,-1.60237371373018E-31));
#818=DIRECTION('ref_axis',(7.03410921295761E-31,0.397707621369262,0.917512205861483));
#819=DIRECTION('',(6.42035747047515E-31,0.554260693222401,-0.83234312873275));
#820=DIRECTION('center_axis',(1.,-1.39899551160289E-30,-1.60237371373018E-31));
#821=DIRECTION('ref_axis',(-1.1746913345391E-30,-0.766044443118978,-0.642787609686539));
#822=DIRECTION('',(1.29408173811746E-30,0.957894009182825,-0.287122042295005));
#823=DIRECTION('',(-1.1746913345391E-30,-0.766044443118978,-0.642787609686539));
#824=DIRECTION('',(-1.21986783401785E-30,-0.917512205861483,0.397707621369262));
#825=DIRECTION('center_axis',(1.,-1.39899551160289E-30,-1.60237371373018E-31));
#826=DIRECTION('ref_axis',(1.1746913345391E-30,0.766044443118978,0.642787609686539));
#827=DIRECTION('',(-7.76508032945125E-31,-0.642787609686539,0.766044443118978));
#828=DIRECTION('center_axis',(1.,-1.39899551160289E-30,-1.60237371373018E-31));
#829=DIRECTION('ref_axis',(-1.1746913345391E-30,-0.766044443118978,-0.642787609686539));
#830=DIRECTION('',(7.76508032945125E-31,0.642787609686539,-0.766044443118978));
#831=DIRECTION('center_axis',(1.,-1.39899551160289E-30,-1.60237371373018E-31));
#832=DIRECTION('ref_axis',(1.1746913345391E-30,0.766044443118978,0.642787609686539));
#833=DIRECTION('',(-1.40556655378887E-30,-0.984807753012208,-0.17364817766693));
#834=DIRECTION('',(8.5130015503612E-32,0.17364817766693,-0.984807753012208));
#835=DIRECTION('',(1.40556655378887E-30,0.984807753012208,0.17364817766693));
#836=DIRECTION('',(-8.5130015503612E-32,-0.17364817766693,0.984807753012208));
#837=DIRECTION('center_axis',(8.5130015503612E-32,0.17364817766693,-0.984807753012208));
#838=DIRECTION('ref_axis',(1.40556655378887E-30,0.984807753012208,0.17364817766693));
#839=DIRECTION('',(-1.40556655378887E-30,-0.984807753012208,-0.17364817766693));
#840=DIRECTION('',(1.,-1.39899551160289E-30,-1.60237371373018E-31));
#841=DIRECTION('',(1.,-1.39899551160289E-30,-1.60237371373018E-31));
#842=DIRECTION('center_axis',(-1.40556655378887E-30,-0.984807753012208,
-0.17364817766693));
#843=DIRECTION('ref_axis',(8.5130015503612E-32,0.17364817766693,-0.984807753012208));
#844=DIRECTION('',(-8.5130015503612E-32,-0.17364817766693,0.984807753012208));
#845=DIRECTION('',(1.,-1.39899551160289E-30,-1.60237371373018E-31));
#846=DIRECTION('center_axis',(-8.5130015503612E-32,-0.17364817766693,0.984807753012208));
#847=DIRECTION('ref_axis',(-1.40556655378887E-30,-0.984807753012208,-0.17364817766693));
#848=DIRECTION('',(1.40556655378887E-30,0.984807753012208,0.17364817766693));
#849=DIRECTION('',(1.,-1.39899551160289E-30,-1.60237371373018E-31));
#850=DIRECTION('center_axis',(1.40556655378887E-30,0.984807753012208,0.17364817766693));
#851=DIRECTION('ref_axis',(-8.5130015503612E-32,-0.17364817766693,0.984807753012208));
#852=DIRECTION('',(8.5130015503612E-32,0.17364817766693,-0.984807753012208));
#853=DIRECTION('center_axis',(9.46985267897796E-31,0.583921024444403,0.811810468774454));
#854=DIRECTION('ref_axis',(-1.04215323204129E-30,-0.811810468774454,0.583921024444403));
#855=DIRECTION('',(1.,-1.39899551160289E-30,-1.60237371373018E-31));
#856=DIRECTION('',(-1.04215323204129E-30,-0.811810468774454,0.583921024444403));
#857=DIRECTION('',(1.,-1.39899551160289E-30,-1.60237371373018E-31));
#858=DIRECTION('center_axis',(1.,-1.39899551160289E-30,-1.60237371373018E-31));
#859=DIRECTION('ref_axis',(1.29737458686532E-30,0.871114454449277,0.491080041591531));
#860=DIRECTION('',(1.,-1.39899551160289E-30,-1.60237371373018E-31));
#861=DIRECTION('center_axis',(1.,-1.39899551160289E-30,-1.60237371373018E-31));
#862=DIRECTION('ref_axis',(-1.1746913345391E-30,-0.766044443118978,-0.642787609686539));
#863=DIRECTION('center_axis',(1.40813974638562E-30,0.993290249393723,0.115648088870316));
#864=DIRECTION('ref_axis',(-2.62893868172477E-33,-0.115648088870316,0.993290249393723));
#865=DIRECTION('',(-1.,1.39899551160289E-30,1.60237371373018E-31));
#866=DIRECTION('',(-2.62893868172477E-33,-0.115648088870316,0.993290249393723));
#867=DIRECTION('center_axis',(-5.55172866538384E-31,-0.287122042295005,
-0.957894009182825));
#868=DIRECTION('ref_axis',(1.29408173811746E-30,0.957894009182825,-0.287122042295005));
#869=DIRECTION('',(1.,-1.39899551160289E-30,-1.60237371373018E-31));
#870=DIRECTION('',(1.29408173811746E-30,0.957894009182825,-0.287122042295005));
#871=DIRECTION('',(1.,-1.39899551160289E-30,-1.60237371373018E-31));
#872=DIRECTION('center_axis',(1.,-1.39899551160289E-30,-1.60237371373018E-31));
#873=DIRECTION('ref_axis',(-1.1746913345391E-30,-0.766044443118978,-0.642787609686539));
#874=DIRECTION('',(1.,-1.39899551160289E-30,-1.60237371373018E-31));
#875=DIRECTION('center_axis',(1.,-1.39899551160289E-30,-1.60237371373018E-31));
#876=DIRECTION('ref_axis',(-1.1746913345391E-30,-0.766044443118978,-0.642787609686539));
#877=DIRECTION('center_axis',(-1.25325757774797E-30,-0.83234312873275,-0.554260693222401));
#878=DIRECTION('ref_axis',(6.42035747047515E-31,0.554260693222401,-0.83234312873275));
#879=DIRECTION('',(1.,-1.39899551160289E-30,-1.60237371373018E-31));
#880=DIRECTION('',(6.42035747047515E-31,0.554260693222401,-0.83234312873275));
#881=DIRECTION('center_axis',(1.,-1.39899551160289E-30,-1.60237371373018E-31));
#882=DIRECTION('ref_axis',(7.03410921295761E-31,0.397707621369262,0.917512205861483));
#883=DIRECTION('',(1.,-1.39899551160289E-30,-1.60237371373018E-31));
#884=DIRECTION('center_axis',(1.,-1.39899551160289E-30,-1.60237371373018E-31));
#885=DIRECTION('ref_axis',(7.03410921295761E-31,0.397707621369262,0.917512205861483));
#886=DIRECTION('center_axis',(1.08175564357295E-30,0.690375095373375,0.723451607011971));
#887=DIRECTION('ref_axis',(-9.01481660527617E-31,-0.723451607011971,0.690375095373375));
#888=DIRECTION('',(-9.01481660527617E-31,-0.723451607011971,0.690375095373375));
#889=DIRECTION('center_axis',(1.,-1.39899551160289E-30,-1.60237371373018E-31));
#890=DIRECTION('ref_axis',(-1.1746913345391E-30,-0.766044443118978,-0.642787609686539));
#891=DIRECTION('',(1.1746913345391E-30,0.766044443118978,0.642787609686539));
#892=DIRECTION('center_axis',(-1.,1.39899551160289E-30,1.60237371373018E-31));
#893=DIRECTION('ref_axis',(-1.1746913345391E-30,-0.766044443118978,-0.642787609686539));
#894=DIRECTION('center_axis',(7.76508032945125E-31,0.642787609686539,-0.766044443118978));
#895=DIRECTION('ref_axis',(1.1746913345391E-30,0.766044443118978,0.642787609686539));
#896=DIRECTION('',(1.,-1.39899551160289E-30,-1.60237371373018E-31));
#897=DIRECTION('',(1.,-1.39899551160289E-30,-1.60237371373018E-31));
#898=DIRECTION('center_axis',(1.,-1.39899551160289E-30,-1.60237371373018E-31));
#899=DIRECTION('ref_axis',(-1.1746913345391E-30,-0.766044443118978,-0.642787609686539));
#900=DIRECTION('',(1.,-1.39899551160289E-30,-1.60237371373018E-31));
#901=DIRECTION('center_axis',(1.1746913345391E-30,0.766044443118978,0.642787609686539));
#902=DIRECTION('ref_axis',(-7.76508032945125E-31,-0.642787609686539,0.766044443118978));
#903=DIRECTION('',(1.,-1.39899551160289E-30,-1.60237371373018E-31));
#904=DIRECTION('',(1.,-1.39899551160289E-30,-1.60237371373018E-31));
#905=DIRECTION('center_axis',(1.,-1.39899551160289E-30,-1.60237371373018E-31));
#906=DIRECTION('ref_axis',(1.1746913345391E-30,0.766044443118978,0.642787609686539));
#907=DIRECTION('',(1.,-1.39899551160289E-30,-1.60237371373018E-31));
#908=DIRECTION('center_axis',(7.76508032945125E-31,0.642787609686539,-0.766044443118978));
#909=DIRECTION('ref_axis',(1.1746913345391E-30,0.766044443118978,0.642787609686539));
#910=DIRECTION('',(1.,-1.39899551160289E-30,-1.60237371373018E-31));
#911=DIRECTION('center_axis',(1.39794081999174E-30,0.972634337510743,0.232341226421481));
#912=DIRECTION('ref_axis',(-1.69191963374103E-31,-0.232341226421481,0.972634337510743));
#913=DIRECTION('center_axis',(-7.03410921295761E-31,-0.397707621369262,
-0.917512205861483));
#914=DIRECTION('ref_axis',(1.21986783401785E-30,0.917512205861483,-0.397707621369262));
#915=DIRECTION('center_axis',(1.,-1.39899551160289E-30,-1.60237371373018E-31));
#916=DIRECTION('ref_axis',(1.1746913345391E-30,0.766044443118978,0.642787609686539));
#917=DIRECTION('',(1.,-1.39899551160289E-30,-1.60237371373018E-31));
#918=DIRECTION('center_axis',(-1.1746913345391E-30,-0.766044443118978,-0.642787609686539));
#919=DIRECTION('ref_axis',(7.76508032945125E-31,0.642787609686539,-0.766044443118978));
#920=DIRECTION('',(1.,-1.39899551160289E-30,-1.60237371373018E-31));
#921=DIRECTION('center_axis',(1.,-1.39899551160289E-30,-1.60237371373018E-31));
#922=DIRECTION('ref_axis',(-7.76508032945124E-31,-0.642787609686538,0.766044443118979));
#923=DIRECTION('center_axis',(1.,-1.39899551160289E-30,-1.60237371373018E-31));
#924=DIRECTION('ref_axis',(-1.1746913345391E-30,-0.766044443118978,-0.642787609686539));
#925=CARTESIAN_POINT('',(0.,0.,0.));
#926=CARTESIAN_POINT('Origin',(5.,-62.2973920514316,143.685903811402));
#927=CARTESIAN_POINT('',(5.,-8.1495071381629,110.269443971845));
#928=CARTESIAN_POINT('',(5.,-23.4703960005425,97.413691778114));
#929=CARTESIAN_POINT('Origin',(5.,-3.21393807905613,88.8302235455534));
#930=CARTESIAN_POINT('',(5.,-79.3756226133874,195.153422975974));
#931=CARTESIAN_POINT('',(5.,-46.976503189052,156.541656005133));
#932=CARTESIAN_POINT('',(5.,-94.696511475767,182.297670782243));
#933=CARTESIAN_POINT('Origin',(5.,-99.6320802982996,203.736890926596));
#934=CARTESIAN_POINT('',(5.,-62.2973920514316,143.685903811402));
#935=CARTESIAN_POINT('Origin',(10.,-62.2973920514316,143.685903811402));
#936=CARTESIAN_POINT('',(10.,-23.4703960005425,97.413691778114));
#937=CARTESIAN_POINT('',(2.77555756156324E-16,-23.4703960005425,97.413691778114));
#938=CARTESIAN_POINT('',(10.,-94.696511475767,182.297670782243));
#939=CARTESIAN_POINT('',(2.77555756156238E-16,-94.696511475767,182.297670782243));
#940=CARTESIAN_POINT('',(10.,-62.2973920514316,143.685903811402));
#941=CARTESIAN_POINT('Origin',(10.,-46.976503189052,156.541656005133));
#942=CARTESIAN_POINT('',(10.,-8.1495071381629,110.269443971845));
#943=CARTESIAN_POINT('Origin',(10.,-3.21393807905613,88.8302235455534));
#944=CARTESIAN_POINT('',(10.,-79.3756226133874,195.153422975974));
#945=CARTESIAN_POINT('Origin',(10.,-99.6320802982996,203.736890926596));
#946=CARTESIAN_POINT('',(10.,-46.976503189052,156.541656005133));
#947=CARTESIAN_POINT('Origin',(5.,-46.976503189052,156.541656005133));
#948=CARTESIAN_POINT('',(2.77555756156348E-16,-8.1495071381629,110.269443971845));
#949=CARTESIAN_POINT('',(2.77555756156262E-16,-79.3756226133874,195.153422975974));
#950=CARTESIAN_POINT('Origin',(2.77555756156235E-16,-99.6320802982996,203.736890926596));
#951=CARTESIAN_POINT('',(13.,-82.7791025496821,217.8782183397));
#952=CARTESIAN_POINT('Origin',(13.,-99.6320802982996,203.736890926596));
#953=CARTESIAN_POINT('',(3.,-82.7791025496821,217.8782183397));
#954=CARTESIAN_POINT('',(2.77555756156261E-16,-82.7791025496821,217.8782183397));
#955=CARTESIAN_POINT('Origin',(3.,-99.6320802982996,203.736890926596));
#956=CARTESIAN_POINT('Origin',(2.77555756156351E-16,-3.21393807905613,88.8302235455534));
#957=CARTESIAN_POINT('',(3.,13.6390399206903,102.971551169379));
#958=CARTESIAN_POINT('',(3.,-20.0669160788026,74.6888959217273));
#959=CARTESIAN_POINT('Origin',(3.,-3.21393807905613,88.8302235455534));
#960=CARTESIAN_POINT('',(13.,13.6390399206903,102.971551169379));
#961=CARTESIAN_POINT('',(2.77555756156377E-16,13.6390399206903,102.971551169379));
#962=CARTESIAN_POINT('',(13.,-20.0669160788026,74.6888959217273));
#963=CARTESIAN_POINT('Origin',(13.,-3.21393807905613,88.8302235455534));
#964=CARTESIAN_POINT('',(2.77555756156325E-16,-20.0669160788026,74.6888959217273));
#965=CARTESIAN_POINT('Origin',(13.,-59.1364605049163,155.476090553503));
#966=CARTESIAN_POINT('',(13.,-26.7472270841773,93.5402475123268));
#967=CARTESIAN_POINT('',(13.,-21.5990049878705,73.4033206831977));
#968=CARTESIAN_POINT('Origin',(13.,-3.21393807905613,88.8302235455534));
#969=CARTESIAN_POINT('',(13.,-21.5990049878705,73.4033206831977));
#970=CARTESIAN_POINT('',(13.,15.1711288297582,104.257126407909));
#971=CARTESIAN_POINT('',(13.,13.6390399206903,102.971551169379));
#972=CARTESIAN_POINT('',(13.,-3.76589344815942,112.823876090271));
#973=CARTESIAN_POINT('Origin',(13.,-3.21393807905613,88.8302235455534));
#974=CARTESIAN_POINT('',(13.,-76.0987915876589,199.026867310771));
#975=CARTESIAN_POINT('',(13.,-76.0987915876589,199.026867310771));
#976=CARTESIAN_POINT('',(13.,-99.0801252236768,179.743238732826));
#977=CARTESIAN_POINT('Origin',(13.,-99.6320802982996,203.736890926596));
#978=CARTESIAN_POINT('',(13.,-26.7472270841773,93.5402475123268));
#979=CARTESIAN_POINT('Origin',(2.77555756156323E-16,-21.5990049878705,73.4033206831977));
#980=CARTESIAN_POINT('',(2.77555756156323E-16,-21.5990049878705,73.4033206831977));
#981=CARTESIAN_POINT('',(2.77555756156339E-16,-10.8743826243954,82.4023473529052));
#982=CARTESIAN_POINT('',(2.77555756156323E-16,-21.5990049878705,73.4033206831977));
#983=CARTESIAN_POINT('',(3.,-10.8743826243954,82.4023473529052));
#984=CARTESIAN_POINT('',(2.77555756156339E-16,-10.8743826243954,82.4023473529052));
#985=CARTESIAN_POINT('',(3.,-21.5990049878705,73.4033206831977));
#986=CARTESIAN_POINT('',(2.77555756156323E-16,-21.5990049878705,73.4033206831977));
#987=CARTESIAN_POINT('Origin',(3.,-55.9225224085922,151.645868280833));
#988=CARTESIAN_POINT('',(3.,-0.616284159077569,77.95584090389));
#989=CARTESIAN_POINT('',(3.,-0.616284159077569,77.95584090389));
#990=CARTESIAN_POINT('',(3.,7.04416038626173,84.3837170965382));
#991=CARTESIAN_POINT('',(3.,7.04416038626173,84.3837170965382));
#992=CARTESIAN_POINT('',(3.,4.44650646628316,95.2580997382016));
#993=CARTESIAN_POINT('',(3.,4.44650646628316,95.2580997382016));
#994=CARTESIAN_POINT('',(3.,15.1711288297582,104.257126407909));
#995=CARTESIAN_POINT('',(3.,1.91511112506542,86.6069702971001));
#996=CARTESIAN_POINT('Origin',(3.,1.7267973717594E-8,85.0000012728837));
#997=CARTESIAN_POINT('Origin',(2.77555756156288E-16,-55.9225224085922,151.645868280833));
#998=CARTESIAN_POINT('',(2.77555756156379E-16,15.1711288297582,104.257126407909));
#999=CARTESIAN_POINT('',(2.77555756156363E-16,4.44650646628316,95.2580997382016));
#1000=CARTESIAN_POINT('',(2.77555756156379E-16,15.1711288297582,104.257126407909));
#1001=CARTESIAN_POINT('',(2.77555756156365E-16,7.04416038626173,84.3837170965382));
#1002=CARTESIAN_POINT('',(2.77555756156363E-16,4.44650646628316,95.2580997382016));
#1003=CARTESIAN_POINT('',(2.7755575615636E-16,3.97998256812601,81.8125666194789));
#1004=CARTESIAN_POINT('',(2.77555756156365E-16,7.04416038626173,84.3837170965382));
#1005=CARTESIAN_POINT('',(2.7755575615636E-16,3.76586759097838,83.6515794482026));
#1006=CARTESIAN_POINT('',(2.7755575615636E-16,-0.431549543569423,119.702789227032));
#1007=CARTESIAN_POINT('',(2.77555756156357E-16,0.795842855635316,88.9200311422367));
#1008=CARTESIAN_POINT('Origin',(2.77555756156355E-16,1.7267973717594E-8,
85.0000012728837));
#1009=CARTESIAN_POINT('',(2.77555756156356E-16,0.369770523075292,89.22649749428));
#1010=CARTESIAN_POINT('',(2.77555756156314E-16,-32.7609508256156,113.05684397862));
#1011=CARTESIAN_POINT('',(2.77555756156348E-16,-6.18136250484202,95.4781099658206));
#1012=CARTESIAN_POINT('',(2.77555756156319E-16,-29.949192445804,118.159264729001));
#1013=CARTESIAN_POINT('',(2.77555756156343E-16,-9.24554032297774,92.9069594887613));
#1014=CARTESIAN_POINT('Origin',(2.77555756156347E-16,-7.07066379464506,
93.426490272757));
#1015=CARTESIAN_POINT('',(2.7755575615635E-16,-3.99989139142862,85.0294753061201));
#1016=CARTESIAN_POINT('',(2.77555756156319E-16,-29.9643990841063,124.020837733939));
#1017=CARTESIAN_POINT('',(2.77555756156355E-16,0.677203034184943,81.0577435347496));
#1018=CARTESIAN_POINT('Origin',(2.77555756156355E-16,1.7267973717594E-8,
85.0000012728837));
#1019=CARTESIAN_POINT('',(2.77555756156358E-16,2.44789365905815,80.5269913809493));
#1020=CARTESIAN_POINT('',(2.77555756156307E-16,-34.9966590559947,91.7507346607937));
#1021=CARTESIAN_POINT('',(2.77555756156353E-16,-0.616284159077569,77.95584090389));
#1022=CARTESIAN_POINT('',(2.77555756156365E-16,7.04416038626173,84.3837170965382));
#1023=CARTESIAN_POINT('',(2.77555756156353E-16,-0.616284159077569,77.95584090389));
#1024=CARTESIAN_POINT('',(2.77555756156319E-16,-26.7472270841773,93.5402475123268));
#1025=CARTESIAN_POINT('Origin',(2.77555756156351E-16,-3.21393807905613,
88.8302235455534));
#1026=CARTESIAN_POINT('',(2.77555756156232E-16,-99.0801252236768,179.743238732826));
#1027=CARTESIAN_POINT('',(2.77555756156233E-16,-97.624206728616,178.008142635813));
#1028=CARTESIAN_POINT('',(2.77555756156267E-16,-76.0987915876589,199.026867310771));
#1029=CARTESIAN_POINT('Origin',(2.77555756156235E-16,-99.6320802982996,
203.736890926596));
#1030=CARTESIAN_POINT('',(2.77555756156354E-16,-3.76589344815942,112.823876090271));
#1031=CARTESIAN_POINT('',(2.77555756156353E-16,-4.57902364634361,113.792926925204));
#1032=CARTESIAN_POINT('Origin',(2.77555756156351E-16,-3.21393807905613,
88.8302235455534));
#1033=CARTESIAN_POINT('',(2.77555756156252E-16,-88.1080632124905,213.271236975705));
#1034=CARTESIAN_POINT('',(2.77555756156217E-16,-112.728257037796,208.930032534032));
#1035=CARTESIAN_POINT('',(2.77555756156267E-16,-77.7698285725385,215.094146675624));
#1036=CARTESIAN_POINT('',(2.77555756156219E-16,-110.123534372792,194.157916238849));
#1037=CARTESIAN_POINT('',(2.7755575615622E-16,-106.973721275799,176.294438486677));
#1038=CARTESIAN_POINT('',(2.77555756156254E-16,-85.5033405474865,198.499120680522));
#1039=CARTESIAN_POINT('',(2.77555756156251E-16,-87.4752028201872,198.151428159604));
#1040=CARTESIAN_POINT('',(2.77555756156256E-16,-81.0511661179913,173.249584780759));
#1041=CARTESIAN_POINT('Origin',(2.77555756156219E-16,-110.123534372792,
194.157916238849));
#1042=CARTESIAN_POINT('',(3.,-85.5033405474865,198.499120680522));
#1043=CARTESIAN_POINT('',(3.,-110.123534372792,194.157916238849));
#1044=CARTESIAN_POINT('',(3.,-87.4752028201872,198.151428159604));
#1045=CARTESIAN_POINT('',(2.77555756156254E-16,-85.5033405474865,198.499120680522));
#1046=CARTESIAN_POINT('',(2.77555756156219E-16,-110.123534372792,194.157916238849));
#1047=CARTESIAN_POINT('Origin',(2.77555756156217E-16,-112.728257037796,
208.930032534032));
#1048=CARTESIAN_POINT('',(3.,-112.728257037796,208.930032534032));
#1049=CARTESIAN_POINT('',(3.,-106.973721275799,176.294438486677));
#1050=CARTESIAN_POINT('',(2.77555756156217E-16,-112.728257037796,208.930032534032));
#1051=CARTESIAN_POINT('Origin',(2.77555756156252E-16,-88.1080632124905,
213.271236975705));
#1052=CARTESIAN_POINT('',(3.,-88.1080632124905,213.271236975705));
#1053=CARTESIAN_POINT('',(3.,-77.7698285725385,215.094146675624));
#1054=CARTESIAN_POINT('',(2.77555756156252E-16,-88.1080632124905,213.271236975705));
#1055=CARTESIAN_POINT('Origin',(2.77555756156254E-16,-85.5033405474865,
198.499120680522));
#1056=CARTESIAN_POINT('',(3.,-81.0511661179913,173.249584780759));
#1057=CARTESIAN_POINT('Origin',(2.77555756156357E-16,0.795842855635316,
88.9200311422367));
#1058=CARTESIAN_POINT('',(1.5,0.795842855635316,88.9200311422367));
#1059=CARTESIAN_POINT('',(2.77555756156357E-16,0.795842855635316,88.9200311422367));
#1060=CARTESIAN_POINT('',(1.5,0.369770523075292,89.22649749428));
#1061=CARTESIAN_POINT('',(1.5,0.369770523075292,89.22649749428));
#1062=CARTESIAN_POINT('',(2.77555756156356E-16,0.369770523075292,89.22649749428));
#1063=CARTESIAN_POINT('Origin',(2.77555756156355E-16,1.7267973717594E-8,
85.0000012728837));
#1064=CARTESIAN_POINT('',(1.5,3.76586759097838,83.6515794482026));
#1065=CARTESIAN_POINT('',(2.7755575615636E-16,3.76586759097838,83.6515794482026));
#1066=CARTESIAN_POINT('Origin',(1.5,1.7267973717594E-8,85.0000012728837));
#1067=CARTESIAN_POINT('Origin',(2.7755575615636E-16,3.97998256812601,81.8125666194789));
#1068=CARTESIAN_POINT('',(1.5,3.97998256812601,81.8125666194789));
#1069=CARTESIAN_POINT('',(2.7755575615636E-16,3.97998256812601,81.8125666194789));
#1070=CARTESIAN_POINT('',(1.5,3.97998256812601,81.8125666194789));
#1071=CARTESIAN_POINT('Origin',(2.77555756156355E-16,0.677203034184943,
81.0577435347496));
#1072=CARTESIAN_POINT('',(1.5,0.677203034184943,81.0577435347496));
#1073=CARTESIAN_POINT('',(2.77555756156355E-16,0.677203034184943,81.0577435347496));
#1074=CARTESIAN_POINT('',(1.5,2.44789365905815,80.5269913809493));
#1075=CARTESIAN_POINT('',(1.5,0.677203034184943,81.0577435347496));
#1076=CARTESIAN_POINT('',(2.77555756156358E-16,2.44789365905815,80.5269913809493));
#1077=CARTESIAN_POINT('Origin',(2.77555756156355E-16,1.7267973717594E-8,
85.0000012728837));
#1078=CARTESIAN_POINT('',(1.5,-3.99989139142862,85.0294753061201));
#1079=CARTESIAN_POINT('',(2.7755575615635E-16,-3.99989139142862,85.0294753061201));
#1080=CARTESIAN_POINT('Origin',(1.5,1.7267973717594E-8,85.0000012728837));
#1081=CARTESIAN_POINT('Origin',(2.77555756156343E-16,-9.24554032297774,
92.9069594887613));
#1082=CARTESIAN_POINT('',(1.5,-9.24554032297774,92.9069594887613));
#1083=CARTESIAN_POINT('',(2.77555756156343E-16,-9.24554032297774,92.9069594887613));
#1084=CARTESIAN_POINT('',(1.5,-4.22649620412828,85.3697717786911));
#1085=CARTESIAN_POINT('Origin',(2.77555756156347E-16,-7.07066379464506,
93.426490272757));
#1086=CARTESIAN_POINT('',(1.5,-6.18136250484202,95.4781099658206));
#1087=CARTESIAN_POINT('',(2.77555756156348E-16,-6.18136250484202,95.4781099658206));
#1088=CARTESIAN_POINT('Origin',(1.5,-7.07066379464506,93.426490272757));
#1089=CARTESIAN_POINT('Origin',(2.77555756156356E-16,0.369770523075292,
89.22649749428));
#1090=CARTESIAN_POINT('',(1.5,0.369770523075292,89.22649749428));
#1091=CARTESIAN_POINT('Origin',(1.5,-2.6470212464122,88.1545983735479));
#1092=CARTESIAN_POINT('',(1.5,1.29882697725725,79.562809952052));
#1093=CARTESIAN_POINT('',(1.5,1.91511112506542,86.6069702971001));
#1094=CARTESIAN_POINT('Origin',(1.5,1.7267973717594E-8,85.0000012728837));
#1095=CARTESIAN_POINT('Origin',(2.77555756156353E-16,-0.616284159077569,
77.95584090389));
#1096=CARTESIAN_POINT('',(2.77555756156365E-16,7.04416038626173,84.3837170965382));
#1097=CARTESIAN_POINT('',(2.77555756156353E-16,-0.616284159077569,77.95584090389));
#1098=CARTESIAN_POINT('Origin',(2.77555756156355E-16,1.7267973717594E-8,
85.0000012728837));
#1099=CARTESIAN_POINT('',(2.77555756156358E-16,1.91511112506542,86.6069702971001));
#1100=CARTESIAN_POINT('Origin',(2.77555756156354E-16,-3.76589344815942,
112.823876090271));
#1101=CARTESIAN_POINT('',(2.77555756156267E-16,-76.0987915876589,199.026867310771));
#1102=CARTESIAN_POINT('',(2.77555756156354E-16,-3.76589344815942,112.823876090271));
#1103=CARTESIAN_POINT('Origin',(2.77555756156351E-16,-3.21393807905613,
88.8302235455534));
#1104=CARTESIAN_POINT('',(2.77555756156379E-16,15.1711288297582,104.257126407909));
#1105=CARTESIAN_POINT('Origin',(2.77555756156363E-16,4.44650646628316,95.2580997382016));
#1106=CARTESIAN_POINT('',(2.77555756156363E-16,4.44650646628316,95.2580997382016));
#1107=CARTESIAN_POINT('Origin',(2.77555756156365E-16,7.04416038626173,84.3837170965382));
#1108=CARTESIAN_POINT('Origin',(2.77555756156339E-16,-10.8743826243954,
82.4023473529052));
#1109=CARTESIAN_POINT('Origin',(2.77555756156351E-16,-3.21393807905613,
88.8302235455534));
#1110=CARTESIAN_POINT('',(2.77555756156319E-16,-26.7472270841773,93.5402475123268));
#1111=CARTESIAN_POINT('Origin',(2.77555756156232E-16,-99.0801252236768,
179.743238732826));
#1112=CARTESIAN_POINT('',(2.77555756156232E-16,-99.0801252236768,179.743238732826));
#1113=CARTESIAN_POINT('Origin',(2.77555756156235E-16,-99.6320802982996,
203.736890926596));
#1114=CARTESIAN_POINT('Origin',(3.,-55.9225224085922,151.645868280833));
#1115=UNCERTAINTY_MEASURE_WITH_UNIT(LENGTH_MEASURE(0.01),#1119,
'DISTANCE_ACCURACY_VALUE',
'Maximum model space distance between geometric entities at asserted c
onnectivities');
#1116=UNCERTAINTY_MEASURE_WITH_UNIT(LENGTH_MEASURE(0.01),#1119,
'DISTANCE_ACCURACY_VALUE',
'Maximum model space distance between geometric entities at asserted c
onnectivities');
#1117=(
GEOMETRIC_REPRESENTATION_CONTEXT(3)
GLOBAL_UNCERTAINTY_ASSIGNED_CONTEXT((#1115))
GLOBAL_UNIT_ASSIGNED_CONTEXT((#1119,#1121,#1122))
REPRESENTATION_CONTEXT('','3D')
);
#1118=(
GEOMETRIC_REPRESENTATION_CONTEXT(3)
GLOBAL_UNCERTAINTY_ASSIGNED_CONTEXT((#1116))
GLOBAL_UNIT_ASSIGNED_CONTEXT((#1119,#1121,#1122))
REPRESENTATION_CONTEXT('','3D')
);
#1119=(
LENGTH_UNIT()
NAMED_UNIT(*)
SI_UNIT(.MILLI.,.METRE.)
);
#1120=(
LENGTH_UNIT()
NAMED_UNIT(*)
SI_UNIT($,.METRE.)
);
#1121=(
NAMED_UNIT(*)
PLANE_ANGLE_UNIT()
SI_UNIT($,.RADIAN.)
);
#1122=(
NAMED_UNIT(*)
SI_UNIT($,.STERADIAN.)
SOLID_ANGLE_UNIT()
);
#1123=SHAPE_DEFINITION_REPRESENTATION(#1124,#1125);
#1124=PRODUCT_DEFINITION_SHAPE('',$,#1127);
#1125=SHAPE_REPRESENTATION('',(#683),#1117);
#1126=PRODUCT_DEFINITION_CONTEXT('part definition',#1131,'design');
#1127=PRODUCT_DEFINITION('arm_part1','arm_part1',#1128,#1126);
#1128=PRODUCT_DEFINITION_FORMATION('',$,#1133);
#1129=PRODUCT_RELATED_PRODUCT_CATEGORY('arm_part1','arm_part1',(#1133));
#1130=APPLICATION_PROTOCOL_DEFINITION('international standard',
'automotive_design',2009,#1131);
#1131=APPLICATION_CONTEXT(
'Core Data for Automotive Mechanical Design Process');
#1132=PRODUCT_CONTEXT('part definition',#1131,'mechanical');
#1133=PRODUCT('arm_part1','arm_part1',$,(#1132));
#1134=PRESENTATION_STYLE_ASSIGNMENT((#1135));
#1135=SURFACE_STYLE_USAGE(.BOTH.,#1136);
#1136=SURFACE_SIDE_STYLE('',(#1137));
#1137=SURFACE_STYLE_FILL_AREA(#1138);
#1138=FILL_AREA_STYLE('Steel - Satin',(#1139));
#1139=FILL_AREA_STYLE_COLOUR('Steel - Satin',#1140);
#1140=COLOUR_RGB('Steel - Satin',0.627450980392157,0.627450980392157,0.627450980392157);
ENDSEC;
END-ISO-10303-21;
