ISO-10303-21;
HEADER;
/* Generated by software containing ST-Developer
 * from STEP Tools, Inc. (www.steptools.com) 
 */

FILE_DESCRIPTION(
/* description */ (''),
/* implementation_level */ '2;1');

FILE_NAME(
/* name */ 'base_bottom.step',
/* time_stamp */ '2026-08-31T14:26:05+05:30',
/* author */ (''),
/* organization */ (''),
/* preprocessor_version */ 'ST-DEVELOPER v20.1',
/* originating_system */ 'Autodesk Translation Framework v15.8.0.0',
/* authorisation */ '');

FILE_SCHEMA (('AUTOMOTIVE_DESIGN { 1 0 10303 214 3 1 1 }'));
ENDSEC;

DATA;
#10=MECHANICAL_DESIGN_GEOMETRIC_PRESENTATION_REPRESENTATION('',(#21,#22,
#23,#24,#25,#26),#873);
#11=SHAPE_REPRESENTATION_RELATIONSHIP('SRR','None',#880,#12);
#12=ADVANCED_BREP_SHAPE_REPRESENTATION('',(#27,#28,#29,#30,#31,#32),#872);
#13=FACE_BOUND('',#96,.T.);
#14=FACE_BOUND('',#98,.T.);
#15=FACE_BOUND('',#102,.T.);
#16=FACE_BOUND('',#104,.T.);
#17=FACE_BOUND('',#108,.T.);
#18=FACE_BOUND('',#110,.T.);
#19=FACE_BOUND('',#114,.T.);
#20=FACE_BOUND('',#116,.T.);
#21=STYLED_ITEM('',(#889),#27);
#22=STYLED_ITEM('',(#889),#28);
#23=STYLED_ITEM('',(#889),#29);
#24=STYLED_ITEM('',(#889),#30);
#25=STYLED_ITEM('',(#889),#31);
#26=STYLED_ITEM('',(#889),#32);
#27=MANIFOLD_SOLID_BREP('Body1',#512);
#28=MANIFOLD_SOLID_BREP('Body2',#513);
#29=MANIFOLD_SOLID_BREP('Body3',#514);
#30=MANIFOLD_SOLID_BREP('Body4',#515);
#31=MANIFOLD_SOLID_BREP('Body5',#516);
#32=MANIFOLD_SOLID_BREP('Body6',#517);
#33=PLANE('',#534);
#34=PLANE('',#535);
#35=PLANE('',#542);
#36=PLANE('',#543);
#37=PLANE('',#550);
#38=PLANE('',#551);
#39=PLANE('',#558);
#40=PLANE('',#559);
#41=PLANE('',#566);
#42=PLANE('',#567);
#43=PLANE('',#568);
#44=PLANE('',#569);
#45=PLANE('',#570);
#46=PLANE('',#571);
#47=PLANE('',#572);
#48=PLANE('',#573);
#49=PLANE('',#574);
#50=PLANE('',#575);
#51=PLANE('',#576);
#52=PLANE('',#577);
#53=PLANE('',#578);
#54=PLANE('',#579);
#55=PLANE('',#580);
#56=PLANE('',#581);
#57=FACE_OUTER_BOUND('',#90,.T.);
#58=FACE_OUTER_BOUND('',#91,.T.);
#59=FACE_OUTER_BOUND('',#92,.T.);
#60=FACE_OUTER_BOUND('',#93,.T.);
#61=FACE_OUTER_BOUND('',#94,.T.);
#62=FACE_OUTER_BOUND('',#95,.T.);
#63=FACE_OUTER_BOUND('',#97,.T.);
#64=FACE_OUTER_BOUND('',#99,.T.);
#65=FACE_OUTER_BOUND('',#100,.T.);
#66=FACE_OUTER_BOUND('',#101,.T.);
#67=FACE_OUTER_BOUND('',#103,.T.);
#68=FACE_OUTER_BOUND('',#105,.T.);
#69=FACE_OUTER_BOUND('',#106,.T.);
#70=FACE_OUTER_BOUND('',#107,.T.);
#71=FACE_OUTER_BOUND('',#109,.T.);
#72=FACE_OUTER_BOUND('',#111,.T.);
#73=FACE_OUTER_BOUND('',#112,.T.);
#74=FACE_OUTER_BOUND('',#113,.T.);
#75=FACE_OUTER_BOUND('',#115,.T.);
#76=FACE_OUTER_BOUND('',#117,.T.);
#77=FACE_OUTER_BOUND('',#118,.T.);
#78=FACE_OUTER_BOUND('',#119,.T.);
#79=FACE_OUTER_BOUND('',#120,.T.);
#80=FACE_OUTER_BOUND('',#121,.T.);
#81=FACE_OUTER_BOUND('',#122,.T.);
#82=FACE_OUTER_BOUND('',#123,.T.);
#83=FACE_OUTER_BOUND('',#124,.T.);
#84=FACE_OUTER_BOUND('',#125,.T.);
#85=FACE_OUTER_BOUND('',#126,.T.);
#86=FACE_OUTER_BOUND('',#127,.T.);
#87=FACE_OUTER_BOUND('',#128,.T.);
#88=FACE_OUTER_BOUND('',#129,.T.);
#89=FACE_OUTER_BOUND('',#130,.T.);
#90=EDGE_LOOP('',(#344,#345,#346,#347));
#91=EDGE_LOOP('',(#348));
#92=EDGE_LOOP('',(#349));
#93=EDGE_LOOP('',(#350,#351,#352,#353));
#94=EDGE_LOOP('',(#354,#355,#356,#357));
#95=EDGE_LOOP('',(#358));
#96=EDGE_LOOP('',(#359));
#97=EDGE_LOOP('',(#360));
#98=EDGE_LOOP('',(#361));
#99=EDGE_LOOP('',(#362,#363,#364,#365));
#100=EDGE_LOOP('',(#366,#367,#368,#369));
#101=EDGE_LOOP('',(#370));
#102=EDGE_LOOP('',(#371));
#103=EDGE_LOOP('',(#372));
#104=EDGE_LOOP('',(#373));
#105=EDGE_LOOP('',(#374,#375,#376,#377));
#106=EDGE_LOOP('',(#378,#379,#380,#381));
#107=EDGE_LOOP('',(#382));
#108=EDGE_LOOP('',(#383));
#109=EDGE_LOOP('',(#384));
#110=EDGE_LOOP('',(#385));
#111=EDGE_LOOP('',(#386,#387,#388,#389));
#112=EDGE_LOOP('',(#390,#391,#392,#393));
#113=EDGE_LOOP('',(#394));
#114=EDGE_LOOP('',(#395));
#115=EDGE_LOOP('',(#396));
#116=EDGE_LOOP('',(#397));
#117=EDGE_LOOP('',(#398,#399,#400,#401));
#118=EDGE_LOOP('',(#402,#403,#404,#405));
#119=EDGE_LOOP('',(#406,#407,#408,#409));
#120=EDGE_LOOP('',(#410,#411,#412,#413));
#121=EDGE_LOOP('',(#414,#415,#416,#417));
#122=EDGE_LOOP('',(#418,#419,#420,#421));
#123=EDGE_LOOP('',(#422,#423,#424,#425));
#124=EDGE_LOOP('',(#426,#427,#428,#429));
#125=EDGE_LOOP('',(#430,#431,#432,#433));
#126=EDGE_LOOP('',(#434,#435,#436,#437));
#127=EDGE_LOOP('',(#438,#439,#440,#441));
#128=EDGE_LOOP('',(#442,#443,#444,#445));
#129=EDGE_LOOP('',(#446,#447,#448,#449,#450,#451,#452,#453,#454,#455,#456,
#457));
#130=EDGE_LOOP('',(#458,#459,#460,#461,#462,#463,#464,#465,#466,#467,#468,
#469));
#131=LINE('',#736,#176);
#132=LINE('',#744,#177);
#133=LINE('',#750,#178);
#134=LINE('',#758,#179);
#135=LINE('',#764,#180);
#136=LINE('',#772,#181);
#137=LINE('',#778,#182);
#138=LINE('',#786,#183);
#139=LINE('',#792,#184);
#140=LINE('',#799,#185);
#141=LINE('',#801,#186);
#142=LINE('',#803,#187);
#143=LINE('',#804,#188);
#144=LINE('',#807,#189);
#145=LINE('',#809,#190);
#146=LINE('',#810,#191);
#147=LINE('',#813,#192);
#148=LINE('',#815,#193);
#149=LINE('',#816,#194);
#150=LINE('',#819,#195);
#151=LINE('',#821,#196);
#152=LINE('',#822,#197);
#153=LINE('',#825,#198);
#154=LINE('',#827,#199);
#155=LINE('',#828,#200);
#156=LINE('',#831,#201);
#157=LINE('',#833,#202);
#158=LINE('',#834,#203);
#159=LINE('',#837,#204);
#160=LINE('',#839,#205);
#161=LINE('',#840,#206);
#162=LINE('',#843,#207);
#163=LINE('',#845,#208);
#164=LINE('',#846,#209);
#165=LINE('',#849,#210);
#166=LINE('',#851,#211);
#167=LINE('',#852,#212);
#168=LINE('',#855,#213);
#169=LINE('',#857,#214);
#170=LINE('',#858,#215);
#171=LINE('',#861,#216);
#172=LINE('',#863,#217);
#173=LINE('',#864,#218);
#174=LINE('',#866,#219);
#175=LINE('',#867,#220);
#176=VECTOR('',#588,80.);
#177=VECTOR('',#599,2.);
#178=VECTOR('',#606,4.);
#179=VECTOR('',#617,2.);
#180=VECTOR('',#624,4.);
#181=VECTOR('',#635,2.);
#182=VECTOR('',#642,4.);
#183=VECTOR('',#653,2.);
#184=VECTOR('',#660,4.);
#185=VECTOR('',#669,10.);
#186=VECTOR('',#670,10.);
#187=VECTOR('',#671,10.);
#188=VECTOR('',#672,10.);
#189=VECTOR('',#675,10.);
#190=VECTOR('',#676,10.);
#191=VECTOR('',#677,10.);
#192=VECTOR('',#680,10.);
#193=VECTOR('',#681,10.);
#194=VECTOR('',#682,10.);
#195=VECTOR('',#685,10.);
#196=VECTOR('',#686,10.);
#197=VECTOR('',#687,10.);
#198=VECTOR('',#690,10.);
#199=VECTOR('',#691,10.);
#200=VECTOR('',#692,10.);
#201=VECTOR('',#695,10.);
#202=VECTOR('',#696,10.);
#203=VECTOR('',#697,10.);
#204=VECTOR('',#700,10.);
#205=VECTOR('',#701,10.);
#206=VECTOR('',#702,10.);
#207=VECTOR('',#705,10.);
#208=VECTOR('',#706,10.);
#209=VECTOR('',#707,10.);
#210=VECTOR('',#710,10.);
#211=VECTOR('',#711,10.);
#212=VECTOR('',#712,10.);
#213=VECTOR('',#715,10.);
#214=VECTOR('',#716,10.);
#215=VECTOR('',#717,10.);
#216=VECTOR('',#720,10.);
#217=VECTOR('',#721,10.);
#218=VECTOR('',#722,10.);
#219=VECTOR('',#725,10.);
#220=VECTOR('',#726,10.);
#221=CIRCLE('',#532,80.);
#222=CIRCLE('',#533,80.);
#223=CIRCLE('',#537,2.);
#224=CIRCLE('',#538,2.);
#225=CIRCLE('',#540,4.);
#226=CIRCLE('',#541,4.);
#227=CIRCLE('',#545,2.);
#228=CIRCLE('',#546,2.);
#229=CIRCLE('',#548,4.);
#230=CIRCLE('',#549,4.);
#231=CIRCLE('',#553,2.);
#232=CIRCLE('',#554,2.);
#233=CIRCLE('',#556,4.);
#234=CIRCLE('',#557,4.);
#235=CIRCLE('',#561,2.);
#236=CIRCLE('',#562,2.);
#237=CIRCLE('',#564,4.);
#238=CIRCLE('',#565,4.);
#239=VERTEX_POINT('',#733);
#240=VERTEX_POINT('',#735);
#241=VERTEX_POINT('',#741);
#242=VERTEX_POINT('',#743);
#243=VERTEX_POINT('',#747);
#244=VERTEX_POINT('',#749);
#245=VERTEX_POINT('',#755);
#246=VERTEX_POINT('',#757);
#247=VERTEX_POINT('',#761);
#248=VERTEX_POINT('',#763);
#249=VERTEX_POINT('',#769);
#250=VERTEX_POINT('',#771);
#251=VERTEX_POINT('',#775);
#252=VERTEX_POINT('',#777);
#253=VERTEX_POINT('',#783);
#254=VERTEX_POINT('',#785);
#255=VERTEX_POINT('',#789);
#256=VERTEX_POINT('',#791);
#257=VERTEX_POINT('',#797);
#258=VERTEX_POINT('',#798);
#259=VERTEX_POINT('',#800);
#260=VERTEX_POINT('',#802);
#261=VERTEX_POINT('',#806);
#262=VERTEX_POINT('',#808);
#263=VERTEX_POINT('',#812);
#264=VERTEX_POINT('',#814);
#265=VERTEX_POINT('',#818);
#266=VERTEX_POINT('',#820);
#267=VERTEX_POINT('',#824);
#268=VERTEX_POINT('',#826);
#269=VERTEX_POINT('',#830);
#270=VERTEX_POINT('',#832);
#271=VERTEX_POINT('',#836);
#272=VERTEX_POINT('',#838);
#273=VERTEX_POINT('',#842);
#274=VERTEX_POINT('',#844);
#275=VERTEX_POINT('',#848);
#276=VERTEX_POINT('',#850);
#277=VERTEX_POINT('',#854);
#278=VERTEX_POINT('',#856);
#279=VERTEX_POINT('',#860);
#280=VERTEX_POINT('',#862);
#281=EDGE_CURVE('',#239,#239,#221,.T.);
#282=EDGE_CURVE('',#239,#240,#131,.T.);
#283=EDGE_CURVE('',#240,#240,#222,.T.);
#284=EDGE_CURVE('',#241,#241,#223,.T.);
#285=EDGE_CURVE('',#241,#242,#132,.T.);
#286=EDGE_CURVE('',#242,#242,#224,.T.);
#287=EDGE_CURVE('',#243,#243,#225,.T.);
#288=EDGE_CURVE('',#243,#244,#133,.T.);
#289=EDGE_CURVE('',#244,#244,#226,.T.);
#290=EDGE_CURVE('',#245,#245,#227,.T.);
#291=EDGE_CURVE('',#245,#246,#134,.T.);
#292=EDGE_CURVE('',#246,#246,#228,.T.);
#293=EDGE_CURVE('',#247,#247,#229,.T.);
#294=EDGE_CURVE('',#247,#248,#135,.T.);
#295=EDGE_CURVE('',#248,#248,#230,.T.);
#296=EDGE_CURVE('',#249,#249,#231,.T.);
#297=EDGE_CURVE('',#249,#250,#136,.T.);
#298=EDGE_CURVE('',#250,#250,#232,.T.);
#299=EDGE_CURVE('',#251,#251,#233,.T.);
#300=EDGE_CURVE('',#251,#252,#137,.T.);
#301=EDGE_CURVE('',#252,#252,#234,.T.);
#302=EDGE_CURVE('',#253,#253,#235,.T.);
#303=EDGE_CURVE('',#253,#254,#138,.T.);
#304=EDGE_CURVE('',#254,#254,#236,.T.);
#305=EDGE_CURVE('',#255,#255,#237,.T.);
#306=EDGE_CURVE('',#255,#256,#139,.T.);
#307=EDGE_CURVE('',#256,#256,#238,.T.);
#308=EDGE_CURVE('',#257,#258,#140,.T.);
#309=EDGE_CURVE('',#257,#259,#141,.T.);
#310=EDGE_CURVE('',#260,#259,#142,.T.);
#311=EDGE_CURVE('',#258,#260,#143,.T.);
#312=EDGE_CURVE('',#258,#261,#144,.T.);
#313=EDGE_CURVE('',#262,#260,#145,.T.);
#314=EDGE_CURVE('',#261,#262,#146,.T.);
#315=EDGE_CURVE('',#261,#263,#147,.T.);
#316=EDGE_CURVE('',#264,#262,#148,.T.);
#317=EDGE_CURVE('',#263,#264,#149,.T.);
#318=EDGE_CURVE('',#263,#265,#150,.T.);
#319=EDGE_CURVE('',#266,#264,#151,.T.);
#320=EDGE_CURVE('',#265,#266,#152,.T.);
#321=EDGE_CURVE('',#265,#267,#153,.T.);
#322=EDGE_CURVE('',#268,#266,#154,.T.);
#323=EDGE_CURVE('',#267,#268,#155,.T.);
#324=EDGE_CURVE('',#267,#269,#156,.T.);
#325=EDGE_CURVE('',#270,#268,#157,.T.);
#326=EDGE_CURVE('',#269,#270,#158,.T.);
#327=EDGE_CURVE('',#269,#271,#159,.T.);
#328=EDGE_CURVE('',#272,#270,#160,.T.);
#329=EDGE_CURVE('',#271,#272,#161,.T.);
#330=EDGE_CURVE('',#271,#273,#162,.T.);
#331=EDGE_CURVE('',#274,#272,#163,.T.);
#332=EDGE_CURVE('',#273,#274,#164,.T.);
#333=EDGE_CURVE('',#273,#275,#165,.T.);
#334=EDGE_CURVE('',#276,#274,#166,.T.);
#335=EDGE_CURVE('',#275,#276,#167,.T.);
#336=EDGE_CURVE('',#275,#277,#168,.T.);
#337=EDGE_CURVE('',#278,#276,#169,.T.);
#338=EDGE_CURVE('',#277,#278,#170,.T.);
#339=EDGE_CURVE('',#279,#277,#171,.T.);
#340=EDGE_CURVE('',#280,#278,#172,.T.);
#341=EDGE_CURVE('',#279,#280,#173,.T.);
#342=EDGE_CURVE('',#257,#279,#174,.T.);
#343=EDGE_CURVE('',#259,#280,#175,.T.);
#344=ORIENTED_EDGE('',*,*,#281,.F.);
#345=ORIENTED_EDGE('',*,*,#282,.T.);
#346=ORIENTED_EDGE('',*,*,#283,.T.);
#347=ORIENTED_EDGE('',*,*,#282,.F.);
#348=ORIENTED_EDGE('',*,*,#281,.T.);
#349=ORIENTED_EDGE('',*,*,#283,.F.);
#350=ORIENTED_EDGE('',*,*,#284,.F.);
#351=ORIENTED_EDGE('',*,*,#285,.T.);
#352=ORIENTED_EDGE('',*,*,#286,.F.);
#353=ORIENTED_EDGE('',*,*,#285,.F.);
#354=ORIENTED_EDGE('',*,*,#287,.F.);
#355=ORIENTED_EDGE('',*,*,#288,.T.);
#356=ORIENTED_EDGE('',*,*,#289,.T.);
#357=ORIENTED_EDGE('',*,*,#288,.F.);
#358=ORIENTED_EDGE('',*,*,#287,.T.);
#359=ORIENTED_EDGE('',*,*,#284,.T.);
#360=ORIENTED_EDGE('',*,*,#289,.F.);
#361=ORIENTED_EDGE('',*,*,#286,.T.);
#362=ORIENTED_EDGE('',*,*,#290,.F.);
#363=ORIENTED_EDGE('',*,*,#291,.T.);
#364=ORIENTED_EDGE('',*,*,#292,.F.);
#365=ORIENTED_EDGE('',*,*,#291,.F.);
#366=ORIENTED_EDGE('',*,*,#293,.F.);
#367=ORIENTED_EDGE('',*,*,#294,.T.);
#368=ORIENTED_EDGE('',*,*,#295,.T.);
#369=ORIENTED_EDGE('',*,*,#294,.F.);
#370=ORIENTED_EDGE('',*,*,#293,.T.);
#371=ORIENTED_EDGE('',*,*,#290,.T.);
#372=ORIENTED_EDGE('',*,*,#295,.F.);
#373=ORIENTED_EDGE('',*,*,#292,.T.);
#374=ORIENTED_EDGE('',*,*,#296,.F.);
#375=ORIENTED_EDGE('',*,*,#297,.T.);
#376=ORIENTED_EDGE('',*,*,#298,.F.);
#377=ORIENTED_EDGE('',*,*,#297,.F.);
#378=ORIENTED_EDGE('',*,*,#299,.F.);
#379=ORIENTED_EDGE('',*,*,#300,.T.);
#380=ORIENTED_EDGE('',*,*,#301,.T.);
#381=ORIENTED_EDGE('',*,*,#300,.F.);
#382=ORIENTED_EDGE('',*,*,#299,.T.);
#383=ORIENTED_EDGE('',*,*,#296,.T.);
#384=ORIENTED_EDGE('',*,*,#301,.F.);
#385=ORIENTED_EDGE('',*,*,#298,.T.);
#386=ORIENTED_EDGE('',*,*,#302,.F.);
#387=ORIENTED_EDGE('',*,*,#303,.T.);
#388=ORIENTED_EDGE('',*,*,#304,.F.);
#389=ORIENTED_EDGE('',*,*,#303,.F.);
#390=ORIENTED_EDGE('',*,*,#305,.F.);
#391=ORIENTED_EDGE('',*,*,#306,.T.);
#392=ORIENTED_EDGE('',*,*,#307,.T.);
#393=ORIENTED_EDGE('',*,*,#306,.F.);
#394=ORIENTED_EDGE('',*,*,#305,.T.);
#395=ORIENTED_EDGE('',*,*,#302,.T.);
#396=ORIENTED_EDGE('',*,*,#307,.F.);
#397=ORIENTED_EDGE('',*,*,#304,.T.);
#398=ORIENTED_EDGE('',*,*,#308,.F.);
#399=ORIENTED_EDGE('',*,*,#309,.T.);
#400=ORIENTED_EDGE('',*,*,#310,.F.);
#401=ORIENTED_EDGE('',*,*,#311,.F.);
#402=ORIENTED_EDGE('',*,*,#312,.F.);
#403=ORIENTED_EDGE('',*,*,#311,.T.);
#404=ORIENTED_EDGE('',*,*,#313,.F.);
#405=ORIENTED_EDGE('',*,*,#314,.F.);
#406=ORIENTED_EDGE('',*,*,#315,.F.);
#407=ORIENTED_EDGE('',*,*,#314,.T.);
#408=ORIENTED_EDGE('',*,*,#316,.F.);
#409=ORIENTED_EDGE('',*,*,#317,.F.);
#410=ORIENTED_EDGE('',*,*,#318,.F.);
#411=ORIENTED_EDGE('',*,*,#317,.T.);
#412=ORIENTED_EDGE('',*,*,#319,.F.);
#413=ORIENTED_EDGE('',*,*,#320,.F.);
#414=ORIENTED_EDGE('',*,*,#321,.F.);
#415=ORIENTED_EDGE('',*,*,#320,.T.);
#416=ORIENTED_EDGE('',*,*,#322,.F.);
#417=ORIENTED_EDGE('',*,*,#323,.F.);
#418=ORIENTED_EDGE('',*,*,#324,.F.);
#419=ORIENTED_EDGE('',*,*,#323,.T.);
#420=ORIENTED_EDGE('',*,*,#325,.F.);
#421=ORIENTED_EDGE('',*,*,#326,.F.);
#422=ORIENTED_EDGE('',*,*,#327,.F.);
#423=ORIENTED_EDGE('',*,*,#326,.T.);
#424=ORIENTED_EDGE('',*,*,#328,.F.);
#425=ORIENTED_EDGE('',*,*,#329,.F.);
#426=ORIENTED_EDGE('',*,*,#330,.F.);
#427=ORIENTED_EDGE('',*,*,#329,.T.);
#428=ORIENTED_EDGE('',*,*,#331,.F.);
#429=ORIENTED_EDGE('',*,*,#332,.F.);
#430=ORIENTED_EDGE('',*,*,#333,.F.);
#431=ORIENTED_EDGE('',*,*,#332,.T.);
#432=ORIENTED_EDGE('',*,*,#334,.F.);
#433=ORIENTED_EDGE('',*,*,#335,.F.);
#434=ORIENTED_EDGE('',*,*,#336,.F.);
#435=ORIENTED_EDGE('',*,*,#335,.T.);
#436=ORIENTED_EDGE('',*,*,#337,.F.);
#437=ORIENTED_EDGE('',*,*,#338,.F.);
#438=ORIENTED_EDGE('',*,*,#339,.T.);
#439=ORIENTED_EDGE('',*,*,#338,.T.);
#440=ORIENTED_EDGE('',*,*,#340,.F.);
#441=ORIENTED_EDGE('',*,*,#341,.F.);
#442=ORIENTED_EDGE('',*,*,#342,.T.);
#443=ORIENTED_EDGE('',*,*,#341,.T.);
#444=ORIENTED_EDGE('',*,*,#343,.F.);
#445=ORIENTED_EDGE('',*,*,#309,.F.);
#446=ORIENTED_EDGE('',*,*,#343,.T.);
#447=ORIENTED_EDGE('',*,*,#340,.T.);
#448=ORIENTED_EDGE('',*,*,#337,.T.);
#449=ORIENTED_EDGE('',*,*,#334,.T.);
#450=ORIENTED_EDGE('',*,*,#331,.T.);
#451=ORIENTED_EDGE('',*,*,#328,.T.);
#452=ORIENTED_EDGE('',*,*,#325,.T.);
#453=ORIENTED_EDGE('',*,*,#322,.T.);
#454=ORIENTED_EDGE('',*,*,#319,.T.);
#455=ORIENTED_EDGE('',*,*,#316,.T.);
#456=ORIENTED_EDGE('',*,*,#313,.T.);
#457=ORIENTED_EDGE('',*,*,#310,.T.);
#458=ORIENTED_EDGE('',*,*,#342,.F.);
#459=ORIENTED_EDGE('',*,*,#308,.T.);
#460=ORIENTED_EDGE('',*,*,#312,.T.);
#461=ORIENTED_EDGE('',*,*,#315,.T.);
#462=ORIENTED_EDGE('',*,*,#318,.T.);
#463=ORIENTED_EDGE('',*,*,#321,.T.);
#464=ORIENTED_EDGE('',*,*,#324,.T.);
#465=ORIENTED_EDGE('',*,*,#327,.T.);
#466=ORIENTED_EDGE('',*,*,#330,.T.);
#467=ORIENTED_EDGE('',*,*,#333,.T.);
#468=ORIENTED_EDGE('',*,*,#336,.T.);
#469=ORIENTED_EDGE('',*,*,#339,.F.);
#470=CYLINDRICAL_SURFACE('',#531,80.);
#471=CYLINDRICAL_SURFACE('',#536,2.);
#472=CYLINDRICAL_SURFACE('',#539,4.);
#473=CYLINDRICAL_SURFACE('',#544,2.);
#474=CYLINDRICAL_SURFACE('',#547,4.);
#475=CYLINDRICAL_SURFACE('',#552,2.);
#476=CYLINDRICAL_SURFACE('',#555,4.);
#477=CYLINDRICAL_SURFACE('',#560,2.);
#478=CYLINDRICAL_SURFACE('',#563,4.);
#479=ADVANCED_FACE('',(#57),#470,.T.);
#480=ADVANCED_FACE('',(#58),#33,.T.);
#481=ADVANCED_FACE('',(#59),#34,.F.);
#482=ADVANCED_FACE('',(#60),#471,.F.);
#483=ADVANCED_FACE('',(#61),#472,.T.);
#484=ADVANCED_FACE('',(#62,#13),#35,.T.);
#485=ADVANCED_FACE('',(#63,#14),#36,.F.);
#486=ADVANCED_FACE('',(#64),#473,.F.);
#487=ADVANCED_FACE('',(#65),#474,.T.);
#488=ADVANCED_FACE('',(#66,#15),#37,.T.);
#489=ADVANCED_FACE('',(#67,#16),#38,.F.);
#490=ADVANCED_FACE('',(#68),#475,.F.);
#491=ADVANCED_FACE('',(#69),#476,.T.);
#492=ADVANCED_FACE('',(#70,#17),#39,.T.);
#493=ADVANCED_FACE('',(#71,#18),#40,.F.);
#494=ADVANCED_FACE('',(#72),#477,.F.);
#495=ADVANCED_FACE('',(#73),#478,.T.);
#496=ADVANCED_FACE('',(#74,#19),#41,.T.);
#497=ADVANCED_FACE('',(#75,#20),#42,.F.);
#498=ADVANCED_FACE('',(#76),#43,.T.);
#499=ADVANCED_FACE('',(#77),#44,.T.);
#500=ADVANCED_FACE('',(#78),#45,.T.);
#501=ADVANCED_FACE('',(#79),#46,.T.);
#502=ADVANCED_FACE('',(#80),#47,.T.);
#503=ADVANCED_FACE('',(#81),#48,.T.);
#504=ADVANCED_FACE('',(#82),#49,.T.);
#505=ADVANCED_FACE('',(#83),#50,.T.);
#506=ADVANCED_FACE('',(#84),#51,.T.);
#507=ADVANCED_FACE('',(#85),#52,.T.);
#508=ADVANCED_FACE('',(#86),#53,.T.);
#509=ADVANCED_FACE('',(#87),#54,.T.);
#510=ADVANCED_FACE('',(#88),#55,.T.);
#511=ADVANCED_FACE('',(#89),#56,.F.);
#512=CLOSED_SHELL('',(#479,#480,#481));
#513=CLOSED_SHELL('',(#482,#483,#484,#485));
#514=CLOSED_SHELL('',(#486,#487,#488,#489));
#515=CLOSED_SHELL('',(#490,#491,#492,#493));
#516=CLOSED_SHELL('',(#494,#495,#496,#497));
#517=CLOSED_SHELL('',(#498,#499,#500,#501,#502,#503,#504,#505,#506,#507,
#508,#509,#510,#511));
#518=DERIVED_UNIT_ELEMENT(#520,1.);
#519=DERIVED_UNIT_ELEMENT(#875,-3.);
#520=(
MASS_UNIT()
NAMED_UNIT(*)
SI_UNIT(.KILO.,.GRAM.)
);
#521=DERIVED_UNIT((#518,#519));
#522=MEASURE_REPRESENTATION_ITEM('density measure',
POSITIVE_RATIO_MEASURE(7850.),#521);
#523=PROPERTY_DEFINITION_REPRESENTATION(#528,#525);
#524=PROPERTY_DEFINITION_REPRESENTATION(#529,#526);
#525=REPRESENTATION('material name',(#527),#872);
#526=REPRESENTATION('density',(#522),#872);
#527=DESCRIPTIVE_REPRESENTATION_ITEM('Steel','Steel');
#528=PROPERTY_DEFINITION('material property','material name',#882);
#529=PROPERTY_DEFINITION('material property','density of part',#882);
#530=AXIS2_PLACEMENT_3D('',#731,#582,#583);
#531=AXIS2_PLACEMENT_3D('',#732,#584,#585);
#532=AXIS2_PLACEMENT_3D('',#734,#586,#587);
#533=AXIS2_PLACEMENT_3D('',#737,#589,#590);
#534=AXIS2_PLACEMENT_3D('',#738,#591,#592);
#535=AXIS2_PLACEMENT_3D('',#739,#593,#594);
#536=AXIS2_PLACEMENT_3D('',#740,#595,#596);
#537=AXIS2_PLACEMENT_3D('',#742,#597,#598);
#538=AXIS2_PLACEMENT_3D('',#745,#600,#601);
#539=AXIS2_PLACEMENT_3D('',#746,#602,#603);
#540=AXIS2_PLACEMENT_3D('',#748,#604,#605);
#541=AXIS2_PLACEMENT_3D('',#751,#607,#608);
#542=AXIS2_PLACEMENT_3D('',#752,#609,#610);
#543=AXIS2_PLACEMENT_3D('',#753,#611,#612);
#544=AXIS2_PLACEMENT_3D('',#754,#613,#614);
#545=AXIS2_PLACEMENT_3D('',#756,#615,#616);
#546=AXIS2_PLACEMENT_3D('',#759,#618,#619);
#547=AXIS2_PLACEMENT_3D('',#760,#620,#621);
#548=AXIS2_PLACEMENT_3D('',#762,#622,#623);
#549=AXIS2_PLACEMENT_3D('',#765,#625,#626);
#550=AXIS2_PLACEMENT_3D('',#766,#627,#628);
#551=AXIS2_PLACEMENT_3D('',#767,#629,#630);
#552=AXIS2_PLACEMENT_3D('',#768,#631,#632);
#553=AXIS2_PLACEMENT_3D('',#770,#633,#634);
#554=AXIS2_PLACEMENT_3D('',#773,#636,#637);
#555=AXIS2_PLACEMENT_3D('',#774,#638,#639);
#556=AXIS2_PLACEMENT_3D('',#776,#640,#641);
#557=AXIS2_PLACEMENT_3D('',#779,#643,#644);
#558=AXIS2_PLACEMENT_3D('',#780,#645,#646);
#559=AXIS2_PLACEMENT_3D('',#781,#647,#648);
#560=AXIS2_PLACEMENT_3D('',#782,#649,#650);
#561=AXIS2_PLACEMENT_3D('',#784,#651,#652);
#562=AXIS2_PLACEMENT_3D('',#787,#654,#655);
#563=AXIS2_PLACEMENT_3D('',#788,#656,#657);
#564=AXIS2_PLACEMENT_3D('',#790,#658,#659);
#565=AXIS2_PLACEMENT_3D('',#793,#661,#662);
#566=AXIS2_PLACEMENT_3D('',#794,#663,#664);
#567=AXIS2_PLACEMENT_3D('',#795,#665,#666);
#568=AXIS2_PLACEMENT_3D('',#796,#667,#668);
#569=AXIS2_PLACEMENT_3D('',#805,#673,#674);
#570=AXIS2_PLACEMENT_3D('',#811,#678,#679);
#571=AXIS2_PLACEMENT_3D('',#817,#683,#684);
#572=AXIS2_PLACEMENT_3D('',#823,#688,#689);
#573=AXIS2_PLACEMENT_3D('',#829,#693,#694);
#574=AXIS2_PLACEMENT_3D('',#835,#698,#699);
#575=AXIS2_PLACEMENT_3D('',#841,#703,#704);
#576=AXIS2_PLACEMENT_3D('',#847,#708,#709);
#577=AXIS2_PLACEMENT_3D('',#853,#713,#714);
#578=AXIS2_PLACEMENT_3D('',#859,#718,#719);
#579=AXIS2_PLACEMENT_3D('',#865,#723,#724);
#580=AXIS2_PLACEMENT_3D('',#868,#727,#728);
#581=AXIS2_PLACEMENT_3D('',#869,#729,#730);
#582=DIRECTION('axis',(0.,0.,1.));
#583=DIRECTION('refdir',(1.,0.,0.));
#584=DIRECTION('center_axis',(0.,0.,1.));
#585=DIRECTION('ref_axis',(1.,0.,0.));
#586=DIRECTION('center_axis',(0.,0.,1.));
#587=DIRECTION('ref_axis',(1.,0.,0.));
#588=DIRECTION('',(0.,0.,-1.));
#589=DIRECTION('center_axis',(0.,0.,1.));
#590=DIRECTION('ref_axis',(1.,0.,0.));
#591=DIRECTION('center_axis',(0.,0.,1.));
#592=DIRECTION('ref_axis',(1.,0.,0.));
#593=DIRECTION('center_axis',(0.,0.,1.));
#594=DIRECTION('ref_axis',(1.,0.,0.));
#595=DIRECTION('center_axis',(0.,0.,1.));
#596=DIRECTION('ref_axis',(1.,0.,0.));
#597=DIRECTION('center_axis',(0.,0.,-1.));
#598=DIRECTION('ref_axis',(1.,0.,0.));
#599=DIRECTION('',(0.,0.,-1.));
#600=DIRECTION('center_axis',(0.,0.,1.));
#601=DIRECTION('ref_axis',(1.,0.,0.));
#602=DIRECTION('center_axis',(0.,0.,1.));
#603=DIRECTION('ref_axis',(1.,0.,0.));
#604=DIRECTION('center_axis',(0.,0.,1.));
#605=DIRECTION('ref_axis',(1.,0.,0.));
#606=DIRECTION('',(0.,0.,-1.));
#607=DIRECTION('center_axis',(0.,0.,1.));
#608=DIRECTION('ref_axis',(1.,0.,0.));
#609=DIRECTION('center_axis',(0.,0.,1.));
#610=DIRECTION('ref_axis',(1.,0.,0.));
#611=DIRECTION('center_axis',(0.,0.,1.));
#612=DIRECTION('ref_axis',(1.,0.,0.));
#613=DIRECTION('center_axis',(0.,0.,1.));
#614=DIRECTION('ref_axis',(1.,0.,0.));
#615=DIRECTION('center_axis',(0.,0.,-1.));
#616=DIRECTION('ref_axis',(1.,0.,0.));
#617=DIRECTION('',(0.,0.,-1.));
#618=DIRECTION('center_axis',(0.,0.,1.));
#619=DIRECTION('ref_axis',(1.,0.,0.));
#620=DIRECTION('center_axis',(0.,0.,1.));
#621=DIRECTION('ref_axis',(1.,0.,0.));
#622=DIRECTION('center_axis',(0.,0.,1.));
#623=DIRECTION('ref_axis',(1.,0.,0.));
#624=DIRECTION('',(0.,0.,-1.));
#625=DIRECTION('center_axis',(0.,0.,1.));
#626=DIRECTION('ref_axis',(1.,0.,0.));
#627=DIRECTION('center_axis',(0.,0.,1.));
#628=DIRECTION('ref_axis',(1.,0.,0.));
#629=DIRECTION('center_axis',(0.,0.,1.));
#630=DIRECTION('ref_axis',(1.,0.,0.));
#631=DIRECTION('center_axis',(0.,0.,1.));
#632=DIRECTION('ref_axis',(1.,0.,0.));
#633=DIRECTION('center_axis',(0.,0.,-1.));
#634=DIRECTION('ref_axis',(1.,0.,0.));
#635=DIRECTION('',(0.,0.,-1.));
#636=DIRECTION('center_axis',(0.,0.,1.));
#637=DIRECTION('ref_axis',(1.,0.,0.));
#638=DIRECTION('center_axis',(0.,0.,1.));
#639=DIRECTION('ref_axis',(1.,0.,0.));
#640=DIRECTION('center_axis',(0.,0.,1.));
#641=DIRECTION('ref_axis',(1.,0.,0.));
#642=DIRECTION('',(0.,0.,-1.));
#643=DIRECTION('center_axis',(0.,0.,1.));
#644=DIRECTION('ref_axis',(1.,0.,0.));
#645=DIRECTION('center_axis',(0.,0.,1.));
#646=DIRECTION('ref_axis',(1.,0.,0.));
#647=DIRECTION('center_axis',(0.,0.,1.));
#648=DIRECTION('ref_axis',(1.,0.,0.));
#649=DIRECTION('center_axis',(0.,0.,1.));
#650=DIRECTION('ref_axis',(1.,0.,0.));
#651=DIRECTION('center_axis',(0.,0.,-1.));
#652=DIRECTION('ref_axis',(1.,0.,0.));
#653=DIRECTION('',(0.,0.,-1.));
#654=DIRECTION('center_axis',(0.,0.,1.));
#655=DIRECTION('ref_axis',(1.,0.,0.));
#656=DIRECTION('center_axis',(0.,0.,1.));
#657=DIRECTION('ref_axis',(1.,0.,0.));
#658=DIRECTION('center_axis',(0.,0.,1.));
#659=DIRECTION('ref_axis',(1.,0.,0.));
#660=DIRECTION('',(0.,0.,-1.));
#661=DIRECTION('center_axis',(0.,0.,1.));
#662=DIRECTION('ref_axis',(1.,0.,0.));
#663=DIRECTION('center_axis',(0.,0.,1.));
#664=DIRECTION('ref_axis',(1.,0.,0.));
#665=DIRECTION('center_axis',(0.,0.,1.));
#666=DIRECTION('ref_axis',(1.,0.,0.));
#667=DIRECTION('center_axis',(-1.,0.,0.));
#668=DIRECTION('ref_axis',(0.,-1.,0.));
#669=DIRECTION('',(0.,1.,0.));
#670=DIRECTION('',(0.,0.,1.));
#671=DIRECTION('',(0.,-1.,0.));
#672=DIRECTION('',(0.,0.,1.));
#673=DIRECTION('center_axis',(0.,-1.,0.));
#674=DIRECTION('ref_axis',(1.,0.,0.));
#675=DIRECTION('',(-1.,0.,0.));
#676=DIRECTION('',(1.,0.,0.));
#677=DIRECTION('',(0.,0.,1.));
#678=DIRECTION('center_axis',(-1.,0.,0.));
#679=DIRECTION('ref_axis',(0.,-1.,0.));
#680=DIRECTION('',(0.,1.,0.));
#681=DIRECTION('',(0.,-1.,0.));
#682=DIRECTION('',(0.,0.,1.));
#683=DIRECTION('center_axis',(0.,1.,0.));
#684=DIRECTION('ref_axis',(-1.,0.,0.));
#685=DIRECTION('',(1.,0.,0.));
#686=DIRECTION('',(-1.,0.,0.));
#687=DIRECTION('',(0.,0.,1.));
#688=DIRECTION('center_axis',(1.,0.,0.));
#689=DIRECTION('ref_axis',(0.,1.,0.));
#690=DIRECTION('',(0.,-1.,0.));
#691=DIRECTION('',(0.,1.,0.));
#692=DIRECTION('',(0.,0.,1.));
#693=DIRECTION('center_axis',(0.,-1.,0.));
#694=DIRECTION('ref_axis',(1.,0.,0.));
#695=DIRECTION('',(-1.,0.,0.));
#696=DIRECTION('',(1.,0.,0.));
#697=DIRECTION('',(0.,0.,1.));
#698=DIRECTION('center_axis',(-1.,0.,0.));
#699=DIRECTION('ref_axis',(0.,-1.,0.));
#700=DIRECTION('',(0.,1.,0.));
#701=DIRECTION('',(0.,-1.,0.));
#702=DIRECTION('',(0.,0.,1.));
#703=DIRECTION('center_axis',(0.,1.,0.));
#704=DIRECTION('ref_axis',(-1.,0.,0.));
#705=DIRECTION('',(1.,0.,0.));
#706=DIRECTION('',(-1.,0.,0.));
#707=DIRECTION('',(0.,0.,1.));
#708=DIRECTION('center_axis',(1.,0.,0.));
#709=DIRECTION('ref_axis',(0.,1.,0.));
#710=DIRECTION('',(0.,-1.,0.));
#711=DIRECTION('',(0.,1.,0.));
#712=DIRECTION('',(0.,0.,1.));
#713=DIRECTION('center_axis',(0.,-1.,0.));
#714=DIRECTION('ref_axis',(1.,0.,0.));
#715=DIRECTION('',(-1.,0.,0.));
#716=DIRECTION('',(1.,0.,0.));
#717=DIRECTION('',(0.,0.,1.));
#718=DIRECTION('center_axis',(1.,0.,0.));
#719=DIRECTION('ref_axis',(0.,1.,0.));
#720=DIRECTION('',(0.,1.,0.));
#721=DIRECTION('',(0.,1.,0.));
#722=DIRECTION('',(0.,0.,1.));
#723=DIRECTION('center_axis',(0.,1.,0.));
#724=DIRECTION('ref_axis',(-1.,0.,0.));
#725=DIRECTION('',(-1.,0.,0.));
#726=DIRECTION('',(-1.,0.,0.));
#727=DIRECTION('center_axis',(0.,0.,1.));
#728=DIRECTION('ref_axis',(1.,0.,0.));
#729=DIRECTION('center_axis',(0.,0.,1.));
#730=DIRECTION('ref_axis',(1.,0.,0.));
#731=CARTESIAN_POINT('',(0.,0.,0.));
#732=CARTESIAN_POINT('Origin',(0.,0.,0.));
#733=CARTESIAN_POINT('',(-80.,-9.79717439317883E-15,5.));
#734=CARTESIAN_POINT('Origin',(0.,0.,5.));
#735=CARTESIAN_POINT('',(-80.,-9.79717439317883E-15,0.));
#736=CARTESIAN_POINT('',(-80.,-9.79717439317883E-15,0.));
#737=CARTESIAN_POINT('Origin',(0.,0.,0.));
#738=CARTESIAN_POINT('Origin',(0.,0.,5.));
#739=CARTESIAN_POINT('Origin',(0.,0.,0.));
#740=CARTESIAN_POINT('Origin',(0.,72.0000010728836,0.));
#741=CARTESIAN_POINT('',(-2.,72.0000010728836,38.));
#742=CARTESIAN_POINT('Origin',(0.,72.0000010728836,38.));
#743=CARTESIAN_POINT('',(-2.,72.0000010728836,0.));
#744=CARTESIAN_POINT('',(-2.,72.0000010728836,0.));
#745=CARTESIAN_POINT('Origin',(0.,72.0000010728836,0.));
#746=CARTESIAN_POINT('Origin',(0.,72.0000010728836,0.));
#747=CARTESIAN_POINT('',(-4.,72.0000010728836,38.));
#748=CARTESIAN_POINT('Origin',(0.,72.0000010728836,38.));
#749=CARTESIAN_POINT('',(-4.,72.0000010728836,0.));
#750=CARTESIAN_POINT('',(-4.,72.0000010728836,0.));
#751=CARTESIAN_POINT('Origin',(0.,72.0000010728836,0.));
#752=CARTESIAN_POINT('Origin',(0.,-0.499998927116394,38.));
#753=CARTESIAN_POINT('Origin',(0.,-0.499998927116394,0.));
#754=CARTESIAN_POINT('Origin',(72.5,1.07288361306246E-6,0.));
#755=CARTESIAN_POINT('',(70.5,1.07288361281753E-6,38.));
#756=CARTESIAN_POINT('Origin',(72.5,1.07288361306246E-6,38.));
#757=CARTESIAN_POINT('',(70.5,1.07288361281753E-6,0.));
#758=CARTESIAN_POINT('',(70.5,1.07288361281753E-6,0.));
#759=CARTESIAN_POINT('Origin',(72.5,1.07288361306246E-6,0.));
#760=CARTESIAN_POINT('Origin',(72.5,1.07288361306246E-6,0.));
#761=CARTESIAN_POINT('',(68.5,1.0728836125726E-6,38.));
#762=CARTESIAN_POINT('Origin',(72.5,1.07288361306246E-6,38.));
#763=CARTESIAN_POINT('',(68.5,1.0728836125726E-6,0.));
#764=CARTESIAN_POINT('',(68.5,1.0728836125726E-6,0.));
#765=CARTESIAN_POINT('Origin',(72.5,1.07288361306246E-6,0.));
#766=CARTESIAN_POINT('Origin',(0.,-0.499998927116394,38.));
#767=CARTESIAN_POINT('Origin',(0.,-0.499998927116394,0.));
#768=CARTESIAN_POINT('Origin',(-72.5,1.07288361306246E-6,0.));
#769=CARTESIAN_POINT('',(-74.5,1.07288361281753E-6,38.));
#770=CARTESIAN_POINT('Origin',(-72.5,1.07288361306246E-6,38.));
#771=CARTESIAN_POINT('',(-74.5,1.07288361281753E-6,0.));
#772=CARTESIAN_POINT('',(-74.5,1.07288361281753E-6,0.));
#773=CARTESIAN_POINT('Origin',(-72.5,1.07288361306246E-6,0.));
#774=CARTESIAN_POINT('Origin',(-72.5,1.07288361306246E-6,0.));
#775=CARTESIAN_POINT('',(-76.5,1.0728836125726E-6,38.));
#776=CARTESIAN_POINT('Origin',(-72.5,1.07288361306246E-6,38.));
#777=CARTESIAN_POINT('',(-76.5,1.0728836125726E-6,0.));
#778=CARTESIAN_POINT('',(-76.5,1.0728836125726E-6,0.));
#779=CARTESIAN_POINT('Origin',(-72.5,1.07288361306246E-6,0.));
#780=CARTESIAN_POINT('Origin',(0.,-0.499998927116394,38.));
#781=CARTESIAN_POINT('Origin',(0.,-0.499998927116394,0.));
#782=CARTESIAN_POINT('Origin',(0.,-72.9999989271164,0.));
#783=CARTESIAN_POINT('',(-2.,-72.9999989271164,38.));
#784=CARTESIAN_POINT('Origin',(0.,-72.9999989271164,38.));
#785=CARTESIAN_POINT('',(-2.,-72.9999989271164,0.));
#786=CARTESIAN_POINT('',(-2.,-72.9999989271164,0.));
#787=CARTESIAN_POINT('Origin',(0.,-72.9999989271164,0.));
#788=CARTESIAN_POINT('Origin',(0.,-72.9999989271164,0.));
#789=CARTESIAN_POINT('',(-4.,-72.9999989271164,38.));
#790=CARTESIAN_POINT('Origin',(0.,-72.9999989271164,38.));
#791=CARTESIAN_POINT('',(-4.,-72.9999989271164,0.));
#792=CARTESIAN_POINT('',(-4.,-72.9999989271164,0.));
#793=CARTESIAN_POINT('Origin',(0.,-72.9999989271164,0.));
#794=CARTESIAN_POINT('Origin',(0.,-0.499998927116394,38.));
#795=CARTESIAN_POINT('Origin',(0.,-0.499998927116394,0.));
#796=CARTESIAN_POINT('Origin',(12.5,24.999999627471,0.));
#797=CARTESIAN_POINT('',(12.5,-25.000000372529,0.));
#798=CARTESIAN_POINT('',(12.5,24.999999627471,0.));
#799=CARTESIAN_POINT('',(12.5,-25.000000372529,0.));
#800=CARTESIAN_POINT('',(12.5,-25.000000372529,25.));
#801=CARTESIAN_POINT('',(12.5,-25.000000372529,0.));
#802=CARTESIAN_POINT('',(12.5,24.999999627471,25.));
#803=CARTESIAN_POINT('',(12.5,-25.000000372529,25.));
#804=CARTESIAN_POINT('',(12.5,24.999999627471,0.));
#805=CARTESIAN_POINT('Origin',(5.00000007450581,24.999999627471,0.));
#806=CARTESIAN_POINT('',(5.00000007450581,24.999999627471,0.));
#807=CARTESIAN_POINT('',(12.5,24.999999627471,0.));
#808=CARTESIAN_POINT('',(5.00000007450581,24.999999627471,25.));
#809=CARTESIAN_POINT('',(12.5,24.999999627471,25.));
#810=CARTESIAN_POINT('',(5.00000007450581,24.999999627471,0.));
#811=CARTESIAN_POINT('Origin',(5.00000007450581,28.0000004172325,0.));
#812=CARTESIAN_POINT('',(5.00000007450581,28.0000004172325,0.));
#813=CARTESIAN_POINT('',(5.00000007450581,24.999999627471,0.));
#814=CARTESIAN_POINT('',(5.00000007450581,28.0000004172325,25.));
#815=CARTESIAN_POINT('',(5.00000007450581,24.999999627471,25.));
#816=CARTESIAN_POINT('',(5.00000007450581,28.0000004172325,0.));
#817=CARTESIAN_POINT('Origin',(15.5000000745058,28.0000004172325,0.));
#818=CARTESIAN_POINT('',(15.5000000745058,28.0000004172325,0.));
#819=CARTESIAN_POINT('',(5.00000007450581,28.0000004172325,0.));
#820=CARTESIAN_POINT('',(15.5000000745058,28.0000004172325,25.));
#821=CARTESIAN_POINT('',(5.00000007450581,28.0000004172325,25.));
#822=CARTESIAN_POINT('',(15.5000000745058,28.0000004172325,0.));
#823=CARTESIAN_POINT('Origin',(15.5000000745058,-27.9999995827675,0.));
#824=CARTESIAN_POINT('',(15.5000000745058,-27.9999995827675,0.));
#825=CARTESIAN_POINT('',(15.5000000745058,28.0000004172325,0.));
#826=CARTESIAN_POINT('',(15.5000000745058,-27.9999995827675,25.));
#827=CARTESIAN_POINT('',(15.5000000745058,28.0000004172325,25.));
#828=CARTESIAN_POINT('',(15.5000000745058,-27.9999995827675,0.));
#829=CARTESIAN_POINT('Origin',(-16.0000002384186,-27.9999995827675,0.));
#830=CARTESIAN_POINT('',(-16.0000002384186,-27.9999995827675,0.));
#831=CARTESIAN_POINT('',(15.5000000745058,-27.9999995827675,0.));
#832=CARTESIAN_POINT('',(-16.0000002384186,-27.9999995827675,25.));
#833=CARTESIAN_POINT('',(15.5000000745058,-27.9999995827675,25.));
#834=CARTESIAN_POINT('',(-16.0000002384186,-27.9999995827675,0.));
#835=CARTESIAN_POINT('Origin',(-16.0000002384186,28.0000004172325,0.));
#836=CARTESIAN_POINT('',(-16.0000002384186,28.0000004172325,0.));
#837=CARTESIAN_POINT('',(-16.0000002384186,-27.9999995827675,0.));
#838=CARTESIAN_POINT('',(-16.0000002384186,28.0000004172325,25.));
#839=CARTESIAN_POINT('',(-16.0000002384186,-27.9999995827675,25.));
#840=CARTESIAN_POINT('',(-16.0000002384186,28.0000004172325,0.));
#841=CARTESIAN_POINT('Origin',(-5.50000023841858,28.0000004172325,0.));
#842=CARTESIAN_POINT('',(-5.50000023841858,28.0000004172325,0.));
#843=CARTESIAN_POINT('',(-16.0000002384186,28.0000004172325,0.));
#844=CARTESIAN_POINT('',(-5.50000023841858,28.0000004172325,25.));
#845=CARTESIAN_POINT('',(-16.0000002384186,28.0000004172325,25.));
#846=CARTESIAN_POINT('',(-5.50000023841858,28.0000004172325,0.));
#847=CARTESIAN_POINT('Origin',(-5.50000023841858,25.000000372529,0.));
#848=CARTESIAN_POINT('',(-5.50000023841858,25.000000372529,0.));
#849=CARTESIAN_POINT('',(-5.50000023841858,28.0000004172325,0.));
#850=CARTESIAN_POINT('',(-5.50000023841858,25.000000372529,25.));
#851=CARTESIAN_POINT('',(-5.50000023841858,28.0000004172325,25.));
#852=CARTESIAN_POINT('',(-5.50000023841858,25.000000372529,0.));
#853=CARTESIAN_POINT('Origin',(-12.5,25.000000372529,0.));
#854=CARTESIAN_POINT('',(-12.5,25.000000372529,0.));
#855=CARTESIAN_POINT('',(-5.50000023841858,25.000000372529,0.));
#856=CARTESIAN_POINT('',(-12.5,25.000000372529,25.));
#857=CARTESIAN_POINT('',(-5.50000023841858,25.000000372529,25.));
#858=CARTESIAN_POINT('',(-12.5,25.000000372529,0.));
#859=CARTESIAN_POINT('Origin',(-12.5,-25.000000372529,0.));
#860=CARTESIAN_POINT('',(-12.5,-25.000000372529,0.));
#861=CARTESIAN_POINT('',(-12.5,-25.000000372529,0.));
#862=CARTESIAN_POINT('',(-12.5,-25.000000372529,25.));
#863=CARTESIAN_POINT('',(-12.5,-25.000000372529,25.));
#864=CARTESIAN_POINT('',(-12.5,-25.000000372529,0.));
#865=CARTESIAN_POINT('Origin',(12.5,-25.000000372529,0.));
#866=CARTESIAN_POINT('',(0.,-25.000000372529,0.));
#867=CARTESIAN_POINT('',(0.,-25.000000372529,25.));
#868=CARTESIAN_POINT('Origin',(-0.250000081956387,4.17232510763199E-7,25.));
#869=CARTESIAN_POINT('Origin',(-0.250000081956387,4.17232510763199E-7,0.));
#870=UNCERTAINTY_MEASURE_WITH_UNIT(LENGTH_MEASURE(0.01),#874,
'DISTANCE_ACCURACY_VALUE',
'Maximum model space distance between geometric entities at asserted c
onnectivities');
#871=UNCERTAINTY_MEASURE_WITH_UNIT(LENGTH_MEASURE(0.01),#874,
'DISTANCE_ACCURACY_VALUE',
'Maximum model space distance between geometric entities at asserted c
onnectivities');
#872=(
GEOMETRIC_REPRESENTATION_CONTEXT(3)
GLOBAL_UNCERTAINTY_ASSIGNED_CONTEXT((#870))
GLOBAL_UNIT_ASSIGNED_CONTEXT((#874,#876,#877))
REPRESENTATION_CONTEXT('','3D')
);
#873=(
GEOMETRIC_REPRESENTATION_CONTEXT(3)
GLOBAL_UNCERTAINTY_ASSIGNED_CONTEXT((#871))
GLOBAL_UNIT_ASSIGNED_CONTEXT((#874,#876,#877))
REPRESENTATION_CONTEXT('','3D')
);
#874=(
LENGTH_UNIT()
NAMED_UNIT(*)
SI_UNIT(.MILLI.,.METRE.)
);
#875=(
LENGTH_UNIT()
NAMED_UNIT(*)
SI_UNIT($,.METRE.)
);
#876=(
NAMED_UNIT(*)
PLANE_ANGLE_UNIT()
SI_UNIT($,.RADIAN.)
);
#877=(
NAMED_UNIT(*)
SI_UNIT($,.STERADIAN.)
SOLID_ANGLE_UNIT()
);
#878=SHAPE_DEFINITION_REPRESENTATION(#879,#880);
#879=PRODUCT_DEFINITION_SHAPE('',$,#882);
#880=SHAPE_REPRESENTATION('',(#530),#872);
#881=PRODUCT_DEFINITION_CONTEXT('part definition',#886,'design');
#882=PRODUCT_DEFINITION('base_bottom','base_bottom',#883,#881);
#883=PRODUCT_DEFINITION_FORMATION('',$,#888);
#884=PRODUCT_RELATED_PRODUCT_CATEGORY('base_bottom','base_bottom',(#888));
#885=APPLICATION_PROTOCOL_DEFINITION('international standard',
'automotive_design',2009,#886);
#886=APPLICATION_CONTEXT(
'Core Data for Automotive Mechanical Design Process');
#887=PRODUCT_CONTEXT('part definition',#886,'mechanical');
#888=PRODUCT('base_bottom','base_bottom',$,(#887));
#889=PRESENTATION_STYLE_ASSIGNMENT((#890));
#890=SURFACE_STYLE_USAGE(.BOTH.,#891);
#891=SURFACE_SIDE_STYLE('',(#892));
#892=SURFACE_STYLE_FILL_AREA(#893);
#893=FILL_AREA_STYLE('Steel - Satin',(#894));
#894=FILL_AREA_STYLE_COLOUR('Steel - Satin',#895);
#895=COLOUR_RGB('Steel - Satin',0.627450980392157,0.627450980392157,0.627450980392157);
ENDSEC;
END-ISO-10303-21;
