ISO-10303-21;
HEADER;
/* Generated by software containing ST-Developer
 * from STEP Tools, Inc. (www.steptools.com) 
 */

FILE_DESCRIPTION(
/* description */ (''),
/* implementation_level */ '2;1');

FILE_NAME(
/* name */ 'base_top.step',
/* time_stamp */ '2026-08-31T14:35:50+05:30',
/* author */ (''),
/* organization */ (''),
/* preprocessor_version */ 'ST-DEVELOPER v20.1',
/* originating_system */ 'Autodesk Translation Framework v15.8.0.0',
/* authorisation */ '');

FILE_SCHEMA (('AUTOMOTIVE_DESIGN { 1 0 10303 214 3 1 1 }'));
ENDSEC;

DATA;
#10=MECHANICAL_DESIGN_GEOMETRIC_PRESENTATION_REPRESENTATION('',(#13),#534);
#11=SHAPE_REPRESENTATION_RELATIONSHIP('SRR','None',#541,#12);
#12=ADVANCED_BREP_SHAPE_REPRESENTATION('',(#14),#533);
#13=STYLED_ITEM('',(#550),#14);
#14=MANIFOLD_SOLID_BREP('Body1',#314);
#15=FACE_BOUND('',#68,.T.);
#16=FACE_BOUND('',#69,.T.);
#17=FACE_BOUND('',#70,.T.);
#18=FACE_BOUND('',#71,.T.);
#19=FACE_BOUND('',#72,.T.);
#20=FACE_BOUND('',#73,.T.);
#21=FACE_BOUND('',#74,.T.);
#22=FACE_BOUND('',#75,.T.);
#23=FACE_BOUND('',#76,.T.);
#24=FACE_BOUND('',#78,.T.);
#25=FACE_BOUND('',#79,.T.);
#26=FACE_BOUND('',#80,.T.);
#27=FACE_BOUND('',#81,.T.);
#28=FACE_BOUND('',#82,.T.);
#29=FACE_BOUND('',#83,.T.);
#30=FACE_BOUND('',#84,.T.);
#31=FACE_BOUND('',#85,.T.);
#32=FACE_BOUND('',#86,.T.);
#33=PLANE('',#340);
#34=PLANE('',#341);
#35=PLANE('',#342);
#36=PLANE('',#343);
#37=PLANE('',#359);
#38=PLANE('',#360);
#39=FACE_OUTER_BOUND('',#54,.T.);
#40=FACE_OUTER_BOUND('',#55,.T.);
#41=FACE_OUTER_BOUND('',#56,.T.);
#42=FACE_OUTER_BOUND('',#57,.T.);
#43=FACE_OUTER_BOUND('',#58,.T.);
#44=FACE_OUTER_BOUND('',#59,.T.);
#45=FACE_OUTER_BOUND('',#60,.T.);
#46=FACE_OUTER_BOUND('',#61,.T.);
#47=FACE_OUTER_BOUND('',#62,.T.);
#48=FACE_OUTER_BOUND('',#63,.T.);
#49=FACE_OUTER_BOUND('',#64,.T.);
#50=FACE_OUTER_BOUND('',#65,.T.);
#51=FACE_OUTER_BOUND('',#66,.T.);
#52=FACE_OUTER_BOUND('',#67,.T.);
#53=FACE_OUTER_BOUND('',#77,.T.);
#54=EDGE_LOOP('',(#212,#213,#214,#215));
#55=EDGE_LOOP('',(#216,#217,#218,#219));
#56=EDGE_LOOP('',(#220,#221,#222,#223));
#57=EDGE_LOOP('',(#224,#225,#226,#227));
#58=EDGE_LOOP('',(#228,#229,#230,#231));
#59=EDGE_LOOP('',(#232,#233,#234,#235));
#60=EDGE_LOOP('',(#236,#237,#238,#239));
#61=EDGE_LOOP('',(#240,#241,#242,#243));
#62=EDGE_LOOP('',(#244,#245,#246,#247));
#63=EDGE_LOOP('',(#248,#249,#250,#251));
#64=EDGE_LOOP('',(#252,#253,#254,#255));
#65=EDGE_LOOP('',(#256,#257,#258,#259));
#66=EDGE_LOOP('',(#260,#261,#262,#263));
#67=EDGE_LOOP('',(#264));
#68=EDGE_LOOP('',(#265));
#69=EDGE_LOOP('',(#266));
#70=EDGE_LOOP('',(#267));
#71=EDGE_LOOP('',(#268));
#72=EDGE_LOOP('',(#269,#270,#271,#272));
#73=EDGE_LOOP('',(#273));
#74=EDGE_LOOP('',(#274));
#75=EDGE_LOOP('',(#275));
#76=EDGE_LOOP('',(#276));
#77=EDGE_LOOP('',(#277));
#78=EDGE_LOOP('',(#278));
#79=EDGE_LOOP('',(#279));
#80=EDGE_LOOP('',(#280));
#81=EDGE_LOOP('',(#281));
#82=EDGE_LOOP('',(#282,#283,#284,#285));
#83=EDGE_LOOP('',(#286));
#84=EDGE_LOOP('',(#287));
#85=EDGE_LOOP('',(#288));
#86=EDGE_LOOP('',(#289));
#87=LINE('',#455,#108);
#88=LINE('',#461,#109);
#89=LINE('',#467,#110);
#90=LINE('',#473,#111);
#91=LINE('',#478,#112);
#92=LINE('',#480,#113);
#93=LINE('',#482,#114);
#94=LINE('',#483,#115);
#95=LINE('',#486,#116);
#96=LINE('',#488,#117);
#97=LINE('',#489,#118);
#98=LINE('',#492,#119);
#99=LINE('',#494,#120);
#100=LINE('',#495,#121);
#101=LINE('',#497,#122);
#102=LINE('',#498,#123);
#103=LINE('',#503,#124);
#104=LINE('',#509,#125);
#105=LINE('',#515,#126);
#106=LINE('',#521,#127);
#107=LINE('',#527,#128);
#108=VECTOR('',#367,1.75);
#109=VECTOR('',#374,1.75);
#110=VECTOR('',#381,1.75);
#111=VECTOR('',#388,1.75);
#112=VECTOR('',#393,10.);
#113=VECTOR('',#394,10.);
#114=VECTOR('',#395,10.);
#115=VECTOR('',#396,10.);
#116=VECTOR('',#399,10.);
#117=VECTOR('',#400,10.);
#118=VECTOR('',#401,10.);
#119=VECTOR('',#404,10.);
#120=VECTOR('',#405,10.);
#121=VECTOR('',#406,10.);
#122=VECTOR('',#409,10.);
#123=VECTOR('',#410,10.);
#124=VECTOR('',#415,2.);
#125=VECTOR('',#422,2.);
#126=VECTOR('',#429,2.);
#127=VECTOR('',#436,2.);
#128=VECTOR('',#443,80.);
#129=CIRCLE('',#329,1.75);
#130=CIRCLE('',#330,1.75);
#131=CIRCLE('',#332,1.75);
#132=CIRCLE('',#333,1.75);
#133=CIRCLE('',#335,1.75);
#134=CIRCLE('',#336,1.75);
#135=CIRCLE('',#338,1.75);
#136=CIRCLE('',#339,1.75);
#137=CIRCLE('',#345,2.);
#138=CIRCLE('',#346,2.);
#139=CIRCLE('',#348,2.);
#140=CIRCLE('',#349,2.);
#141=CIRCLE('',#351,2.);
#142=CIRCLE('',#352,2.);
#143=CIRCLE('',#354,2.);
#144=CIRCLE('',#355,2.);
#145=CIRCLE('',#357,80.);
#146=CIRCLE('',#358,80.);
#147=VERTEX_POINT('',#452);
#148=VERTEX_POINT('',#454);
#149=VERTEX_POINT('',#458);
#150=VERTEX_POINT('',#460);
#151=VERTEX_POINT('',#464);
#152=VERTEX_POINT('',#466);
#153=VERTEX_POINT('',#470);
#154=VERTEX_POINT('',#472);
#155=VERTEX_POINT('',#476);
#156=VERTEX_POINT('',#477);
#157=VERTEX_POINT('',#479);
#158=VERTEX_POINT('',#481);
#159=VERTEX_POINT('',#485);
#160=VERTEX_POINT('',#487);
#161=VERTEX_POINT('',#491);
#162=VERTEX_POINT('',#493);
#163=VERTEX_POINT('',#500);
#164=VERTEX_POINT('',#502);
#165=VERTEX_POINT('',#506);
#166=VERTEX_POINT('',#508);
#167=VERTEX_POINT('',#512);
#168=VERTEX_POINT('',#514);
#169=VERTEX_POINT('',#518);
#170=VERTEX_POINT('',#520);
#171=VERTEX_POINT('',#524);
#172=VERTEX_POINT('',#526);
#173=EDGE_CURVE('',#147,#147,#129,.T.);
#174=EDGE_CURVE('',#147,#148,#87,.T.);
#175=EDGE_CURVE('',#148,#148,#130,.T.);
#176=EDGE_CURVE('',#149,#149,#131,.T.);
#177=EDGE_CURVE('',#149,#150,#88,.T.);
#178=EDGE_CURVE('',#150,#150,#132,.T.);
#179=EDGE_CURVE('',#151,#151,#133,.T.);
#180=EDGE_CURVE('',#151,#152,#89,.T.);
#181=EDGE_CURVE('',#152,#152,#134,.T.);
#182=EDGE_CURVE('',#153,#153,#135,.T.);
#183=EDGE_CURVE('',#153,#154,#90,.T.);
#184=EDGE_CURVE('',#154,#154,#136,.T.);
#185=EDGE_CURVE('',#155,#156,#91,.T.);
#186=EDGE_CURVE('',#157,#155,#92,.T.);
#187=EDGE_CURVE('',#158,#157,#93,.T.);
#188=EDGE_CURVE('',#158,#156,#94,.T.);
#189=EDGE_CURVE('',#156,#159,#95,.T.);
#190=EDGE_CURVE('',#160,#158,#96,.T.);
#191=EDGE_CURVE('',#160,#159,#97,.T.);
#192=EDGE_CURVE('',#159,#161,#98,.T.);
#193=EDGE_CURVE('',#162,#160,#99,.T.);
#194=EDGE_CURVE('',#162,#161,#100,.T.);
#195=EDGE_CURVE('',#161,#155,#101,.T.);
#196=EDGE_CURVE('',#157,#162,#102,.T.);
#197=EDGE_CURVE('',#163,#163,#137,.T.);
#198=EDGE_CURVE('',#163,#164,#103,.T.);
#199=EDGE_CURVE('',#164,#164,#138,.T.);
#200=EDGE_CURVE('',#165,#165,#139,.T.);
#201=EDGE_CURVE('',#165,#166,#104,.T.);
#202=EDGE_CURVE('',#166,#166,#140,.T.);
#203=EDGE_CURVE('',#167,#167,#141,.T.);
#204=EDGE_CURVE('',#167,#168,#105,.T.);
#205=EDGE_CURVE('',#168,#168,#142,.T.);
#206=EDGE_CURVE('',#169,#169,#143,.T.);
#207=EDGE_CURVE('',#169,#170,#106,.T.);
#208=EDGE_CURVE('',#170,#170,#144,.T.);
#209=EDGE_CURVE('',#171,#171,#145,.T.);
#210=EDGE_CURVE('',#171,#172,#107,.T.);
#211=EDGE_CURVE('',#172,#172,#146,.T.);
#212=ORIENTED_EDGE('',*,*,#173,.F.);
#213=ORIENTED_EDGE('',*,*,#174,.T.);
#214=ORIENTED_EDGE('',*,*,#175,.F.);
#215=ORIENTED_EDGE('',*,*,#174,.F.);
#216=ORIENTED_EDGE('',*,*,#176,.F.);
#217=ORIENTED_EDGE('',*,*,#177,.T.);
#218=ORIENTED_EDGE('',*,*,#178,.F.);
#219=ORIENTED_EDGE('',*,*,#177,.F.);
#220=ORIENTED_EDGE('',*,*,#179,.F.);
#221=ORIENTED_EDGE('',*,*,#180,.T.);
#222=ORIENTED_EDGE('',*,*,#181,.F.);
#223=ORIENTED_EDGE('',*,*,#180,.F.);
#224=ORIENTED_EDGE('',*,*,#182,.F.);
#225=ORIENTED_EDGE('',*,*,#183,.T.);
#226=ORIENTED_EDGE('',*,*,#184,.F.);
#227=ORIENTED_EDGE('',*,*,#183,.F.);
#228=ORIENTED_EDGE('',*,*,#185,.F.);
#229=ORIENTED_EDGE('',*,*,#186,.F.);
#230=ORIENTED_EDGE('',*,*,#187,.F.);
#231=ORIENTED_EDGE('',*,*,#188,.T.);
#232=ORIENTED_EDGE('',*,*,#189,.F.);
#233=ORIENTED_EDGE('',*,*,#188,.F.);
#234=ORIENTED_EDGE('',*,*,#190,.F.);
#235=ORIENTED_EDGE('',*,*,#191,.T.);
#236=ORIENTED_EDGE('',*,*,#192,.F.);
#237=ORIENTED_EDGE('',*,*,#191,.F.);
#238=ORIENTED_EDGE('',*,*,#193,.F.);
#239=ORIENTED_EDGE('',*,*,#194,.T.);
#240=ORIENTED_EDGE('',*,*,#195,.F.);
#241=ORIENTED_EDGE('',*,*,#194,.F.);
#242=ORIENTED_EDGE('',*,*,#196,.F.);
#243=ORIENTED_EDGE('',*,*,#186,.T.);
#244=ORIENTED_EDGE('',*,*,#197,.F.);
#245=ORIENTED_EDGE('',*,*,#198,.T.);
#246=ORIENTED_EDGE('',*,*,#199,.F.);
#247=ORIENTED_EDGE('',*,*,#198,.F.);
#248=ORIENTED_EDGE('',*,*,#200,.F.);
#249=ORIENTED_EDGE('',*,*,#201,.T.);
#250=ORIENTED_EDGE('',*,*,#202,.F.);
#251=ORIENTED_EDGE('',*,*,#201,.F.);
#252=ORIENTED_EDGE('',*,*,#203,.F.);
#253=ORIENTED_EDGE('',*,*,#204,.T.);
#254=ORIENTED_EDGE('',*,*,#205,.F.);
#255=ORIENTED_EDGE('',*,*,#204,.F.);
#256=ORIENTED_EDGE('',*,*,#206,.F.);
#257=ORIENTED_EDGE('',*,*,#207,.T.);
#258=ORIENTED_EDGE('',*,*,#208,.F.);
#259=ORIENTED_EDGE('',*,*,#207,.F.);
#260=ORIENTED_EDGE('',*,*,#209,.F.);
#261=ORIENTED_EDGE('',*,*,#210,.T.);
#262=ORIENTED_EDGE('',*,*,#211,.T.);
#263=ORIENTED_EDGE('',*,*,#210,.F.);
#264=ORIENTED_EDGE('',*,*,#209,.T.);
#265=ORIENTED_EDGE('',*,*,#208,.T.);
#266=ORIENTED_EDGE('',*,*,#205,.T.);
#267=ORIENTED_EDGE('',*,*,#202,.T.);
#268=ORIENTED_EDGE('',*,*,#199,.T.);
#269=ORIENTED_EDGE('',*,*,#192,.T.);
#270=ORIENTED_EDGE('',*,*,#195,.T.);
#271=ORIENTED_EDGE('',*,*,#185,.T.);
#272=ORIENTED_EDGE('',*,*,#189,.T.);
#273=ORIENTED_EDGE('',*,*,#184,.T.);
#274=ORIENTED_EDGE('',*,*,#181,.T.);
#275=ORIENTED_EDGE('',*,*,#178,.T.);
#276=ORIENTED_EDGE('',*,*,#175,.T.);
#277=ORIENTED_EDGE('',*,*,#211,.F.);
#278=ORIENTED_EDGE('',*,*,#206,.T.);
#279=ORIENTED_EDGE('',*,*,#203,.T.);
#280=ORIENTED_EDGE('',*,*,#200,.T.);
#281=ORIENTED_EDGE('',*,*,#197,.T.);
#282=ORIENTED_EDGE('',*,*,#193,.T.);
#283=ORIENTED_EDGE('',*,*,#190,.T.);
#284=ORIENTED_EDGE('',*,*,#187,.T.);
#285=ORIENTED_EDGE('',*,*,#196,.T.);
#286=ORIENTED_EDGE('',*,*,#182,.T.);
#287=ORIENTED_EDGE('',*,*,#179,.T.);
#288=ORIENTED_EDGE('',*,*,#176,.T.);
#289=ORIENTED_EDGE('',*,*,#173,.T.);
#290=CYLINDRICAL_SURFACE('',#328,1.75);
#291=CYLINDRICAL_SURFACE('',#331,1.75);
#292=CYLINDRICAL_SURFACE('',#334,1.75);
#293=CYLINDRICAL_SURFACE('',#337,1.75);
#294=CYLINDRICAL_SURFACE('',#344,2.);
#295=CYLINDRICAL_SURFACE('',#347,2.);
#296=CYLINDRICAL_SURFACE('',#350,2.);
#297=CYLINDRICAL_SURFACE('',#353,2.);
#298=CYLINDRICAL_SURFACE('',#356,80.);
#299=ADVANCED_FACE('',(#39),#290,.F.);
#300=ADVANCED_FACE('',(#40),#291,.F.);
#301=ADVANCED_FACE('',(#41),#292,.F.);
#302=ADVANCED_FACE('',(#42),#293,.F.);
#303=ADVANCED_FACE('',(#43),#33,.F.);
#304=ADVANCED_FACE('',(#44),#34,.F.);
#305=ADVANCED_FACE('',(#45),#35,.F.);
#306=ADVANCED_FACE('',(#46),#36,.F.);
#307=ADVANCED_FACE('',(#47),#294,.F.);
#308=ADVANCED_FACE('',(#48),#295,.F.);
#309=ADVANCED_FACE('',(#49),#296,.F.);
#310=ADVANCED_FACE('',(#50),#297,.F.);
#311=ADVANCED_FACE('',(#51),#298,.T.);
#312=ADVANCED_FACE('',(#52,#15,#16,#17,#18,#19,#20,#21,#22,#23),#37,.T.);
#313=ADVANCED_FACE('',(#53,#24,#25,#26,#27,#28,#29,#30,#31,#32),#38,.F.);
#314=CLOSED_SHELL('',(#299,#300,#301,#302,#303,#304,#305,#306,#307,#308,
#309,#310,#311,#312,#313));
#315=DERIVED_UNIT_ELEMENT(#317,1.);
#316=DERIVED_UNIT_ELEMENT(#536,-3.);
#317=(
MASS_UNIT()
NAMED_UNIT(*)
SI_UNIT(.KILO.,.GRAM.)
);
#318=DERIVED_UNIT((#315,#316));
#319=MEASURE_REPRESENTATION_ITEM('density measure',
POSITIVE_RATIO_MEASURE(7850.),#318);
#320=PROPERTY_DEFINITION_REPRESENTATION(#325,#322);
#321=PROPERTY_DEFINITION_REPRESENTATION(#326,#323);
#322=REPRESENTATION('material name',(#324),#533);
#323=REPRESENTATION('density',(#319),#533);
#324=DESCRIPTIVE_REPRESENTATION_ITEM('Steel','Steel');
#325=PROPERTY_DEFINITION('material property','material name',#543);
#326=PROPERTY_DEFINITION('material property','density of part',#543);
#327=AXIS2_PLACEMENT_3D('',#450,#361,#362);
#328=AXIS2_PLACEMENT_3D('',#451,#363,#364);
#329=AXIS2_PLACEMENT_3D('',#453,#365,#366);
#330=AXIS2_PLACEMENT_3D('',#456,#368,#369);
#331=AXIS2_PLACEMENT_3D('',#457,#370,#371);
#332=AXIS2_PLACEMENT_3D('',#459,#372,#373);
#333=AXIS2_PLACEMENT_3D('',#462,#375,#376);
#334=AXIS2_PLACEMENT_3D('',#463,#377,#378);
#335=AXIS2_PLACEMENT_3D('',#465,#379,#380);
#336=AXIS2_PLACEMENT_3D('',#468,#382,#383);
#337=AXIS2_PLACEMENT_3D('',#469,#384,#385);
#338=AXIS2_PLACEMENT_3D('',#471,#386,#387);
#339=AXIS2_PLACEMENT_3D('',#474,#389,#390);
#340=AXIS2_PLACEMENT_3D('',#475,#391,#392);
#341=AXIS2_PLACEMENT_3D('',#484,#397,#398);
#342=AXIS2_PLACEMENT_3D('',#490,#402,#403);
#343=AXIS2_PLACEMENT_3D('',#496,#407,#408);
#344=AXIS2_PLACEMENT_3D('',#499,#411,#412);
#345=AXIS2_PLACEMENT_3D('',#501,#413,#414);
#346=AXIS2_PLACEMENT_3D('',#504,#416,#417);
#347=AXIS2_PLACEMENT_3D('',#505,#418,#419);
#348=AXIS2_PLACEMENT_3D('',#507,#420,#421);
#349=AXIS2_PLACEMENT_3D('',#510,#423,#424);
#350=AXIS2_PLACEMENT_3D('',#511,#425,#426);
#351=AXIS2_PLACEMENT_3D('',#513,#427,#428);
#352=AXIS2_PLACEMENT_3D('',#516,#430,#431);
#353=AXIS2_PLACEMENT_3D('',#517,#432,#433);
#354=AXIS2_PLACEMENT_3D('',#519,#434,#435);
#355=AXIS2_PLACEMENT_3D('',#522,#437,#438);
#356=AXIS2_PLACEMENT_3D('',#523,#439,#440);
#357=AXIS2_PLACEMENT_3D('',#525,#441,#442);
#358=AXIS2_PLACEMENT_3D('',#528,#444,#445);
#359=AXIS2_PLACEMENT_3D('',#529,#446,#447);
#360=AXIS2_PLACEMENT_3D('',#530,#448,#449);
#361=DIRECTION('axis',(0.,0.,1.));
#362=DIRECTION('refdir',(1.,0.,0.));
#363=DIRECTION('center_axis',(0.,0.,1.));
#364=DIRECTION('ref_axis',(1.,0.,0.));
#365=DIRECTION('center_axis',(0.,0.,1.));
#366=DIRECTION('ref_axis',(1.,0.,0.));
#367=DIRECTION('',(0.,0.,1.));
#368=DIRECTION('center_axis',(0.,0.,-1.));
#369=DIRECTION('ref_axis',(1.,0.,0.));
#370=DIRECTION('center_axis',(0.,0.,1.));
#371=DIRECTION('ref_axis',(1.,0.,0.));
#372=DIRECTION('center_axis',(0.,0.,1.));
#373=DIRECTION('ref_axis',(1.,0.,0.));
#374=DIRECTION('',(0.,0.,1.));
#375=DIRECTION('center_axis',(0.,0.,-1.));
#376=DIRECTION('ref_axis',(1.,0.,0.));
#377=DIRECTION('center_axis',(0.,0.,1.));
#378=DIRECTION('ref_axis',(1.,0.,0.));
#379=DIRECTION('center_axis',(0.,0.,1.));
#380=DIRECTION('ref_axis',(1.,0.,0.));
#381=DIRECTION('',(0.,0.,1.));
#382=DIRECTION('center_axis',(0.,0.,-1.));
#383=DIRECTION('ref_axis',(1.,0.,0.));
#384=DIRECTION('center_axis',(0.,0.,1.));
#385=DIRECTION('ref_axis',(1.,0.,0.));
#386=DIRECTION('center_axis',(0.,0.,1.));
#387=DIRECTION('ref_axis',(1.,0.,0.));
#388=DIRECTION('',(0.,0.,1.));
#389=DIRECTION('center_axis',(0.,0.,-1.));
#390=DIRECTION('ref_axis',(1.,0.,0.));
#391=DIRECTION('center_axis',(0.,-1.,0.));
#392=DIRECTION('ref_axis',(1.,0.,0.));
#393=DIRECTION('',(-1.,0.,0.));
#394=DIRECTION('',(0.,0.,1.));
#395=DIRECTION('',(1.,0.,0.));
#396=DIRECTION('',(0.,0.,1.));
#397=DIRECTION('center_axis',(-1.,0.,0.));
#398=DIRECTION('ref_axis',(0.,-1.,0.));
#399=DIRECTION('',(0.,1.,0.));
#400=DIRECTION('',(0.,-1.,0.));
#401=DIRECTION('',(0.,0.,1.));
#402=DIRECTION('center_axis',(2.98023223876953E-8,1.,0.));
#403=DIRECTION('ref_axis',(-1.,2.98023223876953E-8,0.));
#404=DIRECTION('',(1.,-2.98023223876953E-8,0.));
#405=DIRECTION('',(-1.,2.98023223876953E-8,0.));
#406=DIRECTION('',(0.,0.,1.));
#407=DIRECTION('center_axis',(1.,0.,0.));
#408=DIRECTION('ref_axis',(0.,1.,0.));
#409=DIRECTION('',(0.,-1.,0.));
#410=DIRECTION('',(0.,1.,0.));
#411=DIRECTION('center_axis',(0.,0.,1.));
#412=DIRECTION('ref_axis',(1.,0.,0.));
#413=DIRECTION('center_axis',(0.,0.,1.));
#414=DIRECTION('ref_axis',(1.,0.,0.));
#415=DIRECTION('',(0.,0.,1.));
#416=DIRECTION('center_axis',(0.,0.,-1.));
#417=DIRECTION('ref_axis',(1.,0.,0.));
#418=DIRECTION('center_axis',(0.,0.,1.));
#419=DIRECTION('ref_axis',(1.,0.,0.));
#420=DIRECTION('center_axis',(0.,0.,1.));
#421=DIRECTION('ref_axis',(1.,0.,0.));
#422=DIRECTION('',(0.,0.,1.));
#423=DIRECTION('center_axis',(0.,0.,-1.));
#424=DIRECTION('ref_axis',(1.,0.,0.));
#425=DIRECTION('center_axis',(0.,0.,1.));
#426=DIRECTION('ref_axis',(1.,0.,0.));
#427=DIRECTION('center_axis',(0.,0.,1.));
#428=DIRECTION('ref_axis',(1.,0.,0.));
#429=DIRECTION('',(0.,0.,1.));
#430=DIRECTION('center_axis',(0.,0.,-1.));
#431=DIRECTION('ref_axis',(1.,0.,0.));
#432=DIRECTION('center_axis',(0.,0.,1.));
#433=DIRECTION('ref_axis',(1.,0.,0.));
#434=DIRECTION('center_axis',(0.,0.,1.));
#435=DIRECTION('ref_axis',(1.,0.,0.));
#436=DIRECTION('',(0.,0.,1.));
#437=DIRECTION('center_axis',(0.,0.,-1.));
#438=DIRECTION('ref_axis',(1.,0.,0.));
#439=DIRECTION('center_axis',(0.,0.,1.));
#440=DIRECTION('ref_axis',(1.,0.,0.));
#441=DIRECTION('center_axis',(0.,0.,1.));
#442=DIRECTION('ref_axis',(1.,0.,0.));
#443=DIRECTION('',(0.,0.,-1.));
#444=DIRECTION('center_axis',(0.,0.,1.));
#445=DIRECTION('ref_axis',(1.,0.,0.));
#446=DIRECTION('center_axis',(0.,0.,1.));
#447=DIRECTION('ref_axis',(1.,0.,0.));
#448=DIRECTION('center_axis',(0.,0.,1.));
#449=DIRECTION('ref_axis',(1.,0.,0.));
#450=CARTESIAN_POINT('',(0.,0.,0.));
#451=CARTESIAN_POINT('Origin',(-8.00000011920929,-31.9999995231628,0.));
#452=CARTESIAN_POINT('',(-9.75000011920929,-31.9999995231628,38.));
#453=CARTESIAN_POINT('Origin',(-8.00000011920929,-31.9999995231628,38.));
#454=CARTESIAN_POINT('',(-9.75000011920929,-31.9999995231628,43.));
#455=CARTESIAN_POINT('',(-9.75000011920929,-31.9999995231628,0.));
#456=CARTESIAN_POINT('Origin',(-8.00000011920929,-31.9999995231628,43.));
#457=CARTESIAN_POINT('Origin',(7.740151974225,31.9721601004441,0.));
#458=CARTESIAN_POINT('',(5.990151974225,31.9721601004441,38.));
#459=CARTESIAN_POINT('Origin',(7.740151974225,31.9721601004441,38.));
#460=CARTESIAN_POINT('',(5.990151974225,31.9721601004441,43.));
#461=CARTESIAN_POINT('',(5.990151974225,31.9721601004441,0.));
#462=CARTESIAN_POINT('Origin',(7.740151974225,31.9721601004441,43.));
#463=CARTESIAN_POINT('Origin',(-8.00000011920929,32.0000004768372,0.));
#464=CARTESIAN_POINT('',(-9.75000011920929,32.0000004768372,38.));
#465=CARTESIAN_POINT('Origin',(-8.00000011920929,32.0000004768372,38.));
#466=CARTESIAN_POINT('',(-9.75000011920929,32.0000004768372,43.));
#467=CARTESIAN_POINT('',(-9.75000011920929,32.0000004768372,0.));
#468=CARTESIAN_POINT('Origin',(-8.00000011920929,32.0000004768372,43.));
#469=CARTESIAN_POINT('Origin',(7.740151974225,-32.0278398995559,0.));
#470=CARTESIAN_POINT('',(5.990151974225,-32.0278398995559,38.));
#471=CARTESIAN_POINT('Origin',(7.740151974225,-32.0278398995559,38.));
#472=CARTESIAN_POINT('',(5.990151974225,-32.0278398995559,43.));
#473=CARTESIAN_POINT('',(5.990151974225,-32.0278398995559,0.));
#474=CARTESIAN_POINT('Origin',(7.740151974225,-32.0278398995559,43.));
#475=CARTESIAN_POINT('Origin',(-12.5,-25.000000372529,0.));
#476=CARTESIAN_POINT('',(12.5,-25.000000372529,43.));
#477=CARTESIAN_POINT('',(-12.5,-25.000000372529,43.));
#478=CARTESIAN_POINT('',(-6.25,-25.000000372529,43.));
#479=CARTESIAN_POINT('',(12.5,-25.000000372529,38.));
#480=CARTESIAN_POINT('',(12.5,-25.000000372529,0.));
#481=CARTESIAN_POINT('',(-12.5,-25.000000372529,38.));
#482=CARTESIAN_POINT('',(-6.25,-25.000000372529,38.));
#483=CARTESIAN_POINT('',(-12.5,-25.000000372529,0.));
#484=CARTESIAN_POINT('Origin',(-12.5,25.000000372529,0.));
#485=CARTESIAN_POINT('',(-12.5,25.000000372529,43.));
#486=CARTESIAN_POINT('',(-12.5,12.5000001862645,43.));
#487=CARTESIAN_POINT('',(-12.5,25.000000372529,38.));
#488=CARTESIAN_POINT('',(-12.5,12.5000001862645,38.));
#489=CARTESIAN_POINT('',(-12.5,25.000000372529,0.));
#490=CARTESIAN_POINT('Origin',(12.5,24.999999627471,0.));
#491=CARTESIAN_POINT('',(12.5,24.999999627471,43.));
#492=CARTESIAN_POINT('',(6.25000037252903,24.9999998137355,43.));
#493=CARTESIAN_POINT('',(12.5,24.999999627471,38.));
#494=CARTESIAN_POINT('',(6.25000037252903,24.9999998137355,38.));
#495=CARTESIAN_POINT('',(12.5,24.999999627471,0.));
#496=CARTESIAN_POINT('Origin',(12.5,-25.000000372529,0.));
#497=CARTESIAN_POINT('',(12.5,-12.5000001862645,43.));
#498=CARTESIAN_POINT('',(12.5,-12.5000001862645,38.));
#499=CARTESIAN_POINT('Origin',(-72.5,1.07288361306246E-6,0.));
#500=CARTESIAN_POINT('',(-74.5,1.07288361281753E-6,38.));
#501=CARTESIAN_POINT('Origin',(-72.5,1.07288361306246E-6,38.));
#502=CARTESIAN_POINT('',(-74.5,1.07288361330739E-6,43.));
#503=CARTESIAN_POINT('',(-74.5,1.07288361281753E-6,0.));
#504=CARTESIAN_POINT('Origin',(-72.5,1.07288361306246E-6,43.));
#505=CARTESIAN_POINT('Origin',(0.,72.0000010728836,0.));
#506=CARTESIAN_POINT('',(-2.,72.0000010728836,38.));
#507=CARTESIAN_POINT('Origin',(0.,72.0000010728836,38.));
#508=CARTESIAN_POINT('',(-2.,72.0000010728836,43.));
#509=CARTESIAN_POINT('',(-2.,72.0000010728836,0.));
#510=CARTESIAN_POINT('Origin',(0.,72.0000010728836,43.));
#511=CARTESIAN_POINT('Origin',(72.5,1.07288361306246E-6,0.));
#512=CARTESIAN_POINT('',(70.5,1.07288361281753E-6,38.));
#513=CARTESIAN_POINT('Origin',(72.5,1.07288361306246E-6,38.));
#514=CARTESIAN_POINT('',(70.5,1.07288361330739E-6,43.));
#515=CARTESIAN_POINT('',(70.5,1.07288361281753E-6,0.));
#516=CARTESIAN_POINT('Origin',(72.5,1.07288361306246E-6,43.));
#517=CARTESIAN_POINT('Origin',(0.,-72.9999989271164,0.));
#518=CARTESIAN_POINT('',(-2.,-72.9999989271164,38.));
#519=CARTESIAN_POINT('Origin',(0.,-72.9999989271164,38.));
#520=CARTESIAN_POINT('',(-2.,-72.9999989271164,43.));
#521=CARTESIAN_POINT('',(-2.,-72.9999989271164,0.));
#522=CARTESIAN_POINT('Origin',(0.,-72.9999989271164,43.));
#523=CARTESIAN_POINT('Origin',(0.,0.,38.));
#524=CARTESIAN_POINT('',(-80.,-9.79717439317883E-15,43.));
#525=CARTESIAN_POINT('Origin',(0.,0.,43.));
#526=CARTESIAN_POINT('',(-80.,-9.79717439317883E-15,38.));
#527=CARTESIAN_POINT('',(-80.,-9.79717439317883E-15,38.));
#528=CARTESIAN_POINT('Origin',(0.,0.,38.));
#529=CARTESIAN_POINT('Origin',(0.,0.,43.));
#530=CARTESIAN_POINT('Origin',(0.,0.,38.));
#531=UNCERTAINTY_MEASURE_WITH_UNIT(LENGTH_MEASURE(0.01),#535,
'DISTANCE_ACCURACY_VALUE',
'Maximum model space distance between geometric entities at asserted c
onnectivities');
#532=UNCERTAINTY_MEASURE_WITH_UNIT(LENGTH_MEASURE(0.01),#535,
'DISTANCE_ACCURACY_VALUE',
'Maximum model space distance between geometric entities at asserted c
onnectivities');
#533=(
GEOMETRIC_REPRESENTATION_CONTEXT(3)
GLOBAL_UNCERTAINTY_ASSIGNED_CONTEXT((#531))
GLOBAL_UNIT_ASSIGNED_CONTEXT((#535,#537,#538))
REPRESENTATION_CONTEXT('','3D')
);
#534=(
GEOMETRIC_REPRESENTATION_CONTEXT(3)
GLOBAL_UNCERTAINTY_ASSIGNED_CONTEXT((#532))
GLOBAL_UNIT_ASSIGNED_CONTEXT((#535,#537,#538))
REPRESENTATION_CONTEXT('','3D')
);
#535=(
LENGTH_UNIT()
NAMED_UNIT(*)
SI_UNIT(.MILLI.,.METRE.)
);
#536=(
LENGTH_UNIT()
NAMED_UNIT(*)
SI_UNIT($,.METRE.)
);
#537=(
NAMED_UNIT(*)
PLANE_ANGLE_UNIT()
SI_UNIT($,.RADIAN.)
);
#538=(
NAMED_UNIT(*)
SI_UNIT($,.STERADIAN.)
SOLID_ANGLE_UNIT()
);
#539=SHAPE_DEFINITION_REPRESENTATION(#540,#541);
#540=PRODUCT_DEFINITION_SHAPE('',$,#543);
#541=SHAPE_REPRESENTATION('',(#327),#533);
#542=PRODUCT_DEFINITION_CONTEXT('part definition',#547,'design');
#543=PRODUCT_DEFINITION('base_top','base_top',#544,#542);
#544=PRODUCT_DEFINITION_FORMATION('',$,#549);
#545=PRODUCT_RELATED_PRODUCT_CATEGORY('base_top','base_top',(#549));
#546=APPLICATION_PROTOCOL_DEFINITION('international standard',
'automotive_design',2009,#547);
#547=APPLICATION_CONTEXT(
'Core Data for Automotive Mechanical Design Process');
#548=PRODUCT_CONTEXT('part definition',#547,'mechanical');
#549=PRODUCT('base_top','base_top',$,(#548));
#550=PRESENTATION_STYLE_ASSIGNMENT((#551));
#551=SURFACE_STYLE_USAGE(.BOTH.,#552);
#552=SURFACE_SIDE_STYLE('',(#553));
#553=SURFACE_STYLE_FILL_AREA(#554);
#554=FILL_AREA_STYLE('Steel - Satin',(#555));
#555=FILL_AREA_STYLE_COLOUR('Steel - Satin',#556);
#556=COLOUR_RGB('Steel - Satin',0.627450980392157,0.627450980392157,0.627450980392157);
ENDSEC;
END-ISO-10303-21;
