ISO-10303-21;
HEADER;
/* Generated by software containing ST-Developer
 * from STEP Tools, Inc. (www.steptools.com) 
 */

FILE_DESCRIPTION(
/* description */ (''),
/* implementation_level */ '2;1');

FILE_NAME(
/* name */ 'gripper_main.step',
/* time_stamp */ '2026-08-31T17:25:53+05:30',
/* author */ (''),
/* organization */ (''),
/* preprocessor_version */ 'ST-DEVELOPER v20.1',
/* originating_system */ 'Autodesk Translation Framework v15.8.0.0',
/* authorisation */ '');

FILE_SCHEMA (('AUTOMOTIVE_DESIGN { 1 0 10303 214 3 1 1 }'));
ENDSEC;

DATA;
#10=MECHANICAL_DESIGN_GEOMETRIC_PRESENTATION_REPRESENTATION('',(#13),#931);
#11=SHAPE_REPRESENTATION_RELATIONSHIP('SRR','None',#938,#12);
#12=ADVANCED_BREP_SHAPE_REPRESENTATION('',(#14),#930);
#13=STYLED_ITEM('',(#947),#14);
#14=MANIFOLD_SOLID_BREP('Body1',#571);
#15=CYLINDRICAL_SURFACE('',#606,2.29135564372336);
#16=CYLINDRICAL_SURFACE('',#607,1.5);
#17=CYLINDRICAL_SURFACE('',#614,1.5);
#18=CYLINDRICAL_SURFACE('',#615,1.5);
#19=CYLINDRICAL_SURFACE('',#617,1.5);
#20=CYLINDRICAL_SURFACE('',#621,2.29135564372336);
#21=CIRCLE('',#595,2.29135564372336);
#22=CIRCLE('',#596,1.5);
#23=CIRCLE('',#597,1.5);
#24=CIRCLE('',#600,2.29135564372336);
#25=CIRCLE('',#601,1.5);
#26=CIRCLE('',#603,2.29135564372336);
#27=CIRCLE('',#604,1.5);
#28=CIRCLE('',#610,1.5);
#29=CIRCLE('',#613,1.5);
#30=CIRCLE('',#616,1.5);
#31=CIRCLE('',#618,1.5);
#32=CIRCLE('',#622,2.29135564372336);
#33=FACE_BOUND('',#71,.T.);
#34=FACE_BOUND('',#80,.T.);
#35=FACE_BOUND('',#81,.T.);
#36=FACE_BOUND('',#84,.T.);
#37=FACE_BOUND('',#86,.T.);
#38=FACE_BOUND('',#92,.T.);
#39=FACE_BOUND('',#95,.T.);
#40=FACE_BOUND('',#103,.T.);
#41=FACE_BOUND('',#104,.T.);
#42=FACE_OUTER_BOUND('',#69,.T.);
#43=FACE_OUTER_BOUND('',#70,.T.);
#44=FACE_OUTER_BOUND('',#72,.T.);
#45=FACE_OUTER_BOUND('',#73,.T.);
#46=FACE_OUTER_BOUND('',#74,.T.);
#47=FACE_OUTER_BOUND('',#75,.T.);
#48=FACE_OUTER_BOUND('',#76,.T.);
#49=FACE_OUTER_BOUND('',#77,.T.);
#50=FACE_OUTER_BOUND('',#78,.T.);
#51=FACE_OUTER_BOUND('',#79,.T.);
#52=FACE_OUTER_BOUND('',#82,.T.);
#53=FACE_OUTER_BOUND('',#83,.T.);
#54=FACE_OUTER_BOUND('',#85,.T.);
#55=FACE_OUTER_BOUND('',#87,.T.);
#56=FACE_OUTER_BOUND('',#88,.T.);
#57=FACE_OUTER_BOUND('',#89,.T.);
#58=FACE_OUTER_BOUND('',#90,.T.);
#59=FACE_OUTER_BOUND('',#91,.T.);
#60=FACE_OUTER_BOUND('',#93,.T.);
#61=FACE_OUTER_BOUND('',#94,.T.);
#62=FACE_OUTER_BOUND('',#96,.T.);
#63=FACE_OUTER_BOUND('',#97,.T.);
#64=FACE_OUTER_BOUND('',#98,.T.);
#65=FACE_OUTER_BOUND('',#99,.T.);
#66=FACE_OUTER_BOUND('',#100,.T.);
#67=FACE_OUTER_BOUND('',#101,.T.);
#68=FACE_OUTER_BOUND('',#102,.T.);
#69=EDGE_LOOP('',(#367,#368,#369,#370,#371,#372));
#70=EDGE_LOOP('',(#373,#374,#375,#376));
#71=EDGE_LOOP('',(#377,#378,#379,#380));
#72=EDGE_LOOP('',(#381,#382,#383,#384));
#73=EDGE_LOOP('',(#385,#386,#387,#388));
#74=EDGE_LOOP('',(#389,#390,#391,#392));
#75=EDGE_LOOP('',(#393,#394,#395,#396));
#76=EDGE_LOOP('',(#397,#398,#399,#400));
#77=EDGE_LOOP('',(#401,#402,#403,#404,#405,#406));
#78=EDGE_LOOP('',(#407,#408,#409,#410,#411,#412,#413,#414));
#79=EDGE_LOOP('',(#415,#416,#417,#418,#419,#420));
#80=EDGE_LOOP('',(#421));
#81=EDGE_LOOP('',(#422));
#82=EDGE_LOOP('',(#423,#424,#425,#426));
#83=EDGE_LOOP('',(#427,#428,#429,#430));
#84=EDGE_LOOP('',(#431));
#85=EDGE_LOOP('',(#432,#433,#434,#435));
#86=EDGE_LOOP('',(#436));
#87=EDGE_LOOP('',(#437,#438,#439,#440,#441,#442,#443,#444,#445,#446,#447,
#448));
#88=EDGE_LOOP('',(#449,#450,#451,#452));
#89=EDGE_LOOP('',(#453,#454,#455,#456));
#90=EDGE_LOOP('',(#457,#458,#459,#460));
#91=EDGE_LOOP('',(#461,#462,#463,#464,#465,#466));
#92=EDGE_LOOP('',(#467));
#93=EDGE_LOOP('',(#468,#469,#470,#471));
#94=EDGE_LOOP('',(#472,#473,#474,#475,#476,#477));
#95=EDGE_LOOP('',(#478));
#96=EDGE_LOOP('',(#479,#480,#481,#482));
#97=EDGE_LOOP('',(#483,#484,#485,#486));
#98=EDGE_LOOP('',(#487,#488,#489,#490));
#99=EDGE_LOOP('',(#491,#492,#493,#494,#495,#496,#497,#498,#499,#500,#501,
#502));
#100=EDGE_LOOP('',(#503,#504,#505,#506,#507,#508,#509,#510));
#101=EDGE_LOOP('',(#511,#512,#513,#514));
#102=EDGE_LOOP('',(#515,#516,#517,#518,#519,#520));
#103=EDGE_LOOP('',(#521));
#104=EDGE_LOOP('',(#522));
#105=LINE('',#774,#171);
#106=LINE('',#776,#172);
#107=LINE('',#778,#173);
#108=LINE('',#780,#174);
#109=LINE('',#782,#175);
#110=LINE('',#783,#176);
#111=LINE('',#786,#177);
#112=LINE('',#788,#178);
#113=LINE('',#789,#179);
#114=LINE('',#792,#180);
#115=LINE('',#794,#181);
#116=LINE('',#796,#182);
#117=LINE('',#797,#183);
#118=LINE('',#800,#184);
#119=LINE('',#802,#185);
#120=LINE('',#803,#186);
#121=LINE('',#806,#187);
#122=LINE('',#807,#188);
#123=LINE('',#810,#189);
#124=LINE('',#811,#190);
#125=LINE('',#813,#191);
#126=LINE('',#815,#192);
#127=LINE('',#819,#193);
#128=LINE('',#821,#194);
#129=LINE('',#823,#195);
#130=LINE('',#825,#196);
#131=LINE('',#827,#197);
#132=LINE('',#829,#198);
#133=LINE('',#830,#199);
#134=LINE('',#833,#200);
#135=LINE('',#835,#201);
#136=LINE('',#838,#202);
#137=LINE('',#846,#203);
#138=LINE('',#848,#204);
#139=LINE('',#850,#205);
#140=LINE('',#851,#206);
#141=LINE('',#854,#207);
#142=LINE('',#856,#208);
#143=LINE('',#862,#209);
#144=LINE('',#865,#210);
#145=LINE('',#869,#211);
#146=LINE('',#871,#212);
#147=LINE('',#873,#213);
#148=LINE('',#875,#214);
#149=LINE('',#877,#215);
#150=LINE('',#879,#216);
#151=LINE('',#881,#217);
#152=LINE('',#882,#218);
#153=LINE('',#884,#219);
#154=LINE('',#886,#220);
#155=LINE('',#889,#221);
#156=LINE('',#891,#222);
#157=LINE('',#892,#223);
#158=LINE('',#894,#224);
#159=LINE('',#896,#225);
#160=LINE('',#897,#226);
#161=LINE('',#902,#227);
#162=LINE('',#903,#228);
#163=LINE('',#905,#229);
#164=LINE('',#906,#230);
#165=LINE('',#910,#231);
#166=LINE('',#914,#232);
#167=LINE('',#918,#233);
#168=LINE('',#921,#234);
#169=LINE('',#922,#235);
#170=LINE('',#924,#236);
#171=VECTOR('',#628,10.);
#172=VECTOR('',#629,10.);
#173=VECTOR('',#630,10.);
#174=VECTOR('',#631,10.);
#175=VECTOR('',#632,10.);
#176=VECTOR('',#633,10.);
#177=VECTOR('',#636,10.);
#178=VECTOR('',#637,10.);
#179=VECTOR('',#638,10.);
#180=VECTOR('',#639,10.);
#181=VECTOR('',#640,10.);
#182=VECTOR('',#641,10.);
#183=VECTOR('',#642,10.);
#184=VECTOR('',#645,10.);
#185=VECTOR('',#646,10.);
#186=VECTOR('',#647,10.);
#187=VECTOR('',#650,10.);
#188=VECTOR('',#651,10.);
#189=VECTOR('',#654,10.);
#190=VECTOR('',#655,10.);
#191=VECTOR('',#658,10.);
#192=VECTOR('',#661,10.);
#193=VECTOR('',#666,10.);
#194=VECTOR('',#667,10.);
#195=VECTOR('',#668,10.);
#196=VECTOR('',#669,10.);
#197=VECTOR('',#670,10.);
#198=VECTOR('',#671,10.);
#199=VECTOR('',#672,10.);
#200=VECTOR('',#675,10.);
#201=VECTOR('',#676,10.);
#202=VECTOR('',#679,10.);
#203=VECTOR('',#686,10.);
#204=VECTOR('',#687,10.);
#205=VECTOR('',#688,10.);
#206=VECTOR('',#689,10.);
#207=VECTOR('',#692,10.);
#208=VECTOR('',#693,10.);
#209=VECTOR('',#700,10.);
#210=VECTOR('',#703,10.);
#211=VECTOR('',#708,10.);
#212=VECTOR('',#709,10.);
#213=VECTOR('',#710,10.);
#214=VECTOR('',#711,10.);
#215=VECTOR('',#712,10.);
#216=VECTOR('',#713,10.);
#217=VECTOR('',#714,10.);
#218=VECTOR('',#715,10.);
#219=VECTOR('',#718,10.);
#220=VECTOR('',#721,1.5);
#221=VECTOR('',#724,10.);
#222=VECTOR('',#725,10.);
#223=VECTOR('',#726,10.);
#224=VECTOR('',#729,10.);
#225=VECTOR('',#730,10.);
#226=VECTOR('',#731,10.);
#227=VECTOR('',#736,10.);
#228=VECTOR('',#737,10.);
#229=VECTOR('',#740,10.);
#230=VECTOR('',#741,10.);
#231=VECTOR('',#746,1.5);
#232=VECTOR('',#751,1.5);
#233=VECTOR('',#756,1.5);
#234=VECTOR('',#759,10.);
#235=VECTOR('',#760,10.);
#236=VECTOR('',#763,10.);
#237=VERTEX_POINT('',#772);
#238=VERTEX_POINT('',#773);
#239=VERTEX_POINT('',#775);
#240=VERTEX_POINT('',#777);
#241=VERTEX_POINT('',#779);
#242=VERTEX_POINT('',#781);
#243=VERTEX_POINT('',#785);
#244=VERTEX_POINT('',#787);
#245=VERTEX_POINT('',#790);
#246=VERTEX_POINT('',#791);
#247=VERTEX_POINT('',#793);
#248=VERTEX_POINT('',#795);
#249=VERTEX_POINT('',#799);
#250=VERTEX_POINT('',#801);
#251=VERTEX_POINT('',#805);
#252=VERTEX_POINT('',#809);
#253=VERTEX_POINT('',#818);
#254=VERTEX_POINT('',#820);
#255=VERTEX_POINT('',#822);
#256=VERTEX_POINT('',#824);
#257=VERTEX_POINT('',#826);
#258=VERTEX_POINT('',#828);
#259=VERTEX_POINT('',#832);
#260=VERTEX_POINT('',#834);
#261=VERTEX_POINT('',#836);
#262=VERTEX_POINT('',#839);
#263=VERTEX_POINT('',#841);
#264=VERTEX_POINT('',#844);
#265=VERTEX_POINT('',#845);
#266=VERTEX_POINT('',#847);
#267=VERTEX_POINT('',#849);
#268=VERTEX_POINT('',#853);
#269=VERTEX_POINT('',#855);
#270=VERTEX_POINT('',#858);
#271=VERTEX_POINT('',#861);
#272=VERTEX_POINT('',#863);
#273=VERTEX_POINT('',#866);
#274=VERTEX_POINT('',#870);
#275=VERTEX_POINT('',#872);
#276=VERTEX_POINT('',#874);
#277=VERTEX_POINT('',#876);
#278=VERTEX_POINT('',#878);
#279=VERTEX_POINT('',#880);
#280=VERTEX_POINT('',#888);
#281=VERTEX_POINT('',#890);
#282=VERTEX_POINT('',#895);
#283=VERTEX_POINT('',#898);
#284=VERTEX_POINT('',#901);
#285=VERTEX_POINT('',#907);
#286=VERTEX_POINT('',#912);
#287=VERTEX_POINT('',#916);
#288=VERTEX_POINT('',#920);
#289=EDGE_CURVE('',#237,#238,#105,.T.);
#290=EDGE_CURVE('',#238,#239,#106,.T.);
#291=EDGE_CURVE('',#239,#240,#107,.T.);
#292=EDGE_CURVE('',#240,#241,#108,.T.);
#293=EDGE_CURVE('',#241,#242,#109,.T.);
#294=EDGE_CURVE('',#242,#237,#110,.T.);
#295=EDGE_CURVE('',#242,#243,#111,.T.);
#296=EDGE_CURVE('',#244,#243,#112,.T.);
#297=EDGE_CURVE('',#237,#244,#113,.T.);
#298=EDGE_CURVE('',#245,#246,#114,.T.);
#299=EDGE_CURVE('',#247,#245,#115,.T.);
#300=EDGE_CURVE('',#248,#247,#116,.T.);
#301=EDGE_CURVE('',#246,#248,#117,.T.);
#302=EDGE_CURVE('',#249,#238,#118,.T.);
#303=EDGE_CURVE('',#250,#249,#119,.T.);
#304=EDGE_CURVE('',#239,#250,#120,.T.);
#305=EDGE_CURVE('',#251,#250,#121,.T.);
#306=EDGE_CURVE('',#240,#251,#122,.T.);
#307=EDGE_CURVE('',#252,#251,#123,.T.);
#308=EDGE_CURVE('',#241,#252,#124,.T.);
#309=EDGE_CURVE('',#243,#252,#125,.T.);
#310=EDGE_CURVE('',#249,#244,#126,.T.);
#311=EDGE_CURVE('',#245,#253,#127,.T.);
#312=EDGE_CURVE('',#253,#254,#128,.T.);
#313=EDGE_CURVE('',#254,#255,#129,.T.);
#314=EDGE_CURVE('',#255,#256,#130,.T.);
#315=EDGE_CURVE('',#256,#257,#131,.T.);
#316=EDGE_CURVE('',#257,#258,#132,.T.);
#317=EDGE_CURVE('',#247,#258,#133,.T.);
#318=EDGE_CURVE('',#246,#259,#134,.T.);
#319=EDGE_CURVE('',#259,#260,#135,.T.);
#320=EDGE_CURVE('',#261,#260,#21,.T.);
#321=EDGE_CURVE('',#253,#261,#136,.T.);
#322=EDGE_CURVE('',#262,#262,#22,.T.);
#323=EDGE_CURVE('',#263,#263,#23,.T.);
#324=EDGE_CURVE('',#264,#265,#137,.T.);
#325=EDGE_CURVE('',#264,#266,#138,.T.);
#326=EDGE_CURVE('',#267,#266,#139,.T.);
#327=EDGE_CURVE('',#265,#267,#140,.T.);
#328=EDGE_CURVE('',#265,#268,#141,.T.);
#329=EDGE_CURVE('',#269,#267,#142,.T.);
#330=EDGE_CURVE('',#268,#269,#24,.T.);
#331=EDGE_CURVE('',#270,#270,#25,.T.);
#332=EDGE_CURVE('',#271,#264,#143,.T.);
#333=EDGE_CURVE('',#272,#271,#26,.T.);
#334=EDGE_CURVE('',#266,#272,#144,.T.);
#335=EDGE_CURVE('',#273,#273,#27,.T.);
#336=EDGE_CURVE('',#260,#268,#145,.T.);
#337=EDGE_CURVE('',#259,#274,#146,.T.);
#338=EDGE_CURVE('',#274,#275,#147,.T.);
#339=EDGE_CURVE('',#275,#276,#148,.T.);
#340=EDGE_CURVE('',#276,#277,#149,.T.);
#341=EDGE_CURVE('',#277,#278,#150,.T.);
#342=EDGE_CURVE('',#279,#278,#151,.T.);
#343=EDGE_CURVE('',#271,#279,#152,.T.);
#344=EDGE_CURVE('',#261,#269,#153,.T.);
#345=EDGE_CURVE('',#270,#262,#154,.T.);
#346=EDGE_CURVE('',#275,#280,#155,.T.);
#347=EDGE_CURVE('',#281,#280,#156,.T.);
#348=EDGE_CURVE('',#276,#281,#157,.T.);
#349=EDGE_CURVE('',#257,#281,#158,.T.);
#350=EDGE_CURVE('',#282,#256,#159,.T.);
#351=EDGE_CURVE('',#277,#282,#160,.T.);
#352=EDGE_CURVE('',#283,#283,#28,.T.);
#353=EDGE_CURVE('',#282,#284,#161,.T.);
#354=EDGE_CURVE('',#284,#255,#162,.T.);
#355=EDGE_CURVE('',#284,#274,#163,.T.);
#356=EDGE_CURVE('',#280,#254,#164,.T.);
#357=EDGE_CURVE('',#285,#285,#29,.T.);
#358=EDGE_CURVE('',#285,#263,#165,.T.);
#359=EDGE_CURVE('',#286,#286,#30,.T.);
#360=EDGE_CURVE('',#286,#273,#166,.T.);
#361=EDGE_CURVE('',#287,#287,#31,.T.);
#362=EDGE_CURVE('',#287,#283,#167,.T.);
#363=EDGE_CURVE('',#272,#288,#168,.T.);
#364=EDGE_CURVE('',#258,#288,#169,.T.);
#365=EDGE_CURVE('',#278,#248,#170,.T.);
#366=EDGE_CURVE('',#288,#279,#32,.T.);
#367=ORIENTED_EDGE('',*,*,#289,.T.);
#368=ORIENTED_EDGE('',*,*,#290,.T.);
#369=ORIENTED_EDGE('',*,*,#291,.T.);
#370=ORIENTED_EDGE('',*,*,#292,.T.);
#371=ORIENTED_EDGE('',*,*,#293,.T.);
#372=ORIENTED_EDGE('',*,*,#294,.T.);
#373=ORIENTED_EDGE('',*,*,#295,.T.);
#374=ORIENTED_EDGE('',*,*,#296,.F.);
#375=ORIENTED_EDGE('',*,*,#297,.F.);
#376=ORIENTED_EDGE('',*,*,#294,.F.);
#377=ORIENTED_EDGE('',*,*,#298,.F.);
#378=ORIENTED_EDGE('',*,*,#299,.F.);
#379=ORIENTED_EDGE('',*,*,#300,.F.);
#380=ORIENTED_EDGE('',*,*,#301,.F.);
#381=ORIENTED_EDGE('',*,*,#302,.F.);
#382=ORIENTED_EDGE('',*,*,#303,.F.);
#383=ORIENTED_EDGE('',*,*,#304,.F.);
#384=ORIENTED_EDGE('',*,*,#290,.F.);
#385=ORIENTED_EDGE('',*,*,#304,.T.);
#386=ORIENTED_EDGE('',*,*,#305,.F.);
#387=ORIENTED_EDGE('',*,*,#306,.F.);
#388=ORIENTED_EDGE('',*,*,#291,.F.);
#389=ORIENTED_EDGE('',*,*,#306,.T.);
#390=ORIENTED_EDGE('',*,*,#307,.F.);
#391=ORIENTED_EDGE('',*,*,#308,.F.);
#392=ORIENTED_EDGE('',*,*,#292,.F.);
#393=ORIENTED_EDGE('',*,*,#308,.T.);
#394=ORIENTED_EDGE('',*,*,#309,.F.);
#395=ORIENTED_EDGE('',*,*,#295,.F.);
#396=ORIENTED_EDGE('',*,*,#293,.F.);
#397=ORIENTED_EDGE('',*,*,#297,.T.);
#398=ORIENTED_EDGE('',*,*,#310,.F.);
#399=ORIENTED_EDGE('',*,*,#302,.T.);
#400=ORIENTED_EDGE('',*,*,#289,.F.);
#401=ORIENTED_EDGE('',*,*,#310,.T.);
#402=ORIENTED_EDGE('',*,*,#296,.T.);
#403=ORIENTED_EDGE('',*,*,#309,.T.);
#404=ORIENTED_EDGE('',*,*,#307,.T.);
#405=ORIENTED_EDGE('',*,*,#305,.T.);
#406=ORIENTED_EDGE('',*,*,#303,.T.);
#407=ORIENTED_EDGE('',*,*,#299,.T.);
#408=ORIENTED_EDGE('',*,*,#311,.T.);
#409=ORIENTED_EDGE('',*,*,#312,.T.);
#410=ORIENTED_EDGE('',*,*,#313,.T.);
#411=ORIENTED_EDGE('',*,*,#314,.T.);
#412=ORIENTED_EDGE('',*,*,#315,.T.);
#413=ORIENTED_EDGE('',*,*,#316,.T.);
#414=ORIENTED_EDGE('',*,*,#317,.F.);
#415=ORIENTED_EDGE('',*,*,#298,.T.);
#416=ORIENTED_EDGE('',*,*,#318,.T.);
#417=ORIENTED_EDGE('',*,*,#319,.T.);
#418=ORIENTED_EDGE('',*,*,#320,.F.);
#419=ORIENTED_EDGE('',*,*,#321,.F.);
#420=ORIENTED_EDGE('',*,*,#311,.F.);
#421=ORIENTED_EDGE('',*,*,#322,.T.);
#422=ORIENTED_EDGE('',*,*,#323,.T.);
#423=ORIENTED_EDGE('',*,*,#324,.F.);
#424=ORIENTED_EDGE('',*,*,#325,.T.);
#425=ORIENTED_EDGE('',*,*,#326,.F.);
#426=ORIENTED_EDGE('',*,*,#327,.F.);
#427=ORIENTED_EDGE('',*,*,#328,.F.);
#428=ORIENTED_EDGE('',*,*,#327,.T.);
#429=ORIENTED_EDGE('',*,*,#329,.F.);
#430=ORIENTED_EDGE('',*,*,#330,.F.);
#431=ORIENTED_EDGE('',*,*,#331,.F.);
#432=ORIENTED_EDGE('',*,*,#332,.F.);
#433=ORIENTED_EDGE('',*,*,#333,.F.);
#434=ORIENTED_EDGE('',*,*,#334,.F.);
#435=ORIENTED_EDGE('',*,*,#325,.F.);
#436=ORIENTED_EDGE('',*,*,#335,.F.);
#437=ORIENTED_EDGE('',*,*,#332,.T.);
#438=ORIENTED_EDGE('',*,*,#324,.T.);
#439=ORIENTED_EDGE('',*,*,#328,.T.);
#440=ORIENTED_EDGE('',*,*,#336,.F.);
#441=ORIENTED_EDGE('',*,*,#319,.F.);
#442=ORIENTED_EDGE('',*,*,#337,.T.);
#443=ORIENTED_EDGE('',*,*,#338,.T.);
#444=ORIENTED_EDGE('',*,*,#339,.T.);
#445=ORIENTED_EDGE('',*,*,#340,.T.);
#446=ORIENTED_EDGE('',*,*,#341,.T.);
#447=ORIENTED_EDGE('',*,*,#342,.F.);
#448=ORIENTED_EDGE('',*,*,#343,.F.);
#449=ORIENTED_EDGE('',*,*,#330,.T.);
#450=ORIENTED_EDGE('',*,*,#344,.F.);
#451=ORIENTED_EDGE('',*,*,#320,.T.);
#452=ORIENTED_EDGE('',*,*,#336,.T.);
#453=ORIENTED_EDGE('',*,*,#331,.T.);
#454=ORIENTED_EDGE('',*,*,#345,.T.);
#455=ORIENTED_EDGE('',*,*,#322,.F.);
#456=ORIENTED_EDGE('',*,*,#345,.F.);
#457=ORIENTED_EDGE('',*,*,#339,.F.);
#458=ORIENTED_EDGE('',*,*,#346,.T.);
#459=ORIENTED_EDGE('',*,*,#347,.F.);
#460=ORIENTED_EDGE('',*,*,#348,.F.);
#461=ORIENTED_EDGE('',*,*,#340,.F.);
#462=ORIENTED_EDGE('',*,*,#348,.T.);
#463=ORIENTED_EDGE('',*,*,#349,.F.);
#464=ORIENTED_EDGE('',*,*,#315,.F.);
#465=ORIENTED_EDGE('',*,*,#350,.F.);
#466=ORIENTED_EDGE('',*,*,#351,.F.);
#467=ORIENTED_EDGE('',*,*,#352,.F.);
#468=ORIENTED_EDGE('',*,*,#353,.F.);
#469=ORIENTED_EDGE('',*,*,#350,.T.);
#470=ORIENTED_EDGE('',*,*,#314,.F.);
#471=ORIENTED_EDGE('',*,*,#354,.F.);
#472=ORIENTED_EDGE('',*,*,#338,.F.);
#473=ORIENTED_EDGE('',*,*,#355,.F.);
#474=ORIENTED_EDGE('',*,*,#354,.T.);
#475=ORIENTED_EDGE('',*,*,#313,.F.);
#476=ORIENTED_EDGE('',*,*,#356,.F.);
#477=ORIENTED_EDGE('',*,*,#346,.F.);
#478=ORIENTED_EDGE('',*,*,#357,.F.);
#479=ORIENTED_EDGE('',*,*,#357,.T.);
#480=ORIENTED_EDGE('',*,*,#358,.T.);
#481=ORIENTED_EDGE('',*,*,#323,.F.);
#482=ORIENTED_EDGE('',*,*,#358,.F.);
#483=ORIENTED_EDGE('',*,*,#359,.F.);
#484=ORIENTED_EDGE('',*,*,#360,.T.);
#485=ORIENTED_EDGE('',*,*,#335,.T.);
#486=ORIENTED_EDGE('',*,*,#360,.F.);
#487=ORIENTED_EDGE('',*,*,#361,.F.);
#488=ORIENTED_EDGE('',*,*,#362,.T.);
#489=ORIENTED_EDGE('',*,*,#352,.T.);
#490=ORIENTED_EDGE('',*,*,#362,.F.);
#491=ORIENTED_EDGE('',*,*,#334,.T.);
#492=ORIENTED_EDGE('',*,*,#363,.T.);
#493=ORIENTED_EDGE('',*,*,#364,.F.);
#494=ORIENTED_EDGE('',*,*,#316,.F.);
#495=ORIENTED_EDGE('',*,*,#349,.T.);
#496=ORIENTED_EDGE('',*,*,#347,.T.);
#497=ORIENTED_EDGE('',*,*,#356,.T.);
#498=ORIENTED_EDGE('',*,*,#312,.F.);
#499=ORIENTED_EDGE('',*,*,#321,.T.);
#500=ORIENTED_EDGE('',*,*,#344,.T.);
#501=ORIENTED_EDGE('',*,*,#329,.T.);
#502=ORIENTED_EDGE('',*,*,#326,.T.);
#503=ORIENTED_EDGE('',*,*,#301,.T.);
#504=ORIENTED_EDGE('',*,*,#365,.F.);
#505=ORIENTED_EDGE('',*,*,#341,.F.);
#506=ORIENTED_EDGE('',*,*,#351,.T.);
#507=ORIENTED_EDGE('',*,*,#353,.T.);
#508=ORIENTED_EDGE('',*,*,#355,.T.);
#509=ORIENTED_EDGE('',*,*,#337,.F.);
#510=ORIENTED_EDGE('',*,*,#318,.F.);
#511=ORIENTED_EDGE('',*,*,#333,.T.);
#512=ORIENTED_EDGE('',*,*,#343,.T.);
#513=ORIENTED_EDGE('',*,*,#366,.F.);
#514=ORIENTED_EDGE('',*,*,#363,.F.);
#515=ORIENTED_EDGE('',*,*,#300,.T.);
#516=ORIENTED_EDGE('',*,*,#317,.T.);
#517=ORIENTED_EDGE('',*,*,#364,.T.);
#518=ORIENTED_EDGE('',*,*,#366,.T.);
#519=ORIENTED_EDGE('',*,*,#342,.T.);
#520=ORIENTED_EDGE('',*,*,#365,.T.);
#521=ORIENTED_EDGE('',*,*,#361,.T.);
#522=ORIENTED_EDGE('',*,*,#359,.T.);
#523=PLANE('',#585);
#524=PLANE('',#586);
#525=PLANE('',#587);
#526=PLANE('',#588);
#527=PLANE('',#589);
#528=PLANE('',#590);
#529=PLANE('',#591);
#530=PLANE('',#592);
#531=PLANE('',#593);
#532=PLANE('',#594);
#533=PLANE('',#598);
#534=PLANE('',#599);
#535=PLANE('',#602);
#536=PLANE('',#605);
#537=PLANE('',#608);
#538=PLANE('',#609);
#539=PLANE('',#611);
#540=PLANE('',#612);
#541=PLANE('',#619);
#542=PLANE('',#620);
#543=PLANE('',#623);
#544=ADVANCED_FACE('',(#42),#523,.T.);
#545=ADVANCED_FACE('',(#43,#33),#524,.T.);
#546=ADVANCED_FACE('',(#44),#525,.T.);
#547=ADVANCED_FACE('',(#45),#526,.T.);
#548=ADVANCED_FACE('',(#46),#527,.T.);
#549=ADVANCED_FACE('',(#47),#528,.T.);
#550=ADVANCED_FACE('',(#48),#529,.T.);
#551=ADVANCED_FACE('',(#49),#530,.T.);
#552=ADVANCED_FACE('',(#50),#531,.T.);
#553=ADVANCED_FACE('',(#51,#34,#35),#532,.F.);
#554=ADVANCED_FACE('',(#52),#533,.F.);
#555=ADVANCED_FACE('',(#53,#36),#534,.F.);
#556=ADVANCED_FACE('',(#54,#37),#535,.F.);
#557=ADVANCED_FACE('',(#55),#536,.T.);
#558=ADVANCED_FACE('',(#56),#15,.T.);
#559=ADVANCED_FACE('',(#57),#16,.F.);
#560=ADVANCED_FACE('',(#58),#537,.F.);
#561=ADVANCED_FACE('',(#59,#38),#538,.F.);
#562=ADVANCED_FACE('',(#60),#539,.F.);
#563=ADVANCED_FACE('',(#61,#39),#540,.F.);
#564=ADVANCED_FACE('',(#62),#17,.F.);
#565=ADVANCED_FACE('',(#63),#18,.F.);
#566=ADVANCED_FACE('',(#64),#19,.F.);
#567=ADVANCED_FACE('',(#65),#541,.T.);
#568=ADVANCED_FACE('',(#66),#542,.T.);
#569=ADVANCED_FACE('',(#67),#20,.T.);
#570=ADVANCED_FACE('',(#68,#40,#41),#543,.T.);
#571=CLOSED_SHELL('',(#544,#545,#546,#547,#548,#549,#550,#551,#552,#553,
#554,#555,#556,#557,#558,#559,#560,#561,#562,#563,#564,#565,#566,#567,#568,
#569,#570));
#572=DERIVED_UNIT_ELEMENT(#574,1.);
#573=DERIVED_UNIT_ELEMENT(#933,-3.);
#574=(
MASS_UNIT()
NAMED_UNIT(*)
SI_UNIT(.KILO.,.GRAM.)
);
#575=DERIVED_UNIT((#572,#573));
#576=MEASURE_REPRESENTATION_ITEM('density measure',
POSITIVE_RATIO_MEASURE(7850.),#575);
#577=PROPERTY_DEFINITION_REPRESENTATION(#582,#579);
#578=PROPERTY_DEFINITION_REPRESENTATION(#583,#580);
#579=REPRESENTATION('material name',(#581),#930);
#580=REPRESENTATION('density',(#576),#930);
#581=DESCRIPTIVE_REPRESENTATION_ITEM('Steel','Steel');
#582=PROPERTY_DEFINITION('material property','material name',#940);
#583=PROPERTY_DEFINITION('material property','density of part',#940);
#584=AXIS2_PLACEMENT_3D('',#770,#624,#625);
#585=AXIS2_PLACEMENT_3D('',#771,#626,#627);
#586=AXIS2_PLACEMENT_3D('',#784,#634,#635);
#587=AXIS2_PLACEMENT_3D('',#798,#643,#644);
#588=AXIS2_PLACEMENT_3D('',#804,#648,#649);
#589=AXIS2_PLACEMENT_3D('',#808,#652,#653);
#590=AXIS2_PLACEMENT_3D('',#812,#656,#657);
#591=AXIS2_PLACEMENT_3D('',#814,#659,#660);
#592=AXIS2_PLACEMENT_3D('',#816,#662,#663);
#593=AXIS2_PLACEMENT_3D('',#817,#664,#665);
#594=AXIS2_PLACEMENT_3D('',#831,#673,#674);
#595=AXIS2_PLACEMENT_3D('',#837,#677,#678);
#596=AXIS2_PLACEMENT_3D('',#840,#680,#681);
#597=AXIS2_PLACEMENT_3D('',#842,#682,#683);
#598=AXIS2_PLACEMENT_3D('',#843,#684,#685);
#599=AXIS2_PLACEMENT_3D('',#852,#690,#691);
#600=AXIS2_PLACEMENT_3D('',#857,#694,#695);
#601=AXIS2_PLACEMENT_3D('',#859,#696,#697);
#602=AXIS2_PLACEMENT_3D('',#860,#698,#699);
#603=AXIS2_PLACEMENT_3D('',#864,#701,#702);
#604=AXIS2_PLACEMENT_3D('',#867,#704,#705);
#605=AXIS2_PLACEMENT_3D('',#868,#706,#707);
#606=AXIS2_PLACEMENT_3D('',#883,#716,#717);
#607=AXIS2_PLACEMENT_3D('',#885,#719,#720);
#608=AXIS2_PLACEMENT_3D('',#887,#722,#723);
#609=AXIS2_PLACEMENT_3D('',#893,#727,#728);
#610=AXIS2_PLACEMENT_3D('',#899,#732,#733);
#611=AXIS2_PLACEMENT_3D('',#900,#734,#735);
#612=AXIS2_PLACEMENT_3D('',#904,#738,#739);
#613=AXIS2_PLACEMENT_3D('',#908,#742,#743);
#614=AXIS2_PLACEMENT_3D('',#909,#744,#745);
#615=AXIS2_PLACEMENT_3D('',#911,#747,#748);
#616=AXIS2_PLACEMENT_3D('',#913,#749,#750);
#617=AXIS2_PLACEMENT_3D('',#915,#752,#753);
#618=AXIS2_PLACEMENT_3D('',#917,#754,#755);
#619=AXIS2_PLACEMENT_3D('',#919,#757,#758);
#620=AXIS2_PLACEMENT_3D('',#923,#761,#762);
#621=AXIS2_PLACEMENT_3D('',#925,#764,#765);
#622=AXIS2_PLACEMENT_3D('',#926,#766,#767);
#623=AXIS2_PLACEMENT_3D('',#927,#768,#769);
#624=DIRECTION('axis',(0.,0.,1.));
#625=DIRECTION('refdir',(1.,0.,0.));
#626=DIRECTION('center_axis',(0.,0.,-1.));
#627=DIRECTION('ref_axis',(-1.,0.,0.));
#628=DIRECTION('',(0.983754744531923,0.179517694422948,0.));
#629=DIRECTION('',(0.81923192051904,-0.573462344363328,0.));
#630=DIRECTION('',(-0.6,-0.8,0.));
#631=DIRECTION('',(-0.988508323966977,0.151166442863484,0.));
#632=DIRECTION('',(-0.791285001392167,0.611447501075766,0.));
#633=DIRECTION('',(0.611447501075766,0.791285001392167,0.));
#634=DIRECTION('center_axis',(-0.791285001392167,0.611447501075766,0.));
#635=DIRECTION('ref_axis',(-0.611447501075766,-0.791285001392167,0.));
#636=DIRECTION('',(0.,0.,1.));
#637=DIRECTION('',(-0.611447501075766,-0.791285001392167,0.));
#638=DIRECTION('',(0.,0.,1.));
#639=DIRECTION('',(-0.611447501075766,-0.791285001392167,0.));
#640=DIRECTION('',(0.,0.,-1.));
#641=DIRECTION('',(0.611447501075766,0.791285001392167,0.));
#642=DIRECTION('',(0.,0.,1.));
#643=DIRECTION('center_axis',(0.573462344363328,0.81923192051904,0.));
#644=DIRECTION('ref_axis',(-0.81923192051904,0.573462344363328,0.));
#645=DIRECTION('',(0.,0.,-1.));
#646=DIRECTION('',(-0.81923192051904,0.573462344363328,0.));
#647=DIRECTION('',(0.,0.,1.));
#648=DIRECTION('center_axis',(0.8,-0.6,0.));
#649=DIRECTION('ref_axis',(0.6,0.8,0.));
#650=DIRECTION('',(0.6,0.8,0.));
#651=DIRECTION('',(0.,0.,1.));
#652=DIRECTION('center_axis',(-0.151166442863484,-0.988508323966977,0.));
#653=DIRECTION('ref_axis',(0.988508323966977,-0.151166442863484,0.));
#654=DIRECTION('',(0.988508323966977,-0.151166442863484,0.));
#655=DIRECTION('',(0.,0.,1.));
#656=DIRECTION('center_axis',(-0.611447501075766,-0.791285001392167,0.));
#657=DIRECTION('ref_axis',(0.791285001392167,-0.611447501075766,0.));
#658=DIRECTION('',(0.791285001392167,-0.611447501075766,0.));
#659=DIRECTION('center_axis',(-0.179517694422948,0.983754744531923,0.));
#660=DIRECTION('ref_axis',(-0.983754744531923,-0.179517694422948,0.));
#661=DIRECTION('',(-0.983754744531923,-0.179517694422948,0.));
#662=DIRECTION('center_axis',(0.,0.,1.));
#663=DIRECTION('ref_axis',(1.,0.,0.));
#664=DIRECTION('center_axis',(0.608761429008721,0.793353340291235,0.));
#665=DIRECTION('ref_axis',(-0.793353340291235,0.608761429008721,0.));
#666=DIRECTION('',(-0.793353340291235,0.608761429008721,0.));
#667=DIRECTION('',(0.,0.,1.));
#668=DIRECTION('',(0.793353340291235,-0.608761429008721,0.));
#669=DIRECTION('',(0.,0.,1.));
#670=DIRECTION('',(-0.793353340291235,0.608761429008721,0.));
#671=DIRECTION('',(0.,0.,1.));
#672=DIRECTION('',(-0.793353340291235,0.608761429008721,0.));
#673=DIRECTION('center_axis',(0.,0.,1.));
#674=DIRECTION('ref_axis',(0.793353340291235,-0.608761429008721,0.));
#675=DIRECTION('',(-0.793353340291235,0.608761429008721,0.));
#676=DIRECTION('',(-0.999959515916929,-0.00899814020676758,0.));
#677=DIRECTION('center_axis',(0.,0.,1.));
#678=DIRECTION('ref_axis',(-0.0683170208932016,0.997663663093068,0.));
#679=DIRECTION('',(-0.999966244594204,-0.00821642697072582,0.));
#680=DIRECTION('center_axis',(0.,0.,1.));
#681=DIRECTION('ref_axis',(0.793353340291235,-0.608761429008721,0.));
#682=DIRECTION('center_axis',(0.,0.,1.));
#683=DIRECTION('ref_axis',(0.793353340291235,-0.608761429008721,0.));
#684=DIRECTION('center_axis',(1.,0.,0.));
#685=DIRECTION('ref_axis',(0.,0.,-1.));
#686=DIRECTION('',(0.,0.,-1.));
#687=DIRECTION('',(0.,1.,0.));
#688=DIRECTION('',(0.,0.,1.));
#689=DIRECTION('',(0.,1.,0.));
#690=DIRECTION('center_axis',(0.,0.,-1.));
#691=DIRECTION('ref_axis',(-1.,0.,0.));
#692=DIRECTION('',(-0.999959515916929,-0.00899814020676758,0.));
#693=DIRECTION('',(0.999966244594204,0.00821642697072583,0.));
#694=DIRECTION('center_axis',(0.,0.,-1.));
#695=DIRECTION('ref_axis',(-0.0683170208932016,0.997663663093068,0.));
#696=DIRECTION('center_axis',(0.,0.,1.));
#697=DIRECTION('ref_axis',(0.793353340291235,-0.608761429008721,0.));
#698=DIRECTION('center_axis',(0.,0.,1.));
#699=DIRECTION('ref_axis',(1.,0.,0.));
#700=DIRECTION('',(0.999959515916929,0.00899814020676758,0.));
#701=DIRECTION('center_axis',(0.,0.,1.));
#702=DIRECTION('ref_axis',(-0.0683170208932016,0.997663663093068,0.));
#703=DIRECTION('',(-0.999966244594204,-0.00821642697072583,0.));
#704=DIRECTION('center_axis',(0.,0.,-1.));
#705=DIRECTION('ref_axis',(0.793353340291235,-0.608761429008721,0.));
#706=DIRECTION('center_axis',(0.00899814020676758,-0.999959515916929,0.));
#707=DIRECTION('ref_axis',(0.999959515916929,0.00899814020676758,0.));
#708=DIRECTION('',(0.,0.,1.));
#709=DIRECTION('',(0.,0.,1.));
#710=DIRECTION('',(-0.999959515916929,-0.00899814020676758,0.));
#711=DIRECTION('',(0.,0.,1.));
#712=DIRECTION('',(0.999959515916929,0.00899814020676758,0.));
#713=DIRECTION('',(0.,0.,1.));
#714=DIRECTION('',(0.999959515916929,0.00899814020676758,0.));
#715=DIRECTION('',(0.,0.,1.));
#716=DIRECTION('center_axis',(0.,0.,1.));
#717=DIRECTION('ref_axis',(-0.0683170208932016,0.997663663093068,0.));
#718=DIRECTION('',(0.,0.,1.));
#719=DIRECTION('center_axis',(0.,0.,1.));
#720=DIRECTION('ref_axis',(0.793353340291235,-0.608761429008721,0.));
#721=DIRECTION('',(0.,0.,-1.));
#722=DIRECTION('center_axis',(-1.,0.,0.));
#723=DIRECTION('ref_axis',(0.,0.,1.));
#724=DIRECTION('',(0.,1.,0.));
#725=DIRECTION('',(0.,0.,-1.));
#726=DIRECTION('',(0.,1.,0.));
#727=DIRECTION('center_axis',(0.,0.,1.));
#728=DIRECTION('ref_axis',(1.,0.,0.));
#729=DIRECTION('',(-0.999966244594204,-0.00821642697072583,0.));
#730=DIRECTION('',(0.,1.,0.));
#731=DIRECTION('',(0.793353340291235,-0.608761429008721,0.));
#732=DIRECTION('center_axis',(0.,0.,-1.));
#733=DIRECTION('ref_axis',(0.793353340291235,-0.608761429008721,0.));
#734=DIRECTION('center_axis',(1.,0.,0.));
#735=DIRECTION('ref_axis',(0.,0.,-1.));
#736=DIRECTION('',(0.,0.,-1.));
#737=DIRECTION('',(0.,1.,0.));
#738=DIRECTION('center_axis',(0.,0.,-1.));
#739=DIRECTION('ref_axis',(-1.,0.,0.));
#740=DIRECTION('',(-0.793353340291235,0.608761429008721,0.));
#741=DIRECTION('',(0.999966244594204,0.00821642697072583,0.));
#742=DIRECTION('center_axis',(0.,0.,1.));
#743=DIRECTION('ref_axis',(0.793353340291235,-0.608761429008721,0.));
#744=DIRECTION('center_axis',(0.,0.,1.));
#745=DIRECTION('ref_axis',(0.793353340291235,-0.608761429008721,0.));
#746=DIRECTION('',(0.,0.,-1.));
#747=DIRECTION('center_axis',(0.,0.,1.));
#748=DIRECTION('ref_axis',(0.793353340291235,-0.608761429008721,0.));
#749=DIRECTION('center_axis',(0.,0.,-1.));
#750=DIRECTION('ref_axis',(0.793353340291235,-0.608761429008721,0.));
#751=DIRECTION('',(0.,0.,-1.));
#752=DIRECTION('center_axis',(0.,0.,1.));
#753=DIRECTION('ref_axis',(0.793353340291235,-0.608761429008721,0.));
#754=DIRECTION('center_axis',(0.,0.,-1.));
#755=DIRECTION('ref_axis',(0.793353340291235,-0.608761429008721,0.));
#756=DIRECTION('',(0.,0.,-1.));
#757=DIRECTION('center_axis',(-0.00821642697072583,0.999966244594204,0.));
#758=DIRECTION('ref_axis',(-0.999966244594204,-0.00821642697072583,0.));
#759=DIRECTION('',(0.,0.,1.));
#760=DIRECTION('',(-0.999966244594204,-0.00821642697072582,0.));
#761=DIRECTION('center_axis',(-0.608761429008721,-0.793353340291235,0.));
#762=DIRECTION('ref_axis',(0.793353340291235,-0.608761429008721,0.));
#763=DIRECTION('',(0.793353340291235,-0.608761429008721,0.));
#764=DIRECTION('center_axis',(0.,0.,1.));
#765=DIRECTION('ref_axis',(-0.0683170208932016,0.997663663093068,0.));
#766=DIRECTION('center_axis',(0.,0.,1.));
#767=DIRECTION('ref_axis',(-0.0683170208932016,0.997663663093068,0.));
#768=DIRECTION('center_axis',(0.,0.,1.));
#769=DIRECTION('ref_axis',(0.793353340291235,-0.608761429008721,0.));
#770=CARTESIAN_POINT('',(0.,0.,0.));
#771=CARTESIAN_POINT('Origin',(-72.5499993842095,129.00000192225,-5.));
#772=CARTESIAN_POINT('',(-87.6999980397522,135.499996971339,-5.));
#773=CARTESIAN_POINT('',(-74.0000011026859,138.00000205636,-5.));
#774=CARTESIAN_POINT('',(-74.0000011026859,138.00000205636,-5.));
#775=CARTESIAN_POINT('',(-54.0000008046627,124.000001847744,-5.));
#776=CARTESIAN_POINT('',(-54.0000008046627,124.000001847744,-5.));
#777=CARTESIAN_POINT('',(-57.0000008493662,120.000001788139,-5.));
#778=CARTESIAN_POINT('',(-57.0000008493662,120.000001788139,-5.));
#779=CARTESIAN_POINT('',(-81.6045779470503,123.762627056777,-5.));
#780=CARTESIAN_POINT('',(-81.6045779470503,123.762627056777,-5.));
#781=CARTESIAN_POINT('',(-91.0999979637563,131.099997069687,-5.));
#782=CARTESIAN_POINT('',(-91.0999979637563,131.099997069687,-5.));
#783=CARTESIAN_POINT('',(-87.6999980397522,135.499996971339,-5.));
#784=CARTESIAN_POINT('Origin',(-87.6999980397522,135.499996971339,0.));
#785=CARTESIAN_POINT('',(-91.0999979637563,131.099997069687,15.));
#786=CARTESIAN_POINT('',(-91.0999979637563,131.099997069687,0.));
#787=CARTESIAN_POINT('',(-87.6999980397522,135.499996971339,15.));
#788=CARTESIAN_POINT('',(-87.6999980397522,135.499996971339,15.));
#789=CARTESIAN_POINT('',(-87.6999980397522,135.499996971339,0.));
#790=CARTESIAN_POINT('',(-87.8883878563762,135.25619838512,0.));
#791=CARTESIAN_POINT('',(-90.945642930285,131.299750642414,0.));
#792=CARTESIAN_POINT('',(-92.4729840064019,129.323191602734,0.));
#793=CARTESIAN_POINT('',(-87.8883878563762,135.25619838512,10.));
#794=CARTESIAN_POINT('',(-87.8883878563762,135.25619838512,0.));
#795=CARTESIAN_POINT('',(-90.945642930285,131.299750642414,10.));
#796=CARTESIAN_POINT('',(-90.7729840443999,131.52319155356,10.));
#797=CARTESIAN_POINT('',(-90.945642930285,131.299750642414,0.));
#798=CARTESIAN_POINT('Origin',(-54.0000008046627,124.000001847744,0.));
#799=CARTESIAN_POINT('',(-74.0000011026859,138.00000205636,15.));
#800=CARTESIAN_POINT('',(-74.0000011026859,138.00000205636,0.));
#801=CARTESIAN_POINT('',(-54.0000008046627,124.000001847744,15.));
#802=CARTESIAN_POINT('',(-54.0000008046627,124.000001847744,15.));
#803=CARTESIAN_POINT('',(-54.0000008046627,124.000001847744,0.));
#804=CARTESIAN_POINT('Origin',(-57.0000008493662,120.000001788139,0.));
#805=CARTESIAN_POINT('',(-57.0000008493662,120.000001788139,15.));
#806=CARTESIAN_POINT('',(-57.0000008493662,120.000001788139,15.));
#807=CARTESIAN_POINT('',(-57.0000008493662,120.000001788139,0.));
#808=CARTESIAN_POINT('Origin',(-81.6045779470503,123.762627056777,0.));
#809=CARTESIAN_POINT('',(-81.6045779470503,123.762627056777,15.));
#810=CARTESIAN_POINT('',(-81.6045779470503,123.762627056777,15.));
#811=CARTESIAN_POINT('',(-81.6045779470503,123.762627056777,0.));
#812=CARTESIAN_POINT('Origin',(-91.0999979637563,131.099997069687,0.));
#813=CARTESIAN_POINT('',(-91.0999979637563,131.099997069687,15.));
#814=CARTESIAN_POINT('Origin',(-74.0000011026859,138.00000205636,0.));
#815=CARTESIAN_POINT('',(-74.0000011026859,138.00000205636,15.));
#816=CARTESIAN_POINT('Origin',(-72.5499993842095,129.00000192225,15.));
#817=CARTESIAN_POINT('Origin',(-87.7958900814507,135.185222346091,0.));
#818=CARTESIAN_POINT('',(-94.1427168037806,140.055313778161,0.));
#819=CARTESIAN_POINT('',(-87.7958900814507,135.185222346091,0.));
#820=CARTESIAN_POINT('',(-94.1427168037806,140.055313778161,2.00000002980232));
#821=CARTESIAN_POINT('',(-94.1427168037806,140.055313778161,0.));
#822=CARTESIAN_POINT('',(-93.000001385808,139.178477398371,2.00000002980232));
#823=CARTESIAN_POINT('',(-56.7889242879603,111.392740677406,2.00000002980232));
#824=CARTESIAN_POINT('',(-93.000001385808,139.178477398371,7.00000010430813));
#825=CARTESIAN_POINT('',(-93.000001385808,139.178477398371,3.50000005215406));
#826=CARTESIAN_POINT('',(-94.1427168037806,140.055313778161,7.00000010430813));
#827=CARTESIAN_POINT('',(-62.4536100753321,115.739406960477,7.00000010430813));
#828=CARTESIAN_POINT('',(-94.1427168037806,140.055313778161,10.));
#829=CARTESIAN_POINT('',(-94.1427168037806,140.055313778161,0.));
#830=CARTESIAN_POINT('',(-87.7958900814507,135.185222346091,10.));
#831=CARTESIAN_POINT('Origin',(-104.996983999242,136.163078733658,0.));
#832=CARTESIAN_POINT('',(-96.393170608533,135.479785647696,0.));
#833=CARTESIAN_POINT('',(-90.8396972264943,131.218455644635,0.));
#834=CARTESIAN_POINT('',(-118.828795735864,135.277898573961,0.));
#835=CARTESIAN_POINT('',(-96.393170608533,135.479785647696,0.));
#836=CARTESIAN_POINT('',(-119.141872918636,139.849903103893,0.));
#837=CARTESIAN_POINT('Origin',(-118.98533432725,137.563900838927,0.));
#838=CARTESIAN_POINT('',(-94.1427168037806,140.055313778161,0.));
#839=CARTESIAN_POINT('',(-120.175364337687,138.47704298244,0.));
#840=CARTESIAN_POINT('Origin',(-118.98533432725,137.563900838927,0.));
#841=CARTESIAN_POINT('',(-96.2284547908263,138.504575790449,0.));
#842=CARTESIAN_POINT('Origin',(-95.0384247803895,137.591433646936,0.));
#843=CARTESIAN_POINT('Origin',(-115.000001713634,0.,7.00000010430813));
#844=CARTESIAN_POINT('',(-115.000001713634,135.312351994211,7.00000010430813));
#845=CARTESIAN_POINT('',(-115.000001713634,135.312351994211,2.00000002980232));
#846=CARTESIAN_POINT('',(-115.000001713634,135.312351994211,3.50000005215406));
#847=CARTESIAN_POINT('',(-115.000001713634,139.883935634953,7.00000010430813));
#848=CARTESIAN_POINT('',(-115.000001713634,0.,7.00000010430813));
#849=CARTESIAN_POINT('',(-115.000001713634,139.883935634953,2.00000002980232));
#850=CARTESIAN_POINT('',(-115.000001713634,139.883935634953,3.50000005215406));
#851=CARTESIAN_POINT('',(-115.000001713634,0.,2.00000002980232));
#852=CARTESIAN_POINT('Origin',(-115.000001713634,0.,2.00000002980232));
#853=CARTESIAN_POINT('',(-118.828795735864,135.277898573961,2.00000002980232));
#854=CARTESIAN_POINT('',(-117.523153836334,135.289647398473,2.00000002980232));
#855=CARTESIAN_POINT('',(-119.141872918636,139.849903103893,2.00000002980232));
#856=CARTESIAN_POINT('',(-105.146012931146,139.964902947239,2.00000002980232));
#857=CARTESIAN_POINT('Origin',(-118.98533432725,137.563900838927,2.00000002980232));
#858=CARTESIAN_POINT('',(-120.175364337687,138.47704298244,2.00000002980232));
#859=CARTESIAN_POINT('Origin',(-118.98533432725,137.563900838927,2.00000002980232));
#860=CARTESIAN_POINT('Origin',(-124.000001847744,0.,7.00000010430813));
#861=CARTESIAN_POINT('',(-118.828795735864,135.277898573961,7.00000010430813));
#862=CARTESIAN_POINT('',(-122.022789554012,135.249157406206,7.00000010430813));
#863=CARTESIAN_POINT('',(-119.141872918636,139.849903103893,7.00000010430813));
#864=CARTESIAN_POINT('Origin',(-118.98533432725,137.563900838927,7.00000010430813));
#865=CARTESIAN_POINT('',(-109.645709204672,139.92793027339,7.00000010430813));
#866=CARTESIAN_POINT('',(-120.175364337687,138.47704298244,7.00000010430813));
#867=CARTESIAN_POINT('Origin',(-118.98533432725,137.563900838927,7.00000010430813));
#868=CARTESIAN_POINT('Origin',(-118.828795735864,135.277898573961,0.));
#869=CARTESIAN_POINT('',(-118.828795735864,135.277898573961,0.));
#870=CARTESIAN_POINT('',(-96.393170608533,135.479785647696,2.00000002980232));
#871=CARTESIAN_POINT('',(-96.393170608533,135.479785647696,0.));
#872=CARTESIAN_POINT('',(-111.000001654029,135.348346012759,2.00000002980232));
#873=CARTESIAN_POINT('',(-106.524044304234,135.388622935127,2.00000002980232));
#874=CARTESIAN_POINT('',(-111.000001654029,135.348346012759,7.00000010430813));
#875=CARTESIAN_POINT('',(-111.000001654029,135.348346012759,1.00000001490116));
#876=CARTESIAN_POINT('',(-96.393170608533,135.479785647696,7.00000010430813));
#877=CARTESIAN_POINT('',(-115.523315739588,135.307642950592,7.00000010430813));
#878=CARTESIAN_POINT('',(-96.393170608533,135.479785647696,10.));
#879=CARTESIAN_POINT('',(-96.393170608533,135.479785647696,0.));
#880=CARTESIAN_POINT('',(-118.828795735864,135.277898573961,10.));
#881=CARTESIAN_POINT('',(-96.393170608533,135.479785647696,10.));
#882=CARTESIAN_POINT('',(-118.828795735864,135.277898573961,0.));
#883=CARTESIAN_POINT('Origin',(-118.98533432725,137.563900838927,0.));
#884=CARTESIAN_POINT('',(-119.141872918636,139.849903103893,0.));
#885=CARTESIAN_POINT('Origin',(-118.98533432725,137.563900838927,0.));
#886=CARTESIAN_POINT('',(-120.175364337687,138.47704298244,0.));
#887=CARTESIAN_POINT('Origin',(-111.000001654029,0.,2.00000002980232));
#888=CARTESIAN_POINT('',(-111.000001654029,139.916802452758,2.00000002980232));
#889=CARTESIAN_POINT('',(-111.000001654029,0.,2.00000002980232));
#890=CARTESIAN_POINT('',(-111.000001654029,139.916802452758,7.00000010430813));
#891=CARTESIAN_POINT('',(-111.000001654029,139.916802452758,1.00000001490116));
#892=CARTESIAN_POINT('',(-111.000001654029,0.,7.00000010430813));
#893=CARTESIAN_POINT('Origin',(-111.000001654029,0.,7.00000010430813));
#894=CARTESIAN_POINT('',(-103.14614792069,139.981335246728,7.00000010430813));
#895=CARTESIAN_POINT('',(-93.000001385808,132.87611532832,7.00000010430813));
#896=CARTESIAN_POINT('',(-93.000001385808,0.,7.00000010430813));
#897=CARTESIAN_POINT('',(-68.274153911395,113.903305260551,7.00000010430813));
#898=CARTESIAN_POINT('',(-96.2284547908263,138.504575790449,7.00000010430813));
#899=CARTESIAN_POINT('Origin',(-95.0384247803895,137.591433646936,7.00000010430813));
#900=CARTESIAN_POINT('Origin',(-93.000001385808,0.,7.00000010430813));
#901=CARTESIAN_POINT('',(-93.000001385808,132.87611532832,2.00000002980232));
#902=CARTESIAN_POINT('',(-93.000001385808,132.87611532832,3.50000005215406));
#903=CARTESIAN_POINT('',(-93.000001385808,0.,2.00000002980232));
#904=CARTESIAN_POINT('Origin',(-93.000001385808,0.,2.00000002980232));
#905=CARTESIAN_POINT('',(-62.6094681240233,109.55663897748,2.00000002980232));
#906=CARTESIAN_POINT('',(-94.1467553736376,140.055280594427,2.00000002980232));
#907=CARTESIAN_POINT('',(-96.2284547908263,138.504575790449,2.00000002980232));
#908=CARTESIAN_POINT('Origin',(-95.0384247803895,137.591433646936,2.00000002980232));
#909=CARTESIAN_POINT('Origin',(-95.0384247803895,137.591433646936,0.));
#910=CARTESIAN_POINT('',(-96.2284547908263,138.504575790449,0.));
#911=CARTESIAN_POINT('Origin',(-118.98533432725,137.563900838927,0.));
#912=CARTESIAN_POINT('',(-120.175364337687,138.47704298244,10.));
#913=CARTESIAN_POINT('Origin',(-118.98533432725,137.563900838927,10.));
#914=CARTESIAN_POINT('',(-120.175364337687,138.47704298244,0.));
#915=CARTESIAN_POINT('Origin',(-95.0384247803895,137.591433646936,0.));
#916=CARTESIAN_POINT('',(-96.2284547908263,138.504575790449,10.));
#917=CARTESIAN_POINT('Origin',(-95.0384247803895,137.591433646936,10.));
#918=CARTESIAN_POINT('',(-96.2284547908263,138.504575790449,0.));
#919=CARTESIAN_POINT('Origin',(-94.1427168037806,140.055313778161,0.));
#920=CARTESIAN_POINT('',(-119.141872918636,139.849903103893,10.));
#921=CARTESIAN_POINT('',(-119.141872918636,139.849903103893,0.));
#922=CARTESIAN_POINT('',(-94.1427168037806,140.055313778161,10.));
#923=CARTESIAN_POINT('Origin',(-96.393170608533,135.479785647696,0.));
#924=CARTESIAN_POINT('',(-90.8396972264943,131.218455644635,10.));
#925=CARTESIAN_POINT('Origin',(-118.98533432725,137.563900838927,0.));
#926=CARTESIAN_POINT('Origin',(-118.98533432725,137.563900838927,10.));
#927=CARTESIAN_POINT('Origin',(-104.996983999242,136.163078733658,10.));
#928=UNCERTAINTY_MEASURE_WITH_UNIT(LENGTH_MEASURE(0.01),#932,
'DISTANCE_ACCURACY_VALUE',
'Maximum model space distance between geometric entities at asserted c
onnectivities');
#929=UNCERTAINTY_MEASURE_WITH_UNIT(LENGTH_MEASURE(0.01),#932,
'DISTANCE_ACCURACY_VALUE',
'Maximum model space distance between geometric entities at asserted c
onnectivities');
#930=(
GEOMETRIC_REPRESENTATION_CONTEXT(3)
GLOBAL_UNCERTAINTY_ASSIGNED_CONTEXT((#928))
GLOBAL_UNIT_ASSIGNED_CONTEXT((#932,#934,#935))
REPRESENTATION_CONTEXT('','3D')
);
#931=(
GEOMETRIC_REPRESENTATION_CONTEXT(3)
GLOBAL_UNCERTAINTY_ASSIGNED_CONTEXT((#929))
GLOBAL_UNIT_ASSIGNED_CONTEXT((#932,#934,#935))
REPRESENTATION_CONTEXT('','3D')
);
#932=(
LENGTH_UNIT()
NAMED_UNIT(*)
SI_UNIT(.MILLI.,.METRE.)
);
#933=(
LENGTH_UNIT()
NAMED_UNIT(*)
SI_UNIT($,.METRE.)
);
#934=(
NAMED_UNIT(*)
PLANE_ANGLE_UNIT()
SI_UNIT($,.RADIAN.)
);
#935=(
NAMED_UNIT(*)
SI_UNIT($,.STERADIAN.)
SOLID_ANGLE_UNIT()
);
#936=SHAPE_DEFINITION_REPRESENTATION(#937,#938);
#937=PRODUCT_DEFINITION_SHAPE('',$,#940);
#938=SHAPE_REPRESENTATION('',(#584),#930);
#939=PRODUCT_DEFINITION_CONTEXT('part definition',#944,'design');
#940=PRODUCT_DEFINITION('gripper_main','gripper_main',#941,#939);
#941=PRODUCT_DEFINITION_FORMATION('',$,#946);
#942=PRODUCT_RELATED_PRODUCT_CATEGORY('gripper_main','gripper_main',(#946));
#943=APPLICATION_PROTOCOL_DEFINITION('international standard',
'automotive_design',2009,#944);
#944=APPLICATION_CONTEXT(
'Core Data for Automotive Mechanical Design Process');
#945=PRODUCT_CONTEXT('part definition',#944,'mechanical');
#946=PRODUCT('gripper_main','gripper_main',$,(#945));
#947=PRESENTATION_STYLE_ASSIGNMENT((#948));
#948=SURFACE_STYLE_USAGE(.BOTH.,#949);
#949=SURFACE_SIDE_STYLE('',(#950));
#950=SURFACE_STYLE_FILL_AREA(#951);
#951=FILL_AREA_STYLE('Steel - Satin',(#952));
#952=FILL_AREA_STYLE_COLOUR('Steel - Satin',#953);
#953=COLOUR_RGB('Steel - Satin',0.627450980392157,0.627450980392157,0.627450980392157);
ENDSEC;
END-ISO-10303-21;
