ISO-10303-21;
HEADER;
/* Generated by software containing ST-Developer
 * from STEP Tools, Inc. (www.steptools.com) 
 */

FILE_DESCRIPTION(
/* description */ (''),
/* implementation_level */ '2;1');

FILE_NAME(
/* name */ 'gripper_servo_connect.step',
/* time_stamp */ '2026-08-31T16:56:24+05:30',
/* author */ (''),
/* organization */ (''),
/* preprocessor_version */ 'ST-DEVELOPER v20.1',
/* originating_system */ 'Autodesk Translation Framework v15.8.0.0',
/* authorisation */ '');

FILE_SCHEMA (('AUTOMOTIVE_DESIGN { 1 0 10303 214 3 1 1 }'));
ENDSEC;

DATA;
#10=MECHANICAL_DESIGN_GEOMETRIC_PRESENTATION_REPRESENTATION('',(#13),#594);
#11=SHAPE_REPRESENTATION_RELATIONSHIP('SRR','None',#601,#12);
#12=ADVANCED_BREP_SHAPE_REPRESENTATION('',(#14),#593);
#13=STYLED_ITEM('',(#610),#14);
#14=MANIFOLD_SOLID_BREP('Body1',#346);
#15=FACE_BOUND('',#63,.T.);
#16=FACE_BOUND('',#70,.T.);
#17=FACE_BOUND('',#71,.T.);
#18=FACE_BOUND('',#72,.T.);
#19=FACE_BOUND('',#73,.T.);
#20=FACE_BOUND('',#74,.T.);
#21=FACE_BOUND('',#75,.T.);
#22=FACE_BOUND('',#77,.T.);
#23=FACE_BOUND('',#78,.T.);
#24=FACE_BOUND('',#79,.T.);
#25=FACE_BOUND('',#80,.T.);
#26=FACE_BOUND('',#81,.T.);
#27=FACE_BOUND('',#82,.T.);
#28=FACE_BOUND('',#83,.T.);
#29=PLANE('',#381);
#30=PLANE('',#382);
#31=PLANE('',#383);
#32=PLANE('',#388);
#33=PLANE('',#391);
#34=PLANE('',#395);
#35=PLANE('',#396);
#36=FACE_OUTER_BOUND('',#53,.T.);
#37=FACE_OUTER_BOUND('',#54,.T.);
#38=FACE_OUTER_BOUND('',#55,.T.);
#39=FACE_OUTER_BOUND('',#56,.T.);
#40=FACE_OUTER_BOUND('',#57,.T.);
#41=FACE_OUTER_BOUND('',#58,.T.);
#42=FACE_OUTER_BOUND('',#59,.T.);
#43=FACE_OUTER_BOUND('',#60,.T.);
#44=FACE_OUTER_BOUND('',#61,.T.);
#45=FACE_OUTER_BOUND('',#62,.T.);
#46=FACE_OUTER_BOUND('',#64,.T.);
#47=FACE_OUTER_BOUND('',#65,.T.);
#48=FACE_OUTER_BOUND('',#66,.T.);
#49=FACE_OUTER_BOUND('',#67,.T.);
#50=FACE_OUTER_BOUND('',#68,.T.);
#51=FACE_OUTER_BOUND('',#69,.T.);
#52=FACE_OUTER_BOUND('',#76,.T.);
#53=EDGE_LOOP('',(#229,#230,#231,#232));
#54=EDGE_LOOP('',(#233,#234,#235,#236));
#55=EDGE_LOOP('',(#237,#238,#239,#240));
#56=EDGE_LOOP('',(#241,#242,#243,#244));
#57=EDGE_LOOP('',(#245,#246,#247,#248));
#58=EDGE_LOOP('',(#249,#250,#251,#252));
#59=EDGE_LOOP('',(#253,#254,#255,#256));
#60=EDGE_LOOP('',(#257,#258,#259,#260));
#61=EDGE_LOOP('',(#261,#262,#263,#264));
#62=EDGE_LOOP('',(#265,#266,#267,#268,#269,#270));
#63=EDGE_LOOP('',(#271));
#64=EDGE_LOOP('',(#272,#273,#274,#275));
#65=EDGE_LOOP('',(#276,#277,#278,#279,#280,#281));
#66=EDGE_LOOP('',(#282,#283,#284,#285));
#67=EDGE_LOOP('',(#286,#287,#288,#289,#290,#291));
#68=EDGE_LOOP('',(#292,#293,#294,#295));
#69=EDGE_LOOP('',(#296,#297,#298,#299,#300,#301));
#70=EDGE_LOOP('',(#302));
#71=EDGE_LOOP('',(#303));
#72=EDGE_LOOP('',(#304));
#73=EDGE_LOOP('',(#305));
#74=EDGE_LOOP('',(#306));
#75=EDGE_LOOP('',(#307));
#76=EDGE_LOOP('',(#308,#309,#310,#311));
#77=EDGE_LOOP('',(#312));
#78=EDGE_LOOP('',(#313));
#79=EDGE_LOOP('',(#314));
#80=EDGE_LOOP('',(#315));
#81=EDGE_LOOP('',(#316));
#82=EDGE_LOOP('',(#317));
#83=EDGE_LOOP('',(#318));
#84=LINE('',#503,#109);
#85=LINE('',#509,#110);
#86=LINE('',#515,#111);
#87=LINE('',#521,#112);
#88=LINE('',#527,#113);
#89=LINE('',#533,#114);
#90=LINE('',#540,#115);
#91=LINE('',#543,#116);
#92=LINE('',#546,#117);
#93=LINE('',#548,#118);
#94=LINE('',#549,#119);
#95=LINE('',#552,#120);
#96=LINE('',#554,#121);
#97=LINE('',#555,#122);
#98=LINE('',#558,#123);
#99=LINE('',#561,#124);
#100=LINE('',#566,#125);
#101=LINE('',#571,#126);
#102=LINE('',#573,#127);
#103=LINE('',#574,#128);
#104=LINE('',#575,#129);
#105=LINE('',#579,#130);
#106=LINE('',#582,#131);
#107=LINE('',#584,#132);
#108=LINE('',#585,#133);
#109=VECTOR('',#403,0.499999999999989);
#110=VECTOR('',#410,0.499999999999998);
#111=VECTOR('',#417,0.499999999999998);
#112=VECTOR('',#424,0.499999999999998);
#113=VECTOR('',#431,0.499999999999998);
#114=VECTOR('',#438,0.499999999999998);
#115=VECTOR('',#445,10.);
#116=VECTOR('',#448,10.);
#117=VECTOR('',#451,10.);
#118=VECTOR('',#452,10.);
#119=VECTOR('',#453,10.);
#120=VECTOR('',#456,10.);
#121=VECTOR('',#457,10.);
#122=VECTOR('',#458,10.);
#123=VECTOR('',#461,10.);
#124=VECTOR('',#464,10.);
#125=VECTOR('',#469,1.25000000000001);
#126=VECTOR('',#474,10.);
#127=VECTOR('',#475,10.);
#128=VECTOR('',#476,10.);
#129=VECTOR('',#477,10.);
#130=VECTOR('',#482,10.);
#131=VECTOR('',#485,10.);
#132=VECTOR('',#486,10.);
#133=VECTOR('',#487,10.);
#134=CIRCLE('',#361,0.499999999999989);
#135=CIRCLE('',#362,0.499999999999989);
#136=CIRCLE('',#364,0.499999999999998);
#137=CIRCLE('',#365,0.499999999999998);
#138=CIRCLE('',#367,0.499999999999998);
#139=CIRCLE('',#368,0.499999999999998);
#140=CIRCLE('',#370,0.499999999999998);
#141=CIRCLE('',#371,0.499999999999998);
#142=CIRCLE('',#373,0.499999999999998);
#143=CIRCLE('',#374,0.499999999999998);
#144=CIRCLE('',#376,0.499999999999998);
#145=CIRCLE('',#377,0.499999999999998);
#146=CIRCLE('',#379,4.67720582546555);
#147=CIRCLE('',#380,4.67720582546555);
#148=CIRCLE('',#384,5.0990195895741);
#149=CIRCLE('',#385,1.25000000000001);
#150=CIRCLE('',#387,1.25000000000001);
#151=CIRCLE('',#390,5.0990195895741);
#152=CIRCLE('',#393,2.54950979478705);
#153=CIRCLE('',#394,2.54950979478705);
#154=VERTEX_POINT('',#500);
#155=VERTEX_POINT('',#502);
#156=VERTEX_POINT('',#506);
#157=VERTEX_POINT('',#508);
#158=VERTEX_POINT('',#512);
#159=VERTEX_POINT('',#514);
#160=VERTEX_POINT('',#518);
#161=VERTEX_POINT('',#520);
#162=VERTEX_POINT('',#524);
#163=VERTEX_POINT('',#526);
#164=VERTEX_POINT('',#530);
#165=VERTEX_POINT('',#532);
#166=VERTEX_POINT('',#536);
#167=VERTEX_POINT('',#537);
#168=VERTEX_POINT('',#539);
#169=VERTEX_POINT('',#541);
#170=VERTEX_POINT('',#545);
#171=VERTEX_POINT('',#547);
#172=VERTEX_POINT('',#551);
#173=VERTEX_POINT('',#553);
#174=VERTEX_POINT('',#557);
#175=VERTEX_POINT('',#559);
#176=VERTEX_POINT('',#562);
#177=VERTEX_POINT('',#565);
#178=VERTEX_POINT('',#569);
#179=VERTEX_POINT('',#570);
#180=VERTEX_POINT('',#572);
#181=VERTEX_POINT('',#577);
#182=VERTEX_POINT('',#581);
#183=VERTEX_POINT('',#583);
#184=EDGE_CURVE('',#154,#154,#134,.T.);
#185=EDGE_CURVE('',#154,#155,#84,.T.);
#186=EDGE_CURVE('',#155,#155,#135,.T.);
#187=EDGE_CURVE('',#156,#156,#136,.T.);
#188=EDGE_CURVE('',#156,#157,#85,.T.);
#189=EDGE_CURVE('',#157,#157,#137,.T.);
#190=EDGE_CURVE('',#158,#158,#138,.T.);
#191=EDGE_CURVE('',#158,#159,#86,.T.);
#192=EDGE_CURVE('',#159,#159,#139,.T.);
#193=EDGE_CURVE('',#160,#160,#140,.T.);
#194=EDGE_CURVE('',#160,#161,#87,.T.);
#195=EDGE_CURVE('',#161,#161,#141,.T.);
#196=EDGE_CURVE('',#162,#162,#142,.T.);
#197=EDGE_CURVE('',#162,#163,#88,.T.);
#198=EDGE_CURVE('',#163,#163,#143,.T.);
#199=EDGE_CURVE('',#164,#164,#144,.T.);
#200=EDGE_CURVE('',#164,#165,#89,.T.);
#201=EDGE_CURVE('',#165,#165,#145,.T.);
#202=EDGE_CURVE('',#166,#167,#146,.T.);
#203=EDGE_CURVE('',#166,#168,#90,.T.);
#204=EDGE_CURVE('',#169,#168,#147,.T.);
#205=EDGE_CURVE('',#167,#169,#91,.T.);
#206=EDGE_CURVE('',#167,#170,#92,.T.);
#207=EDGE_CURVE('',#171,#169,#93,.T.);
#208=EDGE_CURVE('',#170,#171,#94,.T.);
#209=EDGE_CURVE('',#172,#166,#95,.T.);
#210=EDGE_CURVE('',#172,#173,#96,.T.);
#211=EDGE_CURVE('',#168,#173,#97,.T.);
#212=EDGE_CURVE('',#173,#174,#98,.T.);
#213=EDGE_CURVE('',#174,#175,#148,.T.);
#214=EDGE_CURVE('',#175,#171,#99,.T.);
#215=EDGE_CURVE('',#176,#176,#149,.T.);
#216=EDGE_CURVE('',#176,#177,#100,.T.);
#217=EDGE_CURVE('',#177,#177,#150,.T.);
#218=EDGE_CURVE('',#178,#179,#101,.T.);
#219=EDGE_CURVE('',#178,#180,#102,.T.);
#220=EDGE_CURVE('',#170,#180,#103,.T.);
#221=EDGE_CURVE('',#179,#175,#104,.T.);
#222=EDGE_CURVE('',#181,#179,#151,.T.);
#223=EDGE_CURVE('',#181,#174,#105,.T.);
#224=EDGE_CURVE('',#182,#181,#106,.T.);
#225=EDGE_CURVE('',#183,#172,#107,.T.);
#226=EDGE_CURVE('',#182,#183,#108,.T.);
#227=EDGE_CURVE('',#178,#182,#152,.T.);
#228=EDGE_CURVE('',#180,#183,#153,.T.);
#229=ORIENTED_EDGE('',*,*,#184,.F.);
#230=ORIENTED_EDGE('',*,*,#185,.T.);
#231=ORIENTED_EDGE('',*,*,#186,.F.);
#232=ORIENTED_EDGE('',*,*,#185,.F.);
#233=ORIENTED_EDGE('',*,*,#187,.F.);
#234=ORIENTED_EDGE('',*,*,#188,.T.);
#235=ORIENTED_EDGE('',*,*,#189,.F.);
#236=ORIENTED_EDGE('',*,*,#188,.F.);
#237=ORIENTED_EDGE('',*,*,#190,.F.);
#238=ORIENTED_EDGE('',*,*,#191,.T.);
#239=ORIENTED_EDGE('',*,*,#192,.F.);
#240=ORIENTED_EDGE('',*,*,#191,.F.);
#241=ORIENTED_EDGE('',*,*,#193,.F.);
#242=ORIENTED_EDGE('',*,*,#194,.T.);
#243=ORIENTED_EDGE('',*,*,#195,.F.);
#244=ORIENTED_EDGE('',*,*,#194,.F.);
#245=ORIENTED_EDGE('',*,*,#196,.F.);
#246=ORIENTED_EDGE('',*,*,#197,.T.);
#247=ORIENTED_EDGE('',*,*,#198,.F.);
#248=ORIENTED_EDGE('',*,*,#197,.F.);
#249=ORIENTED_EDGE('',*,*,#199,.F.);
#250=ORIENTED_EDGE('',*,*,#200,.T.);
#251=ORIENTED_EDGE('',*,*,#201,.F.);
#252=ORIENTED_EDGE('',*,*,#200,.F.);
#253=ORIENTED_EDGE('',*,*,#202,.F.);
#254=ORIENTED_EDGE('',*,*,#203,.T.);
#255=ORIENTED_EDGE('',*,*,#204,.F.);
#256=ORIENTED_EDGE('',*,*,#205,.F.);
#257=ORIENTED_EDGE('',*,*,#206,.F.);
#258=ORIENTED_EDGE('',*,*,#205,.T.);
#259=ORIENTED_EDGE('',*,*,#207,.F.);
#260=ORIENTED_EDGE('',*,*,#208,.F.);
#261=ORIENTED_EDGE('',*,*,#209,.F.);
#262=ORIENTED_EDGE('',*,*,#210,.T.);
#263=ORIENTED_EDGE('',*,*,#211,.F.);
#264=ORIENTED_EDGE('',*,*,#203,.F.);
#265=ORIENTED_EDGE('',*,*,#211,.T.);
#266=ORIENTED_EDGE('',*,*,#212,.T.);
#267=ORIENTED_EDGE('',*,*,#213,.T.);
#268=ORIENTED_EDGE('',*,*,#214,.T.);
#269=ORIENTED_EDGE('',*,*,#207,.T.);
#270=ORIENTED_EDGE('',*,*,#204,.T.);
#271=ORIENTED_EDGE('',*,*,#215,.T.);
#272=ORIENTED_EDGE('',*,*,#215,.F.);
#273=ORIENTED_EDGE('',*,*,#216,.T.);
#274=ORIENTED_EDGE('',*,*,#217,.F.);
#275=ORIENTED_EDGE('',*,*,#216,.F.);
#276=ORIENTED_EDGE('',*,*,#218,.F.);
#277=ORIENTED_EDGE('',*,*,#219,.T.);
#278=ORIENTED_EDGE('',*,*,#220,.F.);
#279=ORIENTED_EDGE('',*,*,#208,.T.);
#280=ORIENTED_EDGE('',*,*,#214,.F.);
#281=ORIENTED_EDGE('',*,*,#221,.F.);
#282=ORIENTED_EDGE('',*,*,#222,.T.);
#283=ORIENTED_EDGE('',*,*,#221,.T.);
#284=ORIENTED_EDGE('',*,*,#213,.F.);
#285=ORIENTED_EDGE('',*,*,#223,.F.);
#286=ORIENTED_EDGE('',*,*,#224,.T.);
#287=ORIENTED_EDGE('',*,*,#223,.T.);
#288=ORIENTED_EDGE('',*,*,#212,.F.);
#289=ORIENTED_EDGE('',*,*,#210,.F.);
#290=ORIENTED_EDGE('',*,*,#225,.F.);
#291=ORIENTED_EDGE('',*,*,#226,.F.);
#292=ORIENTED_EDGE('',*,*,#227,.T.);
#293=ORIENTED_EDGE('',*,*,#226,.T.);
#294=ORIENTED_EDGE('',*,*,#228,.F.);
#295=ORIENTED_EDGE('',*,*,#219,.F.);
#296=ORIENTED_EDGE('',*,*,#206,.T.);
#297=ORIENTED_EDGE('',*,*,#220,.T.);
#298=ORIENTED_EDGE('',*,*,#228,.T.);
#299=ORIENTED_EDGE('',*,*,#225,.T.);
#300=ORIENTED_EDGE('',*,*,#209,.T.);
#301=ORIENTED_EDGE('',*,*,#202,.T.);
#302=ORIENTED_EDGE('',*,*,#201,.T.);
#303=ORIENTED_EDGE('',*,*,#198,.T.);
#304=ORIENTED_EDGE('',*,*,#195,.T.);
#305=ORIENTED_EDGE('',*,*,#192,.T.);
#306=ORIENTED_EDGE('',*,*,#189,.T.);
#307=ORIENTED_EDGE('',*,*,#186,.T.);
#308=ORIENTED_EDGE('',*,*,#227,.F.);
#309=ORIENTED_EDGE('',*,*,#218,.T.);
#310=ORIENTED_EDGE('',*,*,#222,.F.);
#311=ORIENTED_EDGE('',*,*,#224,.F.);
#312=ORIENTED_EDGE('',*,*,#217,.T.);
#313=ORIENTED_EDGE('',*,*,#199,.T.);
#314=ORIENTED_EDGE('',*,*,#196,.T.);
#315=ORIENTED_EDGE('',*,*,#193,.T.);
#316=ORIENTED_EDGE('',*,*,#190,.T.);
#317=ORIENTED_EDGE('',*,*,#187,.T.);
#318=ORIENTED_EDGE('',*,*,#184,.T.);
#319=CYLINDRICAL_SURFACE('',#360,0.499999999999989);
#320=CYLINDRICAL_SURFACE('',#363,0.499999999999998);
#321=CYLINDRICAL_SURFACE('',#366,0.499999999999998);
#322=CYLINDRICAL_SURFACE('',#369,0.499999999999998);
#323=CYLINDRICAL_SURFACE('',#372,0.499999999999998);
#324=CYLINDRICAL_SURFACE('',#375,0.499999999999998);
#325=CYLINDRICAL_SURFACE('',#378,4.67720582546555);
#326=CYLINDRICAL_SURFACE('',#386,1.25000000000001);
#327=CYLINDRICAL_SURFACE('',#389,5.0990195895741);
#328=CYLINDRICAL_SURFACE('',#392,2.54950979478705);
#329=ADVANCED_FACE('',(#36),#319,.F.);
#330=ADVANCED_FACE('',(#37),#320,.F.);
#331=ADVANCED_FACE('',(#38),#321,.F.);
#332=ADVANCED_FACE('',(#39),#322,.F.);
#333=ADVANCED_FACE('',(#40),#323,.F.);
#334=ADVANCED_FACE('',(#41),#324,.F.);
#335=ADVANCED_FACE('',(#42),#325,.T.);
#336=ADVANCED_FACE('',(#43),#29,.T.);
#337=ADVANCED_FACE('',(#44),#30,.T.);
#338=ADVANCED_FACE('',(#45,#15),#31,.T.);
#339=ADVANCED_FACE('',(#46),#326,.F.);
#340=ADVANCED_FACE('',(#47),#32,.T.);
#341=ADVANCED_FACE('',(#48),#327,.T.);
#342=ADVANCED_FACE('',(#49),#33,.T.);
#343=ADVANCED_FACE('',(#50),#328,.T.);
#344=ADVANCED_FACE('',(#51,#16,#17,#18,#19,#20,#21),#34,.T.);
#345=ADVANCED_FACE('',(#52,#22,#23,#24,#25,#26,#27,#28),#35,.F.);
#346=CLOSED_SHELL('',(#329,#330,#331,#332,#333,#334,#335,#336,#337,#338,
#339,#340,#341,#342,#343,#344,#345));
#347=DERIVED_UNIT_ELEMENT(#349,1.);
#348=DERIVED_UNIT_ELEMENT(#596,-3.);
#349=(
MASS_UNIT()
NAMED_UNIT(*)
SI_UNIT(.KILO.,.GRAM.)
);
#350=DERIVED_UNIT((#347,#348));
#351=MEASURE_REPRESENTATION_ITEM('density measure',
POSITIVE_RATIO_MEASURE(7850.),#350);
#352=PROPERTY_DEFINITION_REPRESENTATION(#357,#354);
#353=PROPERTY_DEFINITION_REPRESENTATION(#358,#355);
#354=REPRESENTATION('material name',(#356),#593);
#355=REPRESENTATION('density',(#351),#593);
#356=DESCRIPTIVE_REPRESENTATION_ITEM('Steel','Steel');
#357=PROPERTY_DEFINITION('material property','material name',#603);
#358=PROPERTY_DEFINITION('material property','density of part',#603);
#359=AXIS2_PLACEMENT_3D('',#498,#397,#398);
#360=AXIS2_PLACEMENT_3D('',#499,#399,#400);
#361=AXIS2_PLACEMENT_3D('',#501,#401,#402);
#362=AXIS2_PLACEMENT_3D('',#504,#404,#405);
#363=AXIS2_PLACEMENT_3D('',#505,#406,#407);
#364=AXIS2_PLACEMENT_3D('',#507,#408,#409);
#365=AXIS2_PLACEMENT_3D('',#510,#411,#412);
#366=AXIS2_PLACEMENT_3D('',#511,#413,#414);
#367=AXIS2_PLACEMENT_3D('',#513,#415,#416);
#368=AXIS2_PLACEMENT_3D('',#516,#418,#419);
#369=AXIS2_PLACEMENT_3D('',#517,#420,#421);
#370=AXIS2_PLACEMENT_3D('',#519,#422,#423);
#371=AXIS2_PLACEMENT_3D('',#522,#425,#426);
#372=AXIS2_PLACEMENT_3D('',#523,#427,#428);
#373=AXIS2_PLACEMENT_3D('',#525,#429,#430);
#374=AXIS2_PLACEMENT_3D('',#528,#432,#433);
#375=AXIS2_PLACEMENT_3D('',#529,#434,#435);
#376=AXIS2_PLACEMENT_3D('',#531,#436,#437);
#377=AXIS2_PLACEMENT_3D('',#534,#439,#440);
#378=AXIS2_PLACEMENT_3D('',#535,#441,#442);
#379=AXIS2_PLACEMENT_3D('',#538,#443,#444);
#380=AXIS2_PLACEMENT_3D('',#542,#446,#447);
#381=AXIS2_PLACEMENT_3D('',#544,#449,#450);
#382=AXIS2_PLACEMENT_3D('',#550,#454,#455);
#383=AXIS2_PLACEMENT_3D('',#556,#459,#460);
#384=AXIS2_PLACEMENT_3D('',#560,#462,#463);
#385=AXIS2_PLACEMENT_3D('',#563,#465,#466);
#386=AXIS2_PLACEMENT_3D('',#564,#467,#468);
#387=AXIS2_PLACEMENT_3D('',#567,#470,#471);
#388=AXIS2_PLACEMENT_3D('',#568,#472,#473);
#389=AXIS2_PLACEMENT_3D('',#576,#478,#479);
#390=AXIS2_PLACEMENT_3D('',#578,#480,#481);
#391=AXIS2_PLACEMENT_3D('',#580,#483,#484);
#392=AXIS2_PLACEMENT_3D('',#586,#488,#489);
#393=AXIS2_PLACEMENT_3D('',#587,#490,#491);
#394=AXIS2_PLACEMENT_3D('',#588,#492,#493);
#395=AXIS2_PLACEMENT_3D('',#589,#494,#495);
#396=AXIS2_PLACEMENT_3D('',#590,#496,#497);
#397=DIRECTION('axis',(0.,0.,1.));
#398=DIRECTION('refdir',(1.,0.,0.));
#399=DIRECTION('center_axis',(0.,0.,1.));
#400=DIRECTION('ref_axis',(1.,0.,0.));
#401=DIRECTION('center_axis',(0.,0.,1.));
#402=DIRECTION('ref_axis',(1.,0.,0.));
#403=DIRECTION('',(0.,0.,1.));
#404=DIRECTION('center_axis',(0.,0.,-1.));
#405=DIRECTION('ref_axis',(1.,0.,0.));
#406=DIRECTION('center_axis',(0.,0.,1.));
#407=DIRECTION('ref_axis',(1.,0.,0.));
#408=DIRECTION('center_axis',(0.,0.,1.));
#409=DIRECTION('ref_axis',(1.,0.,0.));
#410=DIRECTION('',(0.,0.,1.));
#411=DIRECTION('center_axis',(0.,0.,-1.));
#412=DIRECTION('ref_axis',(1.,0.,0.));
#413=DIRECTION('center_axis',(0.,0.,1.));
#414=DIRECTION('ref_axis',(1.,0.,0.));
#415=DIRECTION('center_axis',(0.,0.,1.));
#416=DIRECTION('ref_axis',(1.,0.,0.));
#417=DIRECTION('',(0.,0.,1.));
#418=DIRECTION('center_axis',(0.,0.,-1.));
#419=DIRECTION('ref_axis',(1.,0.,0.));
#420=DIRECTION('center_axis',(0.,0.,1.));
#421=DIRECTION('ref_axis',(1.,0.,0.));
#422=DIRECTION('center_axis',(0.,0.,1.));
#423=DIRECTION('ref_axis',(1.,0.,0.));
#424=DIRECTION('',(0.,0.,1.));
#425=DIRECTION('center_axis',(0.,0.,-1.));
#426=DIRECTION('ref_axis',(1.,0.,0.));
#427=DIRECTION('center_axis',(0.,0.,1.));
#428=DIRECTION('ref_axis',(1.,0.,0.));
#429=DIRECTION('center_axis',(0.,0.,1.));
#430=DIRECTION('ref_axis',(1.,0.,0.));
#431=DIRECTION('',(0.,0.,1.));
#432=DIRECTION('center_axis',(0.,0.,-1.));
#433=DIRECTION('ref_axis',(1.,0.,0.));
#434=DIRECTION('center_axis',(0.,0.,1.));
#435=DIRECTION('ref_axis',(1.,0.,0.));
#436=DIRECTION('center_axis',(0.,0.,1.));
#437=DIRECTION('ref_axis',(1.,0.,0.));
#438=DIRECTION('',(0.,0.,1.));
#439=DIRECTION('center_axis',(0.,0.,-1.));
#440=DIRECTION('ref_axis',(1.,0.,0.));
#441=DIRECTION('center_axis',(0.,0.,1.));
#442=DIRECTION('ref_axis',(-1.,0.,0.));
#443=DIRECTION('center_axis',(0.,0.,-1.));
#444=DIRECTION('ref_axis',(-1.,0.,0.));
#445=DIRECTION('',(0.,0.,1.));
#446=DIRECTION('center_axis',(0.,0.,1.));
#447=DIRECTION('ref_axis',(-1.,0.,0.));
#448=DIRECTION('',(0.,0.,1.));
#449=DIRECTION('center_axis',(-0.19611613513822,0.980580675690913,0.));
#450=DIRECTION('ref_axis',(-0.980580675690913,-0.19611613513822,0.));
#451=DIRECTION('',(0.980580675690913,0.19611613513822,0.));
#452=DIRECTION('',(-0.980580675690913,-0.19611613513822,0.));
#453=DIRECTION('',(0.,0.,1.));
#454=DIRECTION('center_axis',(0.,1.,0.));
#455=DIRECTION('ref_axis',(-1.,0.,0.));
#456=DIRECTION('',(1.,0.,0.));
#457=DIRECTION('',(0.,0.,1.));
#458=DIRECTION('',(-1.,0.,0.));
#459=DIRECTION('center_axis',(0.,0.,1.));
#460=DIRECTION('ref_axis',(-1.,0.,0.));
#461=DIRECTION('',(-0.132409950443779,-0.991195038841234,0.));
#462=DIRECTION('center_axis',(0.,0.,1.));
#463=DIRECTION('ref_axis',(-0.98058067569092,-0.196116135138184,0.));
#464=DIRECTION('',(-0.196116135138185,0.98058067569092,0.));
#465=DIRECTION('center_axis',(0.,0.,-1.));
#466=DIRECTION('ref_axis',(-1.,0.,0.));
#467=DIRECTION('center_axis',(0.,0.,1.));
#468=DIRECTION('ref_axis',(1.,0.,0.));
#469=DIRECTION('',(0.,0.,-1.));
#470=DIRECTION('center_axis',(0.,0.,1.));
#471=DIRECTION('ref_axis',(1.,0.,0.));
#472=DIRECTION('center_axis',(0.98058067569092,0.196116135138184,0.));
#473=DIRECTION('ref_axis',(-0.196116135138184,0.98058067569092,0.));
#474=DIRECTION('',(0.196116135138184,-0.98058067569092,0.));
#475=DIRECTION('',(0.,0.,1.));
#476=DIRECTION('',(-0.196116135138184,0.98058067569092,0.));
#477=DIRECTION('',(0.,0.,1.));
#478=DIRECTION('center_axis',(0.,0.,1.));
#479=DIRECTION('ref_axis',(-0.98058067569092,-0.196116135138184,0.));
#480=DIRECTION('center_axis',(0.,0.,1.));
#481=DIRECTION('ref_axis',(-0.98058067569092,-0.196116135138184,0.));
#482=DIRECTION('',(0.,0.,1.));
#483=DIRECTION('center_axis',(-0.991195038841234,0.13240995044378,0.));
#484=DIRECTION('ref_axis',(-0.13240995044378,-0.991195038841234,0.));
#485=DIRECTION('',(-0.13240995044378,-0.991195038841234,0.));
#486=DIRECTION('',(-0.13240995044378,-0.991195038841234,0.));
#487=DIRECTION('',(0.,0.,1.));
#488=DIRECTION('center_axis',(0.,0.,1.));
#489=DIRECTION('ref_axis',(0.98058067569092,0.196116135138184,0.));
#490=DIRECTION('center_axis',(0.,0.,1.));
#491=DIRECTION('ref_axis',(0.98058067569092,0.196116135138184,0.));
#492=DIRECTION('center_axis',(0.,0.,1.));
#493=DIRECTION('ref_axis',(0.98058067569092,0.196116135138184,0.));
#494=DIRECTION('center_axis',(0.,0.,1.));
#495=DIRECTION('ref_axis',(1.,0.,0.));
#496=DIRECTION('center_axis',(0.,0.,1.));
#497=DIRECTION('ref_axis',(1.,0.,0.));
#498=CARTESIAN_POINT('',(0.,0.,0.));
#499=CARTESIAN_POINT('Origin',(-42.1916948190034,228.486470950133,0.));
#500=CARTESIAN_POINT('',(-42.6916948190034,228.486470950133,0.));
#501=CARTESIAN_POINT('Origin',(-42.1916948190034,228.486470950133,0.));
#502=CARTESIAN_POINT('',(-42.6916948190034,228.486470950133,1.5));
#503=CARTESIAN_POINT('',(-42.6916948190034,228.486470950133,0.));
#504=CARTESIAN_POINT('Origin',(-42.1916948190034,228.486470950133,1.5));
#505=CARTESIAN_POINT('Origin',(-42.5000006332994,236.000003516674,0.));
#506=CARTESIAN_POINT('',(-43.0000006332994,236.000003516674,0.));
#507=CARTESIAN_POINT('Origin',(-42.5000006332994,236.000003516674,0.));
#508=CARTESIAN_POINT('',(-43.0000006332994,236.000003516674,1.5));
#509=CARTESIAN_POINT('',(-43.0000006332994,236.000003516674,0.));
#510=CARTESIAN_POINT('Origin',(-42.5000006332994,236.000003516674,1.5));
#511=CARTESIAN_POINT('Origin',(-42.4606151954507,234.125916985692,0.));
#512=CARTESIAN_POINT('',(-42.9606151954507,234.125916985692,0.));
#513=CARTESIAN_POINT('Origin',(-42.4606151954507,234.125916985692,0.));
#514=CARTESIAN_POINT('',(-42.9606151954507,234.125916985692,1.5));
#515=CARTESIAN_POINT('',(-42.9606151954507,234.125916985692,0.));
#516=CARTESIAN_POINT('Origin',(-42.4606151954507,234.125916985692,1.5));
#517=CARTESIAN_POINT('Origin',(-42.4214180164453,232.260614133015,0.));
#518=CARTESIAN_POINT('',(-42.9214180164453,232.260614133015,0.));
#519=CARTESIAN_POINT('Origin',(-42.4214180164453,232.260614133015,0.));
#520=CARTESIAN_POINT('',(-42.9214180164453,232.260614133015,1.5));
#521=CARTESIAN_POINT('',(-42.9214180164453,232.260614133015,0.));
#522=CARTESIAN_POINT('Origin',(-42.4214180164453,232.260614133015,1.5));
#523=CARTESIAN_POINT('Origin',(-42.3052414443656,230.34129167093,0.));
#524=CARTESIAN_POINT('',(-42.8052414443656,230.34129167093,0.));
#525=CARTESIAN_POINT('Origin',(-42.3052414443656,230.34129167093,0.));
#526=CARTESIAN_POINT('',(-42.8052414443656,230.34129167093,1.5));
#527=CARTESIAN_POINT('',(-42.8052414443656,230.34129167093,0.));
#528=CARTESIAN_POINT('Origin',(-42.3052414443656,230.34129167093,1.5));
#529=CARTESIAN_POINT('Origin',(-42.0366799431206,226.48844408992,0.));
#530=CARTESIAN_POINT('',(-42.5366799431206,226.48844408992,0.));
#531=CARTESIAN_POINT('Origin',(-42.0366799431206,226.48844408992,0.));
#532=CARTESIAN_POINT('',(-42.5366799431206,226.48844408992,1.5));
#533=CARTESIAN_POINT('',(-42.5366799431206,226.48844408992,0.));
#534=CARTESIAN_POINT('Origin',(-42.0366799431206,226.48844408992,1.5));
#535=CARTESIAN_POINT('Origin',(-42.0000006258488,221.000003293157,1.5));
#536=CARTESIAN_POINT('',(-46.6498058230543,221.505538615176,1.5));
#537=CARTESIAN_POINT('',(-37.3501940110357,221.505525576157,1.5));
#538=CARTESIAN_POINT('Origin',(-42.0000006258488,221.000003293157,1.5));
#539=CARTESIAN_POINT('',(-46.6498058230543,221.505538615176,5.5));
#540=CARTESIAN_POINT('',(-46.6498058230543,221.505538615176,1.5));
#541=CARTESIAN_POINT('',(-37.3501940110357,221.505525576157,5.5));
#542=CARTESIAN_POINT('Origin',(-42.0000006258488,221.000003293157,5.5));
#543=CARTESIAN_POINT('',(-37.3501940110357,221.505525576157,1.5));
#544=CARTESIAN_POINT('Origin',(-37.3029930493891,221.514965768486,1.5));
#545=CARTESIAN_POINT('',(-37.3029930493891,221.514965768486,1.5));
#546=CARTESIAN_POINT('',(-39.0842195065466,221.158720477055,1.5));
#547=CARTESIAN_POINT('',(-37.3029930493891,221.514965768486,5.5));
#548=CARTESIAN_POINT('',(-37.3501940110357,221.505525576157,5.5));
#549=CARTESIAN_POINT('',(-37.3029930493891,221.514965768486,1.5));
#550=CARTESIAN_POINT('Origin',(-46.6498058230543,221.505538615176,1.5));
#551=CARTESIAN_POINT('',(-46.7988819986447,221.505538615176,1.5));
#552=CARTESIAN_POINT('',(-44.3249032244515,221.505538615176,1.5));
#553=CARTESIAN_POINT('',(-46.7988819986447,221.505538615176,5.5));
#554=CARTESIAN_POINT('',(-46.7988819986447,221.505538615176,1.5));
#555=CARTESIAN_POINT('',(-46.6498058230543,221.505538615176,5.5));
#556=CARTESIAN_POINT('Origin',(-42.0000006258488,226.475248496346,5.5));
#557=CARTESIAN_POINT('',(-47.0000007003546,220.000003278255,5.5));
#558=CARTESIAN_POINT('',(-47.0000007003546,220.000003278255,5.5));
#559=CARTESIAN_POINT('',(-37.000000551343,220.000003278255,5.5));
#560=CARTESIAN_POINT('Origin',(-42.0000006258488,221.000003293157,5.5));
#561=CARTESIAN_POINT('',(-37.000000551343,220.000003278255,5.5));
#562=CARTESIAN_POINT('',(-43.2500006258488,221.000003293157,5.5));
#563=CARTESIAN_POINT('Origin',(-42.0000006258488,221.000003293157,5.5));
#564=CARTESIAN_POINT('Origin',(-42.0000006258488,221.000003293157,0.));
#565=CARTESIAN_POINT('',(-43.2500006258488,221.000003293157,0.));
#566=CARTESIAN_POINT('',(-43.2500006258488,221.000003293157,0.));
#567=CARTESIAN_POINT('Origin',(-42.0000006258488,221.000003293157,0.));
#568=CARTESIAN_POINT('Origin',(-37.000000551343,220.000003278255,0.));
#569=CARTESIAN_POINT('',(-40.0000005960464,235.000003501773,0.));
#570=CARTESIAN_POINT('',(-37.000000551343,220.000003278255,0.));
#571=CARTESIAN_POINT('',(-40.0000005960464,235.000003501773,0.));
#572=CARTESIAN_POINT('',(-40.0000005960464,235.000003501773,1.5));
#573=CARTESIAN_POINT('',(-40.0000005960464,235.000003501773,0.));
#574=CARTESIAN_POINT('',(-40.0000005960464,235.000003501773,1.5));
#575=CARTESIAN_POINT('',(-37.000000551343,220.000003278255,0.));
#576=CARTESIAN_POINT('Origin',(-42.0000006258488,221.000003293157,0.));
#577=CARTESIAN_POINT('',(-47.0000007003546,220.000003278255,0.));
#578=CARTESIAN_POINT('Origin',(-42.0000006258488,221.000003293157,0.));
#579=CARTESIAN_POINT('',(-47.0000007003546,220.000003278255,0.));
#580=CARTESIAN_POINT('Origin',(-44.9896057687958,235.049427249747,0.));
#581=CARTESIAN_POINT('',(-44.9896057687958,235.049427249747,0.));
#582=CARTESIAN_POINT('',(-44.9896057687958,235.049427249747,0.));
#583=CARTESIAN_POINT('',(-44.9896057687958,235.049427249747,1.5));
#584=CARTESIAN_POINT('',(-44.9896057687958,235.049427249747,1.5));
#585=CARTESIAN_POINT('',(-44.9896057687958,235.049427249747,0.));
#586=CARTESIAN_POINT('Origin',(-42.5000006332994,234.500003494322,0.));
#587=CARTESIAN_POINT('Origin',(-42.5000006332994,234.500003494322,0.));
#588=CARTESIAN_POINT('Origin',(-42.5000006332994,234.500003494322,1.5));
#589=CARTESIAN_POINT('Origin',(-42.0000006258488,226.475248496346,1.5));
#590=CARTESIAN_POINT('Origin',(-42.0000006258488,226.475248496346,0.));
#591=UNCERTAINTY_MEASURE_WITH_UNIT(LENGTH_MEASURE(0.01),#595,
'DISTANCE_ACCURACY_VALUE',
'Maximum model space distance between geometric entities at asserted c
onnectivities');
#592=UNCERTAINTY_MEASURE_WITH_UNIT(LENGTH_MEASURE(0.01),#595,
'DISTANCE_ACCURACY_VALUE',
'Maximum model space distance between geometric entities at asserted c
onnectivities');
#593=(
GEOMETRIC_REPRESENTATION_CONTEXT(3)
GLOBAL_UNCERTAINTY_ASSIGNED_CONTEXT((#591))
GLOBAL_UNIT_ASSIGNED_CONTEXT((#595,#597,#598))
REPRESENTATION_CONTEXT('','3D')
);
#594=(
GEOMETRIC_REPRESENTATION_CONTEXT(3)
GLOBAL_UNCERTAINTY_ASSIGNED_CONTEXT((#592))
GLOBAL_UNIT_ASSIGNED_CONTEXT((#595,#597,#598))
REPRESENTATION_CONTEXT('','3D')
);
#595=(
LENGTH_UNIT()
NAMED_UNIT(*)
SI_UNIT(.MILLI.,.METRE.)
);
#596=(
LENGTH_UNIT()
NAMED_UNIT(*)
SI_UNIT($,.METRE.)
);
#597=(
NAMED_UNIT(*)
PLANE_ANGLE_UNIT()
SI_UNIT($,.RADIAN.)
);
#598=(
NAMED_UNIT(*)
SI_UNIT($,.STERADIAN.)
SOLID_ANGLE_UNIT()
);
#599=SHAPE_DEFINITION_REPRESENTATION(#600,#601);
#600=PRODUCT_DEFINITION_SHAPE('',$,#603);
#601=SHAPE_REPRESENTATION('',(#359),#593);
#602=PRODUCT_DEFINITION_CONTEXT('part definition',#607,'design');
#603=PRODUCT_DEFINITION('gripper_servo_connect','gripper_servo_connect',
#604,#602);
#604=PRODUCT_DEFINITION_FORMATION('',$,#609);
#605=PRODUCT_RELATED_PRODUCT_CATEGORY('gripper_servo_connect',
'gripper_servo_connect',(#609));
#606=APPLICATION_PROTOCOL_DEFINITION('international standard',
'automotive_design',2009,#607);
#607=APPLICATION_CONTEXT(
'Core Data for Automotive Mechanical Design Process');
#608=PRODUCT_CONTEXT('part definition',#607,'mechanical');
#609=PRODUCT('gripper_servo_connect','gripper_servo_connect',$,(#608));
#610=PRESENTATION_STYLE_ASSIGNMENT((#611));
#611=SURFACE_STYLE_USAGE(.BOTH.,#612);
#612=SURFACE_SIDE_STYLE('',(#613));
#613=SURFACE_STYLE_FILL_AREA(#614);
#614=FILL_AREA_STYLE('Steel - Satin',(#615));
#615=FILL_AREA_STYLE_COLOUR('Steel - Satin',#616);
#616=COLOUR_RGB('Steel - Satin',0.627450980392157,0.627450980392157,0.627450980392157);
ENDSEC;
END-ISO-10303-21;
